<?xml version="1.0" encoding="UTF-8"?>
<svg id="Layer_2" xmlns="http://www.w3.org/2000/svg" viewBox="0 0 623.62 368.5">
  <defs>
    <style>
      .cls-1 {
        fill: #231f20;
      }

      .cls-2 {
        fill: #fff;
      }
    </style>
  </defs>
  <g id="Layer_1-2" data-name="Layer_1">
    <rect class="cls-2" x="0" y="0" width="623.62" height="368.5" transform="translate(623.62 368.5) rotate(-180)"/>
    <g>
      <rect class="cls-2" x="304.38" y="147.06" width="7.76" height="7.76"/>
      <path class="cls-1" d="M311.71,147.48v6.91h-6.91v-6.91h6.91M312.56,146.63h-8.61v8.61h8.61v-8.61h0Z"/>
    </g>
    <g>
      <rect class="cls-2" x="245.33" y="201.09" width="12.92" height="12.92"/>
      <path class="cls-1" d="M257.83,201.51v12.07h-12.07v-12.07h12.07M258.68,200.66h-13.77v13.77h13.77v-13.77h0Z"/>
    </g>
    <g>
      <rect class="cls-2" x="370.53" y="201.42" width="7.76" height="7.76"/>
      <path class="cls-1" d="M377.86,201.84v6.91h-6.91v-6.91h6.91M378.71,200.99h-8.61v8.61h8.61v-8.61h0Z"/>
    </g>
    <g>
      <rect class="cls-2" x="358.26" y="201.42" width="7.76" height="7.76"/>
      <path class="cls-1" d="M365.59,201.84v6.91h-6.91v-6.91h6.91M366.44,200.99h-8.61v8.61h8.61v-8.61h0Z"/>
    </g>
    <g>
      <rect class="cls-2" x="358.26" y="213.69" width="7.76" height="7.76"/>
      <path class="cls-1" d="M365.59,214.11v6.91h-6.91v-6.91h6.91M366.44,213.26h-8.61v8.61h8.61v-8.61h0Z"/>
    </g>
    <g>
      <rect class="cls-2" x="370.53" y="213.69" width="7.76" height="7.76"/>
      <path class="cls-1" d="M377.86,214.11v6.91h-6.91v-6.91h6.91M378.71,213.26h-8.61v8.61h8.61v-8.61h0Z"/>
    </g>
  </g>
</svg>