<?xml version="1.0" encoding="UTF-8"?>
<svg id="Layer_2" xmlns="http://www.w3.org/2000/svg" viewBox="0 0 623.62 368.5">
  <defs>
    <style>
      .cls-1 {
        fill: #231f20;
      }

      .cls-2 {
        fill: #fff;
      }
    </style>
  </defs>
  <g id="Layer_1-2" data-name="Layer_1">
    <rect class="cls-2" width="623.62" height="368.5"/>
    <g>
      <rect class="cls-2" x="307.93" y="147.06" width="7.76" height="7.76"/>
      <path class="cls-1" d="M315.26,147.48v6.91h-6.91v-6.91h6.91M316.12,146.63h-8.61v8.61h8.61v-8.61h0Z"/>
    </g>
    <g>
      <rect class="cls-2" x="362.45" y="201.34" width="12.41" height="12.41"/>
      <path class="cls-1" d="M374.18,202.02v11.05h-11.05v-11.05h11.05M375.54,200.66h-13.77v13.77h13.77v-13.77h0Z"/>
    </g>
    <g>
      <rect class="cls-2" x="241.58" y="201.09" width="7.76" height="7.76"/>
      <path class="cls-1" d="M248.91,201.51v6.91h-6.91v-6.91h6.91M249.76,200.66h-8.61v8.61h8.61v-8.61h0Z"/>
    </g>
    <g>
      <rect class="cls-2" x="253.85" y="201.09" width="7.76" height="7.76"/>
      <path class="cls-1" d="M261.18,201.51v6.91h-6.91v-6.91h6.91M262.03,200.66h-8.61v8.61h8.61v-8.61h0Z"/>
    </g>
    <g>
      <rect class="cls-2" x="253.85" y="213.36" width="7.76" height="7.76"/>
      <path class="cls-1" d="M261.18,213.78v6.91h-6.91v-6.91h6.91M262.03,212.93h-8.61v8.61h8.61v-8.61h0Z"/>
    </g>
    <g>
      <rect class="cls-2" x="241.58" y="213.36" width="7.76" height="7.76"/>
      <path class="cls-1" d="M248.91,213.78v6.91h-6.91v-6.91h6.91M249.76,212.93h-8.61v8.61h8.61v-8.61h0Z"/>
    </g>
  </g>
</svg>