<?xml version="1.0" encoding="UTF-8"?>
<svg id="Layer_2" xmlns="http://www.w3.org/2000/svg" viewBox="0 0 623.62 368.5">
  <defs>
    <style>
      .cls-1 {
        fill: #231f20;
      }

      .cls-2 {
        fill: #fff;
      }
    </style>
  </defs>
  <g id="Layer_1-2" data-name="Layer_1">
    <rect class="cls-2" width="623.62" height="368.5"/>
    <g>
      <rect class="cls-2" x="307.93" y="147.06" width="7.76" height="7.76"/>
      <path class="cls-1" d="M315.27,147.48v6.91h-6.91v-6.91h6.91M316.12,146.63h-8.61v8.61h8.61v-8.61h0Z"/>
    </g>
    <g>
      <rect class="cls-2" x="361.81" y="201.09" width="12.92" height="12.92"/>
      <path class="cls-1" d="M374.31,201.51v12.07h-12.07v-12.07h12.07M375.16,200.66h-13.77v13.77h13.77v-13.77h0Z"/>
    </g>
    <g>
      <rect class="cls-2" x="241.85" y="201.09" width="7.76" height="7.76"/>
      <path class="cls-1" d="M249.19,201.51v6.91h-6.91v-6.91h6.91M250.04,200.66h-8.61v8.61h8.61v-8.61h0Z"/>
    </g>
    <g>
      <rect class="cls-2" x="254.12" y="201.09" width="7.76" height="7.76"/>
      <path class="cls-1" d="M261.46,201.51v6.91h-6.91v-6.91h6.91M262.31,200.66h-8.61v8.61h8.61v-8.61h0Z"/>
    </g>
    <g>
      <rect class="cls-2" x="254.12" y="213.36" width="7.76" height="7.76"/>
      <path class="cls-1" d="M261.46,213.78v6.91h-6.91v-6.91h6.91M262.31,212.93h-8.61v8.61h8.61v-8.61h0Z"/>
    </g>
    <g>
      <rect class="cls-2" x="241.85" y="213.36" width="7.76" height="7.76"/>
      <path class="cls-1" d="M249.19,213.78v6.91h-6.91v-6.91h6.91M250.04,212.93h-8.61v8.61h8.61v-8.61h0Z"/>
    </g>
  </g>
</svg>