<?xml version="1.0" encoding="UTF-8"?>
<svg id="Layer_2" xmlns="http://www.w3.org/2000/svg" viewBox="0 0 623.62 368.5">
  <defs>
    <style>
      .cls-1 {
        fill: #231f20;
      }

      .cls-2 {
        fill: #fff;
      }
    </style>
  </defs>
  <g id="Layer_1-2" data-name="Layer_1">
    <rect class="cls-2" x="0" y="0" width="623.62" height="368.5" transform="translate(623.62 368.5) rotate(-180)"/>
    <g>
      <g>
        <rect class="cls-1" x="295.7" y="118.96" width="7.76" height="7.76"/>
        <path class="cls-1" d="M303.03,119.38v6.91h-6.91v-6.91h6.91M303.88,118.53h-8.61v8.61h8.61v-8.61h0Z"/>
      </g>
      <g>
        <rect class="cls-1" x="307.9" y="118.96" width="7.76" height="7.76"/>
        <path class="cls-1" d="M315.23,119.38v6.91h-6.91v-6.91h6.91M316.08,118.53h-8.61v8.61h8.61v-8.61h0Z"/>
      </g>
      <g>
        <rect class="cls-1" x="307.97" y="131.23" width="7.76" height="7.76"/>
        <path class="cls-1" d="M315.3,131.65v6.91h-6.91v-6.91h6.91M316.15,130.8h-8.61v8.61h8.61v-8.61h0Z"/>
      </g>
      <g>
        <rect class="cls-1" x="295.77" y="131.23" width="7.76" height="7.76"/>
        <path class="cls-1" d="M303.1,131.65v6.91h-6.91v-6.91h6.91M303.96,130.8h-8.61v8.61h8.61v-8.61h0Z"/>
      </g>
      <g>
        <rect class="cls-1" x="320.09" y="118.96" width="7.76" height="7.76"/>
        <path class="cls-1" d="M327.43,119.38v6.91h-6.91v-6.91h6.91M328.28,118.53h-8.61v8.61h8.61v-8.61h0Z"/>
      </g>
      <g>
        <rect class="cls-1" x="320.17" y="131.23" width="7.76" height="7.76"/>
        <path class="cls-1" d="M327.5,131.65v6.91h-6.91v-6.91h6.91M328.35,130.8h-8.61v8.61h8.61v-8.61h0Z"/>
      </g>
      <g>
        <rect class="cls-1" x="295.7" y="143.5" width="7.76" height="7.76"/>
        <path class="cls-1" d="M303.03,143.92v6.91h-6.91v-6.91h6.91M303.88,143.07h-8.61v8.61h8.61v-8.61h0Z"/>
      </g>
      <g>
        <rect class="cls-1" x="307.9" y="143.5" width="7.76" height="7.76"/>
        <path class="cls-1" d="M315.23,143.92v6.91h-6.91v-6.91h6.91M316.08,143.07h-8.61v8.61h8.61v-8.61h0Z"/>
      </g>
      <g>
        <rect class="cls-1" x="320.09" y="143.5" width="7.76" height="7.76"/>
        <path class="cls-1" d="M327.43,143.92v6.91h-6.91v-6.91h6.91M328.28,143.07h-8.61v8.61h8.61v-8.61h0Z"/>
      </g>
    </g>
    <g>
      <rect class="cls-1" x="373.94" y="197.36" width="7.76" height="7.76"/>
      <path class="cls-1" d="M381.27,197.78v6.91h-6.91v-6.91h6.91M382.12,196.93h-8.61v8.61h8.61v-8.61h0Z"/>
    </g>
    <g>
      <rect class="cls-1" x="386.13" y="197.36" width="7.76" height="7.76"/>
      <path class="cls-1" d="M393.47,197.78v6.91h-6.91v-6.91h6.91M394.32,196.93h-8.61v8.61h8.61v-8.61h0Z"/>
    </g>
    <g>
      <rect class="cls-1" x="386.21" y="209.63" width="7.76" height="7.76"/>
      <path class="cls-1" d="M393.54,210.05v6.91h-6.91v-6.91h6.91M394.39,209.2h-8.61v8.61h8.61v-8.61h0Z"/>
    </g>
    <g>
      <rect class="cls-1" x="373.94" y="209.63" width="7.76" height="7.76"/>
      <path class="cls-1" d="M381.27,210.05v6.91h-6.91v-6.91h6.91M382.12,209.2h-8.61v8.61h8.61v-8.61h0Z"/>
    </g>
    <g>
      <rect class="cls-1" x="398.33" y="197.36" width="7.76" height="7.76"/>
      <path class="cls-1" d="M405.66,197.78v6.91h-6.91v-6.91h6.91M406.51,196.93h-8.61v8.61h8.61v-8.61h0Z"/>
    </g>
    <g>
      <rect class="cls-1" x="398.4" y="209.63" width="7.76" height="7.76"/>
      <path class="cls-1" d="M405.74,210.05v6.91h-6.91v-6.91h6.91M406.59,209.2h-8.61v8.61h8.61v-8.61h0Z"/>
    </g>
    <g>
      <rect class="cls-1" x="410.53" y="197.36" width="7.76" height="7.76"/>
      <path class="cls-1" d="M417.86,197.78v6.91h-6.91v-6.91h6.91M418.71,196.93h-8.61v8.61h8.61v-8.61h0Z"/>
    </g>
    <g>
      <rect class="cls-1" x="410.6" y="209.63" width="7.76" height="7.76"/>
      <path class="cls-1" d="M417.93,210.05v6.91h-6.91v-6.91h6.91M418.78,209.2h-8.61v8.61h8.61v-8.61h0Z"/>
    </g>
    <g>
      <rect class="cls-1" x="373.94" y="221.9" width="7.76" height="7.76"/>
      <path class="cls-1" d="M381.27,222.32v6.91h-6.91v-6.91h6.91M382.12,221.47h-8.61v8.61h8.61v-8.61h0Z"/>
    </g>
    <g>
      <rect class="cls-1" x="386.13" y="221.9" width="7.76" height="7.76"/>
      <path class="cls-1" d="M393.47,222.32v6.91h-6.91v-6.91h6.91M394.32,221.47h-8.61v8.61h8.61v-8.61h0Z"/>
    </g>
    <g>
      <rect class="cls-1" x="386.21" y="234.17" width="7.76" height="7.76"/>
      <path class="cls-1" d="M393.54,234.59v6.91h-6.91v-6.91h6.91M394.39,233.74h-8.61v8.61h8.61v-8.61h0Z"/>
    </g>
    <g>
      <rect class="cls-1" x="373.94" y="234.17" width="7.76" height="7.76"/>
      <path class="cls-1" d="M381.27,234.59v6.91h-6.91v-6.91h6.91M382.12,233.74h-8.61v8.61h8.61v-8.61h0Z"/>
    </g>
    <g>
      <rect class="cls-1" x="398.33" y="221.9" width="7.76" height="7.76"/>
      <path class="cls-1" d="M405.66,222.32v6.91h-6.91v-6.91h6.91M406.51,221.47h-8.61v8.61h8.61v-8.61h0Z"/>
    </g>
    <g>
      <rect class="cls-1" x="398.4" y="234.17" width="7.76" height="7.76"/>
      <path class="cls-1" d="M405.74,234.59v6.91h-6.91v-6.91h6.91M406.59,233.74h-8.61v8.61h8.61v-8.61h0Z"/>
    </g>
    <g>
      <rect class="cls-1" x="410.53" y="221.9" width="7.76" height="7.76"/>
      <path class="cls-1" d="M417.86,222.32v6.91h-6.91v-6.91h6.91M418.71,221.47h-8.61v8.61h8.61v-8.61h0Z"/>
    </g>
    <g>
      <rect class="cls-1" x="410.6" y="234.17" width="7.76" height="7.76"/>
      <path class="cls-1" d="M417.93,234.59v6.91h-6.91v-6.91h6.91M418.78,233.74h-8.61v8.61h8.61v-8.61h0Z"/>
    </g>
    <g>
      <rect class="cls-1" x="197.61" y="197.36" width="12.92" height="12.92"/>
      <path class="cls-1" d="M210.11,197.78v12.07h-12.07v-12.07h12.07M210.96,196.93h-13.77v13.77h13.77v-13.77h0Z"/>
    </g>
    <g>
      <rect class="cls-1" x="217.13" y="197.36" width="12.92" height="12.92"/>
      <path class="cls-1" d="M229.63,197.78v12.07h-12.07v-12.07h12.07M230.48,196.93h-13.77v13.77h13.77v-13.77h0Z"/>
    </g>
    <g>
      <rect class="cls-1" x="217.25" y="216.99" width="12.92" height="12.92"/>
      <path class="cls-1" d="M229.74,217.42v12.07h-12.07v-12.07h12.07M230.59,216.57h-13.77v13.77h13.77v-13.77h0Z"/>
    </g>
    <g>
      <rect class="cls-1" x="197.73" y="216.99" width="12.92" height="12.92"/>
      <path class="cls-1" d="M210.23,217.42v12.07h-12.07v-12.07h12.07M211.08,216.57h-13.77v13.77h13.77v-13.77h0Z"/>
    </g>
    <g>
      <rect class="cls-1" x="236.64" y="197.36" width="12.92" height="12.92"/>
      <path class="cls-1" d="M249.14,197.78v12.07h-12.07v-12.07h12.07M249.99,196.93h-13.77v13.77h13.77v-13.77h0Z"/>
    </g>
    <g>
      <rect class="cls-1" x="236.76" y="216.99" width="12.92" height="12.92"/>
      <path class="cls-1" d="M249.26,217.42v12.07h-12.07v-12.07h12.07M250.11,216.57h-13.77v13.77h13.77v-13.77h0Z"/>
    </g>
    <g>
      <rect class="cls-1" x="197.61" y="236.62" width="12.92" height="12.92"/>
      <path class="cls-1" d="M210.11,237.05v12.07h-12.07v-12.07h12.07M210.96,236.2h-13.77v13.77h13.77v-13.77h0Z"/>
    </g>
    <g>
      <rect class="cls-1" x="217.13" y="236.62" width="12.92" height="12.92"/>
      <path class="cls-1" d="M229.63,237.05v12.07h-12.07v-12.07h12.07M230.48,236.2h-13.77v13.77h13.77v-13.77h0Z"/>
    </g>
    <g>
      <rect class="cls-1" x="236.64" y="236.62" width="12.92" height="12.92"/>
      <path class="cls-1" d="M249.14,237.05v12.07h-12.07v-12.07h12.07M249.99,236.2h-13.77v13.77h13.77v-13.77h0Z"/>
    </g>
  </g>
</svg>