<?xml version="1.0" encoding="UTF-8"?>
<svg id="Layer_2" xmlns="http://www.w3.org/2000/svg" viewBox="0 0 623.62 368.5">
  <defs>
    <style>
      .cls-1 {
        fill: #231f20;
      }

      .cls-2 {
        fill: #fff;
      }
    </style>
  </defs>
  <g id="Layer_2-2" data-name="Layer_2">
    <rect class="cls-2" x="0" y="0" width="623.62" height="368.5" transform="translate(623.62 368.5) rotate(-180)"/>
    <g>
      <g>
        <rect class="cls-2" x="295.7" y="118.95" width="7.76" height="7.76"/>
        <path class="cls-1" d="M303.03,119.38v6.91h-6.91v-6.91h6.91M303.88,118.53h-8.61v8.61h8.61v-8.61h0Z"/>
      </g>
      <g>
        <rect class="cls-2" x="307.9" y="118.95" width="7.76" height="7.76"/>
        <path class="cls-1" d="M315.23,119.38v6.91h-6.91v-6.91h6.91M316.08,118.53h-8.61v8.61h8.61v-8.61h0Z"/>
      </g>
      <g>
        <rect class="cls-2" x="307.97" y="131.23" width="7.76" height="7.76"/>
        <path class="cls-1" d="M315.3,131.65v6.91h-6.91v-6.91h6.91M316.15,130.8h-8.61v8.61h8.61v-8.61h0Z"/>
      </g>
      <g>
        <rect class="cls-2" x="295.77" y="131.23" width="7.76" height="7.76"/>
        <path class="cls-1" d="M303.1,131.65v6.91h-6.91v-6.91h6.91M303.96,130.8h-8.61v8.61h8.61v-8.61h0Z"/>
      </g>
      <g>
        <rect class="cls-2" x="320.09" y="118.95" width="7.76" height="7.76"/>
        <path class="cls-1" d="M327.42,119.38v6.91h-6.91v-6.91h6.91M328.28,118.53h-8.61v8.61h8.61v-8.61h0Z"/>
      </g>
      <g>
        <rect class="cls-2" x="320.16" y="131.23" width="7.76" height="7.76"/>
        <path class="cls-1" d="M327.5,131.65v6.91h-6.91v-6.91h6.91M328.35,130.8h-8.61v8.61h8.61v-8.61h0Z"/>
      </g>
      <g>
        <rect class="cls-2" x="295.7" y="143.5" width="7.76" height="7.76"/>
        <path class="cls-1" d="M303.03,143.92v6.91h-6.91v-6.91h6.91M303.88,143.07h-8.61v8.61h8.61v-8.61h0Z"/>
      </g>
      <g>
        <rect class="cls-2" x="307.9" y="143.5" width="7.76" height="7.76"/>
        <path class="cls-1" d="M315.23,143.92v6.91h-6.91v-6.91h6.91M316.08,143.07h-8.61v8.61h8.61v-8.61h0Z"/>
      </g>
      <g>
        <rect class="cls-2" x="320.09" y="143.5" width="7.76" height="7.76"/>
        <path class="cls-1" d="M327.42,143.92v6.91h-6.91v-6.91h6.91M328.28,143.07h-8.61v8.61h8.61v-8.61h0Z"/>
      </g>
    </g>
    <g>
      <g>
        <rect class="cls-2" x="373.9" y="197.36" width="7.76" height="7.76"/>
        <path class="cls-1" d="M381.23,197.78v6.91h-6.91v-6.91h6.91M382.08,196.93h-8.61v8.61h8.61v-8.61h0Z"/>
      </g>
      <g>
        <rect class="cls-2" x="386.1" y="197.36" width="7.76" height="7.76"/>
        <path class="cls-1" d="M393.43,197.78v6.91h-6.91v-6.91h6.91M394.28,196.93h-8.61v8.61h8.61v-8.61h0Z"/>
      </g>
      <g>
        <rect class="cls-2" x="386.17" y="209.63" width="7.76" height="7.76"/>
        <path class="cls-1" d="M393.5,210.05v6.91h-6.91v-6.91h6.91M394.35,209.2h-8.61v8.61h8.61v-8.61h0Z"/>
      </g>
      <g>
        <rect class="cls-2" x="373.9" y="209.63" width="7.76" height="7.76"/>
        <path class="cls-1" d="M381.23,210.05v6.91h-6.91v-6.91h6.91M382.08,209.2h-8.61v8.61h8.61v-8.61h0Z"/>
      </g>
      <g>
        <rect class="cls-2" x="398.29" y="197.36" width="7.76" height="7.76"/>
        <path class="cls-1" d="M405.63,197.78v6.91h-6.91v-6.91h6.91M406.48,196.93h-8.61v8.61h8.61v-8.61h0Z"/>
      </g>
      <g>
        <rect class="cls-2" x="398.37" y="209.63" width="7.76" height="7.76"/>
        <path class="cls-1" d="M405.7,210.05v6.91h-6.91v-6.91h6.91M406.55,209.2h-8.61v8.61h8.61v-8.61h0Z"/>
      </g>
      <g>
        <rect class="cls-2" x="410.49" y="197.36" width="7.76" height="7.76"/>
        <path class="cls-1" d="M417.82,197.78v6.91h-6.91v-6.91h6.91M418.67,196.93h-8.61v8.61h8.61v-8.61h0Z"/>
      </g>
      <g>
        <rect class="cls-2" x="410.56" y="209.63" width="7.76" height="7.76"/>
        <path class="cls-1" d="M417.9,210.05v6.91h-6.91v-6.91h6.91M418.75,209.2h-8.61v8.61h8.61v-8.61h0Z"/>
      </g>
      <g>
        <rect class="cls-2" x="373.9" y="221.9" width="7.76" height="7.76"/>
        <path class="cls-1" d="M381.23,222.32v6.91h-6.91v-6.91h6.91M382.08,221.47h-8.61v8.61h8.61v-8.61h0Z"/>
      </g>
      <g>
        <rect class="cls-2" x="386.1" y="221.9" width="7.76" height="7.76"/>
        <path class="cls-1" d="M393.43,222.32v6.91h-6.91v-6.91h6.91M394.28,221.47h-8.61v8.61h8.61v-8.61h0Z"/>
      </g>
      <g>
        <rect class="cls-2" x="386.17" y="234.17" width="7.76" height="7.76"/>
        <path class="cls-1" d="M393.5,234.59v6.91h-6.91v-6.91h6.91M394.35,233.74h-8.61v8.61h8.61v-8.61h0Z"/>
      </g>
      <g>
        <rect class="cls-2" x="373.9" y="234.17" width="7.76" height="7.76"/>
        <path class="cls-1" d="M381.23,234.59v6.91h-6.91v-6.91h6.91M382.08,233.74h-8.61v8.61h8.61v-8.61h0Z"/>
      </g>
      <g>
        <rect class="cls-2" x="398.29" y="221.9" width="7.76" height="7.76"/>
        <path class="cls-1" d="M405.63,222.32v6.91h-6.91v-6.91h6.91M406.48,221.47h-8.61v8.61h8.61v-8.61h0Z"/>
      </g>
      <g>
        <rect class="cls-2" x="398.37" y="234.17" width="7.76" height="7.76"/>
        <path class="cls-1" d="M405.7,234.59v6.91h-6.91v-6.91h6.91M406.55,233.74h-8.61v8.61h8.61v-8.61h0Z"/>
      </g>
      <g>
        <rect class="cls-2" x="410.49" y="221.9" width="7.76" height="7.76"/>
        <path class="cls-1" d="M417.82,222.32v6.91h-6.91v-6.91h6.91M418.67,221.47h-8.61v8.61h8.61v-8.61h0Z"/>
      </g>
      <g>
        <rect class="cls-2" x="410.56" y="234.17" width="7.76" height="7.76"/>
        <path class="cls-1" d="M417.9,234.59v6.91h-6.91v-6.91h6.91M418.75,233.74h-8.61v8.61h8.61v-8.61h0Z"/>
      </g>
    </g>
    <g>
      <g>
        <rect class="cls-2" x="197.83" y="197.61" width="12.41" height="12.41"/>
        <path class="cls-1" d="M209.56,198.29v11.05h-11.05v-11.05h11.05M210.93,196.93h-13.77v13.77h13.77v-13.77h0Z"/>
      </g>
      <g>
        <rect class="cls-2" x="217.35" y="197.61" width="12.41" height="12.41"/>
        <path class="cls-1" d="M229.08,198.29v11.05h-11.05v-11.05h11.05M230.44,196.93h-13.77v13.77h13.77v-13.77h0Z"/>
      </g>
      <g>
        <rect class="cls-2" x="217.46" y="217.25" width="12.41" height="12.41"/>
        <path class="cls-1" d="M229.2,217.93v11.05h-11.05v-11.05h11.05M230.56,216.57h-13.77v13.77h13.77v-13.77h0Z"/>
      </g>
      <g>
        <rect class="cls-2" x="197.95" y="217.25" width="12.41" height="12.41"/>
        <path class="cls-1" d="M209.68,217.93v11.05h-11.05v-11.05h11.05M211.04,216.57h-13.77v13.77h13.77v-13.77h0Z"/>
      </g>
      <g>
        <rect class="cls-2" x="236.86" y="197.61" width="12.41" height="12.41"/>
        <path class="cls-1" d="M248.6,198.29v11.05h-11.05v-11.05h11.05M249.96,196.93h-13.77v13.77h13.77v-13.77h0Z"/>
      </g>
      <g>
        <rect class="cls-2" x="236.98" y="217.25" width="12.41" height="12.41"/>
        <path class="cls-1" d="M248.71,217.93v11.05h-11.05v-11.05h11.05M250.07,216.57h-13.77v13.77h13.77v-13.77h0Z"/>
      </g>
      <g>
        <rect class="cls-2" x="197.83" y="236.88" width="12.41" height="12.41"/>
        <path class="cls-1" d="M209.56,237.56v11.05h-11.05v-11.05h11.05M210.93,236.2h-13.77v13.77h13.77v-13.77h0Z"/>
      </g>
      <g>
        <rect class="cls-2" x="217.35" y="236.88" width="12.41" height="12.41"/>
        <path class="cls-1" d="M229.08,237.56v11.05h-11.05v-11.05h11.05M230.44,236.2h-13.77v13.77h13.77v-13.77h0Z"/>
      </g>
      <g>
        <rect class="cls-2" x="236.86" y="236.88" width="12.41" height="12.41"/>
        <path class="cls-1" d="M248.6,237.56v11.05h-11.05v-11.05h11.05M249.96,236.2h-13.77v13.77h13.77v-13.77h0Z"/>
      </g>
    </g>
  </g>
</svg>