<?xml version="1.0" encoding="UTF-8"?>
<svg id="Layer_2" xmlns="http://www.w3.org/2000/svg" viewBox="0 0 623.62 368.5">
  <defs>
    <style>
      .cls-1 {
        fill: #231f20;
      }

      .cls-2 {
        fill: #fff;
      }
    </style>
  </defs>
  <g id="Layer_2-2" data-name="Layer_2">
    <rect class="cls-2" x="0" y="0" width="623.62" height="368.5" transform="translate(623.62 368.5) rotate(-180)"/>
    <g>
      <g>
        <rect class="cls-2" x="295.7" y="118.95" width="7.76" height="7.76"/>
        <path class="cls-1" d="M303.03,119.38v6.91h-6.91v-6.91h6.91M303.88,118.53h-8.61v8.61h8.61v-8.61h0Z"/>
      </g>
      <g>
        <rect class="cls-2" x="307.9" y="118.95" width="7.76" height="7.76"/>
        <path class="cls-1" d="M315.23,119.38v6.91h-6.91v-6.91h6.91M316.08,118.53h-8.61v8.61h8.61v-8.61h0Z"/>
      </g>
      <g>
        <rect class="cls-2" x="307.97" y="131.23" width="7.76" height="7.76"/>
        <path class="cls-1" d="M315.3,131.65v6.91h-6.91v-6.91h6.91M316.15,130.8h-8.61v8.61h8.61v-8.61h0Z"/>
      </g>
      <g>
        <rect class="cls-2" x="295.77" y="131.23" width="7.76" height="7.76"/>
        <path class="cls-1" d="M303.1,131.65v6.91h-6.91v-6.91h6.91M303.96,130.8h-8.61v8.61h8.61v-8.61h0Z"/>
      </g>
      <g>
        <rect class="cls-2" x="320.09" y="118.95" width="7.76" height="7.76"/>
        <path class="cls-1" d="M327.42,119.38v6.91h-6.91v-6.91h6.91M328.28,118.53h-8.61v8.61h8.61v-8.61h0Z"/>
      </g>
      <g>
        <rect class="cls-2" x="320.16" y="131.23" width="7.76" height="7.76"/>
        <path class="cls-1" d="M327.5,131.65v6.91h-6.91v-6.91h6.91M328.35,130.8h-8.61v8.61h8.61v-8.61h0Z"/>
      </g>
      <g>
        <rect class="cls-2" x="295.7" y="143.5" width="7.76" height="7.76"/>
        <path class="cls-1" d="M303.03,143.92v6.91h-6.91v-6.91h6.91M303.88,143.07h-8.61v8.61h8.61v-8.61h0Z"/>
      </g>
      <g>
        <rect class="cls-2" x="307.9" y="143.5" width="7.76" height="7.76"/>
        <path class="cls-1" d="M315.23,143.92v6.91h-6.91v-6.91h6.91M316.08,143.07h-8.61v8.61h8.61v-8.61h0Z"/>
      </g>
      <g>
        <rect class="cls-2" x="320.09" y="143.5" width="7.76" height="7.76"/>
        <path class="cls-1" d="M327.42,143.92v6.91h-6.91v-6.91h6.91M328.28,143.07h-8.61v8.61h8.61v-8.61h0Z"/>
      </g>
    </g>
    <g>
      <rect class="cls-2" x="377.85" y="197.84" width="7.76" height="7.76"/>
      <path class="cls-1" d="M385.19,198.26v6.91h-6.91v-6.91h6.91M386.04,197.41h-8.61v8.61h8.61v-8.61h0Z"/>
    </g>
    <g>
      <rect class="cls-2" x="390.05" y="197.84" width="7.76" height="7.76"/>
      <path class="cls-1" d="M397.38,198.26v6.91h-6.91v-6.91h6.91M398.23,197.41h-8.61v8.61h8.61v-8.61h0Z"/>
    </g>
    <g>
      <rect class="cls-2" x="390.12" y="210.11" width="7.76" height="7.76"/>
      <path class="cls-1" d="M397.46,210.53v6.91h-6.91v-6.91h6.91M398.31,209.68h-8.61v8.61h8.61v-8.61h0Z"/>
    </g>
    <g>
      <rect class="cls-2" x="377.85" y="210.11" width="7.76" height="7.76"/>
      <path class="cls-1" d="M385.19,210.53v6.91h-6.91v-6.91h6.91M386.04,209.68h-8.61v8.61h8.61v-8.61h0Z"/>
    </g>
    <g>
      <rect class="cls-2" x="402.25" y="197.84" width="7.76" height="7.76"/>
      <path class="cls-1" d="M409.58,198.26v6.91h-6.91v-6.91h6.91M410.43,197.41h-8.61v8.61h8.61v-8.61h0Z"/>
    </g>
    <g>
      <rect class="cls-2" x="402.32" y="210.11" width="7.76" height="7.76"/>
      <path class="cls-1" d="M409.65,210.53v6.91h-6.91v-6.91h6.91M410.5,209.68h-8.61v8.61h8.61v-8.61h0Z"/>
    </g>
    <g>
      <rect class="cls-2" x="414.44" y="197.84" width="7.76" height="7.76"/>
      <path class="cls-1" d="M421.78,198.26v6.91h-6.91v-6.91h6.91M422.63,197.41h-8.61v8.61h8.61v-8.61h0Z"/>
    </g>
    <g>
      <rect class="cls-2" x="414.52" y="210.11" width="7.76" height="7.76"/>
      <path class="cls-1" d="M421.85,210.53v6.91h-6.91v-6.91h6.91M422.7,209.68h-8.61v8.61h8.61v-8.61h0Z"/>
    </g>
    <g>
      <rect class="cls-2" x="377.85" y="222.38" width="7.76" height="7.76"/>
      <path class="cls-1" d="M385.19,222.8v6.91h-6.91v-6.91h6.91M386.04,221.95h-8.61v8.61h8.61v-8.61h0Z"/>
    </g>
    <g>
      <rect class="cls-2" x="390.05" y="222.38" width="7.76" height="7.76"/>
      <path class="cls-1" d="M397.38,222.8v6.91h-6.91v-6.91h6.91M398.23,221.95h-8.61v8.61h8.61v-8.61h0Z"/>
    </g>
    <g>
      <rect class="cls-2" x="390.12" y="234.65" width="7.76" height="7.76"/>
      <path class="cls-1" d="M397.46,235.07v6.91h-6.91v-6.91h6.91M398.31,234.22h-8.61v8.61h8.61v-8.61h0Z"/>
    </g>
    <g>
      <rect class="cls-2" x="377.85" y="234.65" width="7.76" height="7.76"/>
      <path class="cls-1" d="M385.19,235.07v6.91h-6.91v-6.91h6.91M386.04,234.22h-8.61v8.61h8.61v-8.61h0Z"/>
    </g>
    <g>
      <rect class="cls-2" x="402.25" y="222.38" width="7.76" height="7.76"/>
      <path class="cls-1" d="M409.58,222.8v6.91h-6.91v-6.91h6.91M410.43,221.95h-8.61v8.61h8.61v-8.61h0Z"/>
    </g>
    <g>
      <rect class="cls-2" x="402.32" y="234.65" width="7.76" height="7.76"/>
      <path class="cls-1" d="M409.65,235.07v6.91h-6.91v-6.91h6.91M410.5,234.22h-8.61v8.61h8.61v-8.61h0Z"/>
    </g>
    <g>
      <rect class="cls-2" x="414.44" y="222.38" width="7.76" height="7.76"/>
      <path class="cls-1" d="M421.78,222.8v6.91h-6.91v-6.91h6.91M422.63,221.95h-8.61v8.61h8.61v-8.61h0Z"/>
    </g>
    <g>
      <rect class="cls-2" x="414.52" y="234.65" width="7.76" height="7.76"/>
      <path class="cls-1" d="M421.85,235.07v6.91h-6.91v-6.91h6.91M422.7,234.22h-8.61v8.61h8.61v-8.61h0Z"/>
    </g>
    <g>
      <rect class="cls-2" x="201.6" y="197.61" width="12.41" height="12.41"/>
      <path class="cls-1" d="M213.34,198.29v11.05h-11.05v-11.05h11.05M214.7,196.93h-13.77v13.77h13.77v-13.77h0Z"/>
    </g>
    <g>
      <rect class="cls-2" x="221.12" y="197.61" width="12.41" height="12.41"/>
      <path class="cls-1" d="M232.85,198.29v11.05h-11.05v-11.05h11.05M234.21,196.93h-13.77v13.77h13.77v-13.77h0Z"/>
    </g>
    <g>
      <rect class="cls-2" x="221.23" y="217.25" width="12.41" height="12.41"/>
      <path class="cls-1" d="M232.97,217.93v11.05h-11.05v-11.05h11.05M234.33,216.57h-13.77v13.77h13.77v-13.77h0Z"/>
    </g>
    <g>
      <rect class="cls-2" x="201.72" y="217.25" width="12.41" height="12.41"/>
      <path class="cls-1" d="M213.45,217.93v11.05h-11.05v-11.05h11.05M214.81,216.57h-13.77v13.77h13.77v-13.77h0Z"/>
    </g>
    <g>
      <rect class="cls-2" x="240.63" y="197.61" width="12.41" height="12.41"/>
      <path class="cls-1" d="M252.37,198.29v11.05h-11.05v-11.05h11.05M253.73,196.93h-13.77v13.77h13.77v-13.77h0Z"/>
    </g>
    <g>
      <rect class="cls-2" x="240.75" y="217.25" width="12.41" height="12.41"/>
      <path class="cls-1" d="M252.48,217.93v11.05h-11.05v-11.05h11.05M253.84,216.57h-13.77v13.77h13.77v-13.77h0Z"/>
    </g>
    <g>
      <rect class="cls-2" x="201.6" y="236.88" width="12.41" height="12.41"/>
      <path class="cls-1" d="M213.34,237.56v11.05h-11.05v-11.05h11.05M214.7,236.2h-13.77v13.77h13.77v-13.77h0Z"/>
    </g>
    <g>
      <rect class="cls-2" x="221.12" y="236.88" width="12.41" height="12.41"/>
      <path class="cls-1" d="M232.85,237.56v11.05h-11.05v-11.05h11.05M234.21,236.2h-13.77v13.77h13.77v-13.77h0Z"/>
    </g>
    <g>
      <rect class="cls-2" x="240.63" y="236.88" width="12.41" height="12.41"/>
      <path class="cls-1" d="M252.37,237.56v11.05h-11.05v-11.05h11.05M253.73,236.2h-13.77v13.77h13.77v-13.77h0Z"/>
    </g>
  </g>
</svg>