<?xml version="1.0" encoding="UTF-8"?>
<svg id="Layer_2" xmlns="http://www.w3.org/2000/svg" viewBox="0 0 623.62 368.5">
  <defs>
    <style>
      .cls-1 {
        fill: #231f20;
      }

      .cls-2 {
        fill: #fff;
      }
    </style>
  </defs>
  <g id="Layer_2-2" data-name="Layer_2">
    <rect class="cls-2" width="623.62" height="368.5"/>
    <g>
      <g>
        <rect class="cls-2" x="320.17" y="118.95" width="7.76" height="7.76"/>
        <path class="cls-1" d="M327.5,119.38v6.91h-6.91v-6.91h6.91M328.35,118.53h-8.61v8.61h8.61v-8.61h0Z"/>
      </g>
      <g>
        <rect class="cls-2" x="307.97" y="118.95" width="7.76" height="7.76"/>
        <path class="cls-1" d="M315.3,119.38v6.91h-6.91v-6.91h6.91M316.15,118.53h-8.61v8.61h8.61v-8.61h0Z"/>
      </g>
      <g>
        <rect class="cls-2" x="307.89" y="131.23" width="7.76" height="7.76"/>
        <path class="cls-1" d="M315.23,131.65v6.91h-6.91v-6.91h6.91M316.08,130.8h-8.61v8.61h8.61v-8.61h0Z"/>
      </g>
      <g>
        <rect class="cls-2" x="320.09" y="131.23" width="7.76" height="7.76"/>
        <path class="cls-1" d="M327.43,131.65v6.91h-6.91v-6.91h6.91M328.28,130.8h-8.61v8.61h8.61v-8.61h0Z"/>
      </g>
      <g>
        <rect class="cls-2" x="295.77" y="118.95" width="7.76" height="7.76"/>
        <path class="cls-1" d="M303.1,119.38v6.91h-6.91v-6.91h6.91M303.96,118.53h-8.61v8.61h8.61v-8.61h0Z"/>
      </g>
      <g>
        <rect class="cls-2" x="295.7" y="131.23" width="7.76" height="7.76"/>
        <path class="cls-1" d="M303.03,131.65v6.91h-6.91v-6.91h6.91M303.88,130.8h-8.61v8.61h8.61v-8.61h0Z"/>
      </g>
      <g>
        <rect class="cls-2" x="320.17" y="143.5" width="7.76" height="7.76"/>
        <path class="cls-1" d="M327.5,143.92v6.91h-6.91v-6.91h6.91M328.35,143.07h-8.61v8.61h8.61v-8.61h0Z"/>
      </g>
      <g>
        <rect class="cls-2" x="307.97" y="143.5" width="7.76" height="7.76"/>
        <path class="cls-1" d="M315.3,143.92v6.91h-6.91v-6.91h6.91M316.15,143.07h-8.61v8.61h8.61v-8.61h0Z"/>
      </g>
      <g>
        <rect class="cls-2" x="295.77" y="143.5" width="7.76" height="7.76"/>
        <path class="cls-1" d="M303.1,143.92v6.91h-6.91v-6.91h6.91M303.96,143.07h-8.61v8.61h8.61v-8.61h0Z"/>
      </g>
    </g>
    <g>
      <g>
        <rect class="cls-2" x="242.39" y="197.36" width="7.76" height="7.76"/>
        <path class="cls-1" d="M249.72,197.78v6.91h-6.91v-6.91h6.91M250.57,196.93h-8.61v8.61h8.61v-8.61h0Z"/>
      </g>
      <g>
        <rect class="cls-2" x="230.19" y="197.36" width="7.76" height="7.76"/>
        <path class="cls-1" d="M237.52,197.78v6.91h-6.91v-6.91h6.91M238.38,196.93h-8.61v8.61h8.61v-8.61h0Z"/>
      </g>
      <g>
        <rect class="cls-2" x="230.12" y="209.63" width="7.76" height="7.76"/>
        <path class="cls-1" d="M237.45,210.05v6.91h-6.91v-6.91h6.91M238.3,209.2h-8.61v8.61h8.61v-8.61h0Z"/>
      </g>
      <g>
        <rect class="cls-2" x="242.39" y="209.63" width="7.76" height="7.76"/>
        <path class="cls-1" d="M249.72,210.05v6.91h-6.91v-6.91h6.91M250.57,209.2h-8.61v8.61h8.61v-8.61h0Z"/>
      </g>
      <g>
        <rect class="cls-2" x="217.99" y="197.36" width="7.76" height="7.76"/>
        <path class="cls-1" d="M225.33,197.78v6.91h-6.91v-6.91h6.91M226.18,196.93h-8.61v8.61h8.61v-8.61h0Z"/>
      </g>
      <g>
        <rect class="cls-2" x="217.92" y="209.63" width="7.76" height="7.76"/>
        <path class="cls-1" d="M225.25,210.05v6.91h-6.91v-6.91h6.91M226.11,209.2h-8.61v8.61h8.61v-8.61h0Z"/>
      </g>
      <g>
        <rect class="cls-2" x="205.8" y="197.36" width="7.76" height="7.76"/>
        <path class="cls-1" d="M213.13,197.78v6.91h-6.91v-6.91h6.91M213.98,196.93h-8.61v8.61h8.61v-8.61h0Z"/>
      </g>
      <g>
        <rect class="cls-2" x="205.72" y="209.63" width="7.76" height="7.76"/>
        <path class="cls-1" d="M213.06,210.05v6.91h-6.91v-6.91h6.91M213.91,209.2h-8.61v8.61h8.61v-8.61h0Z"/>
      </g>
      <g>
        <rect class="cls-2" x="242.39" y="221.9" width="7.76" height="7.76"/>
        <path class="cls-1" d="M249.72,222.32v6.91h-6.91v-6.91h6.91M250.57,221.47h-8.61v8.61h8.61v-8.61h0Z"/>
      </g>
      <g>
        <rect class="cls-2" x="230.19" y="221.9" width="7.76" height="7.76"/>
        <path class="cls-1" d="M237.52,222.32v6.91h-6.91v-6.91h6.91M238.38,221.47h-8.61v8.61h8.61v-8.61h0Z"/>
      </g>
      <g>
        <rect class="cls-2" x="230.12" y="234.17" width="7.76" height="7.76"/>
        <path class="cls-1" d="M237.45,234.59v6.91h-6.91v-6.91h6.91M238.3,233.74h-8.61v8.61h8.61v-8.61h0Z"/>
      </g>
      <g>
        <rect class="cls-2" x="242.39" y="234.17" width="7.76" height="7.76"/>
        <path class="cls-1" d="M249.72,234.59v6.91h-6.91v-6.91h6.91M250.57,233.74h-8.61v8.61h8.61v-8.61h0Z"/>
      </g>
      <g>
        <rect class="cls-2" x="217.99" y="221.9" width="7.76" height="7.76"/>
        <path class="cls-1" d="M225.33,222.32v6.91h-6.91v-6.91h6.91M226.18,221.47h-8.61v8.61h8.61v-8.61h0Z"/>
      </g>
      <g>
        <rect class="cls-2" x="217.92" y="234.17" width="7.76" height="7.76"/>
        <path class="cls-1" d="M225.25,234.59v6.91h-6.91v-6.91h6.91M226.11,233.74h-8.61v8.61h8.61v-8.61h0Z"/>
      </g>
      <g>
        <rect class="cls-2" x="205.8" y="221.9" width="7.76" height="7.76"/>
        <path class="cls-1" d="M213.13,222.32v6.91h-6.91v-6.91h6.91M213.98,221.47h-8.61v8.61h8.61v-8.61h0Z"/>
      </g>
      <g>
        <rect class="cls-2" x="205.72" y="234.17" width="7.76" height="7.76"/>
        <path class="cls-1" d="M213.06,234.59v6.91h-6.91v-6.91h6.91M213.91,233.74h-8.61v8.61h8.61v-8.61h0Z"/>
      </g>
    </g>
    <g>
      <g>
        <rect class="cls-2" x="413.49" y="197.61" width="12.41" height="12.41"/>
        <path class="cls-1" d="M425.22,198.29v11.05h-11.05v-11.05h11.05M426.58,196.93h-13.77v13.77h13.77v-13.77h0Z"/>
      </g>
      <g>
        <rect class="cls-2" x="393.97" y="197.61" width="12.41" height="12.41"/>
        <path class="cls-1" d="M405.7,198.29v11.05h-11.05v-11.05h11.05M407.07,196.93h-13.77v13.77h13.77v-13.77h0Z"/>
      </g>
      <g>
        <rect class="cls-2" x="393.85" y="217.25" width="12.41" height="12.41"/>
        <path class="cls-1" d="M405.59,217.93v11.05h-11.05v-11.05h11.05M406.95,216.57h-13.77v13.77h13.77v-13.77h0Z"/>
      </g>
      <g>
        <rect class="cls-2" x="413.37" y="217.25" width="12.41" height="12.41"/>
        <path class="cls-1" d="M425.1,217.93v11.05h-11.05v-11.05h11.05M426.46,216.57h-13.77v13.77h13.77v-13.77h0Z"/>
      </g>
      <g>
        <rect class="cls-2" x="374.46" y="197.61" width="12.41" height="12.41"/>
        <path class="cls-1" d="M386.19,198.29v11.05h-11.05v-11.05h11.05M387.55,196.93h-13.77v13.77h13.77v-13.77h0Z"/>
      </g>
      <g>
        <rect class="cls-2" x="374.34" y="217.25" width="12.41" height="12.41"/>
        <path class="cls-1" d="M386.07,217.93v11.05h-11.05v-11.05h11.05M387.43,216.57h-13.77v13.77h13.77v-13.77h0Z"/>
      </g>
      <g>
        <rect class="cls-2" x="413.49" y="236.88" width="12.41" height="12.41"/>
        <path class="cls-1" d="M425.22,237.56v11.05h-11.05v-11.05h11.05M426.58,236.2h-13.77v13.77h13.77v-13.77h0Z"/>
      </g>
      <g>
        <rect class="cls-2" x="393.97" y="236.88" width="12.41" height="12.41"/>
        <path class="cls-1" d="M405.7,237.56v11.05h-11.05v-11.05h11.05M407.07,236.2h-13.77v13.77h13.77v-13.77h0Z"/>
      </g>
      <g>
        <rect class="cls-2" x="374.46" y="236.88" width="12.41" height="12.41"/>
        <path class="cls-1" d="M386.19,237.56v11.05h-11.05v-11.05h11.05M387.55,236.2h-13.77v13.77h13.77v-13.77h0Z"/>
      </g>
    </g>
  </g>
</svg>