<?xml version="1.0" encoding="UTF-8"?>
<svg id="Layer_2" xmlns="http://www.w3.org/2000/svg" viewBox="0 0 623.62 368.5">
  <defs>
    <style>
      .cls-1 {
        fill: #231f20;
      }

      .cls-2 {
        fill: #fff;
      }
    </style>
  </defs>
  <g id="Layer_1-2" data-name="Layer_1">
    <rect class="cls-2" width="623.62" height="368.5"/>
    <g>
      <g>
        <rect class="cls-2" x="320.17" y="118.96" width="7.76" height="7.76"/>
        <path class="cls-1" d="M327.5,119.38v6.91h-6.91v-6.91h6.91M328.35,118.53h-8.61v8.61h8.61v-8.61h0Z"/>
      </g>
      <g>
        <rect class="cls-2" x="307.97" y="118.96" width="7.76" height="7.76"/>
        <path class="cls-1" d="M315.3,119.38v6.91h-6.91v-6.91h6.91M316.15,118.53h-8.61v8.61h8.61v-8.61h0Z"/>
      </g>
      <g>
        <rect class="cls-2" x="307.9" y="131.23" width="7.76" height="7.76"/>
        <path class="cls-1" d="M315.23,131.65v6.91h-6.91v-6.91h6.91M316.08,130.8h-8.61v8.61h8.61v-8.61h0Z"/>
      </g>
      <g>
        <rect class="cls-2" x="320.09" y="131.23" width="7.76" height="7.76"/>
        <path class="cls-1" d="M327.43,131.65v6.91h-6.91v-6.91h6.91M328.28,130.8h-8.61v8.61h8.61v-8.61h0Z"/>
      </g>
      <g>
        <rect class="cls-2" x="295.77" y="118.96" width="7.76" height="7.76"/>
        <path class="cls-1" d="M303.1,119.38v6.91h-6.91v-6.91h6.91M303.96,118.53h-8.61v8.61h8.61v-8.61h0Z"/>
      </g>
      <g>
        <rect class="cls-2" x="295.7" y="131.23" width="7.76" height="7.76"/>
        <path class="cls-1" d="M303.03,131.65v6.91h-6.91v-6.91h6.91M303.88,130.8h-8.61v8.61h8.61v-8.61h0Z"/>
      </g>
      <g>
        <rect class="cls-2" x="320.17" y="143.5" width="7.76" height="7.76"/>
        <path class="cls-1" d="M327.5,143.92v6.91h-6.91v-6.91h6.91M328.35,143.07h-8.61v8.61h8.61v-8.61h0Z"/>
      </g>
      <g>
        <rect class="cls-2" x="307.97" y="143.5" width="7.76" height="7.76"/>
        <path class="cls-1" d="M315.3,143.92v6.91h-6.91v-6.91h6.91M316.15,143.07h-8.61v8.61h8.61v-8.61h0Z"/>
      </g>
      <g>
        <rect class="cls-2" x="295.77" y="143.5" width="7.76" height="7.76"/>
        <path class="cls-1" d="M303.1,143.92v6.91h-6.91v-6.91h6.91M303.96,143.07h-8.61v8.61h8.61v-8.61h0Z"/>
      </g>
    </g>
    <g>
      <rect class="cls-2" x="238.01" y="197.84" width="7.76" height="7.76"/>
      <path class="cls-1" d="M245.34,198.26v6.91h-6.91v-6.91h6.91M246.19,197.41h-8.61v8.61h8.61v-8.61h0Z"/>
    </g>
    <g>
      <rect class="cls-2" x="225.81" y="197.84" width="7.76" height="7.76"/>
      <path class="cls-1" d="M233.15,198.26v6.91h-6.91v-6.91h6.91M234,197.41h-8.61v8.61h8.61v-8.61h0Z"/>
    </g>
    <g>
      <rect class="cls-2" x="225.74" y="210.11" width="7.76" height="7.76"/>
      <path class="cls-1" d="M233.07,210.53v6.91h-6.91v-6.91h6.91M233.92,209.68h-8.61v8.61h8.61v-8.61h0Z"/>
    </g>
    <g>
      <rect class="cls-2" x="238.01" y="210.11" width="7.76" height="7.76"/>
      <path class="cls-1" d="M245.34,210.53v6.91h-6.91v-6.91h6.91M246.19,209.68h-8.61v8.61h8.61v-8.61h0Z"/>
    </g>
    <g>
      <rect class="cls-2" x="213.62" y="197.84" width="7.76" height="7.76"/>
      <path class="cls-1" d="M220.95,198.26v6.91h-6.91v-6.91h6.91M221.8,197.41h-8.61v8.61h8.61v-8.61h0Z"/>
    </g>
    <g>
      <rect class="cls-2" x="213.54" y="210.11" width="7.76" height="7.76"/>
      <path class="cls-1" d="M220.88,210.53v6.91h-6.91v-6.91h6.91M221.73,209.68h-8.61v8.61h8.61v-8.61h0Z"/>
    </g>
    <g>
      <rect class="cls-2" x="201.42" y="197.84" width="7.76" height="7.76"/>
      <path class="cls-1" d="M208.75,198.26v6.91h-6.91v-6.91h6.91M209.6,197.41h-8.61v8.61h8.61v-8.61h0Z"/>
    </g>
    <g>
      <rect class="cls-2" x="201.35" y="210.11" width="7.76" height="7.76"/>
      <path class="cls-1" d="M208.68,210.53v6.91h-6.91v-6.91h6.91M209.53,209.68h-8.61v8.61h8.61v-8.61h0Z"/>
    </g>
    <g>
      <rect class="cls-2" x="238.01" y="222.38" width="7.76" height="7.76"/>
      <path class="cls-1" d="M245.34,222.8v6.91h-6.91v-6.91h6.91M246.19,221.95h-8.61v8.61h8.61v-8.61h0Z"/>
    </g>
    <g>
      <rect class="cls-2" x="225.81" y="222.38" width="7.76" height="7.76"/>
      <path class="cls-1" d="M233.15,222.8v6.91h-6.91v-6.91h6.91M234,221.95h-8.61v8.61h8.61v-8.61h0Z"/>
    </g>
    <g>
      <rect class="cls-2" x="225.74" y="234.65" width="7.76" height="7.76"/>
      <path class="cls-1" d="M233.07,235.07v6.91h-6.91v-6.91h6.91M233.92,234.22h-8.61v8.61h8.61v-8.61h0Z"/>
    </g>
    <g>
      <rect class="cls-2" x="238.01" y="234.65" width="7.76" height="7.76"/>
      <path class="cls-1" d="M245.34,235.07v6.91h-6.91v-6.91h6.91M246.19,234.22h-8.61v8.61h8.61v-8.61h0Z"/>
    </g>
    <g>
      <rect class="cls-2" x="213.62" y="222.38" width="7.76" height="7.76"/>
      <path class="cls-1" d="M220.95,222.8v6.91h-6.91v-6.91h6.91M221.8,221.95h-8.61v8.61h8.61v-8.61h0Z"/>
    </g>
    <g>
      <rect class="cls-2" x="213.54" y="234.65" width="7.76" height="7.76"/>
      <path class="cls-1" d="M220.88,235.07v6.91h-6.91v-6.91h6.91M221.73,234.22h-8.61v8.61h8.61v-8.61h0Z"/>
    </g>
    <g>
      <rect class="cls-2" x="201.42" y="222.38" width="7.76" height="7.76"/>
      <path class="cls-1" d="M208.75,222.8v6.91h-6.91v-6.91h6.91M209.6,221.95h-8.61v8.61h8.61v-8.61h0Z"/>
    </g>
    <g>
      <rect class="cls-2" x="201.35" y="234.65" width="7.76" height="7.76"/>
      <path class="cls-1" d="M208.68,235.07v6.91h-6.91v-6.91h6.91M209.53,234.22h-8.61v8.61h8.61v-8.61h0Z"/>
    </g>
    <g>
      <rect class="cls-2" x="409.35" y="197.36" width="12.92" height="12.92"/>
      <path class="cls-1" d="M421.85,197.78v12.07h-12.07v-12.07h12.07M422.7,196.93h-13.77v13.77h13.77v-13.77h0Z"/>
    </g>
    <g>
      <rect class="cls-2" x="389.84" y="197.36" width="12.92" height="12.92"/>
      <path class="cls-1" d="M402.33,197.78v12.07h-12.07v-12.07h12.07M403.18,196.93h-13.77v13.77h13.77v-13.77h0Z"/>
    </g>
    <g>
      <rect class="cls-2" x="389.72" y="216.99" width="12.92" height="12.92"/>
      <path class="cls-1" d="M402.22,217.42v12.07h-12.07v-12.07h12.07M403.07,216.57h-13.77v13.77h13.77v-13.77h0Z"/>
    </g>
    <g>
      <rect class="cls-2" x="409.23" y="216.99" width="12.92" height="12.92"/>
      <path class="cls-1" d="M421.73,217.42v12.07h-12.07v-12.07h12.07M422.58,216.57h-13.77v13.77h13.77v-13.77h0Z"/>
    </g>
    <g>
      <rect class="cls-2" x="370.32" y="197.36" width="12.92" height="12.92"/>
      <path class="cls-1" d="M382.82,197.78v12.07h-12.07v-12.07h12.07M383.67,196.93h-13.77v13.77h13.77v-13.77h0Z"/>
    </g>
    <g>
      <rect class="cls-2" x="370.2" y="216.99" width="12.92" height="12.92"/>
      <path class="cls-1" d="M382.7,217.42v12.07h-12.07v-12.07h12.07M383.55,216.57h-13.77v13.77h13.77v-13.77h0Z"/>
    </g>
    <g>
      <rect class="cls-2" x="409.35" y="236.62" width="12.92" height="12.92"/>
      <path class="cls-1" d="M421.85,237.05v12.07h-12.07v-12.07h12.07M422.7,236.2h-13.77v13.77h13.77v-13.77h0Z"/>
    </g>
    <g>
      <rect class="cls-2" x="389.84" y="236.62" width="12.92" height="12.92"/>
      <path class="cls-1" d="M402.33,237.05v12.07h-12.07v-12.07h12.07M403.18,236.2h-13.77v13.77h13.77v-13.77h0Z"/>
    </g>
    <g>
      <rect class="cls-2" x="370.32" y="236.62" width="12.92" height="12.92"/>
      <path class="cls-1" d="M382.82,237.05v12.07h-12.07v-12.07h12.07M383.67,236.2h-13.77v13.77h13.77v-13.77h0Z"/>
    </g>
  </g>
</svg>