<?xml version="1.0" encoding="UTF-8"?>
<svg id="Layer_2" xmlns="http://www.w3.org/2000/svg" viewBox="0 0 623.62 368.5">
  <defs>
    <style>
      .cls-1 {
        fill: #231f20;
      }

      .cls-2 {
        fill: #fff;
      }
    </style>
  </defs>
  <g id="Layer_1-2" data-name="Layer_1">
    <rect class="cls-2" x="0" y="0" width="623.62" height="368.5" transform="translate(623.62 368.5) rotate(-180)"/>
    <g>
      <g>
        <rect class="cls-2" x="295.7" y="118.96" width="7.76" height="7.76"/>
        <path class="cls-1" d="M303.03,119.38v6.91h-6.91v-6.91h6.91M303.88,118.53h-8.61v8.61h8.61v-8.61h0Z"/>
      </g>
      <g>
        <rect class="cls-2" x="307.9" y="118.96" width="7.76" height="7.76"/>
        <path class="cls-1" d="M315.23,119.38v6.91h-6.91v-6.91h6.91M316.08,118.53h-8.61v8.61h8.61v-8.61h0Z"/>
      </g>
      <g>
        <rect class="cls-2" x="307.97" y="131.23" width="7.76" height="7.76"/>
        <path class="cls-1" d="M315.3,131.65v6.91h-6.91v-6.91h6.91M316.15,130.8h-8.61v8.61h8.61v-8.61h0Z"/>
      </g>
      <g>
        <rect class="cls-2" x="295.77" y="131.23" width="7.76" height="7.76"/>
        <path class="cls-1" d="M303.1,131.65v6.91h-6.91v-6.91h6.91M303.96,130.8h-8.61v8.61h8.61v-8.61h0Z"/>
      </g>
      <g>
        <rect class="cls-2" x="320.09" y="118.96" width="7.76" height="7.76"/>
        <path class="cls-1" d="M327.43,119.38v6.91h-6.91v-6.91h6.91M328.28,118.53h-8.61v8.61h8.61v-8.61h0Z"/>
      </g>
      <g>
        <rect class="cls-2" x="320.16" y="131.23" width="7.76" height="7.76"/>
        <path class="cls-1" d="M327.5,131.65v6.91h-6.91v-6.91h6.91M328.35,130.8h-8.61v8.61h8.61v-8.61h0Z"/>
      </g>
      <g>
        <rect class="cls-2" x="295.7" y="143.5" width="7.76" height="7.76"/>
        <path class="cls-1" d="M303.03,143.92v6.91h-6.91v-6.91h6.91M303.88,143.07h-8.61v8.61h8.61v-8.61h0Z"/>
      </g>
      <g>
        <rect class="cls-2" x="307.9" y="143.5" width="7.76" height="7.76"/>
        <path class="cls-1" d="M315.23,143.92v6.91h-6.91v-6.91h6.91M316.08,143.07h-8.61v8.61h8.61v-8.61h0Z"/>
      </g>
      <g>
        <rect class="cls-2" x="320.09" y="143.5" width="7.76" height="7.76"/>
        <path class="cls-1" d="M327.43,143.92v6.91h-6.91v-6.91h6.91M328.28,143.07h-8.61v8.61h8.61v-8.61h0Z"/>
      </g>
    </g>
    <g>
      <rect class="cls-2" x="377.85" y="197.84" width="7.76" height="7.76"/>
      <path class="cls-1" d="M385.19,198.26v6.91h-6.91v-6.91h6.91M386.04,197.41h-8.61v8.61h8.61v-8.61h0Z"/>
    </g>
    <g>
      <rect class="cls-2" x="390.05" y="197.84" width="7.76" height="7.76"/>
      <path class="cls-1" d="M397.38,198.26v6.91h-6.91v-6.91h6.91M398.23,197.41h-8.61v8.61h8.61v-8.61h0Z"/>
    </g>
    <g>
      <rect class="cls-2" x="390.12" y="210.11" width="7.76" height="7.76"/>
      <path class="cls-1" d="M397.46,210.53v6.91h-6.91v-6.91h6.91M398.31,209.68h-8.61v8.61h8.61v-8.61h0Z"/>
    </g>
    <g>
      <rect class="cls-2" x="377.85" y="210.11" width="7.76" height="7.76"/>
      <path class="cls-1" d="M385.19,210.53v6.91h-6.91v-6.91h6.91M386.04,209.68h-8.61v8.61h8.61v-8.61h0Z"/>
    </g>
    <g>
      <rect class="cls-2" x="402.25" y="197.84" width="7.76" height="7.76"/>
      <path class="cls-1" d="M409.58,198.26v6.91h-6.91v-6.91h6.91M410.43,197.41h-8.61v8.61h8.61v-8.61h0Z"/>
    </g>
    <g>
      <rect class="cls-2" x="402.32" y="210.11" width="7.76" height="7.76"/>
      <path class="cls-1" d="M409.65,210.53v6.91h-6.91v-6.91h6.91M410.5,209.68h-8.61v8.61h8.61v-8.61h0Z"/>
    </g>
    <g>
      <rect class="cls-2" x="414.44" y="197.84" width="7.76" height="7.76"/>
      <path class="cls-1" d="M421.78,198.26v6.91h-6.91v-6.91h6.91M422.63,197.41h-8.61v8.61h8.61v-8.61h0Z"/>
    </g>
    <g>
      <rect class="cls-2" x="414.52" y="210.11" width="7.76" height="7.76"/>
      <path class="cls-1" d="M421.85,210.53v6.91h-6.91v-6.91h6.91M422.7,209.68h-8.61v8.61h8.61v-8.61h0Z"/>
    </g>
    <g>
      <rect class="cls-2" x="377.85" y="222.38" width="7.76" height="7.76"/>
      <path class="cls-1" d="M385.19,222.8v6.91h-6.91v-6.91h6.91M386.04,221.95h-8.61v8.61h8.61v-8.61h0Z"/>
    </g>
    <g>
      <rect class="cls-2" x="390.05" y="222.38" width="7.76" height="7.76"/>
      <path class="cls-1" d="M397.38,222.8v6.91h-6.91v-6.91h6.91M398.23,221.95h-8.61v8.61h8.61v-8.61h0Z"/>
    </g>
    <g>
      <rect class="cls-2" x="390.12" y="234.65" width="7.76" height="7.76"/>
      <path class="cls-1" d="M397.46,235.07v6.91h-6.91v-6.91h6.91M398.31,234.22h-8.61v8.61h8.61v-8.61h0Z"/>
    </g>
    <g>
      <rect class="cls-2" x="377.85" y="234.65" width="7.76" height="7.76"/>
      <path class="cls-1" d="M385.19,235.07v6.91h-6.91v-6.91h6.91M386.04,234.22h-8.61v8.61h8.61v-8.61h0Z"/>
    </g>
    <g>
      <rect class="cls-2" x="402.25" y="222.38" width="7.76" height="7.76"/>
      <path class="cls-1" d="M409.58,222.8v6.91h-6.91v-6.91h6.91M410.43,221.95h-8.61v8.61h8.61v-8.61h0Z"/>
    </g>
    <g>
      <rect class="cls-2" x="402.32" y="234.65" width="7.76" height="7.76"/>
      <path class="cls-1" d="M409.65,235.07v6.91h-6.91v-6.91h6.91M410.5,234.22h-8.61v8.61h8.61v-8.61h0Z"/>
    </g>
    <g>
      <rect class="cls-2" x="414.44" y="222.38" width="7.76" height="7.76"/>
      <path class="cls-1" d="M421.78,222.8v6.91h-6.91v-6.91h6.91M422.63,221.95h-8.61v8.61h8.61v-8.61h0Z"/>
    </g>
    <g>
      <rect class="cls-2" x="414.52" y="234.65" width="7.76" height="7.76"/>
      <path class="cls-1" d="M421.85,235.07v6.91h-6.91v-6.91h6.91M422.7,234.22h-8.61v8.61h8.61v-8.61h0Z"/>
    </g>
    <g>
      <rect class="cls-2" x="201.35" y="197.36" width="12.92" height="12.92"/>
      <path class="cls-1" d="M213.85,197.78v12.07h-12.07v-12.07h12.07M214.7,196.93h-13.77v13.77h13.77v-13.77h0Z"/>
    </g>
    <g>
      <rect class="cls-2" x="220.86" y="197.36" width="12.92" height="12.92"/>
      <path class="cls-1" d="M233.36,197.78v12.07h-12.07v-12.07h12.07M234.21,196.93h-13.77v13.77h13.77v-13.77h0Z"/>
    </g>
    <g>
      <rect class="cls-2" x="220.98" y="216.99" width="12.93" height="12.92"/>
      <path class="cls-1" d="M233.48,217.42v12.07h-12.07v-12.07h12.07M234.33,216.57h-13.77v13.77h13.77v-13.77h0Z"/>
    </g>
    <g>
      <rect class="cls-2" x="201.46" y="216.99" width="12.92" height="12.92"/>
      <path class="cls-1" d="M213.96,217.42v12.07h-12.07v-12.07h12.07M214.81,216.57h-13.77v13.77h13.77v-13.77h0Z"/>
    </g>
    <g>
      <rect class="cls-2" x="240.38" y="197.36" width="12.92" height="12.92"/>
      <path class="cls-1" d="M252.88,197.78v12.07h-12.07v-12.07h12.07M253.73,196.93h-13.77v13.77h13.77v-13.77h0Z"/>
    </g>
    <g>
      <rect class="cls-2" x="240.49" y="216.99" width="12.92" height="12.92"/>
      <path class="cls-1" d="M252.99,217.42v12.07h-12.07v-12.07h12.07M253.84,216.57h-13.77v13.77h13.77v-13.77h0Z"/>
    </g>
    <g>
      <rect class="cls-2" x="201.35" y="236.62" width="12.92" height="12.92"/>
      <path class="cls-1" d="M213.85,237.05v12.07h-12.07v-12.07h12.07M214.7,236.2h-13.77v13.77h13.77v-13.77h0Z"/>
    </g>
    <g>
      <rect class="cls-2" x="220.86" y="236.62" width="12.92" height="12.92"/>
      <path class="cls-1" d="M233.36,237.05v12.07h-12.07v-12.07h12.07M234.21,236.2h-13.77v13.77h13.77v-13.77h0Z"/>
    </g>
    <g>
      <rect class="cls-2" x="240.38" y="236.62" width="12.92" height="12.92"/>
      <path class="cls-1" d="M252.88,237.05v12.07h-12.07v-12.07h12.07M253.73,236.2h-13.77v13.77h13.77v-13.77h0Z"/>
    </g>
  </g>
</svg>