<?xml version="1.0" encoding="UTF-8"?>
<svg id="Layer_2" xmlns="http://www.w3.org/2000/svg" viewBox="0 0 623.62 368.5">
  <defs>
    <style>
      .cls-1 {
        fill: #231f20;
      }

      .cls-2 {
        fill: #fff;
      }
    </style>
  </defs>
  <g id="Layer_1-2" data-name="Layer_1">
    <rect class="cls-2" width="623.62" height="368.5"/>
    <g>
      <g>
        <rect class="cls-2" x="320.17" y="118.96" width="7.76" height="7.76"/>
        <path class="cls-1" d="M327.5,119.38v6.91h-6.91v-6.91h6.91M328.35,118.53h-8.61v8.61h8.61v-8.61h0Z"/>
      </g>
      <g>
        <rect class="cls-2" x="307.97" y="118.96" width="7.76" height="7.76"/>
        <path class="cls-1" d="M315.3,119.38v6.91h-6.91v-6.91h6.91M316.15,118.53h-8.61v8.61h8.61v-8.61h0Z"/>
      </g>
      <g>
        <rect class="cls-2" x="307.9" y="131.23" width="7.76" height="7.76"/>
        <path class="cls-1" d="M315.23,131.65v6.91h-6.91v-6.91h6.91M316.08,130.8h-8.61v8.61h8.61v-8.61h0Z"/>
      </g>
      <g>
        <rect class="cls-2" x="320.09" y="131.23" width="7.76" height="7.76"/>
        <path class="cls-1" d="M327.43,131.65v6.91h-6.91v-6.91h6.91M328.28,130.8h-8.61v8.61h8.61v-8.61h0Z"/>
      </g>
      <g>
        <rect class="cls-2" x="295.77" y="118.96" width="7.76" height="7.76"/>
        <path class="cls-1" d="M303.1,119.38v6.91h-6.91v-6.91h6.91M303.96,118.53h-8.61v8.61h8.61v-8.61h0Z"/>
      </g>
      <g>
        <rect class="cls-2" x="295.7" y="131.23" width="7.76" height="7.76"/>
        <path class="cls-1" d="M303.03,131.65v6.91h-6.91v-6.91h6.91M303.88,130.8h-8.61v8.61h8.61v-8.61h0Z"/>
      </g>
      <g>
        <rect class="cls-2" x="320.17" y="143.5" width="7.76" height="7.76"/>
        <path class="cls-1" d="M327.5,143.92v6.91h-6.91v-6.91h6.91M328.35,143.07h-8.61v8.61h8.61v-8.61h0Z"/>
      </g>
      <g>
        <rect class="cls-2" x="307.97" y="143.5" width="7.76" height="7.76"/>
        <path class="cls-1" d="M315.3,143.92v6.91h-6.91v-6.91h6.91M316.15,143.07h-8.61v8.61h8.61v-8.61h0Z"/>
      </g>
      <g>
        <rect class="cls-2" x="295.77" y="143.5" width="7.76" height="7.76"/>
        <path class="cls-1" d="M303.1,143.92v6.91h-6.91v-6.91h6.91M303.96,143.07h-8.61v8.61h8.61v-8.61h0Z"/>
      </g>
    </g>
    <g>
      <g>
        <rect class="cls-2" x="242.32" y="197.36" width="7.76" height="7.76"/>
        <path class="cls-1" d="M249.65,197.78v6.91h-6.91v-6.91h6.91M250.5,196.93h-8.61v8.61h8.61v-8.61h0Z"/>
      </g>
      <g>
        <rect class="cls-2" x="230.12" y="197.36" width="7.76" height="7.76"/>
        <path class="cls-1" d="M237.45,197.78v6.91h-6.91v-6.91h6.91M238.3,196.93h-8.61v8.61h8.61v-8.61h0Z"/>
      </g>
      <g>
        <rect class="cls-2" x="230.05" y="209.63" width="7.76" height="7.76"/>
        <path class="cls-1" d="M237.38,210.05v6.91h-6.91v-6.91h6.91M238.23,209.2h-8.61v8.61h8.61v-8.61h0Z"/>
      </g>
      <g>
        <rect class="cls-2" x="242.32" y="209.63" width="7.76" height="7.76"/>
        <path class="cls-1" d="M249.65,210.05v6.91h-6.91v-6.91h6.91M250.5,209.2h-8.61v8.61h8.61v-8.61h0Z"/>
      </g>
      <g>
        <rect class="cls-2" x="217.92" y="197.36" width="7.76" height="7.76"/>
        <path class="cls-1" d="M225.25,197.78v6.91h-6.91v-6.91h6.91M226.11,196.93h-8.61v8.61h8.61v-8.61h0Z"/>
      </g>
      <g>
        <rect class="cls-2" x="217.85" y="209.63" width="7.76" height="7.76"/>
        <path class="cls-1" d="M225.18,210.05v6.91h-6.91v-6.91h6.91M226.03,209.2h-8.61v8.61h8.61v-8.61h0Z"/>
      </g>
      <g>
        <rect class="cls-2" x="205.72" y="197.36" width="7.76" height="7.76"/>
        <path class="cls-1" d="M213.06,197.78v6.91h-6.91v-6.91h6.91M213.91,196.93h-8.61v8.61h8.61v-8.61h0Z"/>
      </g>
      <g>
        <rect class="cls-2" x="205.65" y="209.63" width="7.76" height="7.76"/>
        <path class="cls-1" d="M212.98,210.05v6.91h-6.91v-6.91h6.91M213.84,209.2h-8.61v8.61h8.61v-8.61h0Z"/>
      </g>
      <g>
        <rect class="cls-2" x="242.32" y="221.9" width="7.76" height="7.76"/>
        <path class="cls-1" d="M249.65,222.32v6.91h-6.91v-6.91h6.91M250.5,221.47h-8.61v8.61h8.61v-8.61h0Z"/>
      </g>
      <g>
        <rect class="cls-2" x="230.12" y="221.9" width="7.76" height="7.76"/>
        <path class="cls-1" d="M237.45,222.32v6.91h-6.91v-6.91h6.91M238.3,221.47h-8.61v8.61h8.61v-8.61h0Z"/>
      </g>
      <g>
        <rect class="cls-2" x="230.05" y="234.17" width="7.76" height="7.76"/>
        <path class="cls-1" d="M237.38,234.59v6.91h-6.91v-6.91h6.91M238.23,233.74h-8.61v8.61h8.61v-8.61h0Z"/>
      </g>
      <g>
        <rect class="cls-2" x="242.32" y="234.17" width="7.76" height="7.76"/>
        <path class="cls-1" d="M249.65,234.59v6.91h-6.91v-6.91h6.91M250.5,233.74h-8.61v8.61h8.61v-8.61h0Z"/>
      </g>
      <g>
        <rect class="cls-2" x="217.92" y="221.9" width="7.76" height="7.76"/>
        <path class="cls-1" d="M225.25,222.32v6.91h-6.91v-6.91h6.91M226.11,221.47h-8.61v8.61h8.61v-8.61h0Z"/>
      </g>
      <g>
        <rect class="cls-2" x="217.85" y="234.17" width="7.76" height="7.76"/>
        <path class="cls-1" d="M225.18,234.59v6.91h-6.91v-6.91h6.91M226.03,233.74h-8.61v8.61h8.61v-8.61h0Z"/>
      </g>
      <g>
        <rect class="cls-2" x="205.72" y="221.9" width="7.76" height="7.76"/>
        <path class="cls-1" d="M213.06,222.32v6.91h-6.91v-6.91h6.91M213.91,221.47h-8.61v8.61h8.61v-8.61h0Z"/>
      </g>
      <g>
        <rect class="cls-2" x="205.65" y="234.17" width="7.76" height="7.76"/>
        <path class="cls-1" d="M212.98,234.59v6.91h-6.91v-6.91h6.91M213.84,233.74h-8.61v8.61h8.61v-8.61h0Z"/>
      </g>
    </g>
    <g>
      <g>
        <rect class="cls-2" x="413.12" y="197.36" width="12.92" height="12.92"/>
        <path class="cls-1" d="M425.62,197.78v12.07h-12.07v-12.07h12.07M426.47,196.93h-13.77v13.77h13.77v-13.77h0Z"/>
      </g>
      <g>
        <rect class="cls-2" x="393.61" y="197.36" width="12.92" height="12.92"/>
        <path class="cls-1" d="M406.11,197.78v12.07h-12.07v-12.07h12.07M406.96,196.93h-13.77v13.77h13.77v-13.77h0Z"/>
      </g>
      <g>
        <rect class="cls-2" x="393.49" y="216.99" width="12.92" height="12.92"/>
        <path class="cls-1" d="M405.99,217.42v12.07h-12.07v-12.07h12.07M406.84,216.57h-13.77v13.77h13.77v-13.77h0Z"/>
      </g>
      <g>
        <rect class="cls-2" x="413" y="216.99" width="12.92" height="12.92"/>
        <path class="cls-1" d="M425.5,217.42v12.07h-12.07v-12.07h12.07M426.35,216.57h-13.77v13.77h13.77v-13.77h0Z"/>
      </g>
      <g>
        <rect class="cls-2" x="374.09" y="197.36" width="12.92" height="12.92"/>
        <path class="cls-1" d="M386.59,197.78v12.07h-12.07v-12.07h12.07M387.44,196.93h-13.77v13.77h13.77v-13.77h0Z"/>
      </g>
      <g>
        <rect class="cls-2" x="373.97" y="216.99" width="12.92" height="12.92"/>
        <path class="cls-1" d="M386.47,217.42v12.07h-12.07v-12.07h12.07M387.32,216.57h-13.77v13.77h13.77v-13.77h0Z"/>
      </g>
      <g>
        <rect class="cls-2" x="413.12" y="236.62" width="12.92" height="12.92"/>
        <path class="cls-1" d="M425.62,237.05v12.07h-12.07v-12.07h12.07M426.47,236.2h-13.77v13.77h13.77v-13.77h0Z"/>
      </g>
      <g>
        <rect class="cls-2" x="393.61" y="236.62" width="12.92" height="12.92"/>
        <path class="cls-1" d="M406.11,237.05v12.07h-12.07v-12.07h12.07M406.96,236.2h-13.77v13.77h13.77v-13.77h0Z"/>
      </g>
      <g>
        <rect class="cls-2" x="374.09" y="236.62" width="12.92" height="12.92"/>
        <path class="cls-1" d="M386.59,237.05v12.07h-12.07v-12.07h12.07M387.44,236.2h-13.77v13.77h13.77v-13.77h0Z"/>
      </g>
    </g>
  </g>
</svg>