<?xml version="1.0" encoding="UTF-8"?>
<svg id="Layer_2" xmlns="http://www.w3.org/2000/svg" viewBox="0 0 623.62 368.5">
  <defs>
    <style>
      .cls-1 {
        fill: #231f20;
      }

      .cls-2 {
        fill: #fff;
      }
    </style>
  </defs>
  <g id="Layer_1-2" data-name="Layer_1">
    <rect class="cls-2" width="623.62" height="368.5"/>
    <g>
      <g>
        <rect class="cls-1" x="326.26" y="102.93" width="7.76" height="7.76"/>
        <path class="cls-1" d="M333.6,103.35v6.91h-6.91v-6.91h6.91M334.45,102.5h-8.61v8.61h8.61v-8.61h0Z"/>
      </g>
      <g>
        <rect class="cls-1" x="326.19" y="115.2" width="7.76" height="7.76"/>
        <path class="cls-1" d="M333.52,115.62v6.91h-6.91v-6.91h6.91M334.37,114.77h-8.61v8.61h8.61v-8.61h0Z"/>
      </g>
      <g>
        <rect class="cls-1" x="314.07" y="102.93" width="7.76" height="7.76"/>
        <path class="cls-1" d="M321.4,103.35v6.91h-6.91v-6.91h6.91M322.25,102.5h-8.61v8.61h8.61v-8.61h0Z"/>
      </g>
      <g>
        <rect class="cls-1" x="301.87" y="102.93" width="7.76" height="7.76"/>
        <path class="cls-1" d="M309.2,103.35v6.91h-6.91v-6.91h6.91M310.05,102.5h-8.61v8.61h8.61v-8.61h0Z"/>
      </g>
      <g>
        <rect class="cls-1" x="301.8" y="115.2" width="7.76" height="7.76"/>
        <path class="cls-1" d="M309.13,115.62v6.91h-6.91v-6.91h6.91M309.98,114.77h-8.61v8.61h8.61v-8.61h0Z"/>
      </g>
      <g>
        <rect class="cls-1" x="313.99" y="115.2" width="7.76" height="7.76"/>
        <path class="cls-1" d="M321.33,115.62v6.91h-6.91v-6.91h6.91M322.18,114.77h-8.61v8.61h8.61v-8.61h0Z"/>
      </g>
      <g>
        <rect class="cls-1" x="289.67" y="102.93" width="7.76" height="7.76"/>
        <path class="cls-1" d="M297.01,103.35v6.91h-6.91v-6.91h6.91M297.86,102.5h-8.61v8.61h8.61v-8.61h0Z"/>
      </g>
      <g>
        <rect class="cls-1" x="289.6" y="115.2" width="7.76" height="7.76"/>
        <path class="cls-1" d="M296.93,115.62v6.91h-6.91v-6.91h6.91M297.78,114.77h-8.61v8.61h8.61v-8.61h0Z"/>
      </g>
      <g>
        <rect class="cls-1" x="326.26" y="127.47" width="7.76" height="7.76"/>
        <path class="cls-1" d="M333.6,127.89v6.91h-6.91v-6.91h6.91M334.45,127.04h-8.61v8.61h8.61v-8.61h0Z"/>
      </g>
      <g>
        <rect class="cls-1" x="326.19" y="139.74" width="7.76" height="7.76"/>
        <path class="cls-1" d="M333.52,140.16v6.91h-6.91v-6.91h6.91M334.37,139.31h-8.61v8.61h8.61v-8.61h0Z"/>
      </g>
      <g>
        <rect class="cls-1" x="314.07" y="127.47" width="7.76" height="7.76"/>
        <path class="cls-1" d="M321.4,127.89v6.91h-6.91v-6.91h6.91M322.25,127.04h-8.61v8.61h8.61v-8.61h0Z"/>
      </g>
      <g>
        <rect class="cls-1" x="301.87" y="127.47" width="7.76" height="7.76"/>
        <path class="cls-1" d="M309.2,127.89v6.91h-6.91v-6.91h6.91M310.05,127.04h-8.61v8.61h8.61v-8.61h0Z"/>
      </g>
      <g>
        <rect class="cls-1" x="301.8" y="139.74" width="7.76" height="7.76"/>
        <path class="cls-1" d="M309.13,140.16v6.91h-6.91v-6.91h6.91M309.98,139.31h-8.61v8.61h8.61v-8.61h0Z"/>
      </g>
      <g>
        <rect class="cls-1" x="313.99" y="139.74" width="7.76" height="7.76"/>
        <path class="cls-1" d="M321.33,140.16v6.91h-6.91v-6.91h6.91M322.18,139.31h-8.61v8.61h8.61v-8.61h0Z"/>
      </g>
      <g>
        <rect class="cls-1" x="289.67" y="127.47" width="7.76" height="7.76"/>
        <path class="cls-1" d="M297.01,127.89v6.91h-6.91v-6.91h6.91M297.86,127.04h-8.61v8.61h8.61v-8.61h0Z"/>
      </g>
      <g>
        <rect class="cls-1" x="289.6" y="139.74" width="7.76" height="7.76"/>
        <path class="cls-1" d="M296.93,140.16v6.91h-6.91v-6.91h6.91M297.78,139.31h-8.61v8.61h8.61v-8.61h0Z"/>
      </g>
    </g>
    <g>
      <rect class="cls-1" x="234.38" y="193.77" width="7.76" height="7.76"/>
      <path class="cls-1" d="M241.72,194.19v6.91h-6.91v-6.91h6.91M242.57,193.34h-8.61v8.61h8.61v-8.61h0Z"/>
    </g>
    <g>
      <rect class="cls-1" x="234.31" y="206.04" width="7.76" height="7.76"/>
      <path class="cls-1" d="M241.64,206.46v6.91h-6.91v-6.91h6.91M242.49,205.61h-8.61v8.61h8.61v-8.61h0Z"/>
    </g>
    <g>
      <rect class="cls-1" x="222.19" y="193.77" width="7.76" height="7.76"/>
      <path class="cls-1" d="M229.52,194.19v6.91h-6.91v-6.91h6.91M230.37,193.34h-8.61v8.61h8.61v-8.61h0Z"/>
    </g>
    <g>
      <rect class="cls-1" x="222.11" y="206.04" width="7.76" height="7.76"/>
      <path class="cls-1" d="M229.44,206.46v6.91h-6.91v-6.91h6.91M230.3,205.61h-8.61v8.61h8.61v-8.61h0Z"/>
    </g>
    <g>
      <rect class="cls-1" x="234.38" y="218.31" width="7.76" height="7.76"/>
      <path class="cls-1" d="M241.72,218.73v6.91h-6.91v-6.91h6.91M242.57,217.88h-8.61v8.61h8.61v-8.61h0Z"/>
    </g>
    <g>
      <rect class="cls-1" x="234.31" y="230.58" width="7.76" height="7.76"/>
      <path class="cls-1" d="M241.64,231v6.91h-6.91v-6.91h6.91M242.49,230.15h-8.61v8.61h8.61v-8.61h0Z"/>
    </g>
    <g>
      <rect class="cls-1" x="222.19" y="218.31" width="7.76" height="7.76"/>
      <path class="cls-1" d="M229.52,218.73v6.91h-6.91v-6.91h6.91M230.37,217.88h-8.61v8.61h8.61v-8.61h0Z"/>
    </g>
    <g>
      <rect class="cls-1" x="222.11" y="230.58" width="7.76" height="7.76"/>
      <path class="cls-1" d="M229.44,231v6.91h-6.91v-6.91h6.91M230.3,230.15h-8.61v8.61h8.61v-8.61h0Z"/>
    </g>
    <g>
      <rect class="cls-1" x="234.38" y="242.85" width="7.76" height="7.76"/>
      <path class="cls-1" d="M241.72,243.27v6.91h-6.91v-6.91h6.91M242.57,242.42h-8.61v8.61h8.61v-8.61h0Z"/>
    </g>
    <g>
      <rect class="cls-1" x="234.31" y="255.12" width="7.76" height="7.76"/>
      <path class="cls-1" d="M241.64,255.54v6.91h-6.91v-6.91h6.91M242.49,254.69h-8.61v8.61h8.61v-8.61h0Z"/>
    </g>
    <g>
      <rect class="cls-1" x="222.19" y="242.85" width="7.76" height="7.76"/>
      <path class="cls-1" d="M229.52,243.27v6.91h-6.91v-6.91h6.91M230.37,242.42h-8.61v8.61h8.61v-8.61h0Z"/>
    </g>
    <g>
      <rect class="cls-1" x="222.11" y="255.12" width="7.76" height="7.76"/>
      <path class="cls-1" d="M229.44,255.54v6.91h-6.91v-6.91h6.91M230.3,254.69h-8.61v8.61h8.61v-8.61h0Z"/>
    </g>
    <g>
      <rect class="cls-1" x="209.9" y="193.77" width="7.76" height="7.76"/>
      <path class="cls-1" d="M217.24,194.19v6.91h-6.91v-6.91h6.91M218.09,193.34h-8.61v8.61h8.61v-8.61h0Z"/>
    </g>
    <g>
      <rect class="cls-1" x="197.71" y="193.77" width="7.76" height="7.76"/>
      <path class="cls-1" d="M205.04,194.19v6.91h-6.91v-6.91h6.91M205.89,193.34h-8.61v8.61h8.61v-8.61h0Z"/>
    </g>
    <g>
      <rect class="cls-1" x="197.63" y="206.04" width="7.76" height="7.76"/>
      <path class="cls-1" d="M204.97,206.46v6.91h-6.91v-6.91h6.91M205.82,205.61h-8.61v8.61h8.61v-8.61h0Z"/>
    </g>
    <g>
      <rect class="cls-1" x="209.9" y="206.04" width="7.76" height="7.76"/>
      <path class="cls-1" d="M217.24,206.46v6.91h-6.91v-6.91h6.91M218.09,205.61h-8.61v8.61h8.61v-8.61h0Z"/>
    </g>
    <g>
      <rect class="cls-1" x="185.51" y="193.77" width="7.76" height="7.76"/>
      <path class="cls-1" d="M192.84,194.19v6.91h-6.91v-6.91h6.91M193.69,193.34h-8.61v8.61h8.61v-8.61h0Z"/>
    </g>
    <g>
      <rect class="cls-1" x="185.44" y="206.04" width="7.76" height="7.76"/>
      <path class="cls-1" d="M192.77,206.46v6.91h-6.91v-6.91h6.91M193.62,205.61h-8.61v8.61h8.61v-8.61h0Z"/>
    </g>
    <g>
      <rect class="cls-1" x="173.31" y="193.77" width="7.76" height="7.76"/>
      <path class="cls-1" d="M180.65,194.19v6.91h-6.91v-6.91h6.91M181.5,193.34h-8.61v8.61h8.61v-8.61h0Z"/>
    </g>
    <g>
      <rect class="cls-1" x="173.24" y="206.04" width="7.76" height="7.76"/>
      <path class="cls-1" d="M180.57,206.46v6.91h-6.91v-6.91h6.91M181.42,205.61h-8.61v8.61h8.61v-8.61h0Z"/>
    </g>
    <g>
      <rect class="cls-1" x="209.9" y="218.31" width="7.76" height="7.76"/>
      <path class="cls-1" d="M217.24,218.73v6.91h-6.91v-6.91h6.91M218.09,217.88h-8.61v8.61h8.61v-8.61h0Z"/>
    </g>
    <g>
      <rect class="cls-1" x="197.71" y="218.31" width="7.76" height="7.76"/>
      <path class="cls-1" d="M205.04,218.73v6.91h-6.91v-6.91h6.91M205.89,217.88h-8.61v8.61h8.61v-8.61h0Z"/>
    </g>
    <g>
      <rect class="cls-1" x="197.63" y="230.58" width="7.76" height="7.76"/>
      <path class="cls-1" d="M204.97,231v6.91h-6.91v-6.91h6.91M205.82,230.15h-8.61v8.61h8.61v-8.61h0Z"/>
    </g>
    <g>
      <rect class="cls-1" x="209.9" y="230.58" width="7.76" height="7.76"/>
      <path class="cls-1" d="M217.24,231v6.91h-6.91v-6.91h6.91M218.09,230.15h-8.61v8.61h8.61v-8.61h0Z"/>
    </g>
    <g>
      <rect class="cls-1" x="185.51" y="218.31" width="7.76" height="7.76"/>
      <path class="cls-1" d="M192.84,218.73v6.91h-6.91v-6.91h6.91M193.69,217.88h-8.61v8.61h8.61v-8.61h0Z"/>
    </g>
    <g>
      <rect class="cls-1" x="185.44" y="230.58" width="7.76" height="7.76"/>
      <path class="cls-1" d="M192.77,231v6.91h-6.91v-6.91h6.91M193.62,230.15h-8.61v8.61h8.61v-8.61h0Z"/>
    </g>
    <g>
      <rect class="cls-1" x="173.31" y="218.31" width="7.76" height="7.76"/>
      <path class="cls-1" d="M180.65,218.73v6.91h-6.91v-6.91h6.91M181.5,217.88h-8.61v8.61h8.61v-8.61h0Z"/>
    </g>
    <g>
      <rect class="cls-1" x="173.24" y="230.58" width="7.76" height="7.76"/>
      <path class="cls-1" d="M180.57,231v6.91h-6.91v-6.91h6.91M181.42,230.15h-8.61v8.61h8.61v-8.61h0Z"/>
    </g>
    <g>
      <rect class="cls-1" x="209.9" y="242.85" width="7.76" height="7.76"/>
      <path class="cls-1" d="M217.24,243.27v6.91h-6.91v-6.91h6.91M218.09,242.42h-8.61v8.61h8.61v-8.61h0Z"/>
    </g>
    <g>
      <rect class="cls-1" x="197.71" y="242.85" width="7.76" height="7.76"/>
      <path class="cls-1" d="M205.04,243.27v6.91h-6.91v-6.91h6.91M205.89,242.42h-8.61v8.61h8.61v-8.61h0Z"/>
    </g>
    <g>
      <rect class="cls-1" x="197.63" y="255.12" width="7.76" height="7.76"/>
      <path class="cls-1" d="M204.97,255.54v6.91h-6.91v-6.91h6.91M205.82,254.69h-8.61v8.61h8.61v-8.61h0Z"/>
    </g>
    <g>
      <rect class="cls-1" x="209.9" y="255.12" width="7.76" height="7.76"/>
      <path class="cls-1" d="M217.24,255.54v6.91h-6.91v-6.91h6.91M218.09,254.69h-8.61v8.61h8.61v-8.61h0Z"/>
    </g>
    <g>
      <rect class="cls-1" x="185.51" y="242.85" width="7.76" height="7.76"/>
      <path class="cls-1" d="M192.84,243.27v6.91h-6.91v-6.91h6.91M193.69,242.42h-8.61v8.61h8.61v-8.61h0Z"/>
    </g>
    <g>
      <rect class="cls-1" x="185.44" y="255.12" width="7.76" height="7.76"/>
      <path class="cls-1" d="M192.77,255.54v6.91h-6.91v-6.91h6.91M193.62,254.69h-8.61v8.61h8.61v-8.61h0Z"/>
    </g>
    <g>
      <rect class="cls-1" x="173.31" y="242.85" width="7.76" height="7.76"/>
      <path class="cls-1" d="M180.65,243.27v6.91h-6.91v-6.91h6.91M181.5,242.42h-8.61v8.61h8.61v-8.61h0Z"/>
    </g>
    <g>
      <rect class="cls-1" x="173.24" y="255.12" width="7.76" height="7.76"/>
      <path class="cls-1" d="M180.57,255.54v6.91h-6.91v-6.91h6.91M181.42,254.69h-8.61v8.61h8.61v-8.61h0Z"/>
    </g>
    <g>
      <rect class="cls-1" x="437.46" y="193.77" width="12.92" height="12.92"/>
      <path class="cls-1" d="M449.96,194.19v12.07h-12.07v-12.07h12.07M450.81,193.34h-13.77v13.77h13.77v-13.77h0Z"/>
    </g>
    <g>
      <rect class="cls-1" x="437.34" y="213.4" width="12.92" height="12.92"/>
      <path class="cls-1" d="M449.84,213.82v12.07h-12.07v-12.07h12.07M450.69,212.97h-13.77v13.77h13.77v-13.77h0Z"/>
    </g>
    <g>
      <rect class="cls-1" x="417.95" y="193.77" width="12.92" height="12.92"/>
      <path class="cls-1" d="M430.45,194.19v12.07h-12.07v-12.07h12.07M431.3,193.34h-13.77v13.77h13.77v-13.77h0Z"/>
    </g>
    <g>
      <rect class="cls-1" x="398.44" y="193.77" width="12.92" height="12.92"/>
      <path class="cls-1" d="M410.93,194.19v12.07h-12.07v-12.07h12.07M411.79,193.34h-13.77v13.77h13.77v-13.77h0Z"/>
    </g>
    <g>
      <rect class="cls-1" x="398.32" y="213.4" width="12.92" height="12.92"/>
      <path class="cls-1" d="M410.82,213.82v12.07h-12.07v-12.07h12.07M411.67,212.97h-13.77v13.77h13.77v-13.77h0Z"/>
    </g>
    <g>
      <rect class="cls-1" x="417.83" y="213.4" width="12.92" height="12.92"/>
      <path class="cls-1" d="M430.33,213.82v12.07h-12.07v-12.07h12.07M431.18,212.97h-13.77v13.77h13.77v-13.77h0Z"/>
    </g>
    <g>
      <rect class="cls-1" x="378.93" y="193.77" width="12.92" height="12.92"/>
      <path class="cls-1" d="M391.42,194.19v12.07h-12.07v-12.07h12.07M392.27,193.34h-13.77v13.77h13.77v-13.77h0Z"/>
    </g>
    <g>
      <rect class="cls-1" x="378.81" y="213.4" width="12.92" height="12.92"/>
      <path class="cls-1" d="M391.31,213.82v12.07h-12.07v-12.07h12.07M392.16,212.97h-13.77v13.77h13.77v-13.77h0Z"/>
    </g>
    <g>
      <rect class="cls-1" x="437.46" y="233.03" width="12.92" height="12.92"/>
      <path class="cls-1" d="M449.96,233.45v12.07h-12.07v-12.07h12.07M450.81,232.6h-13.77v13.77h13.77v-13.77h0Z"/>
    </g>
    <g>
      <rect class="cls-1" x="437.34" y="252.65" width="12.92" height="12.92"/>
      <path class="cls-1" d="M449.84,253.08v12.07h-12.07v-12.07h12.07M450.69,252.23h-13.77v13.77h13.77v-13.77h0Z"/>
    </g>
    <g>
      <rect class="cls-1" x="417.95" y="233.03" width="12.92" height="12.92"/>
      <path class="cls-1" d="M430.45,233.45v12.07h-12.07v-12.07h12.07M431.3,232.6h-13.77v13.77h13.77v-13.77h0Z"/>
    </g>
    <g>
      <rect class="cls-1" x="398.44" y="233.03" width="12.92" height="12.92"/>
      <path class="cls-1" d="M410.93,233.45v12.07h-12.07v-12.07h12.07M411.79,232.6h-13.77v13.77h13.77v-13.77h0Z"/>
    </g>
    <g>
      <rect class="cls-1" x="398.32" y="252.65" width="12.92" height="12.92"/>
      <path class="cls-1" d="M410.82,253.08v12.07h-12.07v-12.07h12.07M411.67,252.23h-13.77v13.77h13.77v-13.77h0Z"/>
    </g>
    <g>
      <rect class="cls-1" x="417.83" y="252.65" width="12.92" height="12.92"/>
      <path class="cls-1" d="M430.33,253.08v12.07h-12.07v-12.07h12.07M431.18,252.23h-13.77v13.77h13.77v-13.77h0Z"/>
    </g>
    <g>
      <rect class="cls-1" x="378.93" y="233.03" width="12.92" height="12.92"/>
      <path class="cls-1" d="M391.42,233.45v12.07h-12.07v-12.07h12.07M392.27,232.6h-13.77v13.77h13.77v-13.77h0Z"/>
    </g>
    <g>
      <rect class="cls-1" x="378.81" y="252.65" width="12.92" height="12.92"/>
      <path class="cls-1" d="M391.31,253.08v12.07h-12.07v-12.07h12.07M392.16,252.23h-13.77v13.77h13.77v-13.77h0Z"/>
    </g>
  </g>
</svg>