<?xml version="1.0" encoding="UTF-8"?>
<svg id="Layer_2" xmlns="http://www.w3.org/2000/svg" viewBox="0 0 623.62 368.5">
  <defs>
    <style>
      .cls-1 {
        fill: #231f20;
      }

      .cls-2 {
        fill: #fff;
      }
    </style>
  </defs>
  <g id="Layer_1-2" data-name="Layer_1">
    <rect class="cls-2" x="0" y="0" width="623.62" height="368.5" transform="translate(623.62 368.5) rotate(-180)"/>
    <g>
      <g>
        <rect class="cls-1" x="290.94" y="102.93" width="7.76" height="7.76"/>
        <path class="cls-1" d="M298.27,103.35v6.91h-6.91v-6.91h6.91M299.12,102.5h-8.61v8.61h8.61v-8.61h0Z"/>
      </g>
      <g>
        <rect class="cls-1" x="291.01" y="115.2" width="7.76" height="7.76"/>
        <path class="cls-1" d="M298.34,115.62v6.91h-6.91v-6.91h6.91M299.19,114.77h-8.61v8.61h8.61v-8.61h0Z"/>
      </g>
      <g>
        <rect class="cls-1" x="303.13" y="102.93" width="7.76" height="7.76"/>
        <path class="cls-1" d="M310.47,103.35v6.91h-6.91v-6.91h6.91M311.32,102.5h-8.61v8.61h8.61v-8.61h0Z"/>
      </g>
      <g>
        <rect class="cls-1" x="315.33" y="102.93" width="7.76" height="7.76"/>
        <path class="cls-1" d="M322.66,103.35v6.91h-6.91v-6.91h6.91M323.51,102.5h-8.61v8.61h8.61v-8.61h0Z"/>
      </g>
      <g>
        <rect class="cls-1" x="315.4" y="115.2" width="7.76" height="7.76"/>
        <path class="cls-1" d="M322.74,115.62v6.91h-6.91v-6.91h6.91M323.59,114.77h-8.61v8.61h8.61v-8.61h0Z"/>
      </g>
      <g>
        <rect class="cls-1" x="303.21" y="115.2" width="7.76" height="7.76"/>
        <path class="cls-1" d="M310.54,115.62v6.91h-6.91v-6.91h6.91M311.39,114.77h-8.61v8.61h8.61v-8.61h0Z"/>
      </g>
      <g>
        <rect class="cls-1" x="327.53" y="102.93" width="7.76" height="7.76"/>
        <path class="cls-1" d="M334.86,103.35v6.91h-6.91v-6.91h6.91M335.71,102.5h-8.61v8.61h8.61v-8.61h0Z"/>
      </g>
      <g>
        <rect class="cls-1" x="327.6" y="115.2" width="7.76" height="7.76"/>
        <path class="cls-1" d="M334.93,115.62v6.91h-6.91v-6.91h6.91M335.78,114.77h-8.61v8.61h8.61v-8.61h0Z"/>
      </g>
      <g>
        <rect class="cls-1" x="290.94" y="127.47" width="7.76" height="7.76"/>
        <path class="cls-1" d="M298.27,127.89v6.91h-6.91v-6.91h6.91M299.12,127.04h-8.61v8.61h8.61v-8.61h0Z"/>
      </g>
      <g>
        <rect class="cls-1" x="291.01" y="139.74" width="7.76" height="7.76"/>
        <path class="cls-1" d="M298.34,140.16v6.91h-6.91v-6.91h6.91M299.19,139.31h-8.61v8.61h8.61v-8.61h0Z"/>
      </g>
      <g>
        <rect class="cls-1" x="303.13" y="127.47" width="7.76" height="7.76"/>
        <path class="cls-1" d="M310.47,127.89v6.91h-6.91v-6.91h6.91M311.32,127.04h-8.61v8.61h8.61v-8.61h0Z"/>
      </g>
      <g>
        <rect class="cls-1" x="315.33" y="127.47" width="7.76" height="7.76"/>
        <path class="cls-1" d="M322.66,127.89v6.91h-6.91v-6.91h6.91M323.51,127.04h-8.61v8.61h8.61v-8.61h0Z"/>
      </g>
      <g>
        <rect class="cls-1" x="315.4" y="139.74" width="7.76" height="7.76"/>
        <path class="cls-1" d="M322.74,140.16v6.91h-6.91v-6.91h6.91M323.59,139.31h-8.61v8.61h8.61v-8.61h0Z"/>
      </g>
      <g>
        <rect class="cls-1" x="303.21" y="139.74" width="7.76" height="7.76"/>
        <path class="cls-1" d="M310.54,140.16v6.91h-6.91v-6.91h6.91M311.39,139.31h-8.61v8.61h8.61v-8.61h0Z"/>
      </g>
      <g>
        <rect class="cls-1" x="327.53" y="127.47" width="7.76" height="7.76"/>
        <path class="cls-1" d="M334.86,127.89v6.91h-6.91v-6.91h6.91M335.71,127.04h-8.61v8.61h8.61v-8.61h0Z"/>
      </g>
      <g>
        <rect class="cls-1" x="327.6" y="139.74" width="7.76" height="7.76"/>
        <path class="cls-1" d="M334.93,140.16v6.91h-6.91v-6.91h6.91M335.78,139.31h-8.61v8.61h8.61v-8.61h0Z"/>
      </g>
      <g>
        <rect class="cls-1" x="381.48" y="193.77" width="7.76" height="7.76"/>
        <path class="cls-1" d="M388.82,194.19v6.91h-6.91v-6.91h6.91M389.67,193.34h-8.61v8.61h8.61v-8.61h0Z"/>
      </g>
      <g>
        <rect class="cls-1" x="381.56" y="206.04" width="7.76" height="7.76"/>
        <path class="cls-1" d="M388.89,206.46v6.91h-6.91v-6.91h6.91M389.74,205.61h-8.61v8.61h8.61v-8.61h0Z"/>
      </g>
      <g>
        <rect class="cls-1" x="393.68" y="193.77" width="7.76" height="7.76"/>
        <path class="cls-1" d="M401.01,194.19v6.91h-6.91v-6.91h6.91M401.86,193.34h-8.61v8.61h8.61v-8.61h0Z"/>
      </g>
      <g>
        <rect class="cls-1" x="393.75" y="206.04" width="7.76" height="7.76"/>
        <path class="cls-1" d="M401.09,206.46v6.91h-6.91v-6.91h6.91M401.94,205.61h-8.61v8.61h8.61v-8.61h0Z"/>
      </g>
      <g>
        <rect class="cls-1" x="381.48" y="218.31" width="7.76" height="7.76"/>
        <path class="cls-1" d="M388.82,218.73v6.91h-6.91v-6.91h6.91M389.67,217.88h-8.61v8.61h8.61v-8.61h0Z"/>
      </g>
      <g>
        <rect class="cls-1" x="381.56" y="230.58" width="7.76" height="7.76"/>
        <path class="cls-1" d="M388.89,231v6.91h-6.91v-6.91h6.91M389.74,230.15h-8.61v8.61h8.61v-8.61h0Z"/>
      </g>
      <g>
        <rect class="cls-1" x="393.68" y="218.31" width="7.76" height="7.76"/>
        <path class="cls-1" d="M401.01,218.73v6.91h-6.91v-6.91h6.91M401.86,217.88h-8.61v8.61h8.61v-8.61h0Z"/>
      </g>
      <g>
        <rect class="cls-1" x="393.75" y="230.58" width="7.76" height="7.76"/>
        <path class="cls-1" d="M401.09,231v6.91h-6.91v-6.91h6.91M401.94,230.15h-8.61v8.61h8.61v-8.61h0Z"/>
      </g>
      <g>
        <rect class="cls-1" x="381.48" y="242.85" width="7.76" height="7.76"/>
        <path class="cls-1" d="M388.82,243.27v6.91h-6.91v-6.91h6.91M389.67,242.42h-8.61v8.61h8.61v-8.61h0Z"/>
      </g>
      <g>
        <rect class="cls-1" x="381.56" y="255.12" width="7.76" height="7.76"/>
        <path class="cls-1" d="M388.89,255.54v6.91h-6.91v-6.91h6.91M389.74,254.69h-8.61v8.61h8.61v-8.61h0Z"/>
      </g>
      <g>
        <rect class="cls-1" x="393.68" y="242.85" width="7.76" height="7.76"/>
        <path class="cls-1" d="M401.01,243.27v6.91h-6.91v-6.91h6.91M401.86,242.42h-8.61v8.61h8.61v-8.61h0Z"/>
      </g>
      <g>
        <rect class="cls-1" x="393.75" y="255.12" width="7.76" height="7.76"/>
        <path class="cls-1" d="M401.09,255.54v6.91h-6.91v-6.91h6.91M401.94,254.69h-8.61v8.61h8.61v-8.61h0Z"/>
      </g>
      <g>
        <rect class="cls-1" x="405.96" y="193.77" width="7.76" height="7.76"/>
        <path class="cls-1" d="M413.29,194.19v6.91h-6.91v-6.91h6.91M414.15,193.34h-8.61v8.61h8.61v-8.61h0Z"/>
      </g>
      <g>
        <rect class="cls-1" x="418.16" y="193.77" width="7.76" height="7.76"/>
        <path class="cls-1" d="M425.49,194.19v6.91h-6.91v-6.91h6.91M426.34,193.34h-8.61v8.61h8.61v-8.61h0Z"/>
      </g>
      <g>
        <rect class="cls-1" x="418.23" y="206.04" width="7.76" height="7.76"/>
        <path class="cls-1" d="M425.56,206.46v6.91h-6.91v-6.91h6.91M426.42,205.61h-8.61v8.61h8.61v-8.61h0Z"/>
      </g>
      <g>
        <rect class="cls-1" x="405.96" y="206.04" width="7.76" height="7.76"/>
        <path class="cls-1" d="M413.29,206.46v6.91h-6.91v-6.91h6.91M414.15,205.61h-8.61v8.61h8.61v-8.61h0Z"/>
      </g>
      <g>
        <rect class="cls-1" x="430.36" y="193.77" width="7.76" height="7.76"/>
        <path class="cls-1" d="M437.69,194.19v6.91h-6.91v-6.91h6.91M438.54,193.34h-8.61v8.61h8.61v-8.61h0Z"/>
      </g>
      <g>
        <rect class="cls-1" x="430.43" y="206.04" width="7.76" height="7.76"/>
        <path class="cls-1" d="M437.76,206.46v6.91h-6.91v-6.91h6.91M438.61,205.61h-8.61v8.61h8.61v-8.61h0Z"/>
      </g>
      <g>
        <rect class="cls-1" x="442.55" y="193.77" width="7.76" height="7.76"/>
        <path class="cls-1" d="M449.89,194.19v6.91h-6.91v-6.91h6.91M450.74,193.34h-8.61v8.61h8.61v-8.61h0Z"/>
      </g>
      <g>
        <rect class="cls-1" x="442.63" y="206.04" width="7.76" height="7.76"/>
        <path class="cls-1" d="M449.96,206.46v6.91h-6.91v-6.91h6.91M450.81,205.61h-8.61v8.61h8.61v-8.61h0Z"/>
      </g>
      <g>
        <rect class="cls-1" x="405.96" y="218.31" width="7.76" height="7.76"/>
        <path class="cls-1" d="M413.29,218.73v6.91h-6.91v-6.91h6.91M414.15,217.88h-8.61v8.61h8.61v-8.61h0Z"/>
      </g>
      <g>
        <rect class="cls-1" x="418.16" y="218.31" width="7.76" height="7.76"/>
        <path class="cls-1" d="M425.49,218.73v6.91h-6.91v-6.91h6.91M426.34,217.88h-8.61v8.61h8.61v-8.61h0Z"/>
      </g>
      <g>
        <rect class="cls-1" x="418.23" y="230.58" width="7.76" height="7.76"/>
        <path class="cls-1" d="M425.56,231v6.91h-6.91v-6.91h6.91M426.42,230.15h-8.61v8.61h8.61v-8.61h0Z"/>
      </g>
      <g>
        <rect class="cls-1" x="405.96" y="230.58" width="7.76" height="7.76"/>
        <path class="cls-1" d="M413.29,231v6.91h-6.91v-6.91h6.91M414.15,230.15h-8.61v8.61h8.61v-8.61h0Z"/>
      </g>
      <g>
        <rect class="cls-1" x="430.36" y="218.31" width="7.76" height="7.76"/>
        <path class="cls-1" d="M437.69,218.73v6.91h-6.91v-6.91h6.91M438.54,217.88h-8.61v8.61h8.61v-8.61h0Z"/>
      </g>
      <g>
        <rect class="cls-1" x="430.43" y="230.58" width="7.76" height="7.76"/>
        <path class="cls-1" d="M437.76,231v6.91h-6.91v-6.91h6.91M438.61,230.15h-8.61v8.61h8.61v-8.61h0Z"/>
      </g>
      <g>
        <rect class="cls-1" x="442.55" y="218.31" width="7.76" height="7.76"/>
        <path class="cls-1" d="M449.89,218.73v6.91h-6.91v-6.91h6.91M450.74,217.88h-8.61v8.61h8.61v-8.61h0Z"/>
      </g>
      <g>
        <rect class="cls-1" x="442.63" y="230.58" width="7.76" height="7.76"/>
        <path class="cls-1" d="M449.96,231v6.91h-6.91v-6.91h6.91M450.81,230.15h-8.61v8.61h8.61v-8.61h0Z"/>
      </g>
      <g>
        <rect class="cls-1" x="405.96" y="242.85" width="7.76" height="7.76"/>
        <path class="cls-1" d="M413.29,243.27v6.91h-6.91v-6.91h6.91M414.15,242.42h-8.61v8.61h8.61v-8.61h0Z"/>
      </g>
      <g>
        <rect class="cls-1" x="418.16" y="242.85" width="7.76" height="7.76"/>
        <path class="cls-1" d="M425.49,243.27v6.91h-6.91v-6.91h6.91M426.34,242.42h-8.61v8.61h8.61v-8.61h0Z"/>
      </g>
      <g>
        <rect class="cls-1" x="418.23" y="255.12" width="7.76" height="7.76"/>
        <path class="cls-1" d="M425.56,255.54v6.91h-6.91v-6.91h6.91M426.42,254.69h-8.61v8.61h8.61v-8.61h0Z"/>
      </g>
      <g>
        <rect class="cls-1" x="405.96" y="255.12" width="7.76" height="7.76"/>
        <path class="cls-1" d="M413.29,255.54v6.91h-6.91v-6.91h6.91M414.15,254.69h-8.61v8.61h8.61v-8.61h0Z"/>
      </g>
      <g>
        <rect class="cls-1" x="430.36" y="242.85" width="7.76" height="7.76"/>
        <path class="cls-1" d="M437.69,243.27v6.91h-6.91v-6.91h6.91M438.54,242.42h-8.61v8.61h8.61v-8.61h0Z"/>
      </g>
      <g>
        <rect class="cls-1" x="430.43" y="255.12" width="7.76" height="7.76"/>
        <path class="cls-1" d="M437.76,255.54v6.91h-6.91v-6.91h6.91M438.61,254.69h-8.61v8.61h8.61v-8.61h0Z"/>
      </g>
      <g>
        <rect class="cls-1" x="442.55" y="242.85" width="7.76" height="7.76"/>
        <path class="cls-1" d="M449.89,243.27v6.91h-6.91v-6.91h6.91M450.74,242.42h-8.61v8.61h8.61v-8.61h0Z"/>
      </g>
      <g>
        <rect class="cls-1" x="442.63" y="255.12" width="7.76" height="7.76"/>
        <path class="cls-1" d="M449.96,255.54v6.91h-6.91v-6.91h6.91M450.81,254.69h-8.61v8.61h8.61v-8.61h0Z"/>
      </g>
      <g>
        <rect class="cls-1" x="173.49" y="194.02" width="12.41" height="12.41"/>
        <path class="cls-1" d="M185.22,194.7v11.05h-11.05v-11.05h11.05M186.59,193.34h-13.77v13.77h13.77v-13.77h0Z"/>
      </g>
      <g>
        <rect class="cls-1" x="173.61" y="213.65" width="12.41" height="12.41"/>
        <path class="cls-1" d="M185.34,214.33v11.05h-11.05v-11.05h11.05M186.7,212.97h-13.77v13.77h13.77v-13.77h0Z"/>
      </g>
      <g>
        <rect class="cls-1" x="193.01" y="194.02" width="12.41" height="12.41"/>
        <path class="cls-1" d="M204.74,194.7v11.05h-11.05v-11.05h11.05M206.1,193.34h-13.77v13.77h13.77v-13.77h0Z"/>
      </g>
      <g>
        <rect class="cls-1" x="212.52" y="194.02" width="12.41" height="12.41"/>
        <path class="cls-1" d="M224.25,194.7v11.05h-11.05v-11.05h11.05M225.61,193.34h-13.77v13.77h13.77v-13.77h0Z"/>
      </g>
      <g>
        <rect class="cls-1" x="212.63" y="213.65" width="12.41" height="12.41"/>
        <path class="cls-1" d="M224.37,214.33v11.05h-11.05v-11.05h11.05M225.73,212.97h-13.77v13.77h13.77v-13.77h0Z"/>
      </g>
      <g>
        <rect class="cls-1" x="193.12" y="213.65" width="12.41" height="12.41"/>
        <path class="cls-1" d="M204.85,214.33v11.05h-11.05v-11.05h11.05M206.21,212.97h-13.77v13.77h13.77v-13.77h0Z"/>
      </g>
      <g>
        <rect class="cls-1" x="232.03" y="194.02" width="12.41" height="12.41"/>
        <path class="cls-1" d="M243.76,194.7v11.05h-11.05v-11.05h11.05M245.12,193.34h-13.77v13.77h13.77v-13.77h0Z"/>
      </g>
      <g>
        <rect class="cls-1" x="232.15" y="213.65" width="12.41" height="12.41"/>
        <path class="cls-1" d="M243.88,214.33v11.05h-11.05v-11.05h11.05M245.24,212.97h-13.77v13.77h13.77v-13.77h0Z"/>
      </g>
      <g>
        <rect class="cls-1" x="173.49" y="233.28" width="12.41" height="12.41"/>
        <path class="cls-1" d="M185.22,233.96v11.05h-11.05v-11.05h11.05M186.59,232.6h-13.77v13.77h13.77v-13.77h0Z"/>
      </g>
      <g>
        <rect class="cls-1" x="173.61" y="252.91" width="12.41" height="12.41"/>
        <path class="cls-1" d="M185.34,253.59v11.05h-11.05v-11.05h11.05M186.7,252.23h-13.77v13.77h13.77v-13.77h0Z"/>
      </g>
      <g>
        <rect class="cls-1" x="193.01" y="233.28" width="12.41" height="12.41"/>
        <path class="cls-1" d="M204.74,233.96v11.05h-11.05v-11.05h11.05M206.1,232.6h-13.77v13.77h13.77v-13.77h0Z"/>
      </g>
      <g>
        <rect class="cls-1" x="212.52" y="233.28" width="12.41" height="12.41"/>
        <path class="cls-1" d="M224.25,233.96v11.05h-11.05v-11.05h11.05M225.61,232.6h-13.77v13.77h13.77v-13.77h0Z"/>
      </g>
      <g>
        <rect class="cls-1" x="212.63" y="252.91" width="12.41" height="12.41"/>
        <path class="cls-1" d="M224.37,253.59v11.05h-11.05v-11.05h11.05M225.73,252.23h-13.77v13.77h13.77v-13.77h0Z"/>
      </g>
      <g>
        <rect class="cls-1" x="193.12" y="252.91" width="12.41" height="12.41"/>
        <path class="cls-1" d="M204.85,253.59v11.05h-11.05v-11.05h11.05M206.21,252.23h-13.77v13.77h13.77v-13.77h0Z"/>
      </g>
      <g>
        <rect class="cls-1" x="232.03" y="233.28" width="12.41" height="12.41"/>
        <path class="cls-1" d="M243.76,233.96v11.05h-11.05v-11.05h11.05M245.12,232.6h-13.77v13.77h13.77v-13.77h0Z"/>
      </g>
      <g>
        <rect class="cls-1" x="232.15" y="252.91" width="12.41" height="12.41"/>
        <path class="cls-1" d="M243.88,253.59v11.05h-11.05v-11.05h11.05M245.24,252.23h-13.77v13.77h13.77v-13.77h0Z"/>
      </g>
    </g>
  </g>
</svg>