<?xml version="1.0" encoding="UTF-8"?>
<svg id="Layer_2" xmlns="http://www.w3.org/2000/svg" viewBox="0 0 623.62 368.5">
  <defs>
    <style>
      .cls-1 {
        fill: #231f20;
      }

      .cls-2 {
        fill: #fff;
      }
    </style>
  </defs>
  <g id="Layer_2-2" data-name="Layer_2">
    <rect class="cls-2" width="623.62" height="368.5"/>
    <g>
      <g>
        <rect class="cls-2" x="326.26" y="102.93" width="7.76" height="7.76"/>
        <path class="cls-1" d="M333.6,103.35v6.91h-6.91v-6.91h6.91M334.45,102.5h-8.61v8.61h8.61v-8.61h0Z"/>
      </g>
      <g>
        <rect class="cls-2" x="326.19" y="115.2" width="7.76" height="7.76"/>
        <path class="cls-1" d="M333.52,115.62v6.91h-6.91v-6.91h6.91M334.37,114.77h-8.61v8.61h8.61v-8.61h0Z"/>
      </g>
      <g>
        <rect class="cls-2" x="314.07" y="102.93" width="7.76" height="7.76"/>
        <path class="cls-1" d="M321.4,103.35v6.91h-6.91v-6.91h6.91M322.25,102.5h-8.61v8.61h8.61v-8.61h0Z"/>
      </g>
      <g>
        <rect class="cls-2" x="301.87" y="102.93" width="7.76" height="7.76"/>
        <path class="cls-1" d="M309.2,103.35v6.91h-6.91v-6.91h6.91M310.05,102.5h-8.61v8.61h8.61v-8.61h0Z"/>
      </g>
      <g>
        <rect class="cls-2" x="301.8" y="115.2" width="7.76" height="7.76"/>
        <path class="cls-1" d="M309.13,115.62v6.91h-6.91v-6.91h6.91M309.98,114.77h-8.61v8.61h8.61v-8.61h0Z"/>
      </g>
      <g>
        <rect class="cls-2" x="313.99" y="115.2" width="7.76" height="7.76"/>
        <path class="cls-1" d="M321.33,115.62v6.91h-6.91v-6.91h6.91M322.18,114.77h-8.61v8.61h8.61v-8.61h0Z"/>
      </g>
      <g>
        <rect class="cls-2" x="289.67" y="102.93" width="7.76" height="7.76"/>
        <path class="cls-1" d="M297.01,103.35v6.91h-6.91v-6.91h6.91M297.86,102.5h-8.61v8.61h8.61v-8.61h0Z"/>
      </g>
      <g>
        <rect class="cls-2" x="289.6" y="115.2" width="7.76" height="7.76"/>
        <path class="cls-1" d="M296.93,115.62v6.91h-6.91v-6.91h6.91M297.78,114.77h-8.61v8.61h8.61v-8.61h0Z"/>
      </g>
      <g>
        <rect class="cls-2" x="326.26" y="127.47" width="7.76" height="7.76"/>
        <path class="cls-1" d="M333.6,127.89v6.91h-6.91v-6.91h6.91M334.45,127.04h-8.61v8.61h8.61v-8.61h0Z"/>
      </g>
      <g>
        <rect class="cls-2" x="326.19" y="139.74" width="7.76" height="7.76"/>
        <path class="cls-1" d="M333.52,140.16v6.91h-6.91v-6.91h6.91M334.37,139.31h-8.61v8.61h8.61v-8.61h0Z"/>
      </g>
      <g>
        <rect class="cls-2" x="314.07" y="127.47" width="7.76" height="7.76"/>
        <path class="cls-1" d="M321.4,127.89v6.91h-6.91v-6.91h6.91M322.25,127.04h-8.61v8.61h8.61v-8.61h0Z"/>
      </g>
      <g>
        <rect class="cls-2" x="301.87" y="127.47" width="7.76" height="7.76"/>
        <path class="cls-1" d="M309.2,127.89v6.91h-6.91v-6.91h6.91M310.05,127.04h-8.61v8.61h8.61v-8.61h0Z"/>
      </g>
      <g>
        <rect class="cls-2" x="301.8" y="139.74" width="7.76" height="7.76"/>
        <path class="cls-1" d="M309.13,140.16v6.91h-6.91v-6.91h6.91M309.98,139.31h-8.61v8.61h8.61v-8.61h0Z"/>
      </g>
      <g>
        <rect class="cls-2" x="313.99" y="139.74" width="7.76" height="7.76"/>
        <path class="cls-1" d="M321.33,140.16v6.91h-6.91v-6.91h6.91M322.18,139.31h-8.61v8.61h8.61v-8.61h0Z"/>
      </g>
      <g>
        <rect class="cls-2" x="289.67" y="127.47" width="7.76" height="7.76"/>
        <path class="cls-1" d="M297.01,127.89v6.91h-6.91v-6.91h6.91M297.86,127.04h-8.61v8.61h8.61v-8.61h0Z"/>
      </g>
      <g>
        <rect class="cls-2" x="289.6" y="139.74" width="7.76" height="7.76"/>
        <path class="cls-1" d="M296.93,140.16v6.91h-6.91v-6.91h6.91M297.78,139.31h-8.61v8.61h8.61v-8.61h0Z"/>
      </g>
    </g>
    <g>
      <g>
        <rect class="cls-2" x="236.17" y="193.29" width="7.76" height="7.76"/>
        <path class="cls-1" d="M243.5,193.72v6.91h-6.91v-6.91h6.91M244.35,192.87h-8.61v8.61h8.61v-8.61h0Z"/>
      </g>
      <g>
        <rect class="cls-2" x="236.1" y="205.56" width="7.76" height="7.76"/>
        <path class="cls-1" d="M243.43,205.99v6.91h-6.91v-6.91h6.91M244.28,205.14h-8.61v8.61h8.61v-8.61h0Z"/>
      </g>
      <g>
        <rect class="cls-2" x="223.97" y="193.29" width="7.76" height="7.76"/>
        <path class="cls-1" d="M231.31,193.72v6.91h-6.91v-6.91h6.91M232.16,192.87h-8.61v8.61h8.61v-8.61h0Z"/>
      </g>
      <g>
        <rect class="cls-2" x="223.9" y="205.56" width="7.76" height="7.76"/>
        <path class="cls-1" d="M231.23,205.99v6.91h-6.91v-6.91h6.91M232.08,205.14h-8.61v8.61h8.61v-8.61h0Z"/>
      </g>
      <g>
        <rect class="cls-2" x="236.17" y="217.83" width="7.76" height="7.76"/>
        <path class="cls-1" d="M243.5,218.26v6.91h-6.91v-6.91h6.91M244.35,217.41h-8.61v8.61h8.61v-8.61h0Z"/>
      </g>
      <g>
        <rect class="cls-2" x="236.1" y="230.1" width="7.76" height="7.76"/>
        <path class="cls-1" d="M243.43,230.53v6.91h-6.91v-6.91h6.91M244.28,229.68h-8.61v8.61h8.61v-8.61h0Z"/>
      </g>
      <g>
        <rect class="cls-2" x="223.97" y="217.83" width="7.76" height="7.76"/>
        <path class="cls-1" d="M231.31,218.26v6.91h-6.91v-6.91h6.91M232.16,217.41h-8.61v8.61h8.61v-8.61h0Z"/>
      </g>
      <g>
        <rect class="cls-2" x="223.9" y="230.1" width="7.76" height="7.76"/>
        <path class="cls-1" d="M231.23,230.53v6.91h-6.91v-6.91h6.91M232.08,229.68h-8.61v8.61h8.61v-8.61h0Z"/>
      </g>
      <g>
        <rect class="cls-2" x="236.17" y="242.37" width="7.76" height="7.76"/>
        <path class="cls-1" d="M243.5,242.8v6.91h-6.91v-6.91h6.91M244.35,241.95h-8.61v8.61h8.61v-8.61h0Z"/>
      </g>
      <g>
        <rect class="cls-2" x="236.1" y="254.64" width="7.76" height="7.76"/>
        <path class="cls-1" d="M243.43,255.07v6.91h-6.91v-6.91h6.91M244.28,254.22h-8.61v8.61h8.61v-8.61h0Z"/>
      </g>
      <g>
        <rect class="cls-2" x="223.97" y="242.37" width="7.76" height="7.76"/>
        <path class="cls-1" d="M231.31,242.8v6.91h-6.91v-6.91h6.91M232.16,241.95h-8.61v8.61h8.61v-8.61h0Z"/>
      </g>
      <g>
        <rect class="cls-2" x="223.9" y="254.64" width="7.76" height="7.76"/>
        <path class="cls-1" d="M231.23,255.07v6.91h-6.91v-6.91h6.91M232.08,254.22h-8.61v8.61h8.61v-8.61h0Z"/>
      </g>
      <g>
        <rect class="cls-2" x="211.69" y="193.29" width="7.76" height="7.76"/>
        <path class="cls-1" d="M219.02,193.72v6.91h-6.91v-6.91h6.91M219.87,192.87h-8.61v8.61h8.61v-8.61h0Z"/>
      </g>
      <g>
        <rect class="cls-2" x="199.49" y="193.29" width="7.76" height="7.76"/>
        <path class="cls-1" d="M206.83,193.72v6.91h-6.91v-6.91h6.91M207.68,192.87h-8.61v8.61h8.61v-8.61h0Z"/>
      </g>
      <g>
        <rect class="cls-2" x="199.42" y="205.56" width="7.76" height="7.76"/>
        <path class="cls-1" d="M206.75,205.99v6.91h-6.91v-6.91h6.91M207.6,205.14h-8.61v8.61h8.61v-8.61h0Z"/>
      </g>
      <g>
        <rect class="cls-2" x="211.69" y="205.56" width="7.76" height="7.76"/>
        <path class="cls-1" d="M219.02,205.99v6.91h-6.91v-6.91h6.91M219.87,205.14h-8.61v8.61h8.61v-8.61h0Z"/>
      </g>
      <g>
        <rect class="cls-2" x="187.3" y="193.29" width="7.76" height="7.76"/>
        <path class="cls-1" d="M194.63,193.72v6.91h-6.91v-6.91h6.91M195.48,192.87h-8.61v8.61h8.61v-8.61h0Z"/>
      </g>
      <g>
        <rect class="cls-2" x="187.22" y="205.56" width="7.76" height="7.76"/>
        <path class="cls-1" d="M194.56,205.99v6.91h-6.91v-6.91h6.91M195.41,205.14h-8.61v8.61h8.61v-8.61h0Z"/>
      </g>
      <g>
        <rect class="cls-2" x="175.1" y="193.29" width="7.76" height="7.76"/>
        <path class="cls-1" d="M182.43,193.72v6.91h-6.91v-6.91h6.91M183.28,192.87h-8.61v8.61h8.61v-8.61h0Z"/>
      </g>
      <g>
        <rect class="cls-2" x="175.03" y="205.56" width="7.76" height="7.76"/>
        <path class="cls-1" d="M182.36,205.99v6.91h-6.91v-6.91h6.91M183.21,205.14h-8.61v8.61h8.61v-8.61h0Z"/>
      </g>
      <g>
        <rect class="cls-2" x="211.69" y="217.83" width="7.76" height="7.76"/>
        <path class="cls-1" d="M219.02,218.26v6.91h-6.91v-6.91h6.91M219.87,217.41h-8.61v8.61h8.61v-8.61h0Z"/>
      </g>
      <g>
        <rect class="cls-2" x="199.49" y="217.83" width="7.76" height="7.76"/>
        <path class="cls-1" d="M206.83,218.26v6.91h-6.91v-6.91h6.91M207.68,217.41h-8.61v8.61h8.61v-8.61h0Z"/>
      </g>
      <g>
        <rect class="cls-2" x="199.42" y="230.1" width="7.76" height="7.76"/>
        <path class="cls-1" d="M206.75,230.53v6.91h-6.91v-6.91h6.91M207.6,229.68h-8.61v8.61h8.61v-8.61h0Z"/>
      </g>
      <g>
        <rect class="cls-2" x="211.69" y="230.1" width="7.76" height="7.76"/>
        <path class="cls-1" d="M219.02,230.53v6.91h-6.91v-6.91h6.91M219.87,229.68h-8.61v8.61h8.61v-8.61h0Z"/>
      </g>
      <g>
        <rect class="cls-2" x="187.3" y="217.83" width="7.76" height="7.76"/>
        <path class="cls-1" d="M194.63,218.26v6.91h-6.91v-6.91h6.91M195.48,217.41h-8.61v8.61h8.61v-8.61h0Z"/>
      </g>
      <g>
        <rect class="cls-2" x="187.22" y="230.1" width="7.76" height="7.76"/>
        <path class="cls-1" d="M194.56,230.53v6.91h-6.91v-6.91h6.91M195.41,229.68h-8.61v8.61h8.61v-8.61h0Z"/>
      </g>
      <g>
        <rect class="cls-2" x="175.1" y="217.83" width="7.76" height="7.76"/>
        <path class="cls-1" d="M182.43,218.26v6.91h-6.91v-6.91h6.91M183.28,217.41h-8.61v8.61h8.61v-8.61h0Z"/>
      </g>
      <g>
        <rect class="cls-2" x="175.03" y="230.1" width="7.76" height="7.76"/>
        <path class="cls-1" d="M182.36,230.53v6.91h-6.91v-6.91h6.91M183.21,229.68h-8.61v8.61h8.61v-8.61h0Z"/>
      </g>
      <g>
        <rect class="cls-2" x="211.69" y="242.37" width="7.76" height="7.76"/>
        <path class="cls-1" d="M219.02,242.8v6.91h-6.91v-6.91h6.91M219.87,241.95h-8.61v8.61h8.61v-8.61h0Z"/>
      </g>
      <g>
        <rect class="cls-2" x="199.49" y="242.37" width="7.76" height="7.76"/>
        <path class="cls-1" d="M206.83,242.8v6.91h-6.91v-6.91h6.91M207.68,241.95h-8.61v8.61h8.61v-8.61h0Z"/>
      </g>
      <g>
        <rect class="cls-2" x="199.42" y="254.64" width="7.76" height="7.76"/>
        <path class="cls-1" d="M206.75,255.07v6.91h-6.91v-6.91h6.91M207.6,254.22h-8.61v8.61h8.61v-8.61h0Z"/>
      </g>
      <g>
        <rect class="cls-2" x="211.69" y="254.64" width="7.76" height="7.76"/>
        <path class="cls-1" d="M219.02,255.07v6.91h-6.91v-6.91h6.91M219.87,254.22h-8.61v8.61h8.61v-8.61h0Z"/>
      </g>
      <g>
        <rect class="cls-2" x="187.3" y="242.37" width="7.76" height="7.76"/>
        <path class="cls-1" d="M194.63,242.8v6.91h-6.91v-6.91h6.91M195.48,241.95h-8.61v8.61h8.61v-8.61h0Z"/>
      </g>
      <g>
        <rect class="cls-2" x="187.22" y="254.64" width="7.76" height="7.76"/>
        <path class="cls-1" d="M194.56,255.07v6.91h-6.91v-6.91h6.91M195.41,254.22h-8.61v8.61h8.61v-8.61h0Z"/>
      </g>
      <g>
        <rect class="cls-2" x="175.1" y="242.37" width="7.76" height="7.76"/>
        <path class="cls-1" d="M182.43,242.8v6.91h-6.91v-6.91h6.91M183.28,241.95h-8.61v8.61h8.61v-8.61h0Z"/>
      </g>
      <g>
        <rect class="cls-2" x="175.03" y="254.64" width="7.76" height="7.76"/>
        <path class="cls-1" d="M182.36,255.07v6.91h-6.91v-6.91h6.91M183.21,254.22h-8.61v8.61h8.61v-8.61h0Z"/>
      </g>
    </g>
    <g>
      <rect class="cls-2" x="438.91" y="193.55" width="12.41" height="12.41"/>
      <path class="cls-1" d="M450.64,194.23v11.05h-11.05v-11.05h11.05M452,192.87h-13.77v13.77h13.77v-13.77h0Z"/>
    </g>
    <g>
      <rect class="cls-2" x="438.79" y="213.18" width="12.41" height="12.41"/>
      <path class="cls-1" d="M450.52,213.86v11.05h-11.05v-11.05h11.05M451.88,212.5h-13.77v13.77h13.77v-13.77h0Z"/>
    </g>
    <g>
      <rect class="cls-2" x="419.4" y="193.55" width="12.41" height="12.41"/>
      <path class="cls-1" d="M431.13,194.23v11.05h-11.05v-11.05h11.05M432.49,192.87h-13.77v13.77h13.77v-13.77h0Z"/>
    </g>
    <g>
      <rect class="cls-2" x="399.88" y="193.55" width="12.41" height="12.41"/>
      <path class="cls-1" d="M411.61,194.23v11.05h-11.05v-11.05h11.05M412.97,192.87h-13.77v13.77h13.77v-13.77h0Z"/>
    </g>
    <g>
      <rect class="cls-2" x="399.77" y="213.18" width="12.41" height="12.41"/>
      <path class="cls-1" d="M411.5,213.86v11.05h-11.05v-11.05h11.05M412.86,212.5h-13.77v13.77h13.77v-13.77h0Z"/>
    </g>
    <g>
      <rect class="cls-2" x="419.28" y="213.18" width="12.41" height="12.41"/>
      <path class="cls-1" d="M431.01,213.86v11.05h-11.05v-11.05h11.05M432.37,212.5h-13.77v13.77h13.77v-13.77h0Z"/>
    </g>
    <g>
      <rect class="cls-2" x="380.37" y="193.55" width="12.41" height="12.41"/>
      <path class="cls-1" d="M392.1,194.23v11.05h-11.05v-11.05h11.05M393.46,192.87h-13.77v13.77h13.77v-13.77h0Z"/>
    </g>
    <g>
      <rect class="cls-2" x="380.25" y="213.18" width="12.41" height="12.41"/>
      <path class="cls-1" d="M391.99,213.86v11.05h-11.05v-11.05h11.05M393.35,212.5h-13.77v13.77h13.77v-13.77h0Z"/>
    </g>
    <g>
      <rect class="cls-2" x="438.91" y="232.81" width="12.41" height="12.41"/>
      <path class="cls-1" d="M450.64,233.49v11.05h-11.05v-11.05h11.05M452,232.13h-13.77v13.77h13.77v-13.77h0Z"/>
    </g>
    <g>
      <rect class="cls-2" x="438.79" y="252.44" width="12.41" height="12.41"/>
      <path class="cls-1" d="M450.52,253.11v11.05h-11.05v-11.05h11.05M451.88,251.75h-13.77v13.77h13.77v-13.77h0Z"/>
    </g>
    <g>
      <rect class="cls-2" x="419.4" y="232.81" width="12.41" height="12.41"/>
      <path class="cls-1" d="M431.13,233.49v11.05h-11.05v-11.05h11.05M432.49,232.13h-13.77v13.77h13.77v-13.77h0Z"/>
    </g>
    <g>
      <rect class="cls-2" x="399.88" y="232.81" width="12.41" height="12.41"/>
      <path class="cls-1" d="M411.61,233.49v11.05h-11.05v-11.05h11.05M412.97,232.13h-13.77v13.77h13.77v-13.77h0Z"/>
    </g>
    <g>
      <rect class="cls-2" x="399.77" y="252.44" width="12.41" height="12.41"/>
      <path class="cls-1" d="M411.5,253.11v11.05h-11.05v-11.05h11.05M412.86,251.75h-13.77v13.77h13.77v-13.77h0Z"/>
    </g>
    <g>
      <rect class="cls-2" x="419.28" y="252.44" width="12.41" height="12.41"/>
      <path class="cls-1" d="M431.01,253.11v11.05h-11.05v-11.05h11.05M432.37,251.75h-13.77v13.77h13.77v-13.77h0Z"/>
    </g>
    <g>
      <rect class="cls-2" x="380.37" y="232.81" width="12.41" height="12.41"/>
      <path class="cls-1" d="M392.1,233.49v11.05h-11.05v-11.05h11.05M393.46,232.13h-13.77v13.77h13.77v-13.77h0Z"/>
    </g>
    <g>
      <rect class="cls-2" x="380.25" y="252.44" width="12.41" height="12.41"/>
      <path class="cls-1" d="M391.99,253.11v11.05h-11.05v-11.05h11.05M393.35,251.75h-13.77v13.77h13.77v-13.77h0Z"/>
    </g>
  </g>
</svg>