<?xml version="1.0" encoding="UTF-8"?>
<svg id="Layer_2" xmlns="http://www.w3.org/2000/svg" viewBox="0 0 623.62 368.5">
  <defs>
    <style>
      .cls-1 {
        fill: #231f20;
      }

      .cls-2 {
        fill: #fff;
      }
    </style>
  </defs>
  <g id="Layer_2-2" data-name="Layer_2">
    <rect class="cls-2" x="0" y="0" width="623.62" height="368.5" transform="translate(623.62 368.5) rotate(-180)"/>
    <g>
      <g>
        <rect class="cls-2" x="289.6" y="102.93" width="7.76" height="7.76"/>
        <path class="cls-1" d="M296.93,103.35v6.91h-6.91v-6.91h6.91M297.78,102.5h-8.61v8.61h8.61v-8.61h0Z"/>
      </g>
      <g>
        <rect class="cls-2" x="289.67" y="115.2" width="7.76" height="7.76"/>
        <path class="cls-1" d="M297.01,115.62v6.91h-6.91v-6.91h6.91M297.86,114.77h-8.61v8.61h8.61v-8.61h0Z"/>
      </g>
      <g>
        <rect class="cls-2" x="301.8" y="102.93" width="7.76" height="7.76"/>
        <path class="cls-1" d="M309.13,103.35v6.91h-6.91v-6.91h6.91M309.98,102.5h-8.61v8.61h8.61v-8.61h0Z"/>
      </g>
      <g>
        <rect class="cls-2" x="313.99" y="102.93" width="7.76" height="7.76"/>
        <path class="cls-1" d="M321.33,103.35v6.91h-6.91v-6.91h6.91M322.18,102.5h-8.61v8.61h8.61v-8.61h0Z"/>
      </g>
      <g>
        <rect class="cls-2" x="314.07" y="115.2" width="7.76" height="7.76"/>
        <path class="cls-1" d="M321.4,115.62v6.91h-6.91v-6.91h6.91M322.25,114.77h-8.61v8.61h8.61v-8.61h0Z"/>
      </g>
      <g>
        <rect class="cls-2" x="301.87" y="115.2" width="7.76" height="7.76"/>
        <path class="cls-1" d="M309.2,115.62v6.91h-6.91v-6.91h6.91M310.05,114.77h-8.61v8.61h8.61v-8.61h0Z"/>
      </g>
      <g>
        <rect class="cls-2" x="326.19" y="102.93" width="7.76" height="7.76"/>
        <path class="cls-1" d="M333.52,103.35v6.91h-6.91v-6.91h6.91M334.37,102.5h-8.61v8.61h8.61v-8.61h0Z"/>
      </g>
      <g>
        <rect class="cls-2" x="326.26" y="115.2" width="7.76" height="7.76"/>
        <path class="cls-1" d="M333.6,115.62v6.91h-6.91v-6.91h6.91M334.45,114.77h-8.61v8.61h8.61v-8.61h0Z"/>
      </g>
      <g>
        <rect class="cls-2" x="289.6" y="127.47" width="7.76" height="7.76"/>
        <path class="cls-1" d="M296.93,127.89v6.91h-6.91v-6.91h6.91M297.78,127.04h-8.61v8.61h8.61v-8.61h0Z"/>
      </g>
      <g>
        <rect class="cls-2" x="289.67" y="139.74" width="7.76" height="7.76"/>
        <path class="cls-1" d="M297.01,140.16v6.91h-6.91v-6.91h6.91M297.86,139.31h-8.61v8.61h8.61v-8.61h0Z"/>
      </g>
      <g>
        <rect class="cls-2" x="301.8" y="127.47" width="7.76" height="7.76"/>
        <path class="cls-1" d="M309.13,127.89v6.91h-6.91v-6.91h6.91M309.98,127.04h-8.61v8.61h8.61v-8.61h0Z"/>
      </g>
      <g>
        <rect class="cls-2" x="313.99" y="127.47" width="7.76" height="7.76"/>
        <path class="cls-1" d="M321.33,127.89v6.91h-6.91v-6.91h6.91M322.18,127.04h-8.61v8.61h8.61v-8.61h0Z"/>
      </g>
      <g>
        <rect class="cls-2" x="314.07" y="139.74" width="7.76" height="7.76"/>
        <path class="cls-1" d="M321.4,140.16v6.91h-6.91v-6.91h6.91M322.25,139.31h-8.61v8.61h8.61v-8.61h0Z"/>
      </g>
      <g>
        <rect class="cls-2" x="301.87" y="139.74" width="7.76" height="7.76"/>
        <path class="cls-1" d="M309.2,140.16v6.91h-6.91v-6.91h6.91M310.05,139.31h-8.61v8.61h8.61v-8.61h0Z"/>
      </g>
      <g>
        <rect class="cls-2" x="326.19" y="127.47" width="7.76" height="7.76"/>
        <path class="cls-1" d="M333.52,127.89v6.91h-6.91v-6.91h6.91M334.37,127.04h-8.61v8.61h8.61v-8.61h0Z"/>
      </g>
      <g>
        <rect class="cls-2" x="326.26" y="139.74" width="7.76" height="7.76"/>
        <path class="cls-1" d="M333.6,140.16v6.91h-6.91v-6.91h6.91M334.45,139.31h-8.61v8.61h8.61v-8.61h0Z"/>
      </g>
    </g>
    <g>
      <g>
        <rect class="cls-2" x="381.48" y="193.77" width="7.76" height="7.76"/>
        <path class="cls-1" d="M388.81,194.19v6.91h-6.91v-6.91h6.91M389.67,193.34h-8.61v8.61h8.61v-8.61h0Z"/>
      </g>
      <g>
        <rect class="cls-2" x="381.55" y="206.04" width="7.76" height="7.76"/>
        <path class="cls-1" d="M388.89,206.46v6.91h-6.91v-6.91h6.91M389.74,205.61h-8.61v8.61h8.61v-8.61h0Z"/>
      </g>
      <g>
        <rect class="cls-2" x="393.68" y="193.77" width="7.76" height="7.76"/>
        <path class="cls-1" d="M401.01,194.19v6.91h-6.91v-6.91h6.91M401.86,193.34h-8.61v8.61h8.61v-8.61h0Z"/>
      </g>
      <g>
        <rect class="cls-2" x="393.75" y="206.04" width="7.76" height="7.76"/>
        <path class="cls-1" d="M401.08,206.46v6.91h-6.91v-6.91h6.91M401.94,205.61h-8.61v8.61h8.61v-8.61h0Z"/>
      </g>
      <g>
        <rect class="cls-2" x="381.48" y="218.31" width="7.76" height="7.76"/>
        <path class="cls-1" d="M388.81,218.73v6.91h-6.91v-6.91h6.91M389.67,217.88h-8.61v8.61h8.61v-8.61h0Z"/>
      </g>
      <g>
        <rect class="cls-2" x="381.55" y="230.58" width="7.76" height="7.76"/>
        <path class="cls-1" d="M388.89,231v6.91h-6.91v-6.91h6.91M389.74,230.15h-8.61v8.61h8.61v-8.61h0Z"/>
      </g>
      <g>
        <rect class="cls-2" x="393.68" y="218.31" width="7.76" height="7.76"/>
        <path class="cls-1" d="M401.01,218.73v6.91h-6.91v-6.91h6.91M401.86,217.88h-8.61v8.61h8.61v-8.61h0Z"/>
      </g>
      <g>
        <rect class="cls-2" x="393.75" y="230.58" width="7.76" height="7.76"/>
        <path class="cls-1" d="M401.08,231v6.91h-6.91v-6.91h6.91M401.94,230.15h-8.61v8.61h8.61v-8.61h0Z"/>
      </g>
      <g>
        <rect class="cls-2" x="381.48" y="242.85" width="7.76" height="7.76"/>
        <path class="cls-1" d="M388.81,243.27v6.91h-6.91v-6.91h6.91M389.67,242.42h-8.61v8.61h8.61v-8.61h0Z"/>
      </g>
      <g>
        <rect class="cls-2" x="381.55" y="255.12" width="7.76" height="7.76"/>
        <path class="cls-1" d="M388.89,255.54v6.91h-6.91v-6.91h6.91M389.74,254.69h-8.61v8.61h8.61v-8.61h0Z"/>
      </g>
      <g>
        <rect class="cls-2" x="393.68" y="242.85" width="7.76" height="7.76"/>
        <path class="cls-1" d="M401.01,243.27v6.91h-6.91v-6.91h6.91M401.86,242.42h-8.61v8.61h8.61v-8.61h0Z"/>
      </g>
      <g>
        <rect class="cls-2" x="393.75" y="255.12" width="7.76" height="7.76"/>
        <path class="cls-1" d="M401.08,255.54v6.91h-6.91v-6.91h6.91M401.94,254.69h-8.61v8.61h8.61v-8.61h0Z"/>
      </g>
      <g>
        <rect class="cls-2" x="405.96" y="193.77" width="7.76" height="7.76"/>
        <path class="cls-1" d="M413.29,194.19v6.91h-6.91v-6.91h6.91M414.15,193.34h-8.61v8.61h8.61v-8.61h0Z"/>
      </g>
      <g>
        <rect class="cls-2" x="418.16" y="193.77" width="7.76" height="7.76"/>
        <path class="cls-1" d="M425.49,194.19v6.91h-6.91v-6.91h6.91M426.34,193.34h-8.61v8.61h8.61v-8.61h0Z"/>
      </g>
      <g>
        <rect class="cls-2" x="418.23" y="206.04" width="7.76" height="7.76"/>
        <path class="cls-1" d="M425.56,206.46v6.91h-6.91v-6.91h6.91M426.42,205.61h-8.61v8.61h8.61v-8.61h0Z"/>
      </g>
      <g>
        <rect class="cls-2" x="405.96" y="206.04" width="7.76" height="7.76"/>
        <path class="cls-1" d="M413.29,206.46v6.91h-6.91v-6.91h6.91M414.15,205.61h-8.61v8.61h8.61v-8.61h0Z"/>
      </g>
      <g>
        <rect class="cls-2" x="430.35" y="193.77" width="7.76" height="7.76"/>
        <path class="cls-1" d="M437.69,194.19v6.91h-6.91v-6.91h6.91M438.54,193.34h-8.61v8.61h8.61v-8.61h0Z"/>
      </g>
      <g>
        <rect class="cls-2" x="430.43" y="206.04" width="7.76" height="7.76"/>
        <path class="cls-1" d="M437.76,206.46v6.91h-6.91v-6.91h6.91M438.61,205.61h-8.61v8.61h8.61v-8.61h0Z"/>
      </g>
      <g>
        <rect class="cls-2" x="442.55" y="193.77" width="7.76" height="7.76"/>
        <path class="cls-1" d="M449.88,194.19v6.91h-6.91v-6.91h6.91M450.74,193.34h-8.61v8.61h8.61v-8.61h0Z"/>
      </g>
      <g>
        <rect class="cls-2" x="442.63" y="206.04" width="7.76" height="7.76"/>
        <path class="cls-1" d="M449.96,206.46v6.91h-6.91v-6.91h6.91M450.81,205.61h-8.61v8.61h8.61v-8.61h0Z"/>
      </g>
      <g>
        <rect class="cls-2" x="405.96" y="218.31" width="7.76" height="7.76"/>
        <path class="cls-1" d="M413.29,218.73v6.91h-6.91v-6.91h6.91M414.15,217.88h-8.61v8.61h8.61v-8.61h0Z"/>
      </g>
      <g>
        <rect class="cls-2" x="418.16" y="218.31" width="7.76" height="7.76"/>
        <path class="cls-1" d="M425.49,218.73v6.91h-6.91v-6.91h6.91M426.34,217.88h-8.61v8.61h8.61v-8.61h0Z"/>
      </g>
      <g>
        <rect class="cls-2" x="418.23" y="230.58" width="7.76" height="7.76"/>
        <path class="cls-1" d="M425.56,231v6.91h-6.91v-6.91h6.91M426.42,230.15h-8.61v8.61h8.61v-8.61h0Z"/>
      </g>
      <g>
        <rect class="cls-2" x="405.96" y="230.58" width="7.76" height="7.76"/>
        <path class="cls-1" d="M413.29,231v6.91h-6.91v-6.91h6.91M414.15,230.15h-8.61v8.61h8.61v-8.61h0Z"/>
      </g>
      <g>
        <rect class="cls-2" x="430.35" y="218.31" width="7.76" height="7.76"/>
        <path class="cls-1" d="M437.69,218.73v6.91h-6.91v-6.91h6.91M438.54,217.88h-8.61v8.61h8.61v-8.61h0Z"/>
      </g>
      <g>
        <rect class="cls-2" x="430.43" y="230.58" width="7.76" height="7.76"/>
        <path class="cls-1" d="M437.76,231v6.91h-6.91v-6.91h6.91M438.61,230.15h-8.61v8.61h8.61v-8.61h0Z"/>
      </g>
      <g>
        <rect class="cls-2" x="442.55" y="218.31" width="7.76" height="7.76"/>
        <path class="cls-1" d="M449.88,218.73v6.91h-6.91v-6.91h6.91M450.74,217.88h-8.61v8.61h8.61v-8.61h0Z"/>
      </g>
      <g>
        <rect class="cls-2" x="442.63" y="230.58" width="7.76" height="7.76"/>
        <path class="cls-1" d="M449.96,231v6.91h-6.91v-6.91h6.91M450.81,230.15h-8.61v8.61h8.61v-8.61h0Z"/>
      </g>
      <g>
        <rect class="cls-2" x="405.96" y="242.85" width="7.76" height="7.76"/>
        <path class="cls-1" d="M413.29,243.27v6.91h-6.91v-6.91h6.91M414.15,242.42h-8.61v8.61h8.61v-8.61h0Z"/>
      </g>
      <g>
        <rect class="cls-2" x="418.16" y="242.85" width="7.76" height="7.76"/>
        <path class="cls-1" d="M425.49,243.27v6.91h-6.91v-6.91h6.91M426.34,242.42h-8.61v8.61h8.61v-8.61h0Z"/>
      </g>
      <g>
        <rect class="cls-2" x="418.23" y="255.12" width="7.76" height="7.76"/>
        <path class="cls-1" d="M425.56,255.54v6.91h-6.91v-6.91h6.91M426.42,254.69h-8.61v8.61h8.61v-8.61h0Z"/>
      </g>
      <g>
        <rect class="cls-2" x="405.96" y="255.12" width="7.76" height="7.76"/>
        <path class="cls-1" d="M413.29,255.54v6.91h-6.91v-6.91h6.91M414.15,254.69h-8.61v8.61h8.61v-8.61h0Z"/>
      </g>
      <g>
        <rect class="cls-2" x="430.35" y="242.85" width="7.76" height="7.76"/>
        <path class="cls-1" d="M437.69,243.27v6.91h-6.91v-6.91h6.91M438.54,242.42h-8.61v8.61h8.61v-8.61h0Z"/>
      </g>
      <g>
        <rect class="cls-2" x="430.43" y="255.12" width="7.76" height="7.76"/>
        <path class="cls-1" d="M437.76,255.54v6.91h-6.91v-6.91h6.91M438.61,254.69h-8.61v8.61h8.61v-8.61h0Z"/>
      </g>
      <g>
        <rect class="cls-2" x="442.55" y="242.85" width="7.76" height="7.76"/>
        <path class="cls-1" d="M449.88,243.27v6.91h-6.91v-6.91h6.91M450.74,242.42h-8.61v8.61h8.61v-8.61h0Z"/>
      </g>
      <g>
        <rect class="cls-2" x="442.63" y="255.12" width="7.76" height="7.76"/>
        <path class="cls-1" d="M449.96,255.54v6.91h-6.91v-6.91h6.91M450.81,254.69h-8.61v8.61h8.61v-8.61h0Z"/>
      </g>
      <g>
        <rect class="cls-2" x="173.49" y="194.02" width="12.41" height="12.41"/>
        <path class="cls-1" d="M185.22,194.7v11.05h-11.05v-11.05h11.05M186.58,193.34h-13.77v13.77h13.77v-13.77h0Z"/>
      </g>
      <g>
        <rect class="cls-2" x="173.61" y="213.65" width="12.41" height="12.41"/>
        <path class="cls-1" d="M185.34,214.33v11.05h-11.05v-11.05h11.05M186.7,212.97h-13.77v13.77h13.77v-13.77h0Z"/>
      </g>
      <g>
        <rect class="cls-2" x="193.01" y="194.02" width="12.41" height="12.41"/>
        <path class="cls-1" d="M204.74,194.7v11.05h-11.05v-11.05h11.05M206.1,193.34h-13.77v13.77h13.77v-13.77h0Z"/>
      </g>
      <g>
        <rect class="cls-2" x="212.52" y="194.02" width="12.41" height="12.41"/>
        <path class="cls-1" d="M224.25,194.7v11.05h-11.05v-11.05h11.05M225.61,193.34h-13.77v13.77h13.77v-13.77h0Z"/>
      </g>
      <g>
        <rect class="cls-2" x="212.63" y="213.65" width="12.41" height="12.41"/>
        <path class="cls-1" d="M224.37,214.33v11.05h-11.05v-11.05h11.05M225.73,212.97h-13.77v13.77h13.77v-13.77h0Z"/>
      </g>
      <g>
        <rect class="cls-2" x="193.12" y="213.65" width="12.41" height="12.41"/>
        <path class="cls-1" d="M204.85,214.33v11.05h-11.05v-11.05h11.05M206.21,212.97h-13.77v13.77h13.77v-13.77h0Z"/>
      </g>
      <g>
        <rect class="cls-2" x="232.03" y="194.02" width="12.41" height="12.41"/>
        <path class="cls-1" d="M243.76,194.7v11.05h-11.05v-11.05h11.05M245.12,193.34h-13.77v13.77h13.77v-13.77h0Z"/>
      </g>
      <g>
        <rect class="cls-2" x="232.15" y="213.65" width="12.41" height="12.41"/>
        <path class="cls-1" d="M243.88,214.33v11.05h-11.05v-11.05h11.05M245.24,212.97h-13.77v13.77h13.77v-13.77h0Z"/>
      </g>
      <g>
        <rect class="cls-2" x="173.49" y="233.28" width="12.41" height="12.41"/>
        <path class="cls-1" d="M185.22,233.96v11.05h-11.05v-11.05h11.05M186.58,232.6h-13.77v13.77h13.77v-13.77h0Z"/>
      </g>
      <g>
        <rect class="cls-2" x="173.61" y="252.91" width="12.41" height="12.41"/>
        <path class="cls-1" d="M185.34,253.59v11.05h-11.05v-11.05h11.05M186.7,252.23h-13.77v13.77h13.77v-13.77h0Z"/>
      </g>
      <g>
        <rect class="cls-2" x="193.01" y="233.28" width="12.41" height="12.41"/>
        <path class="cls-1" d="M204.74,233.96v11.05h-11.05v-11.05h11.05M206.1,232.6h-13.77v13.77h13.77v-13.77h0Z"/>
      </g>
      <g>
        <rect class="cls-2" x="212.52" y="233.28" width="12.41" height="12.41"/>
        <path class="cls-1" d="M224.25,233.96v11.05h-11.05v-11.05h11.05M225.61,232.6h-13.77v13.77h13.77v-13.77h0Z"/>
      </g>
      <g>
        <rect class="cls-2" x="212.63" y="252.91" width="12.41" height="12.41"/>
        <path class="cls-1" d="M224.37,253.59v11.05h-11.05v-11.05h11.05M225.73,252.23h-13.77v13.77h13.77v-13.77h0Z"/>
      </g>
      <g>
        <rect class="cls-2" x="193.12" y="252.91" width="12.41" height="12.41"/>
        <path class="cls-1" d="M204.85,253.59v11.05h-11.05v-11.05h11.05M206.21,252.23h-13.77v13.77h13.77v-13.77h0Z"/>
      </g>
      <g>
        <rect class="cls-2" x="232.03" y="233.28" width="12.41" height="12.41"/>
        <path class="cls-1" d="M243.76,233.96v11.05h-11.05v-11.05h11.05M245.12,232.6h-13.77v13.77h13.77v-13.77h0Z"/>
      </g>
      <g>
        <rect class="cls-2" x="232.15" y="252.91" width="12.41" height="12.41"/>
        <path class="cls-1" d="M243.88,253.59v11.05h-11.05v-11.05h11.05M245.24,252.23h-13.77v13.77h13.77v-13.77h0Z"/>
      </g>
    </g>
  </g>
</svg>