<?xml version="1.0" encoding="UTF-8"?>
<svg id="Layer_2" xmlns="http://www.w3.org/2000/svg" viewBox="0 0 623.62 368.5">
  <defs>
    <style>
      .cls-1 {
        fill: #231f20;
      }

      .cls-2 {
        fill: #fff;
      }
    </style>
  </defs>
  <g id="Layer_2-2" data-name="Layer_2">
    <rect class="cls-2" x="0" y="0" width="623.62" height="368.5" transform="translate(623.62 368.5) rotate(-180)"/>
    <g>
      <g>
        <rect class="cls-2" x="289.6" y="102.93" width="7.76" height="7.76"/>
        <path class="cls-1" d="M296.93,103.35v6.91h-6.91v-6.91h6.91M297.78,102.5h-8.61v8.61h8.61v-8.61h0Z"/>
      </g>
      <g>
        <rect class="cls-2" x="289.67" y="115.2" width="7.76" height="7.76"/>
        <path class="cls-1" d="M297.01,115.62v6.91h-6.91v-6.91h6.91M297.86,114.77h-8.61v8.61h8.61v-8.61h0Z"/>
      </g>
      <g>
        <rect class="cls-2" x="301.8" y="102.93" width="7.76" height="7.76"/>
        <path class="cls-1" d="M309.13,103.35v6.91h-6.91v-6.91h6.91M309.98,102.5h-8.61v8.61h8.61v-8.61h0Z"/>
      </g>
      <g>
        <rect class="cls-2" x="313.99" y="102.93" width="7.76" height="7.76"/>
        <path class="cls-1" d="M321.33,103.35v6.91h-6.91v-6.91h6.91M322.18,102.5h-8.61v8.61h8.61v-8.61h0Z"/>
      </g>
      <g>
        <rect class="cls-2" x="314.07" y="115.2" width="7.76" height="7.76"/>
        <path class="cls-1" d="M321.4,115.62v6.91h-6.91v-6.91h6.91M322.25,114.77h-8.61v8.61h8.61v-8.61h0Z"/>
      </g>
      <g>
        <rect class="cls-2" x="301.87" y="115.2" width="7.76" height="7.76"/>
        <path class="cls-1" d="M309.2,115.62v6.91h-6.91v-6.91h6.91M310.05,114.77h-8.61v8.61h8.61v-8.61h0Z"/>
      </g>
      <g>
        <rect class="cls-2" x="326.19" y="102.93" width="7.76" height="7.76"/>
        <path class="cls-1" d="M333.52,103.35v6.91h-6.91v-6.91h6.91M334.37,102.5h-8.61v8.61h8.61v-8.61h0Z"/>
      </g>
      <g>
        <rect class="cls-2" x="326.26" y="115.2" width="7.76" height="7.76"/>
        <path class="cls-1" d="M333.6,115.62v6.91h-6.91v-6.91h6.91M334.45,114.77h-8.61v8.61h8.61v-8.61h0Z"/>
      </g>
      <g>
        <rect class="cls-2" x="289.6" y="127.47" width="7.76" height="7.76"/>
        <path class="cls-1" d="M296.93,127.89v6.91h-6.91v-6.91h6.91M297.78,127.04h-8.61v8.61h8.61v-8.61h0Z"/>
      </g>
      <g>
        <rect class="cls-2" x="289.67" y="139.74" width="7.76" height="7.76"/>
        <path class="cls-1" d="M297.01,140.16v6.91h-6.91v-6.91h6.91M297.86,139.31h-8.61v8.61h8.61v-8.61h0Z"/>
      </g>
      <g>
        <rect class="cls-2" x="301.8" y="127.47" width="7.76" height="7.76"/>
        <path class="cls-1" d="M309.13,127.89v6.91h-6.91v-6.91h6.91M309.98,127.04h-8.61v8.61h8.61v-8.61h0Z"/>
      </g>
      <g>
        <rect class="cls-2" x="313.99" y="127.47" width="7.76" height="7.76"/>
        <path class="cls-1" d="M321.33,127.89v6.91h-6.91v-6.91h6.91M322.18,127.04h-8.61v8.61h8.61v-8.61h0Z"/>
      </g>
      <g>
        <rect class="cls-2" x="314.07" y="139.74" width="7.76" height="7.76"/>
        <path class="cls-1" d="M321.4,140.16v6.91h-6.91v-6.91h6.91M322.25,139.31h-8.61v8.61h8.61v-8.61h0Z"/>
      </g>
      <g>
        <rect class="cls-2" x="301.87" y="139.74" width="7.76" height="7.76"/>
        <path class="cls-1" d="M309.2,140.16v6.91h-6.91v-6.91h6.91M310.05,139.31h-8.61v8.61h8.61v-8.61h0Z"/>
      </g>
      <g>
        <rect class="cls-2" x="326.19" y="127.47" width="7.76" height="7.76"/>
        <path class="cls-1" d="M333.52,127.89v6.91h-6.91v-6.91h6.91M334.37,127.04h-8.61v8.61h8.61v-8.61h0Z"/>
      </g>
      <g>
        <rect class="cls-2" x="326.26" y="139.74" width="7.76" height="7.76"/>
        <path class="cls-1" d="M333.6,140.16v6.91h-6.91v-6.91h6.91M334.45,139.31h-8.61v8.61h8.61v-8.61h0Z"/>
      </g>
    </g>
    <g>
      <g>
        <rect class="cls-2" x="380.11" y="193.77" width="7.76" height="7.76"/>
        <path class="cls-1" d="M387.44,194.19v6.91h-6.91v-6.91h6.91M388.29,193.34h-8.61v8.61h8.61v-8.61h0Z"/>
      </g>
      <g>
        <rect class="cls-2" x="380.18" y="206.04" width="7.76" height="7.76"/>
        <path class="cls-1" d="M387.52,206.46v6.91h-6.91v-6.91h6.91M388.37,205.61h-8.61v8.61h8.61v-8.61h0Z"/>
      </g>
      <g>
        <rect class="cls-2" x="392.3" y="193.77" width="7.76" height="7.76"/>
        <path class="cls-1" d="M399.64,194.19v6.91h-6.91v-6.91h6.91M400.49,193.34h-8.61v8.61h8.61v-8.61h0Z"/>
      </g>
      <g>
        <rect class="cls-2" x="392.38" y="206.04" width="7.76" height="7.76"/>
        <path class="cls-1" d="M399.71,206.46v6.91h-6.91v-6.91h6.91M400.56,205.61h-8.61v8.61h8.61v-8.61h0Z"/>
      </g>
      <g>
        <rect class="cls-2" x="380.11" y="218.31" width="7.76" height="7.76"/>
        <path class="cls-1" d="M387.44,218.73v6.91h-6.91v-6.91h6.91M388.29,217.88h-8.61v8.61h8.61v-8.61h0Z"/>
      </g>
      <g>
        <rect class="cls-2" x="380.18" y="230.58" width="7.76" height="7.76"/>
        <path class="cls-1" d="M387.52,231v6.91h-6.91v-6.91h6.91M388.37,230.15h-8.61v8.61h8.61v-8.61h0Z"/>
      </g>
      <g>
        <rect class="cls-2" x="392.3" y="218.31" width="7.76" height="7.76"/>
        <path class="cls-1" d="M399.64,218.73v6.91h-6.91v-6.91h6.91M400.49,217.88h-8.61v8.61h8.61v-8.61h0Z"/>
      </g>
      <g>
        <rect class="cls-2" x="392.38" y="230.58" width="7.76" height="7.76"/>
        <path class="cls-1" d="M399.71,231v6.91h-6.91v-6.91h6.91M400.56,230.15h-8.61v8.61h8.61v-8.61h0Z"/>
      </g>
      <g>
        <rect class="cls-2" x="380.11" y="242.85" width="7.76" height="7.76"/>
        <path class="cls-1" d="M387.44,243.27v6.91h-6.91v-6.91h6.91M388.29,242.42h-8.61v8.61h8.61v-8.61h0Z"/>
      </g>
      <g>
        <rect class="cls-2" x="380.18" y="255.12" width="7.76" height="7.76"/>
        <path class="cls-1" d="M387.52,255.54v6.91h-6.91v-6.91h6.91M388.37,254.69h-8.61v8.61h8.61v-8.61h0Z"/>
      </g>
      <g>
        <rect class="cls-2" x="392.3" y="242.85" width="7.76" height="7.76"/>
        <path class="cls-1" d="M399.64,243.27v6.91h-6.91v-6.91h6.91M400.49,242.42h-8.61v8.61h8.61v-8.61h0Z"/>
      </g>
      <g>
        <rect class="cls-2" x="392.38" y="255.12" width="7.76" height="7.76"/>
        <path class="cls-1" d="M399.71,255.54v6.91h-6.91v-6.91h6.91M400.56,254.69h-8.61v8.61h8.61v-8.61h0Z"/>
      </g>
      <g>
        <rect class="cls-2" x="404.59" y="193.77" width="7.76" height="7.76"/>
        <path class="cls-1" d="M411.92,194.19v6.91h-6.91v-6.91h6.91M412.77,193.34h-8.61v8.61h8.61v-8.61h0Z"/>
      </g>
      <g>
        <rect class="cls-2" x="416.79" y="193.77" width="7.76" height="7.76"/>
        <path class="cls-1" d="M424.12,194.19v6.91h-6.91v-6.91h6.91M424.97,193.34h-8.61v8.61h8.61v-8.61h0Z"/>
      </g>
      <g>
        <rect class="cls-2" x="416.86" y="206.04" width="7.76" height="7.76"/>
        <path class="cls-1" d="M424.19,206.46v6.91h-6.91v-6.91h6.91M425.04,205.61h-8.61v8.61h8.61v-8.61h0Z"/>
      </g>
      <g>
        <rect class="cls-2" x="404.59" y="206.04" width="7.76" height="7.76"/>
        <path class="cls-1" d="M411.92,206.46v6.91h-6.91v-6.91h6.91M412.77,205.61h-8.61v8.61h8.61v-8.61h0Z"/>
      </g>
      <g>
        <rect class="cls-2" x="428.98" y="193.77" width="7.76" height="7.76"/>
        <path class="cls-1" d="M436.31,194.19v6.91h-6.91v-6.91h6.91M437.17,193.34h-8.61v8.61h8.61v-8.61h0Z"/>
      </g>
      <g>
        <rect class="cls-2" x="429.05" y="206.04" width="7.76" height="7.76"/>
        <path class="cls-1" d="M436.39,206.46v6.91h-6.91v-6.91h6.91M437.24,205.61h-8.61v8.61h8.61v-8.61h0Z"/>
      </g>
      <g>
        <rect class="cls-2" x="441.18" y="193.77" width="7.76" height="7.76"/>
        <path class="cls-1" d="M448.51,194.19v6.91h-6.91v-6.91h6.91M449.36,193.34h-8.61v8.61h8.61v-8.61h0Z"/>
      </g>
      <g>
        <rect class="cls-2" x="441.25" y="206.04" width="7.76" height="7.76"/>
        <path class="cls-1" d="M448.59,206.46v6.91h-6.91v-6.91h6.91M449.44,205.61h-8.61v8.61h8.61v-8.61h0Z"/>
      </g>
      <g>
        <rect class="cls-2" x="404.59" y="218.31" width="7.76" height="7.76"/>
        <path class="cls-1" d="M411.92,218.73v6.91h-6.91v-6.91h6.91M412.77,217.88h-8.61v8.61h8.61v-8.61h0Z"/>
      </g>
      <g>
        <rect class="cls-2" x="416.79" y="218.31" width="7.76" height="7.76"/>
        <path class="cls-1" d="M424.12,218.73v6.91h-6.91v-6.91h6.91M424.97,217.88h-8.61v8.61h8.61v-8.61h0Z"/>
      </g>
      <g>
        <rect class="cls-2" x="416.86" y="230.58" width="7.76" height="7.76"/>
        <path class="cls-1" d="M424.19,231v6.91h-6.91v-6.91h6.91M425.04,230.15h-8.61v8.61h8.61v-8.61h0Z"/>
      </g>
      <g>
        <rect class="cls-2" x="404.59" y="230.58" width="7.76" height="7.76"/>
        <path class="cls-1" d="M411.92,231v6.91h-6.91v-6.91h6.91M412.77,230.15h-8.61v8.61h8.61v-8.61h0Z"/>
      </g>
      <g>
        <rect class="cls-2" x="428.98" y="218.31" width="7.76" height="7.76"/>
        <path class="cls-1" d="M436.31,218.73v6.91h-6.91v-6.91h6.91M437.17,217.88h-8.61v8.61h8.61v-8.61h0Z"/>
      </g>
      <g>
        <rect class="cls-2" x="429.05" y="230.58" width="7.76" height="7.76"/>
        <path class="cls-1" d="M436.39,231v6.91h-6.91v-6.91h6.91M437.24,230.15h-8.61v8.61h8.61v-8.61h0Z"/>
      </g>
      <g>
        <rect class="cls-2" x="441.18" y="218.31" width="7.76" height="7.76"/>
        <path class="cls-1" d="M448.51,218.73v6.91h-6.91v-6.91h6.91M449.36,217.88h-8.61v8.61h8.61v-8.61h0Z"/>
      </g>
      <g>
        <rect class="cls-2" x="441.25" y="230.58" width="7.76" height="7.76"/>
        <path class="cls-1" d="M448.59,231v6.91h-6.91v-6.91h6.91M449.44,230.15h-8.61v8.61h8.61v-8.61h0Z"/>
      </g>
      <g>
        <rect class="cls-2" x="404.59" y="242.85" width="7.76" height="7.76"/>
        <path class="cls-1" d="M411.92,243.27v6.91h-6.91v-6.91h6.91M412.77,242.42h-8.61v8.61h8.61v-8.61h0Z"/>
      </g>
      <g>
        <rect class="cls-2" x="416.79" y="242.85" width="7.76" height="7.76"/>
        <path class="cls-1" d="M424.12,243.27v6.91h-6.91v-6.91h6.91M424.97,242.42h-8.61v8.61h8.61v-8.61h0Z"/>
      </g>
      <g>
        <rect class="cls-2" x="416.86" y="255.12" width="7.76" height="7.76"/>
        <path class="cls-1" d="M424.19,255.54v6.91h-6.91v-6.91h6.91M425.04,254.69h-8.61v8.61h8.61v-8.61h0Z"/>
      </g>
      <g>
        <rect class="cls-2" x="404.59" y="255.12" width="7.76" height="7.76"/>
        <path class="cls-1" d="M411.92,255.54v6.91h-6.91v-6.91h6.91M412.77,254.69h-8.61v8.61h8.61v-8.61h0Z"/>
      </g>
      <g>
        <rect class="cls-2" x="428.98" y="242.85" width="7.76" height="7.76"/>
        <path class="cls-1" d="M436.31,243.27v6.91h-6.91v-6.91h6.91M437.17,242.42h-8.61v8.61h8.61v-8.61h0Z"/>
      </g>
      <g>
        <rect class="cls-2" x="429.05" y="255.12" width="7.76" height="7.76"/>
        <path class="cls-1" d="M436.39,255.54v6.91h-6.91v-6.91h6.91M437.24,254.69h-8.61v8.61h8.61v-8.61h0Z"/>
      </g>
      <g>
        <rect class="cls-2" x="441.18" y="242.85" width="7.76" height="7.76"/>
        <path class="cls-1" d="M448.51,243.27v6.91h-6.91v-6.91h6.91M449.36,242.42h-8.61v8.61h8.61v-8.61h0Z"/>
      </g>
      <g>
        <rect class="cls-2" x="441.25" y="255.12" width="7.76" height="7.76"/>
        <path class="cls-1" d="M448.59,255.54v6.91h-6.91v-6.91h6.91M449.44,254.69h-8.61v8.61h8.61v-8.61h0Z"/>
      </g>
    </g>
    <g>
      <g>
        <rect class="cls-2" x="172.27" y="194.02" width="12.41" height="12.41"/>
        <path class="cls-1" d="M184,194.7v11.05h-11.05v-11.05h11.05M185.36,193.34h-13.77v13.77h13.77v-13.77h0Z"/>
      </g>
      <g>
        <rect class="cls-2" x="172.38" y="213.65" width="12.41" height="12.41"/>
        <path class="cls-1" d="M184.12,214.33v11.05h-11.05v-11.05h11.05M185.48,212.97h-13.77v13.77h13.77v-13.77h0Z"/>
      </g>
      <g>
        <rect class="cls-2" x="191.78" y="194.02" width="12.41" height="12.41"/>
        <path class="cls-1" d="M203.51,194.7v11.05h-11.05v-11.05h11.05M204.87,193.34h-13.77v13.77h13.77v-13.77h0Z"/>
      </g>
      <g>
        <rect class="cls-2" x="211.29" y="194.02" width="12.41" height="12.41"/>
        <path class="cls-1" d="M223.02,194.7v11.05h-11.05v-11.05h11.05M224.38,193.34h-13.77v13.77h13.77v-13.77h0Z"/>
      </g>
      <g>
        <rect class="cls-2" x="211.41" y="213.65" width="12.41" height="12.41"/>
        <path class="cls-1" d="M223.14,214.33v11.05h-11.05v-11.05h11.05M224.5,212.97h-13.77v13.77h13.77v-13.77h0Z"/>
      </g>
      <g>
        <rect class="cls-2" x="191.9" y="213.65" width="12.41" height="12.41"/>
        <path class="cls-1" d="M203.63,214.33v11.05h-11.05v-11.05h11.05M204.99,212.97h-13.77v13.77h13.77v-13.77h0Z"/>
      </g>
      <g>
        <rect class="cls-2" x="230.8" y="194.02" width="12.41" height="12.41"/>
        <path class="cls-1" d="M242.53,194.7v11.05h-11.05v-11.05h11.05M243.89,193.34h-13.77v13.77h13.77v-13.77h0Z"/>
      </g>
      <g>
        <rect class="cls-2" x="230.92" y="213.65" width="12.41" height="12.41"/>
        <path class="cls-1" d="M242.65,214.33v11.05h-11.05v-11.05h11.05M244.01,212.97h-13.77v13.77h13.77v-13.77h0Z"/>
      </g>
      <g>
        <rect class="cls-2" x="172.27" y="233.28" width="12.41" height="12.41"/>
        <path class="cls-1" d="M184,233.96v11.05h-11.05v-11.05h11.05M185.36,232.6h-13.77v13.77h13.77v-13.77h0Z"/>
      </g>
      <g>
        <rect class="cls-2" x="172.38" y="252.91" width="12.41" height="12.41"/>
        <path class="cls-1" d="M184.12,253.59v11.05h-11.05v-11.05h11.05M185.48,252.23h-13.77v13.77h13.77v-13.77h0Z"/>
      </g>
      <g>
        <rect class="cls-2" x="191.78" y="233.28" width="12.41" height="12.41"/>
        <path class="cls-1" d="M203.51,233.96v11.05h-11.05v-11.05h11.05M204.87,232.6h-13.77v13.77h13.77v-13.77h0Z"/>
      </g>
      <g>
        <rect class="cls-2" x="211.29" y="233.28" width="12.41" height="12.41"/>
        <path class="cls-1" d="M223.02,233.96v11.05h-11.05v-11.05h11.05M224.38,232.6h-13.77v13.77h13.77v-13.77h0Z"/>
      </g>
      <g>
        <rect class="cls-2" x="211.41" y="252.91" width="12.41" height="12.41"/>
        <path class="cls-1" d="M223.14,253.59v11.05h-11.05v-11.05h11.05M224.5,252.23h-13.77v13.77h13.77v-13.77h0Z"/>
      </g>
      <g>
        <rect class="cls-2" x="191.9" y="252.91" width="12.41" height="12.41"/>
        <path class="cls-1" d="M203.63,253.59v11.05h-11.05v-11.05h11.05M204.99,252.23h-13.77v13.77h13.77v-13.77h0Z"/>
      </g>
      <g>
        <rect class="cls-2" x="230.8" y="233.28" width="12.41" height="12.41"/>
        <path class="cls-1" d="M242.53,233.96v11.05h-11.05v-11.05h11.05M243.89,232.6h-13.77v13.77h13.77v-13.77h0Z"/>
      </g>
      <g>
        <rect class="cls-2" x="230.92" y="252.91" width="12.41" height="12.41"/>
        <path class="cls-1" d="M242.65,253.59v11.05h-11.05v-11.05h11.05M244.01,252.23h-13.77v13.77h13.77v-13.77h0Z"/>
      </g>
    </g>
  </g>
</svg>