<?xml version="1.0" encoding="UTF-8"?>
<svg id="Layer_2" xmlns="http://www.w3.org/2000/svg" viewBox="0 0 623.62 368.5">
  <defs>
    <style>
      .cls-1 {
        fill: #231f20;
      }

      .cls-2 {
        fill: #fff;
      }
    </style>
  </defs>
  <g id="Layer_1-2" data-name="Layer_1">
    <rect class="cls-2" x="0" y="0" width="623.62" height="368.5" transform="translate(623.62 368.5) rotate(-180)"/>
    <g>
      <g>
        <rect class="cls-2" x="289.6" y="102.93" width="7.76" height="7.76"/>
        <path class="cls-1" d="M296.93,103.35v6.91h-6.91v-6.91h6.91M297.78,102.5h-8.61v8.61h8.61v-8.61h0Z"/>
      </g>
      <g>
        <rect class="cls-2" x="289.67" y="115.2" width="7.76" height="7.76"/>
        <path class="cls-1" d="M297.01,115.62v6.91h-6.91v-6.91h6.91M297.86,114.77h-8.61v8.61h8.61v-8.61h0Z"/>
      </g>
      <g>
        <rect class="cls-2" x="301.8" y="102.93" width="7.76" height="7.76"/>
        <path class="cls-1" d="M309.13,103.35v6.91h-6.91v-6.91h6.91M309.98,102.5h-8.61v8.61h8.61v-8.61h0Z"/>
      </g>
      <g>
        <rect class="cls-2" x="313.99" y="102.93" width="7.76" height="7.76"/>
        <path class="cls-1" d="M321.33,103.35v6.91h-6.91v-6.91h6.91M322.18,102.5h-8.61v8.61h8.61v-8.61h0Z"/>
      </g>
      <g>
        <rect class="cls-2" x="314.07" y="115.2" width="7.76" height="7.76"/>
        <path class="cls-1" d="M321.4,115.62v6.91h-6.91v-6.91h6.91M322.25,114.77h-8.61v8.61h8.61v-8.61h0Z"/>
      </g>
      <g>
        <rect class="cls-2" x="301.87" y="115.2" width="7.76" height="7.76"/>
        <path class="cls-1" d="M309.2,115.62v6.91h-6.91v-6.91h6.91M310.05,114.77h-8.61v8.61h8.61v-8.61h0Z"/>
      </g>
      <g>
        <rect class="cls-2" x="326.19" y="102.93" width="7.76" height="7.76"/>
        <path class="cls-1" d="M333.52,103.35v6.91h-6.91v-6.91h6.91M334.37,102.5h-8.61v8.61h8.61v-8.61h0Z"/>
      </g>
      <g>
        <rect class="cls-2" x="326.26" y="115.2" width="7.76" height="7.76"/>
        <path class="cls-1" d="M333.6,115.62v6.91h-6.91v-6.91h6.91M334.45,114.77h-8.61v8.61h8.61v-8.61h0Z"/>
      </g>
      <g>
        <rect class="cls-2" x="289.6" y="127.47" width="7.76" height="7.76"/>
        <path class="cls-1" d="M296.93,127.89v6.91h-6.91v-6.91h6.91M297.78,127.04h-8.61v8.61h8.61v-8.61h0Z"/>
      </g>
      <g>
        <rect class="cls-2" x="289.67" y="139.74" width="7.76" height="7.76"/>
        <path class="cls-1" d="M297.01,140.16v6.91h-6.91v-6.91h6.91M297.86,139.31h-8.61v8.61h8.61v-8.61h0Z"/>
      </g>
      <g>
        <rect class="cls-2" x="301.8" y="127.47" width="7.76" height="7.76"/>
        <path class="cls-1" d="M309.13,127.89v6.91h-6.91v-6.91h6.91M309.98,127.04h-8.61v8.61h8.61v-8.61h0Z"/>
      </g>
      <g>
        <rect class="cls-2" x="313.99" y="127.47" width="7.76" height="7.76"/>
        <path class="cls-1" d="M321.33,127.89v6.91h-6.91v-6.91h6.91M322.18,127.04h-8.61v8.61h8.61v-8.61h0Z"/>
      </g>
      <g>
        <rect class="cls-2" x="314.07" y="139.74" width="7.76" height="7.76"/>
        <path class="cls-1" d="M321.4,140.16v6.91h-6.91v-6.91h6.91M322.25,139.31h-8.61v8.61h8.61v-8.61h0Z"/>
      </g>
      <g>
        <rect class="cls-2" x="301.87" y="139.74" width="7.76" height="7.76"/>
        <path class="cls-1" d="M309.2,140.16v6.91h-6.91v-6.91h6.91M310.05,139.31h-8.61v8.61h8.61v-8.61h0Z"/>
      </g>
      <g>
        <rect class="cls-2" x="326.19" y="127.47" width="7.76" height="7.76"/>
        <path class="cls-1" d="M333.52,127.89v6.91h-6.91v-6.91h6.91M334.37,127.04h-8.61v8.61h8.61v-8.61h0Z"/>
      </g>
      <g>
        <rect class="cls-2" x="326.26" y="139.74" width="7.76" height="7.76"/>
        <path class="cls-1" d="M333.6,140.16v6.91h-6.91v-6.91h6.91M334.45,139.31h-8.61v8.61h8.61v-8.61h0Z"/>
      </g>
    </g>
    <g>
      <g>
        <rect class="cls-2" x="380.05" y="193.77" width="7.76" height="7.76"/>
        <path class="cls-1" d="M387.38,194.19v6.91h-6.91v-6.91h6.91M388.23,193.34h-8.61v8.61h8.61v-8.61h0Z"/>
      </g>
      <g>
        <rect class="cls-2" x="380.12" y="206.04" width="7.76" height="7.76"/>
        <path class="cls-1" d="M387.46,206.46v6.91h-6.91v-6.91h6.91M388.31,205.61h-8.61v8.61h8.61v-8.61h0Z"/>
      </g>
      <g>
        <rect class="cls-2" x="392.25" y="193.77" width="7.76" height="7.76"/>
        <path class="cls-1" d="M399.58,194.19v6.91h-6.91v-6.91h6.91M400.43,193.34h-8.61v8.61h8.61v-8.61h0Z"/>
      </g>
      <g>
        <rect class="cls-2" x="392.32" y="206.04" width="7.76" height="7.76"/>
        <path class="cls-1" d="M399.65,206.46v6.91h-6.91v-6.91h6.91M400.5,205.61h-8.61v8.61h8.61v-8.61h0Z"/>
      </g>
      <g>
        <rect class="cls-2" x="380.05" y="218.31" width="7.76" height="7.76"/>
        <path class="cls-1" d="M387.38,218.73v6.91h-6.91v-6.91h6.91M388.23,217.88h-8.61v8.61h8.61v-8.61h0Z"/>
      </g>
      <g>
        <rect class="cls-2" x="380.12" y="230.58" width="7.76" height="7.76"/>
        <path class="cls-1" d="M387.46,231v6.91h-6.91v-6.91h6.91M388.31,230.15h-8.61v8.61h8.61v-8.61h0Z"/>
      </g>
      <g>
        <rect class="cls-2" x="392.25" y="218.31" width="7.76" height="7.76"/>
        <path class="cls-1" d="M399.58,218.73v6.91h-6.91v-6.91h6.91M400.43,217.88h-8.61v8.61h8.61v-8.61h0Z"/>
      </g>
      <g>
        <rect class="cls-2" x="392.32" y="230.58" width="7.76" height="7.76"/>
        <path class="cls-1" d="M399.65,231v6.91h-6.91v-6.91h6.91M400.5,230.15h-8.61v8.61h8.61v-8.61h0Z"/>
      </g>
      <g>
        <rect class="cls-2" x="380.05" y="242.85" width="7.76" height="7.76"/>
        <path class="cls-1" d="M387.38,243.27v6.91h-6.91v-6.91h6.91M388.23,242.42h-8.61v8.61h8.61v-8.61h0Z"/>
      </g>
      <g>
        <rect class="cls-2" x="380.12" y="255.12" width="7.76" height="7.76"/>
        <path class="cls-1" d="M387.46,255.54v6.91h-6.91v-6.91h6.91M388.31,254.69h-8.61v8.61h8.61v-8.61h0Z"/>
      </g>
      <g>
        <rect class="cls-2" x="392.25" y="242.85" width="7.76" height="7.76"/>
        <path class="cls-1" d="M399.58,243.27v6.91h-6.91v-6.91h6.91M400.43,242.42h-8.61v8.61h8.61v-8.61h0Z"/>
      </g>
      <g>
        <rect class="cls-2" x="392.32" y="255.12" width="7.76" height="7.76"/>
        <path class="cls-1" d="M399.65,255.54v6.91h-6.91v-6.91h6.91M400.5,254.69h-8.61v8.61h8.61v-8.61h0Z"/>
      </g>
      <g>
        <rect class="cls-2" x="404.53" y="193.77" width="7.76" height="7.76"/>
        <path class="cls-1" d="M411.86,194.19v6.91h-6.91v-6.91h6.91M412.71,193.34h-8.61v8.61h8.61v-8.61h0Z"/>
      </g>
      <g>
        <rect class="cls-2" x="416.73" y="193.77" width="7.76" height="7.76"/>
        <path class="cls-1" d="M424.06,194.19v6.91h-6.91v-6.91h6.91M424.91,193.34h-8.61v8.61h8.61v-8.61h0Z"/>
      </g>
      <g>
        <rect class="cls-2" x="416.8" y="206.04" width="7.76" height="7.76"/>
        <path class="cls-1" d="M424.13,206.46v6.91h-6.91v-6.91h6.91M424.98,205.61h-8.61v8.61h8.61v-8.61h0Z"/>
      </g>
      <g>
        <rect class="cls-2" x="404.53" y="206.04" width="7.76" height="7.76"/>
        <path class="cls-1" d="M411.86,206.46v6.91h-6.91v-6.91h6.91M412.71,205.61h-8.61v8.61h8.61v-8.61h0Z"/>
      </g>
      <g>
        <rect class="cls-2" x="428.92" y="193.77" width="7.76" height="7.76"/>
        <path class="cls-1" d="M436.26,194.19v6.91h-6.91v-6.91h6.91M437.11,193.34h-8.61v8.61h8.61v-8.61h0Z"/>
      </g>
      <g>
        <rect class="cls-2" x="429" y="206.04" width="7.76" height="7.76"/>
        <path class="cls-1" d="M436.33,206.46v6.91h-6.91v-6.91h6.91M437.18,205.61h-8.61v8.61h8.61v-8.61h0Z"/>
      </g>
      <g>
        <rect class="cls-2" x="441.12" y="193.77" width="7.76" height="7.76"/>
        <path class="cls-1" d="M448.45,194.19v6.91h-6.91v-6.91h6.91M449.3,193.34h-8.61v8.61h8.61v-8.61h0Z"/>
      </g>
      <g>
        <rect class="cls-2" x="441.19" y="206.04" width="7.76" height="7.76"/>
        <path class="cls-1" d="M448.53,206.46v6.91h-6.91v-6.91h6.91M449.38,205.61h-8.61v8.61h8.61v-8.61h0Z"/>
      </g>
      <g>
        <rect class="cls-2" x="404.53" y="218.31" width="7.76" height="7.76"/>
        <path class="cls-1" d="M411.86,218.73v6.91h-6.91v-6.91h6.91M412.71,217.88h-8.61v8.61h8.61v-8.61h0Z"/>
      </g>
      <g>
        <rect class="cls-2" x="416.73" y="218.31" width="7.76" height="7.76"/>
        <path class="cls-1" d="M424.06,218.73v6.91h-6.91v-6.91h6.91M424.91,217.88h-8.61v8.61h8.61v-8.61h0Z"/>
      </g>
      <g>
        <rect class="cls-2" x="416.8" y="230.58" width="7.76" height="7.76"/>
        <path class="cls-1" d="M424.13,231v6.91h-6.91v-6.91h6.91M424.98,230.15h-8.61v8.61h8.61v-8.61h0Z"/>
      </g>
      <g>
        <rect class="cls-2" x="404.53" y="230.58" width="7.76" height="7.76"/>
        <path class="cls-1" d="M411.86,231v6.91h-6.91v-6.91h6.91M412.71,230.15h-8.61v8.61h8.61v-8.61h0Z"/>
      </g>
      <g>
        <rect class="cls-2" x="428.92" y="218.31" width="7.76" height="7.76"/>
        <path class="cls-1" d="M436.26,218.73v6.91h-6.91v-6.91h6.91M437.11,217.88h-8.61v8.61h8.61v-8.61h0Z"/>
      </g>
      <g>
        <rect class="cls-2" x="429" y="230.58" width="7.76" height="7.76"/>
        <path class="cls-1" d="M436.33,231v6.91h-6.91v-6.91h6.91M437.18,230.15h-8.61v8.61h8.61v-8.61h0Z"/>
      </g>
      <g>
        <rect class="cls-2" x="441.12" y="218.31" width="7.76" height="7.76"/>
        <path class="cls-1" d="M448.45,218.73v6.91h-6.91v-6.91h6.91M449.3,217.88h-8.61v8.61h8.61v-8.61h0Z"/>
      </g>
      <g>
        <rect class="cls-2" x="441.19" y="230.58" width="7.76" height="7.76"/>
        <path class="cls-1" d="M448.53,231v6.91h-6.91v-6.91h6.91M449.38,230.15h-8.61v8.61h8.61v-8.61h0Z"/>
      </g>
      <g>
        <rect class="cls-2" x="404.53" y="242.85" width="7.76" height="7.76"/>
        <path class="cls-1" d="M411.86,243.27v6.91h-6.91v-6.91h6.91M412.71,242.42h-8.61v8.61h8.61v-8.61h0Z"/>
      </g>
      <g>
        <rect class="cls-2" x="416.73" y="242.85" width="7.76" height="7.76"/>
        <path class="cls-1" d="M424.06,243.27v6.91h-6.91v-6.91h6.91M424.91,242.42h-8.61v8.61h8.61v-8.61h0Z"/>
      </g>
      <g>
        <rect class="cls-2" x="416.8" y="255.12" width="7.76" height="7.76"/>
        <path class="cls-1" d="M424.13,255.54v6.91h-6.91v-6.91h6.91M424.98,254.69h-8.61v8.61h8.61v-8.61h0Z"/>
      </g>
      <g>
        <rect class="cls-2" x="404.53" y="255.12" width="7.76" height="7.76"/>
        <path class="cls-1" d="M411.86,255.54v6.91h-6.91v-6.91h6.91M412.71,254.69h-8.61v8.61h8.61v-8.61h0Z"/>
      </g>
      <g>
        <rect class="cls-2" x="428.92" y="242.85" width="7.76" height="7.76"/>
        <path class="cls-1" d="M436.26,243.27v6.91h-6.91v-6.91h6.91M437.11,242.42h-8.61v8.61h8.61v-8.61h0Z"/>
      </g>
      <g>
        <rect class="cls-2" x="429" y="255.12" width="7.76" height="7.76"/>
        <path class="cls-1" d="M436.33,255.54v6.91h-6.91v-6.91h6.91M437.18,254.69h-8.61v8.61h8.61v-8.61h0Z"/>
      </g>
      <g>
        <rect class="cls-2" x="441.12" y="242.85" width="7.76" height="7.76"/>
        <path class="cls-1" d="M448.45,243.27v6.91h-6.91v-6.91h6.91M449.3,242.42h-8.61v8.61h8.61v-8.61h0Z"/>
      </g>
      <g>
        <rect class="cls-2" x="441.19" y="255.12" width="7.76" height="7.76"/>
        <path class="cls-1" d="M448.53,255.54v6.91h-6.91v-6.91h6.91M449.38,254.69h-8.61v8.61h8.61v-8.61h0Z"/>
      </g>
    </g>
    <g>
      <g>
        <rect class="cls-2" x="172.07" y="193.77" width="12.92" height="12.92"/>
        <path class="cls-1" d="M184.57,194.19v12.07h-12.07v-12.07h12.07M185.42,193.34h-13.77v13.77h13.77v-13.77h0Z"/>
      </g>
      <g>
        <rect class="cls-2" x="172.19" y="213.4" width="12.92" height="12.92"/>
        <path class="cls-1" d="M184.69,213.82v12.07h-12.07v-12.07h12.07M185.54,212.97h-13.77v13.77h13.77v-13.77h0Z"/>
      </g>
      <g>
        <rect class="cls-2" x="191.58" y="193.77" width="12.92" height="12.92"/>
        <path class="cls-1" d="M204.08,194.19v12.07h-12.07v-12.07h12.07M204.93,193.34h-13.77v13.77h13.77v-13.77h0Z"/>
      </g>
      <g>
        <rect class="cls-2" x="211.09" y="193.77" width="12.92" height="12.92"/>
        <path class="cls-1" d="M223.59,194.19v12.07h-12.07v-12.07h12.07M224.44,193.34h-13.77v13.77h13.77v-13.77h0Z"/>
      </g>
      <g>
        <rect class="cls-2" x="211.21" y="213.4" width="12.92" height="12.92"/>
        <path class="cls-1" d="M223.71,213.82v12.07h-12.07v-12.07h12.07M224.56,212.97h-13.77v13.77h13.77v-13.77h0Z"/>
      </g>
      <g>
        <rect class="cls-2" x="191.7" y="213.4" width="12.92" height="12.92"/>
        <path class="cls-1" d="M204.2,213.82v12.07h-12.07v-12.07h12.07M205.05,212.97h-13.77v13.77h13.77v-13.77h0Z"/>
      </g>
      <g>
        <rect class="cls-2" x="230.61" y="193.77" width="12.92" height="12.92"/>
        <path class="cls-1" d="M243.1,194.19v12.07h-12.07v-12.07h12.07M243.95,193.34h-13.77v13.77h13.77v-13.77h0Z"/>
      </g>
      <g>
        <rect class="cls-2" x="230.72" y="213.4" width="12.92" height="12.92"/>
        <path class="cls-1" d="M243.22,213.82v12.07h-12.07v-12.07h12.07M244.07,212.97h-13.77v13.77h13.77v-13.77h0Z"/>
      </g>
      <g>
        <rect class="cls-2" x="172.07" y="233.03" width="12.92" height="12.92"/>
        <path class="cls-1" d="M184.57,233.45v12.07h-12.07v-12.07h12.07M185.42,232.6h-13.77v13.77h13.77v-13.77h0Z"/>
      </g>
      <g>
        <rect class="cls-2" x="172.19" y="252.65" width="12.92" height="12.92"/>
        <path class="cls-1" d="M184.69,253.08v12.07h-12.07v-12.07h12.07M185.54,252.23h-13.77v13.77h13.77v-13.77h0Z"/>
      </g>
      <g>
        <rect class="cls-2" x="191.58" y="233.03" width="12.92" height="12.92"/>
        <path class="cls-1" d="M204.08,233.45v12.07h-12.07v-12.07h12.07M204.93,232.6h-13.77v13.77h13.77v-13.77h0Z"/>
      </g>
      <g>
        <rect class="cls-2" x="211.09" y="233.03" width="12.92" height="12.92"/>
        <path class="cls-1" d="M223.59,233.45v12.07h-12.07v-12.07h12.07M224.44,232.6h-13.77v13.77h13.77v-13.77h0Z"/>
      </g>
      <g>
        <rect class="cls-2" x="211.21" y="252.65" width="12.92" height="12.92"/>
        <path class="cls-1" d="M223.71,253.08v12.07h-12.07v-12.07h12.07M224.56,252.23h-13.77v13.77h13.77v-13.77h0Z"/>
      </g>
      <g>
        <rect class="cls-2" x="191.7" y="252.65" width="12.92" height="12.92"/>
        <path class="cls-1" d="M204.2,253.08v12.07h-12.07v-12.07h12.07M205.05,252.23h-13.77v13.77h13.77v-13.77h0Z"/>
      </g>
      <g>
        <rect class="cls-2" x="230.61" y="233.03" width="12.92" height="12.92"/>
        <path class="cls-1" d="M243.1,233.45v12.07h-12.07v-12.07h12.07M243.95,232.6h-13.77v13.77h13.77v-13.77h0Z"/>
      </g>
      <g>
        <rect class="cls-2" x="230.72" y="252.65" width="12.92" height="12.92"/>
        <path class="cls-1" d="M243.22,253.08v12.07h-12.07v-12.07h12.07M244.07,252.23h-13.77v13.77h13.77v-13.77h0Z"/>
      </g>
    </g>
  </g>
</svg>