<?xml version="1.0" encoding="UTF-8"?>
<svg id="Layer_2" xmlns="http://www.w3.org/2000/svg" viewBox="0 0 623.62 368.5">
  <defs>
    <style>
      .cls-1 {
        fill: #231f20;
      }

      .cls-2 {
        fill: #fff;
      }
    </style>
  </defs>
  <g id="Layer_1-2" data-name="Layer_1">
    <rect class="cls-2" width="623.62" height="368.5"/>
    <g>
      <g>
        <rect class="cls-2" x="326.26" y="102.93" width="7.76" height="7.76"/>
        <path class="cls-1" d="M333.6,103.35v6.91h-6.91v-6.91h6.91M334.45,102.5h-8.61v8.61h8.61v-8.61h0Z"/>
      </g>
      <g>
        <rect class="cls-2" x="326.19" y="115.2" width="7.76" height="7.76"/>
        <path class="cls-1" d="M333.52,115.62v6.91h-6.91v-6.91h6.91M334.37,114.77h-8.61v8.61h8.61v-8.61h0Z"/>
      </g>
      <g>
        <rect class="cls-2" x="314.07" y="102.93" width="7.76" height="7.76"/>
        <path class="cls-1" d="M321.4,103.35v6.91h-6.91v-6.91h6.91M322.25,102.5h-8.61v8.61h8.61v-8.61h0Z"/>
      </g>
      <g>
        <rect class="cls-2" x="301.87" y="102.93" width="7.76" height="7.76"/>
        <path class="cls-1" d="M309.2,103.35v6.91h-6.91v-6.91h6.91M310.05,102.5h-8.61v8.61h8.61v-8.61h0Z"/>
      </g>
      <g>
        <rect class="cls-2" x="301.8" y="115.2" width="7.76" height="7.76"/>
        <path class="cls-1" d="M309.13,115.62v6.91h-6.91v-6.91h6.91M309.98,114.77h-8.61v8.61h8.61v-8.61h0Z"/>
      </g>
      <g>
        <rect class="cls-2" x="313.99" y="115.2" width="7.76" height="7.76"/>
        <path class="cls-1" d="M321.33,115.62v6.91h-6.91v-6.91h6.91M322.18,114.77h-8.61v8.61h8.61v-8.61h0Z"/>
      </g>
      <g>
        <rect class="cls-2" x="289.67" y="102.93" width="7.76" height="7.76"/>
        <path class="cls-1" d="M297.01,103.35v6.91h-6.91v-6.91h6.91M297.86,102.5h-8.61v8.61h8.61v-8.61h0Z"/>
      </g>
      <g>
        <rect class="cls-2" x="289.6" y="115.2" width="7.76" height="7.76"/>
        <path class="cls-1" d="M296.93,115.62v6.91h-6.91v-6.91h6.91M297.78,114.77h-8.61v8.61h8.61v-8.61h0Z"/>
      </g>
      <g>
        <rect class="cls-2" x="326.26" y="127.47" width="7.76" height="7.76"/>
        <path class="cls-1" d="M333.6,127.89v6.91h-6.91v-6.91h6.91M334.45,127.04h-8.61v8.61h8.61v-8.61h0Z"/>
      </g>
      <g>
        <rect class="cls-2" x="326.19" y="139.74" width="7.76" height="7.76"/>
        <path class="cls-1" d="M333.52,140.16v6.91h-6.91v-6.91h6.91M334.37,139.31h-8.61v8.61h8.61v-8.61h0Z"/>
      </g>
      <g>
        <rect class="cls-2" x="314.07" y="127.47" width="7.76" height="7.76"/>
        <path class="cls-1" d="M321.4,127.89v6.91h-6.91v-6.91h6.91M322.25,127.04h-8.61v8.61h8.61v-8.61h0Z"/>
      </g>
      <g>
        <rect class="cls-2" x="301.87" y="127.47" width="7.76" height="7.76"/>
        <path class="cls-1" d="M309.2,127.89v6.91h-6.91v-6.91h6.91M310.05,127.04h-8.61v8.61h8.61v-8.61h0Z"/>
      </g>
      <g>
        <rect class="cls-2" x="301.8" y="139.74" width="7.76" height="7.76"/>
        <path class="cls-1" d="M309.13,140.16v6.91h-6.91v-6.91h6.91M309.98,139.31h-8.61v8.61h8.61v-8.61h0Z"/>
      </g>
      <g>
        <rect class="cls-2" x="313.99" y="139.74" width="7.76" height="7.76"/>
        <path class="cls-1" d="M321.33,140.16v6.91h-6.91v-6.91h6.91M322.18,139.31h-8.61v8.61h8.61v-8.61h0Z"/>
      </g>
      <g>
        <rect class="cls-2" x="289.67" y="127.47" width="7.76" height="7.76"/>
        <path class="cls-1" d="M297.01,127.89v6.91h-6.91v-6.91h6.91M297.86,127.04h-8.61v8.61h8.61v-8.61h0Z"/>
      </g>
      <g>
        <rect class="cls-2" x="289.6" y="139.74" width="7.76" height="7.76"/>
        <path class="cls-1" d="M296.93,140.16v6.91h-6.91v-6.91h6.91M297.78,139.31h-8.61v8.61h8.61v-8.61h0Z"/>
      </g>
    </g>
    <g>
      <g>
        <rect class="cls-2" x="236.17" y="193.77" width="7.76" height="7.76"/>
        <path class="cls-1" d="M243.5,194.19v6.91h-6.91v-6.91h6.91M244.35,193.34h-8.61v8.61h8.61v-8.61h0Z"/>
      </g>
      <g>
        <rect class="cls-2" x="236.1" y="206.04" width="7.76" height="7.76"/>
        <path class="cls-1" d="M243.43,206.46v6.91h-6.91v-6.91h6.91M244.28,205.61h-8.61v8.61h8.61v-8.61h0Z"/>
      </g>
      <g>
        <rect class="cls-2" x="223.97" y="193.77" width="7.76" height="7.76"/>
        <path class="cls-1" d="M231.31,194.19v6.91h-6.91v-6.91h6.91M232.16,193.34h-8.61v8.61h8.61v-8.61h0Z"/>
      </g>
      <g>
        <rect class="cls-2" x="223.9" y="206.04" width="7.76" height="7.76"/>
        <path class="cls-1" d="M231.23,206.46v6.91h-6.91v-6.91h6.91M232.08,205.61h-8.61v8.61h8.61v-8.61h0Z"/>
      </g>
      <g>
        <rect class="cls-2" x="236.17" y="218.31" width="7.76" height="7.76"/>
        <path class="cls-1" d="M243.5,218.73v6.91h-6.91v-6.91h6.91M244.35,217.88h-8.61v8.61h8.61v-8.61h0Z"/>
      </g>
      <g>
        <rect class="cls-2" x="236.1" y="230.58" width="7.76" height="7.76"/>
        <path class="cls-1" d="M243.43,231v6.91h-6.91v-6.91h6.91M244.28,230.15h-8.61v8.61h8.61v-8.61h0Z"/>
      </g>
      <g>
        <rect class="cls-2" x="223.97" y="218.31" width="7.76" height="7.76"/>
        <path class="cls-1" d="M231.31,218.73v6.91h-6.91v-6.91h6.91M232.16,217.88h-8.61v8.61h8.61v-8.61h0Z"/>
      </g>
      <g>
        <rect class="cls-2" x="223.9" y="230.58" width="7.76" height="7.76"/>
        <path class="cls-1" d="M231.23,231v6.91h-6.91v-6.91h6.91M232.08,230.15h-8.61v8.61h8.61v-8.61h0Z"/>
      </g>
      <g>
        <rect class="cls-2" x="236.17" y="242.85" width="7.76" height="7.76"/>
        <path class="cls-1" d="M243.5,243.27v6.91h-6.91v-6.91h6.91M244.35,242.42h-8.61v8.61h8.61v-8.61h0Z"/>
      </g>
      <g>
        <rect class="cls-2" x="236.1" y="255.12" width="7.76" height="7.76"/>
        <path class="cls-1" d="M243.43,255.54v6.91h-6.91v-6.91h6.91M244.28,254.69h-8.61v8.61h8.61v-8.61h0Z"/>
      </g>
      <g>
        <rect class="cls-2" x="223.97" y="242.85" width="7.76" height="7.76"/>
        <path class="cls-1" d="M231.31,243.27v6.91h-6.91v-6.91h6.91M232.16,242.42h-8.61v8.61h8.61v-8.61h0Z"/>
      </g>
      <g>
        <rect class="cls-2" x="223.9" y="255.12" width="7.76" height="7.76"/>
        <path class="cls-1" d="M231.23,255.54v6.91h-6.91v-6.91h6.91M232.08,254.69h-8.61v8.61h8.61v-8.61h0Z"/>
      </g>
      <g>
        <rect class="cls-2" x="211.69" y="193.77" width="7.76" height="7.76"/>
        <path class="cls-1" d="M219.02,194.19v6.91h-6.91v-6.91h6.91M219.87,193.34h-8.61v8.61h8.61v-8.61h0Z"/>
      </g>
      <g>
        <rect class="cls-2" x="199.49" y="193.77" width="7.76" height="7.76"/>
        <path class="cls-1" d="M206.83,194.19v6.91h-6.91v-6.91h6.91M207.68,193.34h-8.61v8.61h8.61v-8.61h0Z"/>
      </g>
      <g>
        <rect class="cls-2" x="199.42" y="206.04" width="7.76" height="7.76"/>
        <path class="cls-1" d="M206.75,206.46v6.91h-6.91v-6.91h6.91M207.6,205.61h-8.61v8.61h8.61v-8.61h0Z"/>
      </g>
      <g>
        <rect class="cls-2" x="211.69" y="206.04" width="7.76" height="7.76"/>
        <path class="cls-1" d="M219.02,206.46v6.91h-6.91v-6.91h6.91M219.87,205.61h-8.61v8.61h8.61v-8.61h0Z"/>
      </g>
      <g>
        <rect class="cls-2" x="187.3" y="193.77" width="7.76" height="7.76"/>
        <path class="cls-1" d="M194.63,194.19v6.91h-6.91v-6.91h6.91M195.48,193.34h-8.61v8.61h8.61v-8.61h0Z"/>
      </g>
      <g>
        <rect class="cls-2" x="187.22" y="206.04" width="7.76" height="7.76"/>
        <path class="cls-1" d="M194.56,206.46v6.91h-6.91v-6.91h6.91M195.41,205.61h-8.61v8.61h8.61v-8.61h0Z"/>
      </g>
      <g>
        <rect class="cls-2" x="175.1" y="193.77" width="7.76" height="7.76"/>
        <path class="cls-1" d="M182.43,194.19v6.91h-6.91v-6.91h6.91M183.28,193.34h-8.61v8.61h8.61v-8.61h0Z"/>
      </g>
      <g>
        <rect class="cls-2" x="175.03" y="206.04" width="7.76" height="7.76"/>
        <path class="cls-1" d="M182.36,206.46v6.91h-6.91v-6.91h6.91M183.21,205.61h-8.61v8.61h8.61v-8.61h0Z"/>
      </g>
      <g>
        <rect class="cls-2" x="211.69" y="218.31" width="7.76" height="7.76"/>
        <path class="cls-1" d="M219.02,218.73v6.91h-6.91v-6.91h6.91M219.87,217.88h-8.61v8.61h8.61v-8.61h0Z"/>
      </g>
      <g>
        <rect class="cls-2" x="199.49" y="218.31" width="7.76" height="7.76"/>
        <path class="cls-1" d="M206.83,218.73v6.91h-6.91v-6.91h6.91M207.68,217.88h-8.61v8.61h8.61v-8.61h0Z"/>
      </g>
      <g>
        <rect class="cls-2" x="199.42" y="230.58" width="7.76" height="7.76"/>
        <path class="cls-1" d="M206.75,231v6.91h-6.91v-6.91h6.91M207.6,230.15h-8.61v8.61h8.61v-8.61h0Z"/>
      </g>
      <g>
        <rect class="cls-2" x="211.69" y="230.58" width="7.76" height="7.76"/>
        <path class="cls-1" d="M219.02,231v6.91h-6.91v-6.91h6.91M219.87,230.15h-8.61v8.61h8.61v-8.61h0Z"/>
      </g>
      <g>
        <rect class="cls-2" x="187.3" y="218.31" width="7.76" height="7.76"/>
        <path class="cls-1" d="M194.63,218.73v6.91h-6.91v-6.91h6.91M195.48,217.88h-8.61v8.61h8.61v-8.61h0Z"/>
      </g>
      <g>
        <rect class="cls-2" x="187.22" y="230.58" width="7.76" height="7.76"/>
        <path class="cls-1" d="M194.56,231v6.91h-6.91v-6.91h6.91M195.41,230.15h-8.61v8.61h8.61v-8.61h0Z"/>
      </g>
      <g>
        <rect class="cls-2" x="175.1" y="218.31" width="7.76" height="7.76"/>
        <path class="cls-1" d="M182.43,218.73v6.91h-6.91v-6.91h6.91M183.28,217.88h-8.61v8.61h8.61v-8.61h0Z"/>
      </g>
      <g>
        <rect class="cls-2" x="175.03" y="230.58" width="7.76" height="7.76"/>
        <path class="cls-1" d="M182.36,231v6.91h-6.91v-6.91h6.91M183.21,230.15h-8.61v8.61h8.61v-8.61h0Z"/>
      </g>
      <g>
        <rect class="cls-2" x="211.69" y="242.85" width="7.76" height="7.76"/>
        <path class="cls-1" d="M219.02,243.27v6.91h-6.91v-6.91h6.91M219.87,242.42h-8.61v8.61h8.61v-8.61h0Z"/>
      </g>
      <g>
        <rect class="cls-2" x="199.49" y="242.85" width="7.76" height="7.76"/>
        <path class="cls-1" d="M206.83,243.27v6.91h-6.91v-6.91h6.91M207.68,242.42h-8.61v8.61h8.61v-8.61h0Z"/>
      </g>
      <g>
        <rect class="cls-2" x="199.42" y="255.12" width="7.76" height="7.76"/>
        <path class="cls-1" d="M206.75,255.54v6.91h-6.91v-6.91h6.91M207.6,254.69h-8.61v8.61h8.61v-8.61h0Z"/>
      </g>
      <g>
        <rect class="cls-2" x="211.69" y="255.12" width="7.76" height="7.76"/>
        <path class="cls-1" d="M219.02,255.54v6.91h-6.91v-6.91h6.91M219.87,254.69h-8.61v8.61h8.61v-8.61h0Z"/>
      </g>
      <g>
        <rect class="cls-2" x="187.3" y="242.85" width="7.76" height="7.76"/>
        <path class="cls-1" d="M194.63,243.27v6.91h-6.91v-6.91h6.91M195.48,242.42h-8.61v8.61h8.61v-8.61h0Z"/>
      </g>
      <g>
        <rect class="cls-2" x="187.22" y="255.12" width="7.76" height="7.76"/>
        <path class="cls-1" d="M194.56,255.54v6.91h-6.91v-6.91h6.91M195.41,254.69h-8.61v8.61h8.61v-8.61h0Z"/>
      </g>
      <g>
        <rect class="cls-2" x="175.1" y="242.85" width="7.76" height="7.76"/>
        <path class="cls-1" d="M182.43,243.27v6.91h-6.91v-6.91h6.91M183.28,242.42h-8.61v8.61h8.61v-8.61h0Z"/>
      </g>
      <g>
        <rect class="cls-2" x="175.03" y="255.12" width="7.76" height="7.76"/>
        <path class="cls-1" d="M182.36,255.54v6.91h-6.91v-6.91h6.91M183.21,254.69h-8.61v8.61h8.61v-8.61h0Z"/>
      </g>
    </g>
    <g>
      <g>
        <rect class="cls-2" x="438.73" y="193.77" width="12.92" height="12.92"/>
        <path class="cls-1" d="M451.22,194.19v12.07h-12.07v-12.07h12.07M452.07,193.34h-13.77v13.77h13.77v-13.77h0Z"/>
      </g>
      <g>
        <rect class="cls-2" x="438.61" y="213.4" width="12.92" height="12.92"/>
        <path class="cls-1" d="M451.1,213.82v12.07h-12.07v-12.07h12.07M451.95,212.97h-13.77v13.77h13.77v-13.77h0Z"/>
      </g>
      <g>
        <rect class="cls-2" x="419.21" y="193.77" width="12.92" height="12.92"/>
        <path class="cls-1" d="M431.71,194.19v12.07h-12.07v-12.07h12.07M432.56,193.34h-13.77v13.77h13.77v-13.77h0Z"/>
      </g>
      <g>
        <rect class="cls-2" x="399.7" y="193.77" width="12.92" height="12.92"/>
        <path class="cls-1" d="M412.2,194.19v12.07h-12.07v-12.07h12.07M413.05,193.34h-13.77v13.77h13.77v-13.77h0Z"/>
      </g>
      <g>
        <rect class="cls-2" x="399.58" y="213.4" width="12.92" height="12.92"/>
        <path class="cls-1" d="M412.08,213.82v12.07h-12.07v-12.07h12.07M412.93,212.97h-13.77v13.77h13.77v-13.77h0Z"/>
      </g>
      <g>
        <rect class="cls-2" x="419.1" y="213.4" width="12.92" height="12.92"/>
        <path class="cls-1" d="M431.59,213.82v12.07h-12.07v-12.07h12.07M432.44,212.97h-13.77v13.77h13.77v-13.77h0Z"/>
      </g>
      <g>
        <rect class="cls-2" x="380.19" y="193.77" width="12.92" height="12.92"/>
        <path class="cls-1" d="M392.69,194.19v12.07h-12.07v-12.07h12.07M393.54,193.34h-13.77v13.77h13.77v-13.77h0Z"/>
      </g>
      <g>
        <rect class="cls-2" x="380.07" y="213.4" width="12.92" height="12.92"/>
        <path class="cls-1" d="M392.57,213.82v12.07h-12.07v-12.07h12.07M393.42,212.97h-13.77v13.77h13.77v-13.77h0Z"/>
      </g>
      <g>
        <rect class="cls-2" x="438.73" y="233.03" width="12.92" height="12.92"/>
        <path class="cls-1" d="M451.22,233.45v12.07h-12.07v-12.07h12.07M452.07,232.6h-13.77v13.77h13.77v-13.77h0Z"/>
      </g>
      <g>
        <rect class="cls-2" x="438.61" y="252.65" width="12.92" height="12.92"/>
        <path class="cls-1" d="M451.1,253.08v12.07h-12.07v-12.07h12.07M451.95,252.23h-13.77v13.77h13.77v-13.77h0Z"/>
      </g>
      <g>
        <rect class="cls-2" x="419.21" y="233.03" width="12.92" height="12.92"/>
        <path class="cls-1" d="M431.71,233.45v12.07h-12.07v-12.07h12.07M432.56,232.6h-13.77v13.77h13.77v-13.77h0Z"/>
      </g>
      <g>
        <rect class="cls-2" x="399.7" y="233.03" width="12.92" height="12.92"/>
        <path class="cls-1" d="M412.2,233.45v12.07h-12.07v-12.07h12.07M413.05,232.6h-13.77v13.77h13.77v-13.77h0Z"/>
      </g>
      <g>
        <rect class="cls-2" x="399.58" y="252.65" width="12.92" height="12.92"/>
        <path class="cls-1" d="M412.08,253.08v12.07h-12.07v-12.07h12.07M412.93,252.23h-13.77v13.77h13.77v-13.77h0Z"/>
      </g>
      <g>
        <rect class="cls-2" x="419.1" y="252.65" width="12.92" height="12.92"/>
        <path class="cls-1" d="M431.59,253.08v12.07h-12.07v-12.07h12.07M432.44,252.23h-13.77v13.77h13.77v-13.77h0Z"/>
      </g>
      <g>
        <rect class="cls-2" x="380.19" y="233.03" width="12.92" height="12.92"/>
        <path class="cls-1" d="M392.69,233.45v12.07h-12.07v-12.07h12.07M393.54,232.6h-13.77v13.77h13.77v-13.77h0Z"/>
      </g>
      <g>
        <rect class="cls-2" x="380.07" y="252.65" width="12.92" height="12.92"/>
        <path class="cls-1" d="M392.57,253.08v12.07h-12.07v-12.07h12.07M393.42,252.23h-13.77v13.77h13.77v-13.77h0Z"/>
      </g>
    </g>
  </g>
</svg>