<?xml version="1.0" encoding="UTF-8"?>
<svg id="Layer_2" xmlns="http://www.w3.org/2000/svg" viewBox="0 0 623.62 368.5">
  <defs>
    <style>
      .cls-1 {
        fill: #231f20;
      }

      .cls-2 {
        fill: #fff;
      }
    </style>
  </defs>
  <g id="Layer_1-2" data-name="Layer_1">
    <rect class="cls-2" width="623.62" height="368.5"/>
    <g>
      <g>
        <rect class="cls-1" x="332.36" y="84.8" width="7.76" height="7.76"/>
        <path class="cls-1" d="M339.7,85.23v6.91h-6.91v-6.91h6.91M340.55,84.38h-8.61v8.61h8.61v-8.61h0Z"/>
      </g>
      <g>
        <rect class="cls-1" x="332.29" y="97.07" width="7.76" height="7.76"/>
        <path class="cls-1" d="M339.62,97.5v6.91h-6.91v-6.91h6.91M340.47,96.65h-8.61v8.61h8.61v-8.61h0Z"/>
      </g>
      <g>
        <rect class="cls-1" x="320.17" y="84.8" width="7.76" height="7.76"/>
        <path class="cls-1" d="M327.5,85.23v6.91h-6.91v-6.91h6.91M328.35,84.38h-8.61v8.61h8.61v-8.61h0Z"/>
      </g>
      <g>
        <rect class="cls-1" x="320.09" y="97.07" width="7.76" height="7.76"/>
        <path class="cls-1" d="M327.43,97.5v6.91h-6.91v-6.91h6.91M328.28,96.65h-8.61v8.61h8.61v-8.61h0Z"/>
      </g>
      <g>
        <rect class="cls-1" x="307.97" y="84.8" width="7.76" height="7.76"/>
        <path class="cls-1" d="M315.3,85.23v6.91h-6.91v-6.91h6.91M316.15,84.38h-8.61v8.61h8.61v-8.61h0Z"/>
      </g>
      <g>
        <rect class="cls-1" x="295.77" y="84.8" width="7.76" height="7.76"/>
        <path class="cls-1" d="M303.1,85.23v6.91h-6.91v-6.91h6.91M303.96,84.38h-8.61v8.61h8.61v-8.61h0Z"/>
      </g>
      <g>
        <rect class="cls-1" x="295.7" y="97.07" width="7.76" height="7.76"/>
        <path class="cls-1" d="M303.03,97.5v6.91h-6.91v-6.91h6.91M303.88,96.65h-8.61v8.61h8.61v-8.61h0Z"/>
      </g>
      <g>
        <rect class="cls-1" x="307.9" y="97.07" width="7.76" height="7.76"/>
        <path class="cls-1" d="M315.23,97.5v6.91h-6.91v-6.91h6.91M316.08,96.65h-8.61v8.61h8.61v-8.61h0Z"/>
      </g>
      <g>
        <rect class="cls-1" x="283.57" y="84.8" width="7.76" height="7.76"/>
        <path class="cls-1" d="M290.91,85.23v6.91h-6.91v-6.91h6.91M291.76,84.38h-8.61v8.61h8.61v-8.61h0Z"/>
      </g>
      <g>
        <rect class="cls-1" x="283.5" y="97.07" width="7.76" height="7.76"/>
        <path class="cls-1" d="M290.83,97.5v6.91h-6.91v-6.91h6.91M291.69,96.65h-8.61v8.61h8.61v-8.61h0Z"/>
      </g>
      <g>
        <rect class="cls-1" x="332.36" y="109.34" width="7.76" height="7.76"/>
        <path class="cls-1" d="M339.7,109.77v6.91h-6.91v-6.91h6.91M340.55,108.92h-8.61v8.61h8.61v-8.61h0Z"/>
      </g>
      <g>
        <rect class="cls-1" x="332.29" y="121.62" width="7.76" height="7.76"/>
        <path class="cls-1" d="M339.62,122.04v6.91h-6.91v-6.91h6.91M340.47,121.19h-8.61v8.61h8.61v-8.61h0Z"/>
      </g>
      <g>
        <rect class="cls-1" x="320.17" y="109.34" width="7.76" height="7.76"/>
        <path class="cls-1" d="M327.5,109.77v6.91h-6.91v-6.91h6.91M328.35,108.92h-8.61v8.61h8.61v-8.61h0Z"/>
      </g>
      <g>
        <rect class="cls-1" x="320.09" y="121.62" width="7.76" height="7.76"/>
        <path class="cls-1" d="M327.43,122.04v6.91h-6.91v-6.91h6.91M328.28,121.19h-8.61v8.61h8.61v-8.61h0Z"/>
      </g>
      <g>
        <rect class="cls-1" x="307.97" y="109.34" width="7.76" height="7.76"/>
        <path class="cls-1" d="M315.3,109.77v6.91h-6.91v-6.91h6.91M316.15,108.92h-8.61v8.61h8.61v-8.61h0Z"/>
      </g>
      <g>
        <rect class="cls-1" x="295.77" y="109.34" width="7.76" height="7.76"/>
        <path class="cls-1" d="M303.1,109.77v6.91h-6.91v-6.91h6.91M303.96,108.92h-8.61v8.61h8.61v-8.61h0Z"/>
      </g>
      <g>
        <rect class="cls-1" x="295.7" y="121.62" width="7.76" height="7.76"/>
        <path class="cls-1" d="M303.03,122.04v6.91h-6.91v-6.91h6.91M303.88,121.19h-8.61v8.61h8.61v-8.61h0Z"/>
      </g>
      <g>
        <rect class="cls-1" x="307.9" y="121.62" width="7.76" height="7.76"/>
        <path class="cls-1" d="M315.23,122.04v6.91h-6.91v-6.91h6.91M316.08,121.19h-8.61v8.61h8.61v-8.61h0Z"/>
      </g>
      <g>
        <rect class="cls-1" x="283.57" y="109.34" width="7.76" height="7.76"/>
        <path class="cls-1" d="M290.91,109.77v6.91h-6.91v-6.91h6.91M291.76,108.92h-8.61v8.61h8.61v-8.61h0Z"/>
      </g>
      <g>
        <rect class="cls-1" x="283.5" y="121.62" width="7.76" height="7.76"/>
        <path class="cls-1" d="M290.83,122.04v6.91h-6.91v-6.91h6.91M291.69,121.19h-8.61v8.61h8.61v-8.61h0Z"/>
      </g>
      <g>
        <rect class="cls-1" x="332.36" y="133.88" width="7.76" height="7.76"/>
        <path class="cls-1" d="M339.7,134.31v6.91h-6.91v-6.91h6.91M340.55,133.46h-8.61v8.61h8.61v-8.61h0Z"/>
      </g>
      <g>
        <rect class="cls-1" x="320.17" y="133.88" width="7.76" height="7.76"/>
        <path class="cls-1" d="M327.5,134.31v6.91h-6.91v-6.91h6.91M328.35,133.46h-8.61v8.61h8.61v-8.61h0Z"/>
      </g>
      <g>
        <rect class="cls-1" x="307.97" y="133.88" width="7.76" height="7.76"/>
        <path class="cls-1" d="M315.3,134.31v6.91h-6.91v-6.91h6.91M316.15,133.46h-8.61v8.61h8.61v-8.61h0Z"/>
      </g>
      <g>
        <rect class="cls-1" x="295.77" y="133.88" width="7.76" height="7.76"/>
        <path class="cls-1" d="M303.1,134.31v6.91h-6.91v-6.91h6.91M303.96,133.46h-8.61v8.61h8.61v-8.61h0Z"/>
      </g>
      <g>
        <rect class="cls-1" x="283.57" y="133.88" width="7.76" height="7.76"/>
        <path class="cls-1" d="M290.91,134.31v6.91h-6.91v-6.91h6.91M291.76,133.46h-8.61v8.61h8.61v-8.61h0Z"/>
      </g>
    </g>
    <g>
      <g>
        <rect class="cls-1" x="230.53" y="187.74" width="7.76" height="7.76"/>
        <path class="cls-1" d="M237.87,188.17v6.91h-6.91v-6.91h6.91M238.72,187.32h-8.61v8.61h8.61v-8.61h0Z"/>
      </g>
      <g>
        <rect class="cls-1" x="230.46" y="200.01" width="7.76" height="7.76"/>
        <path class="cls-1" d="M237.79,200.44v6.91h-6.91v-6.91h6.91M238.64,199.59h-8.61v8.61h8.61v-8.61h0Z"/>
      </g>
      <g>
        <rect class="cls-1" x="218.34" y="187.74" width="7.76" height="7.76"/>
        <path class="cls-1" d="M225.67,188.17v6.91h-6.91v-6.91h6.91M226.52,187.32h-8.61v8.61h8.61v-8.61h0Z"/>
      </g>
      <g>
        <rect class="cls-1" x="206.14" y="187.74" width="7.76" height="7.76"/>
        <path class="cls-1" d="M213.47,188.17v6.91h-6.91v-6.91h6.91M214.32,187.32h-8.61v8.61h8.61v-8.61h0Z"/>
      </g>
      <g>
        <rect class="cls-1" x="206.07" y="200.01" width="7.76" height="7.76"/>
        <path class="cls-1" d="M213.4,200.44v6.91h-6.91v-6.91h6.91M214.25,199.59h-8.61v8.61h8.61v-8.61h0Z"/>
      </g>
      <g>
        <rect class="cls-1" x="218.26" y="200.01" width="7.76" height="7.76"/>
        <path class="cls-1" d="M225.6,200.44v6.91h-6.91v-6.91h6.91M226.45,199.59h-8.61v8.61h8.61v-8.61h0Z"/>
      </g>
      <g>
        <rect class="cls-1" x="193.94" y="187.74" width="7.76" height="7.76"/>
        <path class="cls-1" d="M201.27,188.17v6.91h-6.91v-6.91h6.91M202.13,187.32h-8.61v8.61h8.61v-8.61h0Z"/>
      </g>
      <g>
        <rect class="cls-1" x="193.87" y="200.01" width="7.76" height="7.76"/>
        <path class="cls-1" d="M201.2,200.44v6.91h-6.91v-6.91h6.91M202.05,199.59h-8.61v8.61h8.61v-8.61h0Z"/>
      </g>
      <g>
        <rect class="cls-1" x="230.53" y="212.28" width="7.76" height="7.76"/>
        <path class="cls-1" d="M237.87,212.71v6.91h-6.91v-6.91h6.91M238.72,211.86h-8.61v8.61h8.61v-8.61h0Z"/>
      </g>
      <g>
        <rect class="cls-1" x="230.46" y="224.55" width="7.76" height="7.76"/>
        <path class="cls-1" d="M237.79,224.98v6.91h-6.91v-6.91h6.91M238.64,224.13h-8.61v8.61h8.61v-8.61h0Z"/>
      </g>
      <g>
        <rect class="cls-1" x="218.34" y="212.28" width="7.76" height="7.76"/>
        <path class="cls-1" d="M225.67,212.71v6.91h-6.91v-6.91h6.91M226.52,211.86h-8.61v8.61h8.61v-8.61h0Z"/>
      </g>
      <g>
        <rect class="cls-1" x="206.14" y="212.28" width="7.76" height="7.76"/>
        <path class="cls-1" d="M213.47,212.71v6.91h-6.91v-6.91h6.91M214.32,211.86h-8.61v8.61h8.61v-8.61h0Z"/>
      </g>
      <g>
        <rect class="cls-1" x="206.07" y="224.55" width="7.76" height="7.76"/>
        <path class="cls-1" d="M213.4,224.98v6.91h-6.91v-6.91h6.91M214.25,224.13h-8.61v8.61h8.61v-8.61h0Z"/>
      </g>
      <g>
        <rect class="cls-1" x="218.26" y="224.55" width="7.76" height="7.76"/>
        <path class="cls-1" d="M225.6,224.98v6.91h-6.91v-6.91h6.91M226.45,224.13h-8.61v8.61h8.61v-8.61h0Z"/>
      </g>
      <g>
        <rect class="cls-1" x="193.94" y="212.28" width="7.76" height="7.76"/>
        <path class="cls-1" d="M201.27,212.71v6.91h-6.91v-6.91h6.91M202.13,211.86h-8.61v8.61h8.61v-8.61h0Z"/>
      </g>
      <g>
        <rect class="cls-1" x="193.87" y="224.55" width="7.76" height="7.76"/>
        <path class="cls-1" d="M201.2,224.98v6.91h-6.91v-6.91h6.91M202.05,224.13h-8.61v8.61h8.61v-8.61h0Z"/>
      </g>
      <g>
        <rect class="cls-1" x="230.53" y="236.83" width="7.76" height="7.76"/>
        <path class="cls-1" d="M237.87,237.25v6.91h-6.91v-6.91h6.91M238.72,236.4h-8.61v8.61h8.61v-8.61h0Z"/>
      </g>
      <g>
        <rect class="cls-1" x="230.46" y="249.1" width="7.76" height="7.76"/>
        <path class="cls-1" d="M237.79,249.52v6.91h-6.91v-6.91h6.91M238.64,248.67h-8.61v8.61h8.61v-8.61h0Z"/>
      </g>
      <g>
        <rect class="cls-1" x="218.34" y="236.83" width="7.76" height="7.76"/>
        <path class="cls-1" d="M225.67,237.25v6.91h-6.91v-6.91h6.91M226.52,236.4h-8.61v8.61h8.61v-8.61h0Z"/>
      </g>
      <g>
        <rect class="cls-1" x="206.14" y="236.83" width="7.76" height="7.76"/>
        <path class="cls-1" d="M213.47,237.25v6.91h-6.91v-6.91h6.91M214.32,236.4h-8.61v8.61h8.61v-8.61h0Z"/>
      </g>
      <g>
        <rect class="cls-1" x="206.07" y="249.1" width="7.76" height="7.76"/>
        <path class="cls-1" d="M213.4,249.52v6.91h-6.91v-6.91h6.91M214.25,248.67h-8.61v8.61h8.61v-8.61h0Z"/>
      </g>
      <g>
        <rect class="cls-1" x="218.26" y="249.1" width="7.76" height="7.76"/>
        <path class="cls-1" d="M225.6,249.52v6.91h-6.91v-6.91h6.91M226.45,248.67h-8.61v8.61h8.61v-8.61h0Z"/>
      </g>
      <g>
        <rect class="cls-1" x="193.94" y="236.83" width="7.76" height="7.76"/>
        <path class="cls-1" d="M201.27,237.25v6.91h-6.91v-6.91h6.91M202.13,236.4h-8.61v8.61h8.61v-8.61h0Z"/>
      </g>
      <g>
        <rect class="cls-1" x="193.87" y="249.1" width="7.76" height="7.76"/>
        <path class="cls-1" d="M201.2,249.52v6.91h-6.91v-6.91h6.91M202.05,248.67h-8.61v8.61h8.61v-8.61h0Z"/>
      </g>
      <g>
        <rect class="cls-1" x="230.53" y="261.37" width="7.76" height="7.76"/>
        <path class="cls-1" d="M237.87,261.79v6.91h-6.91v-6.91h6.91M238.72,260.94h-8.61v8.61h8.61v-8.61h0Z"/>
      </g>
      <g>
        <rect class="cls-1" x="230.46" y="273.64" width="7.76" height="7.76"/>
        <path class="cls-1" d="M237.79,274.06v6.91h-6.91v-6.91h6.91M238.64,273.21h-8.61v8.61h8.61v-8.61h0Z"/>
      </g>
      <g>
        <rect class="cls-1" x="218.34" y="261.37" width="7.76" height="7.76"/>
        <path class="cls-1" d="M225.67,261.79v6.91h-6.91v-6.91h6.91M226.52,260.94h-8.61v8.61h8.61v-8.61h0Z"/>
      </g>
      <g>
        <rect class="cls-1" x="206.14" y="261.37" width="7.76" height="7.76"/>
        <path class="cls-1" d="M213.47,261.79v6.91h-6.91v-6.91h6.91M214.32,260.94h-8.61v8.61h8.61v-8.61h0Z"/>
      </g>
      <g>
        <rect class="cls-1" x="206.07" y="273.64" width="7.76" height="7.76"/>
        <path class="cls-1" d="M213.4,274.06v6.91h-6.91v-6.91h6.91M214.25,273.21h-8.61v8.61h8.61v-8.61h0Z"/>
      </g>
      <g>
        <rect class="cls-1" x="218.26" y="273.64" width="7.76" height="7.76"/>
        <path class="cls-1" d="M225.6,274.06v6.91h-6.91v-6.91h6.91M226.45,273.21h-8.61v8.61h8.61v-8.61h0Z"/>
      </g>
      <g>
        <rect class="cls-1" x="193.94" y="261.37" width="7.76" height="7.76"/>
        <path class="cls-1" d="M201.27,261.79v6.91h-6.91v-6.91h6.91M202.13,260.94h-8.61v8.61h8.61v-8.61h0Z"/>
      </g>
      <g>
        <rect class="cls-1" x="193.87" y="273.64" width="7.76" height="7.76"/>
        <path class="cls-1" d="M201.2,274.06v6.91h-6.91v-6.91h6.91M202.05,273.21h-8.61v8.61h8.61v-8.61h0Z"/>
      </g>
      <g>
        <rect class="cls-1" x="181.66" y="187.74" width="7.76" height="7.76"/>
        <path class="cls-1" d="M188.99,188.17v6.91h-6.91v-6.91h6.91M189.84,187.32h-8.61v8.61h8.61v-8.61h0Z"/>
      </g>
      <g>
        <rect class="cls-1" x="169.46" y="187.74" width="7.76" height="7.76"/>
        <path class="cls-1" d="M176.8,188.17v6.91h-6.91v-6.91h6.91M177.65,187.32h-8.61v8.61h8.61v-8.61h0Z"/>
      </g>
      <g>
        <rect class="cls-1" x="169.39" y="200.01" width="7.76" height="7.76"/>
        <path class="cls-1" d="M176.72,200.44v6.91h-6.91v-6.91h6.91M177.57,199.59h-8.61v8.61h8.61v-8.61h0Z"/>
      </g>
      <g>
        <rect class="cls-1" x="181.66" y="200.01" width="7.76" height="7.76"/>
        <path class="cls-1" d="M188.99,200.44v6.91h-6.91v-6.91h6.91M189.84,199.59h-8.61v8.61h8.61v-8.61h0Z"/>
      </g>
      <g>
        <rect class="cls-1" x="157.27" y="187.74" width="7.76" height="7.76"/>
        <path class="cls-1" d="M164.6,188.17v6.91h-6.91v-6.91h6.91M165.45,187.32h-8.61v8.61h8.61v-8.61h0Z"/>
      </g>
      <g>
        <rect class="cls-1" x="157.19" y="200.01" width="7.76" height="7.76"/>
        <path class="cls-1" d="M164.53,200.44v6.91h-6.91v-6.91h6.91M165.38,199.59h-8.61v8.61h8.61v-8.61h0Z"/>
      </g>
      <g>
        <rect class="cls-1" x="145.07" y="187.74" width="7.76" height="7.76"/>
        <path class="cls-1" d="M152.4,188.17v6.91h-6.91v-6.91h6.91M153.25,187.32h-8.61v8.61h8.61v-8.61h0Z"/>
      </g>
      <g>
        <rect class="cls-1" x="145" y="200.01" width="7.76" height="7.76"/>
        <path class="cls-1" d="M152.33,200.44v6.91h-6.91v-6.91h6.91M153.18,199.59h-8.61v8.61h8.61v-8.61h0Z"/>
      </g>
      <g>
        <rect class="cls-1" x="181.66" y="212.28" width="7.76" height="7.76"/>
        <path class="cls-1" d="M188.99,212.71v6.91h-6.91v-6.91h6.91M189.84,211.86h-8.61v8.61h8.61v-8.61h0Z"/>
      </g>
      <g>
        <rect class="cls-1" x="169.46" y="212.28" width="7.76" height="7.76"/>
        <path class="cls-1" d="M176.8,212.71v6.91h-6.91v-6.91h6.91M177.65,211.86h-8.61v8.61h8.61v-8.61h0Z"/>
      </g>
      <g>
        <rect class="cls-1" x="169.39" y="224.55" width="7.76" height="7.76"/>
        <path class="cls-1" d="M176.72,224.98v6.91h-6.91v-6.91h6.91M177.57,224.13h-8.61v8.61h8.61v-8.61h0Z"/>
      </g>
      <g>
        <rect class="cls-1" x="181.66" y="224.55" width="7.76" height="7.76"/>
        <path class="cls-1" d="M188.99,224.98v6.91h-6.91v-6.91h6.91M189.84,224.13h-8.61v8.61h8.61v-8.61h0Z"/>
      </g>
      <g>
        <rect class="cls-1" x="157.27" y="212.28" width="7.76" height="7.76"/>
        <path class="cls-1" d="M164.6,212.71v6.91h-6.91v-6.91h6.91M165.45,211.86h-8.61v8.61h8.61v-8.61h0Z"/>
      </g>
      <g>
        <rect class="cls-1" x="157.19" y="224.55" width="7.76" height="7.76"/>
        <path class="cls-1" d="M164.53,224.98v6.91h-6.91v-6.91h6.91M165.38,224.13h-8.61v8.61h8.61v-8.61h0Z"/>
      </g>
      <g>
        <rect class="cls-1" x="145.07" y="212.28" width="7.76" height="7.76"/>
        <path class="cls-1" d="M152.4,212.71v6.91h-6.91v-6.91h6.91M153.25,211.86h-8.61v8.61h8.61v-8.61h0Z"/>
      </g>
      <g>
        <rect class="cls-1" x="145" y="224.55" width="7.76" height="7.76"/>
        <path class="cls-1" d="M152.33,224.98v6.91h-6.91v-6.91h6.91M153.18,224.13h-8.61v8.61h8.61v-8.61h0Z"/>
      </g>
      <g>
        <rect class="cls-1" x="181.66" y="236.83" width="7.76" height="7.76"/>
        <path class="cls-1" d="M188.99,237.25v6.91h-6.91v-6.91h6.91M189.84,236.4h-8.61v8.61h8.61v-8.61h0Z"/>
      </g>
      <g>
        <rect class="cls-1" x="169.46" y="236.83" width="7.76" height="7.76"/>
        <path class="cls-1" d="M176.8,237.25v6.91h-6.91v-6.91h6.91M177.65,236.4h-8.61v8.61h8.61v-8.61h0Z"/>
      </g>
      <g>
        <rect class="cls-1" x="169.39" y="249.1" width="7.76" height="7.76"/>
        <path class="cls-1" d="M176.72,249.52v6.91h-6.91v-6.91h6.91M177.57,248.67h-8.61v8.61h8.61v-8.61h0Z"/>
      </g>
      <g>
        <rect class="cls-1" x="181.66" y="249.1" width="7.76" height="7.76"/>
        <path class="cls-1" d="M188.99,249.52v6.91h-6.91v-6.91h6.91M189.84,248.67h-8.61v8.61h8.61v-8.61h0Z"/>
      </g>
      <g>
        <rect class="cls-1" x="157.27" y="236.83" width="7.76" height="7.76"/>
        <path class="cls-1" d="M164.6,237.25v6.91h-6.91v-6.91h6.91M165.45,236.4h-8.61v8.61h8.61v-8.61h0Z"/>
      </g>
      <g>
        <rect class="cls-1" x="157.19" y="249.1" width="7.76" height="7.76"/>
        <path class="cls-1" d="M164.53,249.52v6.91h-6.91v-6.91h6.91M165.38,248.67h-8.61v8.61h8.61v-8.61h0Z"/>
      </g>
      <g>
        <rect class="cls-1" x="145.07" y="236.83" width="7.76" height="7.76"/>
        <path class="cls-1" d="M152.4,237.25v6.91h-6.91v-6.91h6.91M153.25,236.4h-8.61v8.61h8.61v-8.61h0Z"/>
      </g>
      <g>
        <rect class="cls-1" x="145" y="249.1" width="7.76" height="7.76"/>
        <path class="cls-1" d="M152.33,249.52v6.91h-6.91v-6.91h6.91M153.18,248.67h-8.61v8.61h8.61v-8.61h0Z"/>
      </g>
      <g>
        <rect class="cls-1" x="181.66" y="261.37" width="7.76" height="7.76"/>
        <path class="cls-1" d="M188.99,261.79v6.91h-6.91v-6.91h6.91M189.84,260.94h-8.61v8.61h8.61v-8.61h0Z"/>
      </g>
      <g>
        <rect class="cls-1" x="169.46" y="261.37" width="7.76" height="7.76"/>
        <path class="cls-1" d="M176.8,261.79v6.91h-6.91v-6.91h6.91M177.65,260.94h-8.61v8.61h8.61v-8.61h0Z"/>
      </g>
      <g>
        <rect class="cls-1" x="169.39" y="273.64" width="7.76" height="7.76"/>
        <path class="cls-1" d="M176.72,274.06v6.91h-6.91v-6.91h6.91M177.57,273.21h-8.61v8.61h8.61v-8.61h0Z"/>
      </g>
      <g>
        <rect class="cls-1" x="181.66" y="273.64" width="7.76" height="7.76"/>
        <path class="cls-1" d="M188.99,274.06v6.91h-6.91v-6.91h6.91M189.84,273.21h-8.61v8.61h8.61v-8.61h0Z"/>
      </g>
      <g>
        <rect class="cls-1" x="157.27" y="261.37" width="7.76" height="7.76"/>
        <path class="cls-1" d="M164.6,261.79v6.91h-6.91v-6.91h6.91M165.45,260.94h-8.61v8.61h8.61v-8.61h0Z"/>
      </g>
      <g>
        <rect class="cls-1" x="157.19" y="273.64" width="7.76" height="7.76"/>
        <path class="cls-1" d="M164.53,274.06v6.91h-6.91v-6.91h6.91M165.38,273.21h-8.61v8.61h8.61v-8.61h0Z"/>
      </g>
      <g>
        <rect class="cls-1" x="145.07" y="261.37" width="7.76" height="7.76"/>
        <path class="cls-1" d="M152.4,261.79v6.91h-6.91v-6.91h6.91M153.25,260.94h-8.61v8.61h8.61v-8.61h0Z"/>
      </g>
      <g>
        <rect class="cls-1" x="145" y="273.64" width="7.76" height="7.76"/>
        <path class="cls-1" d="M152.33,274.06v6.91h-6.91v-6.91h6.91M153.18,273.21h-8.61v8.61h8.61v-8.61h0Z"/>
      </g>
    </g>
    <g>
      <g>
        <rect class="cls-1" x="464.28" y="187.37" width="12.92" height="12.93"/>
        <path class="cls-1" d="M476.78,187.79v12.07h-12.07v-12.07h12.07M477.63,186.94h-13.77v13.77h13.77v-13.77h0Z"/>
      </g>
      <g>
        <rect class="cls-1" x="464.16" y="207" width="12.92" height="12.92"/>
        <path class="cls-1" d="M476.66,207.43v12.07h-12.07v-12.07h12.07M477.51,206.58h-13.77v13.77h13.77v-13.77h0Z"/>
      </g>
      <g>
        <rect class="cls-1" x="444.76" y="187.37" width="12.92" height="12.93"/>
        <path class="cls-1" d="M457.26,187.79v12.07h-12.07v-12.07h12.07M458.11,186.94h-13.77v13.77h13.77v-13.77h0Z"/>
      </g>
      <g>
        <rect class="cls-1" x="444.64" y="207" width="12.92" height="12.92"/>
        <path class="cls-1" d="M457.14,207.43v12.07h-12.07v-12.07h12.07M457.99,206.58h-13.77v13.77h13.77v-13.77h0Z"/>
      </g>
      <g>
        <rect class="cls-1" x="425.25" y="187.37" width="12.92" height="12.93"/>
        <path class="cls-1" d="M437.75,187.79v12.07h-12.07v-12.07h12.07M438.6,186.94h-13.77v13.77h13.77v-13.77h0Z"/>
      </g>
      <g>
        <rect class="cls-1" x="405.73" y="187.37" width="12.92" height="12.93"/>
        <path class="cls-1" d="M418.23,187.79v12.07h-12.07v-12.07h12.07M419.08,186.94h-13.77v13.77h13.77v-13.77h0Z"/>
      </g>
      <g>
        <rect class="cls-1" x="405.61" y="207" width="12.92" height="12.92"/>
        <path class="cls-1" d="M418.11,207.43v12.07h-12.07v-12.07h12.07M418.96,206.58h-13.77v13.77h13.77v-13.77h0Z"/>
      </g>
      <g>
        <rect class="cls-1" x="425.13" y="207" width="12.92" height="12.92"/>
        <path class="cls-1" d="M437.63,207.43v12.07h-12.07v-12.07h12.07M438.48,206.58h-13.77v13.77h13.77v-13.77h0Z"/>
      </g>
      <g>
        <rect class="cls-1" x="386.21" y="187.37" width="12.92" height="12.93"/>
        <path class="cls-1" d="M398.71,187.79v12.07h-12.07v-12.07h12.07M399.56,186.94h-13.77v13.77h13.77v-13.77h0Z"/>
      </g>
      <g>
        <rect class="cls-1" x="386.1" y="207" width="12.92" height="12.92"/>
        <path class="cls-1" d="M398.6,207.43v12.07h-12.07v-12.07h12.07M399.45,206.58h-13.77v13.77h13.77v-13.77h0Z"/>
      </g>
      <g>
        <rect class="cls-1" x="464.28" y="226.63" width="12.92" height="12.93"/>
        <path class="cls-1" d="M476.78,227.06v12.07h-12.07v-12.07h12.07M477.63,226.21h-13.77v13.77h13.77v-13.77h0Z"/>
      </g>
      <g>
        <rect class="cls-1" x="464.16" y="246.27" width="12.92" height="12.92"/>
        <path class="cls-1" d="M476.66,246.69v12.07h-12.07v-12.07h12.07M477.51,245.84h-13.77v13.77h13.77v-13.77h0Z"/>
      </g>
      <g>
        <rect class="cls-1" x="444.76" y="226.63" width="12.92" height="12.93"/>
        <path class="cls-1" d="M457.26,227.06v12.07h-12.07v-12.07h12.07M458.11,226.21h-13.77v13.77h13.77v-13.77h0Z"/>
      </g>
      <g>
        <rect class="cls-1" x="444.64" y="246.27" width="12.92" height="12.92"/>
        <path class="cls-1" d="M457.14,246.69v12.07h-12.07v-12.07h12.07M457.99,245.84h-13.77v13.77h13.77v-13.77h0Z"/>
      </g>
      <g>
        <rect class="cls-1" x="425.25" y="226.63" width="12.92" height="12.93"/>
        <path class="cls-1" d="M437.75,227.06v12.07h-12.07v-12.07h12.07M438.6,226.21h-13.77v13.77h13.77v-13.77h0Z"/>
      </g>
      <g>
        <rect class="cls-1" x="405.73" y="226.63" width="12.92" height="12.93"/>
        <path class="cls-1" d="M418.23,227.06v12.07h-12.07v-12.07h12.07M419.08,226.21h-13.77v13.77h13.77v-13.77h0Z"/>
      </g>
      <g>
        <rect class="cls-1" x="405.61" y="246.27" width="12.92" height="12.92"/>
        <path class="cls-1" d="M418.11,246.69v12.07h-12.07v-12.07h12.07M418.96,245.84h-13.77v13.77h13.77v-13.77h0Z"/>
      </g>
      <g>
        <rect class="cls-1" x="425.13" y="246.27" width="12.92" height="12.92"/>
        <path class="cls-1" d="M437.63,246.69v12.07h-12.07v-12.07h12.07M438.48,245.84h-13.77v13.77h13.77v-13.77h0Z"/>
      </g>
      <g>
        <rect class="cls-1" x="386.21" y="226.63" width="12.92" height="12.93"/>
        <path class="cls-1" d="M398.71,227.06v12.07h-12.07v-12.07h12.07M399.56,226.21h-13.77v13.77h13.77v-13.77h0Z"/>
      </g>
      <g>
        <rect class="cls-1" x="386.1" y="246.27" width="12.92" height="12.92"/>
        <path class="cls-1" d="M398.6,246.69v12.07h-12.07v-12.07h12.07M399.45,245.84h-13.77v13.77h13.77v-13.77h0Z"/>
      </g>
      <g>
        <rect class="cls-1" x="464.28" y="265.9" width="12.92" height="12.92"/>
        <path class="cls-1" d="M476.78,266.33v12.07h-12.07v-12.07h12.07M477.63,265.48h-13.77v13.77h13.77v-13.77h0Z"/>
      </g>
      <g>
        <rect class="cls-1" x="444.76" y="265.9" width="12.92" height="12.92"/>
        <path class="cls-1" d="M457.26,266.33v12.07h-12.07v-12.07h12.07M458.11,265.48h-13.77v13.77h13.77v-13.77h0Z"/>
      </g>
      <g>
        <rect class="cls-1" x="425.25" y="265.9" width="12.92" height="12.92"/>
        <path class="cls-1" d="M437.75,266.33v12.07h-12.07v-12.07h12.07M438.6,265.48h-13.77v13.77h13.77v-13.77h0Z"/>
      </g>
      <g>
        <rect class="cls-1" x="405.73" y="265.9" width="12.92" height="12.92"/>
        <path class="cls-1" d="M418.23,266.33v12.07h-12.07v-12.07h12.07M419.08,265.48h-13.77v13.77h13.77v-13.77h0Z"/>
      </g>
      <g>
        <rect class="cls-1" x="386.21" y="265.9" width="12.92" height="12.92"/>
        <path class="cls-1" d="M398.71,266.33v12.07h-12.07v-12.07h12.07M399.56,265.48h-13.77v13.77h13.77v-13.77h0Z"/>
      </g>
    </g>
  </g>
</svg>