<?xml version="1.0" encoding="UTF-8"?>
<svg id="Layer_2" xmlns="http://www.w3.org/2000/svg" viewBox="0 0 623.62 368.5">
  <defs>
    <style>
      .cls-1 {
        fill: #231f20;
      }

      .cls-2 {
        fill: #fff;
      }
    </style>
  </defs>
  <g id="Layer_1-2" data-name="Layer_1">
    <rect class="cls-2" x="0" y="0" width="623.62" height="368.5" transform="translate(623.62 368.5) rotate(-180)"/>
    <g>
      <g>
        <rect class="cls-1" x="283.5" y="84.8" width="7.76" height="7.76"/>
        <path class="cls-1" d="M290.83,85.23v6.91h-6.91v-6.91h6.91M291.69,84.38h-8.61v8.61h8.61v-8.61h0Z"/>
      </g>
      <g>
        <rect class="cls-1" x="283.57" y="97.07" width="7.76" height="7.76"/>
        <path class="cls-1" d="M290.91,97.5v6.91h-6.91v-6.91h6.91M291.76,96.65h-8.61v8.61h8.61v-8.61h0Z"/>
      </g>
      <g>
        <rect class="cls-1" x="295.7" y="84.8" width="7.76" height="7.76"/>
        <path class="cls-1" d="M303.03,85.23v6.91h-6.91v-6.91h6.91M303.88,84.38h-8.61v8.61h8.61v-8.61h0Z"/>
      </g>
      <g>
        <rect class="cls-1" x="295.77" y="97.07" width="7.76" height="7.76"/>
        <path class="cls-1" d="M303.1,97.5v6.91h-6.91v-6.91h6.91M303.96,96.65h-8.61v8.61h8.61v-8.61h0Z"/>
      </g>
      <g>
        <rect class="cls-1" x="307.9" y="84.8" width="7.76" height="7.76"/>
        <path class="cls-1" d="M315.23,85.23v6.91h-6.91v-6.91h6.91M316.08,84.38h-8.61v8.61h8.61v-8.61h0Z"/>
      </g>
      <g>
        <rect class="cls-1" x="320.09" y="84.8" width="7.76" height="7.76"/>
        <path class="cls-1" d="M327.43,85.23v6.91h-6.91v-6.91h6.91M328.28,84.38h-8.61v8.61h8.61v-8.61h0Z"/>
      </g>
      <g>
        <rect class="cls-1" x="320.17" y="97.07" width="7.76" height="7.76"/>
        <path class="cls-1" d="M327.5,97.5v6.91h-6.91v-6.91h6.91M328.35,96.65h-8.61v8.61h8.61v-8.61h0Z"/>
      </g>
      <g>
        <rect class="cls-1" x="307.97" y="97.07" width="7.76" height="7.76"/>
        <path class="cls-1" d="M315.3,97.5v6.91h-6.91v-6.91h6.91M316.15,96.65h-8.61v8.61h8.61v-8.61h0Z"/>
      </g>
      <g>
        <rect class="cls-1" x="332.29" y="84.8" width="7.76" height="7.76"/>
        <path class="cls-1" d="M339.62,85.23v6.91h-6.91v-6.91h6.91M340.47,84.38h-8.61v8.61h8.61v-8.61h0Z"/>
      </g>
      <g>
        <rect class="cls-1" x="332.36" y="97.07" width="7.76" height="7.76"/>
        <path class="cls-1" d="M339.7,97.5v6.91h-6.91v-6.91h6.91M340.55,96.65h-8.61v8.61h8.61v-8.61h0Z"/>
      </g>
      <g>
        <rect class="cls-1" x="283.5" y="109.34" width="7.76" height="7.76"/>
        <path class="cls-1" d="M290.83,109.77v6.91h-6.91v-6.91h6.91M291.69,108.92h-8.61v8.61h8.61v-8.61h0Z"/>
      </g>
      <g>
        <rect class="cls-1" x="283.57" y="121.62" width="7.76" height="7.76"/>
        <path class="cls-1" d="M290.91,122.04v6.91h-6.91v-6.91h6.91M291.76,121.19h-8.61v8.61h8.61v-8.61h0Z"/>
      </g>
      <g>
        <rect class="cls-1" x="295.7" y="109.34" width="7.76" height="7.76"/>
        <path class="cls-1" d="M303.03,109.77v6.91h-6.91v-6.91h6.91M303.88,108.92h-8.61v8.61h8.61v-8.61h0Z"/>
      </g>
      <g>
        <rect class="cls-1" x="295.77" y="121.62" width="7.76" height="7.76"/>
        <path class="cls-1" d="M303.1,122.04v6.91h-6.91v-6.91h6.91M303.96,121.19h-8.61v8.61h8.61v-8.61h0Z"/>
      </g>
      <g>
        <rect class="cls-1" x="307.9" y="109.34" width="7.76" height="7.76"/>
        <path class="cls-1" d="M315.23,109.77v6.91h-6.91v-6.91h6.91M316.08,108.92h-8.61v8.61h8.61v-8.61h0Z"/>
      </g>
      <g>
        <rect class="cls-1" x="320.09" y="109.34" width="7.76" height="7.76"/>
        <path class="cls-1" d="M327.43,109.77v6.91h-6.91v-6.91h6.91M328.28,108.92h-8.61v8.61h8.61v-8.61h0Z"/>
      </g>
      <g>
        <rect class="cls-1" x="320.17" y="121.62" width="7.76" height="7.76"/>
        <path class="cls-1" d="M327.5,122.04v6.91h-6.91v-6.91h6.91M328.35,121.19h-8.61v8.61h8.61v-8.61h0Z"/>
      </g>
      <g>
        <rect class="cls-1" x="307.97" y="121.62" width="7.76" height="7.76"/>
        <path class="cls-1" d="M315.3,122.04v6.91h-6.91v-6.91h6.91M316.15,121.19h-8.61v8.61h8.61v-8.61h0Z"/>
      </g>
      <g>
        <rect class="cls-1" x="332.29" y="109.34" width="7.76" height="7.76"/>
        <path class="cls-1" d="M339.62,109.77v6.91h-6.91v-6.91h6.91M340.47,108.92h-8.61v8.61h8.61v-8.61h0Z"/>
      </g>
      <g>
        <rect class="cls-1" x="332.36" y="121.62" width="7.76" height="7.76"/>
        <path class="cls-1" d="M339.7,122.04v6.91h-6.91v-6.91h6.91M340.55,121.19h-8.61v8.61h8.61v-8.61h0Z"/>
      </g>
      <g>
        <rect class="cls-1" x="283.5" y="133.88" width="7.76" height="7.76"/>
        <path class="cls-1" d="M290.83,134.31v6.91h-6.91v-6.91h6.91M291.69,133.46h-8.61v8.61h8.61v-8.61h0Z"/>
      </g>
      <g>
        <rect class="cls-1" x="295.7" y="133.88" width="7.76" height="7.76"/>
        <path class="cls-1" d="M303.03,134.31v6.91h-6.91v-6.91h6.91M303.88,133.46h-8.61v8.61h8.61v-8.61h0Z"/>
      </g>
      <g>
        <rect class="cls-1" x="307.9" y="133.88" width="7.76" height="7.76"/>
        <path class="cls-1" d="M315.23,134.31v6.91h-6.91v-6.91h6.91M316.08,133.46h-8.61v8.61h8.61v-8.61h0Z"/>
      </g>
      <g>
        <rect class="cls-1" x="320.09" y="133.88" width="7.76" height="7.76"/>
        <path class="cls-1" d="M327.43,134.31v6.91h-6.91v-6.91h6.91M328.28,133.46h-8.61v8.61h8.61v-8.61h0Z"/>
      </g>
      <g>
        <rect class="cls-1" x="332.29" y="133.88" width="7.76" height="7.76"/>
        <path class="cls-1" d="M339.62,134.31v6.91h-6.91v-6.91h6.91M340.47,133.46h-8.61v8.61h8.61v-8.61h0Z"/>
      </g>
    </g>
    <g>
      <g>
        <rect class="cls-1" x="386.13" y="187.91" width="7.76" height="7.76"/>
        <path class="cls-1" d="M393.47,188.34v6.91h-6.91v-6.91h6.91M394.32,187.49h-8.61v8.61h8.61v-8.61h0Z"/>
      </g>
      <g>
        <rect class="cls-1" x="386.21" y="200.18" width="7.76" height="7.76"/>
        <path class="cls-1" d="M393.54,200.61v6.91h-6.91v-6.91h6.91M394.39,199.76h-8.61v8.61h8.61v-8.61h0Z"/>
      </g>
      <g>
        <rect class="cls-1" x="398.33" y="187.91" width="7.76" height="7.76"/>
        <path class="cls-1" d="M405.66,188.34v6.91h-6.91v-6.91h6.91M406.51,187.49h-8.61v8.61h8.61v-8.61h0Z"/>
      </g>
      <g>
        <rect class="cls-1" x="410.53" y="187.91" width="7.76" height="7.76"/>
        <path class="cls-1" d="M417.86,188.34v6.91h-6.91v-6.91h6.91M418.71,187.49h-8.61v8.61h8.61v-8.61h0Z"/>
      </g>
      <g>
        <rect class="cls-1" x="410.6" y="200.18" width="7.76" height="7.76"/>
        <path class="cls-1" d="M417.93,200.61v6.91h-6.91v-6.91h6.91M418.78,199.76h-8.61v8.61h8.61v-8.61h0Z"/>
      </g>
      <g>
        <rect class="cls-1" x="398.4" y="200.18" width="7.76" height="7.76"/>
        <path class="cls-1" d="M405.74,200.61v6.91h-6.91v-6.91h6.91M406.59,199.76h-8.61v8.61h8.61v-8.61h0Z"/>
      </g>
      <g>
        <rect class="cls-1" x="422.72" y="187.91" width="7.76" height="7.76"/>
        <path class="cls-1" d="M430.06,188.34v6.91h-6.91v-6.91h6.91M430.91,187.49h-8.61v8.61h8.61v-8.61h0Z"/>
      </g>
      <g>
        <rect class="cls-1" x="422.8" y="200.18" width="7.76" height="7.76"/>
        <path class="cls-1" d="M430.13,200.61v6.91h-6.91v-6.91h6.91M430.98,199.76h-8.61v8.61h8.61v-8.61h0Z"/>
      </g>
      <g>
        <rect class="cls-1" x="386.13" y="212.45" width="7.76" height="7.76"/>
        <path class="cls-1" d="M393.47,212.88v6.91h-6.91v-6.91h6.91M394.32,212.03h-8.61v8.61h8.61v-8.61h0Z"/>
      </g>
      <g>
        <rect class="cls-1" x="386.21" y="224.72" width="7.76" height="7.76"/>
        <path class="cls-1" d="M393.54,225.15v6.91h-6.91v-6.91h6.91M394.39,224.3h-8.61v8.61h8.61v-8.61h0Z"/>
      </g>
      <g>
        <rect class="cls-1" x="398.33" y="212.45" width="7.76" height="7.76"/>
        <path class="cls-1" d="M405.66,212.88v6.91h-6.91v-6.91h6.91M406.51,212.03h-8.61v8.61h8.61v-8.61h0Z"/>
      </g>
      <g>
        <rect class="cls-1" x="410.53" y="212.45" width="7.76" height="7.76"/>
        <path class="cls-1" d="M417.86,212.88v6.91h-6.91v-6.91h6.91M418.71,212.03h-8.61v8.61h8.61v-8.61h0Z"/>
      </g>
      <g>
        <rect class="cls-1" x="410.6" y="224.72" width="7.76" height="7.76"/>
        <path class="cls-1" d="M417.93,225.15v6.91h-6.91v-6.91h6.91M418.78,224.3h-8.61v8.61h8.61v-8.61h0Z"/>
      </g>
      <g>
        <rect class="cls-1" x="398.4" y="224.72" width="7.76" height="7.76"/>
        <path class="cls-1" d="M405.74,225.15v6.91h-6.91v-6.91h6.91M406.59,224.3h-8.61v8.61h8.61v-8.61h0Z"/>
      </g>
      <g>
        <rect class="cls-1" x="422.72" y="212.45" width="7.76" height="7.76"/>
        <path class="cls-1" d="M430.06,212.88v6.91h-6.91v-6.91h6.91M430.91,212.03h-8.61v8.61h8.61v-8.61h0Z"/>
      </g>
      <g>
        <rect class="cls-1" x="422.8" y="224.72" width="7.76" height="7.76"/>
        <path class="cls-1" d="M430.13,225.15v6.91h-6.91v-6.91h6.91M430.98,224.3h-8.61v8.61h8.61v-8.61h0Z"/>
      </g>
      <g>
        <rect class="cls-1" x="386.13" y="236.99" width="7.76" height="7.76"/>
        <path class="cls-1" d="M393.47,237.42v6.91h-6.91v-6.91h6.91M394.32,236.57h-8.61v8.61h8.61v-8.61h0Z"/>
      </g>
      <g>
        <rect class="cls-1" x="386.21" y="249.26" width="7.76" height="7.76"/>
        <path class="cls-1" d="M393.54,249.69v6.91h-6.91v-6.91h6.91M394.39,248.84h-8.61v8.61h8.61v-8.61h0Z"/>
      </g>
      <g>
        <rect class="cls-1" x="398.33" y="236.99" width="7.76" height="7.76"/>
        <path class="cls-1" d="M405.66,237.42v6.91h-6.91v-6.91h6.91M406.51,236.57h-8.61v8.61h8.61v-8.61h0Z"/>
      </g>
      <g>
        <rect class="cls-1" x="410.53" y="236.99" width="7.76" height="7.76"/>
        <path class="cls-1" d="M417.86,237.42v6.91h-6.91v-6.91h6.91M418.71,236.57h-8.61v8.61h8.61v-8.61h0Z"/>
      </g>
      <g>
        <rect class="cls-1" x="410.6" y="249.26" width="7.76" height="7.76"/>
        <path class="cls-1" d="M417.93,249.69v6.91h-6.91v-6.91h6.91M418.78,248.84h-8.61v8.61h8.61v-8.61h0Z"/>
      </g>
      <g>
        <rect class="cls-1" x="398.4" y="249.26" width="7.76" height="7.76"/>
        <path class="cls-1" d="M405.74,249.69v6.91h-6.91v-6.91h6.91M406.59,248.84h-8.61v8.61h8.61v-8.61h0Z"/>
      </g>
      <g>
        <rect class="cls-1" x="422.72" y="236.99" width="7.76" height="7.76"/>
        <path class="cls-1" d="M430.06,237.42v6.91h-6.91v-6.91h6.91M430.91,236.57h-8.61v8.61h8.61v-8.61h0Z"/>
      </g>
      <g>
        <rect class="cls-1" x="422.8" y="249.26" width="7.76" height="7.76"/>
        <path class="cls-1" d="M430.13,249.69v6.91h-6.91v-6.91h6.91M430.98,248.84h-8.61v8.61h8.61v-8.61h0Z"/>
      </g>
      <g>
        <rect class="cls-1" x="386.13" y="261.54" width="7.76" height="7.76"/>
        <path class="cls-1" d="M393.47,261.96v6.91h-6.91v-6.91h6.91M394.32,261.11h-8.61v8.61h8.61v-8.61h0Z"/>
      </g>
      <g>
        <rect class="cls-1" x="386.21" y="273.8" width="7.76" height="7.76"/>
        <path class="cls-1" d="M393.54,274.23v6.91h-6.91v-6.91h6.91M394.39,273.38h-8.61v8.61h8.61v-8.61h0Z"/>
      </g>
      <g>
        <rect class="cls-1" x="398.33" y="261.54" width="7.76" height="7.76"/>
        <path class="cls-1" d="M405.66,261.96v6.91h-6.91v-6.91h6.91M406.51,261.11h-8.61v8.61h8.61v-8.61h0Z"/>
      </g>
      <g>
        <rect class="cls-1" x="410.53" y="261.54" width="7.76" height="7.76"/>
        <path class="cls-1" d="M417.86,261.96v6.91h-6.91v-6.91h6.91M418.71,261.11h-8.61v8.61h8.61v-8.61h0Z"/>
      </g>
      <g>
        <rect class="cls-1" x="410.6" y="273.8" width="7.76" height="7.76"/>
        <path class="cls-1" d="M417.93,274.23v6.91h-6.91v-6.91h6.91M418.78,273.38h-8.61v8.61h8.61v-8.61h0Z"/>
      </g>
      <g>
        <rect class="cls-1" x="398.4" y="273.8" width="7.76" height="7.76"/>
        <path class="cls-1" d="M405.74,274.23v6.91h-6.91v-6.91h6.91M406.59,273.38h-8.61v8.61h8.61v-8.61h0Z"/>
      </g>
      <g>
        <rect class="cls-1" x="422.72" y="261.54" width="7.76" height="7.76"/>
        <path class="cls-1" d="M430.06,261.96v6.91h-6.91v-6.91h6.91M430.91,261.11h-8.61v8.61h8.61v-8.61h0Z"/>
      </g>
      <g>
        <rect class="cls-1" x="422.8" y="273.8" width="7.76" height="7.76"/>
        <path class="cls-1" d="M430.13,274.23v6.91h-6.91v-6.91h6.91M430.98,273.38h-8.61v8.61h8.61v-8.61h0Z"/>
      </g>
      <g>
        <rect class="cls-1" x="435.01" y="187.91" width="7.76" height="7.76"/>
        <path class="cls-1" d="M442.34,188.34v6.91h-6.91v-6.91h6.91M443.19,187.49h-8.61v8.61h8.61v-8.61h0Z"/>
      </g>
      <g>
        <rect class="cls-1" x="447.2" y="187.91" width="7.76" height="7.76"/>
        <path class="cls-1" d="M454.54,188.34v6.91h-6.91v-6.91h6.91M455.39,187.49h-8.61v8.61h8.61v-8.61h0Z"/>
      </g>
      <g>
        <rect class="cls-1" x="447.28" y="200.18" width="7.76" height="7.76"/>
        <path class="cls-1" d="M454.61,200.61v6.91h-6.91v-6.91h6.91M455.46,199.76h-8.61v8.61h8.61v-8.61h0Z"/>
      </g>
      <g>
        <rect class="cls-1" x="435.01" y="200.18" width="7.76" height="7.76"/>
        <path class="cls-1" d="M442.34,200.61v6.91h-6.91v-6.91h6.91M443.19,199.76h-8.61v8.61h8.61v-8.61h0Z"/>
      </g>
      <g>
        <rect class="cls-1" x="459.4" y="187.91" width="7.76" height="7.76"/>
        <path class="cls-1" d="M466.73,188.34v6.91h-6.91v-6.91h6.91M467.58,187.49h-8.61v8.61h8.61v-8.61h0Z"/>
      </g>
      <g>
        <rect class="cls-1" x="459.47" y="200.18" width="7.76" height="7.76"/>
        <path class="cls-1" d="M466.81,200.61v6.91h-6.91v-6.91h6.91M467.66,199.76h-8.61v8.61h8.61v-8.61h0Z"/>
      </g>
      <g>
        <rect class="cls-1" x="471.6" y="187.91" width="7.76" height="7.76"/>
        <path class="cls-1" d="M478.93,188.34v6.91h-6.91v-6.91h6.91M479.78,187.49h-8.61v8.61h8.61v-8.61h0Z"/>
      </g>
      <g>
        <rect class="cls-1" x="471.67" y="200.18" width="7.76" height="7.76"/>
        <path class="cls-1" d="M479,200.61v6.91h-6.91v-6.91h6.91M479.85,199.76h-8.61v8.61h8.61v-8.61h0Z"/>
      </g>
      <g>
        <rect class="cls-1" x="435.01" y="212.45" width="7.76" height="7.76"/>
        <path class="cls-1" d="M442.34,212.88v6.91h-6.91v-6.91h6.91M443.19,212.03h-8.61v8.61h8.61v-8.61h0Z"/>
      </g>
      <g>
        <rect class="cls-1" x="447.2" y="212.45" width="7.76" height="7.76"/>
        <path class="cls-1" d="M454.54,212.88v6.91h-6.91v-6.91h6.91M455.39,212.03h-8.61v8.61h8.61v-8.61h0Z"/>
      </g>
      <g>
        <rect class="cls-1" x="447.28" y="224.72" width="7.76" height="7.76"/>
        <path class="cls-1" d="M454.61,225.15v6.91h-6.91v-6.91h6.91M455.46,224.3h-8.61v8.61h8.61v-8.61h0Z"/>
      </g>
      <g>
        <rect class="cls-1" x="435.01" y="224.72" width="7.76" height="7.76"/>
        <path class="cls-1" d="M442.34,225.15v6.91h-6.91v-6.91h6.91M443.19,224.3h-8.61v8.61h8.61v-8.61h0Z"/>
      </g>
      <g>
        <rect class="cls-1" x="459.4" y="212.45" width="7.76" height="7.76"/>
        <path class="cls-1" d="M466.73,212.88v6.91h-6.91v-6.91h6.91M467.58,212.03h-8.61v8.61h8.61v-8.61h0Z"/>
      </g>
      <g>
        <rect class="cls-1" x="459.47" y="224.72" width="7.76" height="7.76"/>
        <path class="cls-1" d="M466.81,225.15v6.91h-6.91v-6.91h6.91M467.66,224.3h-8.61v8.61h8.61v-8.61h0Z"/>
      </g>
      <g>
        <rect class="cls-1" x="471.6" y="212.45" width="7.76" height="7.76"/>
        <path class="cls-1" d="M478.93,212.88v6.91h-6.91v-6.91h6.91M479.78,212.03h-8.61v8.61h8.61v-8.61h0Z"/>
      </g>
      <g>
        <rect class="cls-1" x="471.67" y="224.72" width="7.76" height="7.76"/>
        <path class="cls-1" d="M479,225.15v6.91h-6.91v-6.91h6.91M479.85,224.3h-8.61v8.61h8.61v-8.61h0Z"/>
      </g>
      <g>
        <rect class="cls-1" x="435.01" y="236.99" width="7.76" height="7.76"/>
        <path class="cls-1" d="M442.34,237.42v6.91h-6.91v-6.91h6.91M443.19,236.57h-8.61v8.61h8.61v-8.61h0Z"/>
      </g>
      <g>
        <rect class="cls-1" x="447.2" y="236.99" width="7.76" height="7.76"/>
        <path class="cls-1" d="M454.54,237.42v6.91h-6.91v-6.91h6.91M455.39,236.57h-8.61v8.61h8.61v-8.61h0Z"/>
      </g>
      <g>
        <rect class="cls-1" x="447.28" y="249.26" width="7.76" height="7.76"/>
        <path class="cls-1" d="M454.61,249.69v6.91h-6.91v-6.91h6.91M455.46,248.84h-8.61v8.61h8.61v-8.61h0Z"/>
      </g>
      <g>
        <rect class="cls-1" x="435.01" y="249.26" width="7.76" height="7.76"/>
        <path class="cls-1" d="M442.34,249.69v6.91h-6.91v-6.91h6.91M443.19,248.84h-8.61v8.61h8.61v-8.61h0Z"/>
      </g>
      <g>
        <rect class="cls-1" x="459.4" y="236.99" width="7.76" height="7.76"/>
        <path class="cls-1" d="M466.73,237.42v6.91h-6.91v-6.91h6.91M467.58,236.57h-8.61v8.61h8.61v-8.61h0Z"/>
      </g>
      <g>
        <rect class="cls-1" x="459.47" y="249.26" width="7.76" height="7.76"/>
        <path class="cls-1" d="M466.81,249.69v6.91h-6.91v-6.91h6.91M467.66,248.84h-8.61v8.61h8.61v-8.61h0Z"/>
      </g>
      <g>
        <rect class="cls-1" x="471.6" y="236.99" width="7.76" height="7.76"/>
        <path class="cls-1" d="M478.93,237.42v6.91h-6.91v-6.91h6.91M479.78,236.57h-8.61v8.61h8.61v-8.61h0Z"/>
      </g>
      <g>
        <rect class="cls-1" x="471.67" y="249.26" width="7.76" height="7.76"/>
        <path class="cls-1" d="M479,249.69v6.91h-6.91v-6.91h6.91M479.85,248.84h-8.61v8.61h8.61v-8.61h0Z"/>
      </g>
      <g>
        <rect class="cls-1" x="435.01" y="261.54" width="7.76" height="7.76"/>
        <path class="cls-1" d="M442.34,261.96v6.91h-6.91v-6.91h6.91M443.19,261.11h-8.61v8.61h8.61v-8.61h0Z"/>
      </g>
      <g>
        <rect class="cls-1" x="447.2" y="261.54" width="7.76" height="7.76"/>
        <path class="cls-1" d="M454.54,261.96v6.91h-6.91v-6.91h6.91M455.39,261.11h-8.61v8.61h8.61v-8.61h0Z"/>
      </g>
      <g>
        <rect class="cls-1" x="447.28" y="273.8" width="7.76" height="7.76"/>
        <path class="cls-1" d="M454.61,274.23v6.91h-6.91v-6.91h6.91M455.46,273.38h-8.61v8.61h8.61v-8.61h0Z"/>
      </g>
      <g>
        <rect class="cls-1" x="435.01" y="273.8" width="7.76" height="7.76"/>
        <path class="cls-1" d="M442.34,274.23v6.91h-6.91v-6.91h6.91M443.19,273.38h-8.61v8.61h8.61v-8.61h0Z"/>
      </g>
      <g>
        <rect class="cls-1" x="459.4" y="261.54" width="7.76" height="7.76"/>
        <path class="cls-1" d="M466.73,261.96v6.91h-6.91v-6.91h6.91M467.58,261.11h-8.61v8.61h8.61v-8.61h0Z"/>
      </g>
      <g>
        <rect class="cls-1" x="459.47" y="273.8" width="7.76" height="7.76"/>
        <path class="cls-1" d="M466.81,274.23v6.91h-6.91v-6.91h6.91M467.66,273.38h-8.61v8.61h8.61v-8.61h0Z"/>
      </g>
      <g>
        <rect class="cls-1" x="471.6" y="261.54" width="7.76" height="7.76"/>
        <path class="cls-1" d="M478.93,261.96v6.91h-6.91v-6.91h6.91M479.78,261.11h-8.61v8.61h8.61v-8.61h0Z"/>
      </g>
      <g>
        <rect class="cls-1" x="471.67" y="273.8" width="7.76" height="7.76"/>
        <path class="cls-1" d="M479,274.23v6.91h-6.91v-6.91h6.91M479.85,273.38h-8.61v8.61h8.61v-8.61h0Z"/>
      </g>
    </g>
    <g>
      <g>
        <rect class="cls-1" x="146.38" y="187.91" width="12.92" height="12.93"/>
        <path class="cls-1" d="M158.88,188.34v12.07h-12.07v-12.07h12.07M159.73,187.49h-13.77v13.77h13.77v-13.77h0Z"/>
      </g>
      <g>
        <rect class="cls-1" x="146.5" y="207.55" width="12.92" height="12.92"/>
        <path class="cls-1" d="M159,207.97v12.07h-12.07v-12.07h12.07M159.85,207.12h-13.77v13.77h13.77v-13.77h0Z"/>
      </g>
      <g>
        <rect class="cls-1" x="165.9" y="187.91" width="12.92" height="12.93"/>
        <path class="cls-1" d="M178.4,188.34v12.07h-12.07v-12.07h12.07M179.25,187.49h-13.77v13.77h13.77v-13.77h0Z"/>
      </g>
      <g>
        <rect class="cls-1" x="166.02" y="207.55" width="12.92" height="12.92"/>
        <path class="cls-1" d="M178.52,207.97v12.07h-12.07v-12.07h12.07M179.37,207.12h-13.77v13.77h13.77v-13.77h0Z"/>
      </g>
      <g>
        <rect class="cls-1" x="185.41" y="187.91" width="12.92" height="12.93"/>
        <path class="cls-1" d="M197.91,188.34v12.07h-12.07v-12.07h12.07M198.76,187.49h-13.77v13.77h13.77v-13.77h0Z"/>
      </g>
      <g>
        <rect class="cls-1" x="204.93" y="187.91" width="12.92" height="12.93"/>
        <path class="cls-1" d="M217.43,188.34v12.07h-12.07v-12.07h12.07M218.28,187.49h-13.77v13.77h13.77v-13.77h0Z"/>
      </g>
      <g>
        <rect class="cls-1" x="205.05" y="207.55" width="12.92" height="12.92"/>
        <path class="cls-1" d="M217.55,207.97v12.07h-12.07v-12.07h12.07M218.4,207.12h-13.77v13.77h13.77v-13.77h0Z"/>
      </g>
      <g>
        <rect class="cls-1" x="185.53" y="207.55" width="12.92" height="12.92"/>
        <path class="cls-1" d="M198.03,207.97v12.07h-12.07v-12.07h12.07M198.88,207.12h-13.77v13.77h13.77v-13.77h0Z"/>
      </g>
      <g>
        <rect class="cls-1" x="224.45" y="187.91" width="12.92" height="12.93"/>
        <path class="cls-1" d="M236.95,188.34v12.07h-12.07v-12.07h12.07M237.8,187.49h-13.77v13.77h13.77v-13.77h0Z"/>
      </g>
      <g>
        <rect class="cls-1" x="224.56" y="207.55" width="12.92" height="12.92"/>
        <path class="cls-1" d="M237.06,207.97v12.07h-12.07v-12.07h12.07M237.91,207.12h-13.77v13.77h13.77v-13.77h0Z"/>
      </g>
      <g>
        <rect class="cls-1" x="146.38" y="227.18" width="12.92" height="12.93"/>
        <path class="cls-1" d="M158.88,227.61v12.07h-12.07v-12.07h12.07M159.73,226.76h-13.77v13.77h13.77v-13.77h0Z"/>
      </g>
      <g>
        <rect class="cls-1" x="146.5" y="246.81" width="12.92" height="12.92"/>
        <path class="cls-1" d="M159,247.24v12.07h-12.07v-12.07h12.07M159.85,246.39h-13.77v13.77h13.77v-13.77h0Z"/>
      </g>
      <g>
        <rect class="cls-1" x="165.9" y="227.18" width="12.92" height="12.93"/>
        <path class="cls-1" d="M178.4,227.61v12.07h-12.07v-12.07h12.07M179.25,226.76h-13.77v13.77h13.77v-13.77h0Z"/>
      </g>
      <g>
        <rect class="cls-1" x="166.02" y="246.81" width="12.92" height="12.92"/>
        <path class="cls-1" d="M178.52,247.24v12.07h-12.07v-12.07h12.07M179.37,246.39h-13.77v13.77h13.77v-13.77h0Z"/>
      </g>
      <g>
        <rect class="cls-1" x="185.41" y="227.18" width="12.92" height="12.93"/>
        <path class="cls-1" d="M197.91,227.61v12.07h-12.07v-12.07h12.07M198.76,226.76h-13.77v13.77h13.77v-13.77h0Z"/>
      </g>
      <g>
        <rect class="cls-1" x="204.93" y="227.18" width="12.92" height="12.93"/>
        <path class="cls-1" d="M217.43,227.61v12.07h-12.07v-12.07h12.07M218.28,226.76h-13.77v13.77h13.77v-13.77h0Z"/>
      </g>
      <g>
        <rect class="cls-1" x="205.05" y="246.81" width="12.92" height="12.92"/>
        <path class="cls-1" d="M217.55,247.24v12.07h-12.07v-12.07h12.07M218.4,246.39h-13.77v13.77h13.77v-13.77h0Z"/>
      </g>
      <g>
        <rect class="cls-1" x="185.53" y="246.81" width="12.92" height="12.92"/>
        <path class="cls-1" d="M198.03,247.24v12.07h-12.07v-12.07h12.07M198.88,246.39h-13.77v13.77h13.77v-13.77h0Z"/>
      </g>
      <g>
        <rect class="cls-1" x="224.45" y="227.18" width="12.92" height="12.93"/>
        <path class="cls-1" d="M236.95,227.61v12.07h-12.07v-12.07h12.07M237.8,226.76h-13.77v13.77h13.77v-13.77h0Z"/>
      </g>
      <g>
        <rect class="cls-1" x="224.56" y="246.81" width="12.92" height="12.92"/>
        <path class="cls-1" d="M237.06,247.24v12.07h-12.07v-12.07h12.07M237.91,246.39h-13.77v13.77h13.77v-13.77h0Z"/>
      </g>
      <g>
        <rect class="cls-1" x="146.38" y="266.45" width="12.92" height="12.92"/>
        <path class="cls-1" d="M158.88,266.87v12.07h-12.07v-12.07h12.07M159.73,266.02h-13.77v13.77h13.77v-13.77h0Z"/>
      </g>
      <g>
        <rect class="cls-1" x="165.9" y="266.45" width="12.92" height="12.92"/>
        <path class="cls-1" d="M178.4,266.87v12.07h-12.07v-12.07h12.07M179.25,266.02h-13.77v13.77h13.77v-13.77h0Z"/>
      </g>
      <g>
        <rect class="cls-1" x="185.41" y="266.45" width="12.92" height="12.92"/>
        <path class="cls-1" d="M197.91,266.87v12.07h-12.07v-12.07h12.07M198.76,266.02h-13.77v13.77h13.77v-13.77h0Z"/>
      </g>
      <g>
        <rect class="cls-1" x="204.93" y="266.45" width="12.92" height="12.92"/>
        <path class="cls-1" d="M217.43,266.87v12.07h-12.07v-12.07h12.07M218.28,266.02h-13.77v13.77h13.77v-13.77h0Z"/>
      </g>
      <g>
        <rect class="cls-1" x="224.45" y="266.45" width="12.92" height="12.92"/>
        <path class="cls-1" d="M236.95,266.87v12.07h-12.07v-12.07h12.07M237.8,266.02h-13.77v13.77h13.77v-13.77h0Z"/>
      </g>
    </g>
  </g>
</svg>