<?xml version="1.0" encoding="UTF-8"?>
<svg id="Layer_2" xmlns="http://www.w3.org/2000/svg" viewBox="0 0 623.62 368.5">
  <defs>
    <style>
      .cls-1 {
        fill: #231f20;
      }

      .cls-2 {
        fill: #fff;
      }
    </style>
  </defs>
  <g id="Layer_1-2" data-name="Layer_1">
    <rect class="cls-2" width="623.62" height="368.5"/>
    <g>
      <g>
        <rect class="cls-1" x="332.36" y="84.8" width="7.76" height="7.76"/>
        <path class="cls-1" d="M339.7,85.23v6.91h-6.91v-6.91h6.91M340.55,84.38h-8.61v8.61h8.61v-8.61h0Z"/>
      </g>
      <g>
        <rect class="cls-1" x="332.29" y="97.07" width="7.76" height="7.76"/>
        <path class="cls-1" d="M339.62,97.5v6.91h-6.91v-6.91h6.91M340.47,96.65h-8.61v8.61h8.61v-8.61h0Z"/>
      </g>
      <g>
        <rect class="cls-1" x="320.17" y="84.8" width="7.76" height="7.76"/>
        <path class="cls-1" d="M327.5,85.23v6.91h-6.91v-6.91h6.91M328.35,84.38h-8.61v8.61h8.61v-8.61h0Z"/>
      </g>
      <g>
        <rect class="cls-1" x="320.09" y="97.07" width="7.76" height="7.76"/>
        <path class="cls-1" d="M327.43,97.5v6.91h-6.91v-6.91h6.91M328.28,96.65h-8.61v8.61h8.61v-8.61h0Z"/>
      </g>
      <g>
        <rect class="cls-1" x="307.97" y="84.8" width="7.76" height="7.76"/>
        <path class="cls-1" d="M315.3,85.23v6.91h-6.91v-6.91h6.91M316.15,84.38h-8.61v8.61h8.61v-8.61h0Z"/>
      </g>
      <g>
        <rect class="cls-1" x="295.77" y="84.8" width="7.76" height="7.76"/>
        <path class="cls-1" d="M303.1,85.23v6.91h-6.91v-6.91h6.91M303.96,84.38h-8.61v8.61h8.61v-8.61h0Z"/>
      </g>
      <g>
        <rect class="cls-1" x="295.7" y="97.07" width="7.76" height="7.76"/>
        <path class="cls-1" d="M303.03,97.5v6.91h-6.91v-6.91h6.91M303.88,96.65h-8.61v8.61h8.61v-8.61h0Z"/>
      </g>
      <g>
        <rect class="cls-1" x="307.9" y="97.07" width="7.76" height="7.76"/>
        <path class="cls-1" d="M315.23,97.5v6.91h-6.91v-6.91h6.91M316.08,96.65h-8.61v8.61h8.61v-8.61h0Z"/>
      </g>
      <g>
        <rect class="cls-1" x="283.57" y="84.8" width="7.76" height="7.76"/>
        <path class="cls-1" d="M290.91,85.23v6.91h-6.91v-6.91h6.91M291.76,84.38h-8.61v8.61h8.61v-8.61h0Z"/>
      </g>
      <g>
        <rect class="cls-1" x="283.5" y="97.07" width="7.76" height="7.76"/>
        <path class="cls-1" d="M290.83,97.5v6.91h-6.91v-6.91h6.91M291.69,96.65h-8.61v8.61h8.61v-8.61h0Z"/>
      </g>
      <g>
        <rect class="cls-1" x="332.36" y="109.34" width="7.76" height="7.76"/>
        <path class="cls-1" d="M339.7,109.77v6.91h-6.91v-6.91h6.91M340.55,108.92h-8.61v8.61h8.61v-8.61h0Z"/>
      </g>
      <g>
        <rect class="cls-1" x="332.29" y="121.62" width="7.76" height="7.76"/>
        <path class="cls-1" d="M339.62,122.04v6.91h-6.91v-6.91h6.91M340.47,121.19h-8.61v8.61h8.61v-8.61h0Z"/>
      </g>
      <g>
        <rect class="cls-1" x="320.17" y="109.34" width="7.76" height="7.76"/>
        <path class="cls-1" d="M327.5,109.77v6.91h-6.91v-6.91h6.91M328.35,108.92h-8.61v8.61h8.61v-8.61h0Z"/>
      </g>
      <g>
        <rect class="cls-1" x="320.09" y="121.62" width="7.76" height="7.76"/>
        <path class="cls-1" d="M327.43,122.04v6.91h-6.91v-6.91h6.91M328.28,121.19h-8.61v8.61h8.61v-8.61h0Z"/>
      </g>
      <g>
        <rect class="cls-1" x="307.97" y="109.34" width="7.76" height="7.76"/>
        <path class="cls-1" d="M315.3,109.77v6.91h-6.91v-6.91h6.91M316.15,108.92h-8.61v8.61h8.61v-8.61h0Z"/>
      </g>
      <g>
        <rect class="cls-1" x="295.77" y="109.34" width="7.76" height="7.76"/>
        <path class="cls-1" d="M303.1,109.77v6.91h-6.91v-6.91h6.91M303.96,108.92h-8.61v8.61h8.61v-8.61h0Z"/>
      </g>
      <g>
        <rect class="cls-1" x="295.7" y="121.62" width="7.76" height="7.76"/>
        <path class="cls-1" d="M303.03,122.04v6.91h-6.91v-6.91h6.91M303.88,121.19h-8.61v8.61h8.61v-8.61h0Z"/>
      </g>
      <g>
        <rect class="cls-1" x="307.9" y="121.62" width="7.76" height="7.76"/>
        <path class="cls-1" d="M315.23,122.04v6.91h-6.91v-6.91h6.91M316.08,121.19h-8.61v8.61h8.61v-8.61h0Z"/>
      </g>
      <g>
        <rect class="cls-1" x="283.57" y="109.34" width="7.76" height="7.76"/>
        <path class="cls-1" d="M290.91,109.77v6.91h-6.91v-6.91h6.91M291.76,108.92h-8.61v8.61h8.61v-8.61h0Z"/>
      </g>
      <g>
        <rect class="cls-1" x="283.5" y="121.62" width="7.76" height="7.76"/>
        <path class="cls-1" d="M290.83,122.04v6.91h-6.91v-6.91h6.91M291.69,121.19h-8.61v8.61h8.61v-8.61h0Z"/>
      </g>
      <g>
        <rect class="cls-1" x="332.36" y="133.89" width="7.76" height="7.76"/>
        <path class="cls-1" d="M339.7,134.31v6.91h-6.91v-6.91h6.91M340.55,133.46h-8.61v8.61h8.61v-8.61h0Z"/>
      </g>
      <g>
        <rect class="cls-1" x="320.17" y="133.89" width="7.76" height="7.76"/>
        <path class="cls-1" d="M327.5,134.31v6.91h-6.91v-6.91h6.91M328.35,133.46h-8.61v8.61h8.61v-8.61h0Z"/>
      </g>
      <g>
        <rect class="cls-1" x="307.97" y="133.89" width="7.76" height="7.76"/>
        <path class="cls-1" d="M315.3,134.31v6.91h-6.91v-6.91h6.91M316.15,133.46h-8.61v8.61h8.61v-8.61h0Z"/>
      </g>
      <g>
        <rect class="cls-1" x="295.77" y="133.89" width="7.76" height="7.76"/>
        <path class="cls-1" d="M303.1,134.31v6.91h-6.91v-6.91h6.91M303.96,133.46h-8.61v8.61h8.61v-8.61h0Z"/>
      </g>
      <g>
        <rect class="cls-1" x="283.57" y="133.89" width="7.76" height="7.76"/>
        <path class="cls-1" d="M290.91,134.31v6.91h-6.91v-6.91h6.91M291.76,133.46h-8.61v8.61h8.61v-8.61h0Z"/>
      </g>
    </g>
    <g>
      <rect class="cls-1" x="230.61" y="190.05" width="7.76" height="7.76"/>
      <path class="cls-1" d="M237.94,190.47v6.91h-6.91v-6.91h6.91M238.79,189.62h-8.61v8.61h8.61v-8.61h0Z"/>
    </g>
    <g>
      <rect class="cls-1" x="230.53" y="202.32" width="7.76" height="7.76"/>
      <path class="cls-1" d="M237.87,202.74v6.91h-6.91v-6.91h6.91M238.72,201.89h-8.61v8.61h8.61v-8.61h0Z"/>
    </g>
    <g>
      <rect class="cls-1" x="218.41" y="190.05" width="7.76" height="7.76"/>
      <path class="cls-1" d="M225.74,190.47v6.91h-6.91v-6.91h6.91M226.59,189.62h-8.61v8.61h8.61v-8.61h0Z"/>
    </g>
    <g>
      <rect class="cls-1" x="206.21" y="190.05" width="7.76" height="7.76"/>
      <path class="cls-1" d="M213.55,190.47v6.91h-6.91v-6.91h6.91M214.4,189.62h-8.61v8.61h8.61v-8.61h0Z"/>
    </g>
    <g>
      <rect class="cls-1" x="206.14" y="202.32" width="7.76" height="7.76"/>
      <path class="cls-1" d="M213.47,202.74v6.91h-6.91v-6.91h6.91M214.32,201.89h-8.61v8.61h8.61v-8.61h0Z"/>
    </g>
    <g>
      <rect class="cls-1" x="218.34" y="202.32" width="7.76" height="7.76"/>
      <path class="cls-1" d="M225.67,202.74v6.91h-6.91v-6.91h6.91M226.52,201.89h-8.61v8.61h8.61v-8.61h0Z"/>
    </g>
    <g>
      <rect class="cls-1" x="194.02" y="190.05" width="7.76" height="7.76"/>
      <path class="cls-1" d="M201.35,190.47v6.91h-6.91v-6.91h6.91M202.2,189.62h-8.61v8.61h8.61v-8.61h0Z"/>
    </g>
    <g>
      <rect class="cls-1" x="193.94" y="202.32" width="7.76" height="7.76"/>
      <path class="cls-1" d="M201.27,202.74v6.91h-6.91v-6.91h6.91M202.13,201.89h-8.61v8.61h8.61v-8.61h0Z"/>
    </g>
    <g>
      <rect class="cls-1" x="230.61" y="214.59" width="7.76" height="7.76"/>
      <path class="cls-1" d="M237.94,215.02v6.91h-6.91v-6.91h6.91M238.79,214.16h-8.61v8.61h8.61v-8.61h0Z"/>
    </g>
    <g>
      <rect class="cls-1" x="230.53" y="226.86" width="7.76" height="7.76"/>
      <path class="cls-1" d="M237.87,227.29v6.91h-6.91v-6.91h6.91M238.72,226.43h-8.61v8.61h8.61v-8.61h0Z"/>
    </g>
    <g>
      <rect class="cls-1" x="218.41" y="214.59" width="7.76" height="7.76"/>
      <path class="cls-1" d="M225.74,215.02v6.91h-6.91v-6.91h6.91M226.59,214.16h-8.61v8.61h8.61v-8.61h0Z"/>
    </g>
    <g>
      <rect class="cls-1" x="206.21" y="214.59" width="7.76" height="7.76"/>
      <path class="cls-1" d="M213.55,215.02v6.91h-6.91v-6.91h6.91M214.4,214.16h-8.61v8.61h8.61v-8.61h0Z"/>
    </g>
    <g>
      <rect class="cls-1" x="206.14" y="226.86" width="7.76" height="7.76"/>
      <path class="cls-1" d="M213.47,227.29v6.91h-6.91v-6.91h6.91M214.32,226.43h-8.61v8.61h8.61v-8.61h0Z"/>
    </g>
    <g>
      <rect class="cls-1" x="218.34" y="226.86" width="7.76" height="7.76"/>
      <path class="cls-1" d="M225.67,227.29v6.91h-6.91v-6.91h6.91M226.52,226.43h-8.61v8.61h8.61v-8.61h0Z"/>
    </g>
    <g>
      <rect class="cls-1" x="194.02" y="214.59" width="7.76" height="7.76"/>
      <path class="cls-1" d="M201.35,215.02v6.91h-6.91v-6.91h6.91M202.2,214.16h-8.61v8.61h8.61v-8.61h0Z"/>
    </g>
    <g>
      <rect class="cls-1" x="193.94" y="226.86" width="7.76" height="7.76"/>
      <path class="cls-1" d="M201.27,227.29v6.91h-6.91v-6.91h6.91M202.13,226.43h-8.61v8.61h8.61v-8.61h0Z"/>
    </g>
    <g>
      <rect class="cls-1" x="230.61" y="239.13" width="7.76" height="7.76"/>
      <path class="cls-1" d="M237.94,239.56v6.91h-6.91v-6.91h6.91M238.79,238.71h-8.61v8.61h8.61v-8.61h0Z"/>
    </g>
    <g>
      <rect class="cls-1" x="230.53" y="251.4" width="7.76" height="7.76"/>
      <path class="cls-1" d="M237.87,251.83v6.91h-6.91v-6.91h6.91M238.72,250.98h-8.61v8.61h8.61v-8.61h0Z"/>
    </g>
    <g>
      <rect class="cls-1" x="218.41" y="239.13" width="7.76" height="7.76"/>
      <path class="cls-1" d="M225.74,239.56v6.91h-6.91v-6.91h6.91M226.59,238.71h-8.61v8.61h8.61v-8.61h0Z"/>
    </g>
    <g>
      <rect class="cls-1" x="206.21" y="239.13" width="7.76" height="7.76"/>
      <path class="cls-1" d="M213.55,239.56v6.91h-6.91v-6.91h6.91M214.4,238.71h-8.61v8.61h8.61v-8.61h0Z"/>
    </g>
    <g>
      <rect class="cls-1" x="206.14" y="251.4" width="7.76" height="7.76"/>
      <path class="cls-1" d="M213.47,251.83v6.91h-6.91v-6.91h6.91M214.32,250.98h-8.61v8.61h8.61v-8.61h0Z"/>
    </g>
    <g>
      <rect class="cls-1" x="218.34" y="251.4" width="7.76" height="7.76"/>
      <path class="cls-1" d="M225.67,251.83v6.91h-6.91v-6.91h6.91M226.52,250.98h-8.61v8.61h8.61v-8.61h0Z"/>
    </g>
    <g>
      <rect class="cls-1" x="194.02" y="239.13" width="7.76" height="7.76"/>
      <path class="cls-1" d="M201.35,239.56v6.91h-6.91v-6.91h6.91M202.2,238.71h-8.61v8.61h8.61v-8.61h0Z"/>
    </g>
    <g>
      <rect class="cls-1" x="193.94" y="251.4" width="7.76" height="7.76"/>
      <path class="cls-1" d="M201.27,251.83v6.91h-6.91v-6.91h6.91M202.13,250.98h-8.61v8.61h8.61v-8.61h0Z"/>
    </g>
    <g>
      <rect class="cls-1" x="230.61" y="263.67" width="7.76" height="7.76"/>
      <path class="cls-1" d="M237.94,264.1v6.91h-6.91v-6.91h6.91M238.79,263.25h-8.61v8.61h8.61v-8.61h0Z"/>
    </g>
    <g>
      <rect class="cls-1" x="230.53" y="275.94" width="7.76" height="7.76"/>
      <path class="cls-1" d="M237.87,276.37v6.91h-6.91v-6.91h6.91M238.72,275.52h-8.61v8.61h8.61v-8.61h0Z"/>
    </g>
    <g>
      <rect class="cls-1" x="218.41" y="263.67" width="7.76" height="7.76"/>
      <path class="cls-1" d="M225.74,264.1v6.91h-6.91v-6.91h6.91M226.59,263.25h-8.61v8.61h8.61v-8.61h0Z"/>
    </g>
    <g>
      <rect class="cls-1" x="206.21" y="263.67" width="7.76" height="7.76"/>
      <path class="cls-1" d="M213.55,264.1v6.91h-6.91v-6.91h6.91M214.4,263.25h-8.61v8.61h8.61v-8.61h0Z"/>
    </g>
    <g>
      <rect class="cls-1" x="206.14" y="275.94" width="7.76" height="7.76"/>
      <path class="cls-1" d="M213.47,276.37v6.91h-6.91v-6.91h6.91M214.32,275.52h-8.61v8.61h8.61v-8.61h0Z"/>
    </g>
    <g>
      <rect class="cls-1" x="218.34" y="275.94" width="7.76" height="7.76"/>
      <path class="cls-1" d="M225.67,276.37v6.91h-6.91v-6.91h6.91M226.52,275.52h-8.61v8.61h8.61v-8.61h0Z"/>
    </g>
    <g>
      <rect class="cls-1" x="194.02" y="263.67" width="7.76" height="7.76"/>
      <path class="cls-1" d="M201.35,264.1v6.91h-6.91v-6.91h6.91M202.2,263.25h-8.61v8.61h8.61v-8.61h0Z"/>
    </g>
    <g>
      <rect class="cls-1" x="193.94" y="275.94" width="7.76" height="7.76"/>
      <path class="cls-1" d="M201.27,276.37v6.91h-6.91v-6.91h6.91M202.13,275.52h-8.61v8.61h8.61v-8.61h0Z"/>
    </g>
    <g>
      <rect class="cls-1" x="181.73" y="190.05" width="7.76" height="7.76"/>
      <path class="cls-1" d="M189.07,190.47v6.91h-6.91v-6.91h6.91M189.92,189.62h-8.61v8.61h8.61v-8.61h0Z"/>
    </g>
    <g>
      <rect class="cls-1" x="169.54" y="190.05" width="7.76" height="7.76"/>
      <path class="cls-1" d="M176.87,190.47v6.91h-6.91v-6.91h6.91M177.72,189.62h-8.61v8.61h8.61v-8.61h0Z"/>
    </g>
    <g>
      <rect class="cls-1" x="169.46" y="202.32" width="7.76" height="7.76"/>
      <path class="cls-1" d="M176.8,202.74v6.91h-6.91v-6.91h6.91M177.65,201.89h-8.61v8.61h8.61v-8.61h0Z"/>
    </g>
    <g>
      <rect class="cls-1" x="181.73" y="202.32" width="7.76" height="7.76"/>
      <path class="cls-1" d="M189.07,202.74v6.91h-6.91v-6.91h6.91M189.92,201.89h-8.61v8.61h8.61v-8.61h0Z"/>
    </g>
    <g>
      <rect class="cls-1" x="157.34" y="190.05" width="7.76" height="7.76"/>
      <path class="cls-1" d="M164.67,190.47v6.91h-6.91v-6.91h6.91M165.52,189.62h-8.61v8.61h8.61v-8.61h0Z"/>
    </g>
    <g>
      <rect class="cls-1" x="157.27" y="202.32" width="7.76" height="7.76"/>
      <path class="cls-1" d="M164.6,202.74v6.91h-6.91v-6.91h6.91M165.45,201.89h-8.61v8.61h8.61v-8.61h0Z"/>
    </g>
    <g>
      <rect class="cls-1" x="145.14" y="190.05" width="7.76" height="7.76"/>
      <path class="cls-1" d="M152.48,190.47v6.91h-6.91v-6.91h6.91M153.33,189.62h-8.61v8.61h8.61v-8.61h0Z"/>
    </g>
    <g>
      <rect class="cls-1" x="145.07" y="202.32" width="7.76" height="7.76"/>
      <path class="cls-1" d="M152.4,202.74v6.91h-6.91v-6.91h6.91M153.25,201.89h-8.61v8.61h8.61v-8.61h0Z"/>
    </g>
    <g>
      <rect class="cls-1" x="181.73" y="214.59" width="7.76" height="7.76"/>
      <path class="cls-1" d="M189.07,215.02v6.91h-6.91v-6.91h6.91M189.92,214.16h-8.61v8.61h8.61v-8.61h0Z"/>
    </g>
    <g>
      <rect class="cls-1" x="169.54" y="214.59" width="7.76" height="7.76"/>
      <path class="cls-1" d="M176.87,215.02v6.91h-6.91v-6.91h6.91M177.72,214.16h-8.61v8.61h8.61v-8.61h0Z"/>
    </g>
    <g>
      <rect class="cls-1" x="169.46" y="226.86" width="7.76" height="7.76"/>
      <path class="cls-1" d="M176.8,227.29v6.91h-6.91v-6.91h6.91M177.65,226.43h-8.61v8.61h8.61v-8.61h0Z"/>
    </g>
    <g>
      <rect class="cls-1" x="181.73" y="226.86" width="7.76" height="7.76"/>
      <path class="cls-1" d="M189.07,227.29v6.91h-6.91v-6.91h6.91M189.92,226.43h-8.61v8.61h8.61v-8.61h0Z"/>
    </g>
    <g>
      <rect class="cls-1" x="157.34" y="214.59" width="7.76" height="7.76"/>
      <path class="cls-1" d="M164.67,215.02v6.91h-6.91v-6.91h6.91M165.52,214.16h-8.61v8.61h8.61v-8.61h0Z"/>
    </g>
    <g>
      <rect class="cls-1" x="157.27" y="226.86" width="7.76" height="7.76"/>
      <path class="cls-1" d="M164.6,227.29v6.91h-6.91v-6.91h6.91M165.45,226.43h-8.61v8.61h8.61v-8.61h0Z"/>
    </g>
    <g>
      <rect class="cls-1" x="145.14" y="214.59" width="7.76" height="7.76"/>
      <path class="cls-1" d="M152.48,215.02v6.91h-6.91v-6.91h6.91M153.33,214.16h-8.61v8.61h8.61v-8.61h0Z"/>
    </g>
    <g>
      <rect class="cls-1" x="145.07" y="226.86" width="7.76" height="7.76"/>
      <path class="cls-1" d="M152.4,227.29v6.91h-6.91v-6.91h6.91M153.25,226.43h-8.61v8.61h8.61v-8.61h0Z"/>
    </g>
    <g>
      <rect class="cls-1" x="181.73" y="239.13" width="7.76" height="7.76"/>
      <path class="cls-1" d="M189.07,239.56v6.91h-6.91v-6.91h6.91M189.92,238.71h-8.61v8.61h8.61v-8.61h0Z"/>
    </g>
    <g>
      <rect class="cls-1" x="169.54" y="239.13" width="7.76" height="7.76"/>
      <path class="cls-1" d="M176.87,239.56v6.91h-6.91v-6.91h6.91M177.72,238.71h-8.61v8.61h8.61v-8.61h0Z"/>
    </g>
    <g>
      <rect class="cls-1" x="169.46" y="251.4" width="7.76" height="7.76"/>
      <path class="cls-1" d="M176.8,251.83v6.91h-6.91v-6.91h6.91M177.65,250.98h-8.61v8.61h8.61v-8.61h0Z"/>
    </g>
    <g>
      <rect class="cls-1" x="181.73" y="251.4" width="7.76" height="7.76"/>
      <path class="cls-1" d="M189.07,251.83v6.91h-6.91v-6.91h6.91M189.92,250.98h-8.61v8.61h8.61v-8.61h0Z"/>
    </g>
    <g>
      <rect class="cls-1" x="157.34" y="239.13" width="7.76" height="7.76"/>
      <path class="cls-1" d="M164.67,239.56v6.91h-6.91v-6.91h6.91M165.52,238.71h-8.61v8.61h8.61v-8.61h0Z"/>
    </g>
    <g>
      <rect class="cls-1" x="157.27" y="251.4" width="7.76" height="7.76"/>
      <path class="cls-1" d="M164.6,251.83v6.91h-6.91v-6.91h6.91M165.45,250.98h-8.61v8.61h8.61v-8.61h0Z"/>
    </g>
    <g>
      <rect class="cls-1" x="145.14" y="239.13" width="7.76" height="7.76"/>
      <path class="cls-1" d="M152.48,239.56v6.91h-6.91v-6.91h6.91M153.33,238.71h-8.61v8.61h8.61v-8.61h0Z"/>
    </g>
    <g>
      <rect class="cls-1" x="145.07" y="251.4" width="7.76" height="7.76"/>
      <path class="cls-1" d="M152.4,251.83v6.91h-6.91v-6.91h6.91M153.25,250.98h-8.61v8.61h8.61v-8.61h0Z"/>
    </g>
    <g>
      <rect class="cls-1" x="181.73" y="263.67" width="7.76" height="7.76"/>
      <path class="cls-1" d="M189.07,264.1v6.91h-6.91v-6.91h6.91M189.92,263.25h-8.61v8.61h8.61v-8.61h0Z"/>
    </g>
    <g>
      <rect class="cls-1" x="169.54" y="263.67" width="7.76" height="7.76"/>
      <path class="cls-1" d="M176.87,264.1v6.91h-6.91v-6.91h6.91M177.72,263.25h-8.61v8.61h8.61v-8.61h0Z"/>
    </g>
    <g>
      <rect class="cls-1" x="169.46" y="275.94" width="7.76" height="7.76"/>
      <path class="cls-1" d="M176.8,276.37v6.91h-6.91v-6.91h6.91M177.65,275.52h-8.61v8.61h8.61v-8.61h0Z"/>
    </g>
    <g>
      <rect class="cls-1" x="181.73" y="275.94" width="7.76" height="7.76"/>
      <path class="cls-1" d="M189.07,276.37v6.91h-6.91v-6.91h6.91M189.92,275.52h-8.61v8.61h8.61v-8.61h0Z"/>
    </g>
    <g>
      <rect class="cls-1" x="157.34" y="263.67" width="7.76" height="7.76"/>
      <path class="cls-1" d="M164.67,264.1v6.91h-6.91v-6.91h6.91M165.52,263.25h-8.61v8.61h8.61v-8.61h0Z"/>
    </g>
    <g>
      <rect class="cls-1" x="157.27" y="275.94" width="7.76" height="7.76"/>
      <path class="cls-1" d="M164.6,276.37v6.91h-6.91v-6.91h6.91M165.45,275.52h-8.61v8.61h8.61v-8.61h0Z"/>
    </g>
    <g>
      <rect class="cls-1" x="145.14" y="263.67" width="7.76" height="7.76"/>
      <path class="cls-1" d="M152.48,264.1v6.91h-6.91v-6.91h6.91M153.33,263.25h-8.61v8.61h8.61v-8.61h0Z"/>
    </g>
    <g>
      <rect class="cls-1" x="145.07" y="275.94" width="7.76" height="7.76"/>
      <path class="cls-1" d="M152.4,276.37v6.91h-6.91v-6.91h6.91M153.25,275.52h-8.61v8.61h8.61v-8.61h0Z"/>
    </g>
    <g>
      <rect class="cls-1" x="465.63" y="188.37" width="12.92" height="12.92"/>
      <path class="cls-1" d="M478.13,188.79v12.07h-12.07v-12.07h12.07M478.98,187.94h-13.77v13.77h13.77v-13.77h0Z"/>
    </g>
    <g>
      <rect class="cls-1" x="465.51" y="208" width="12.92" height="12.93"/>
      <path class="cls-1" d="M478.01,208.43v12.07h-12.07v-12.07h12.07M478.86,207.58h-13.77v13.77h13.77v-13.77h0Z"/>
    </g>
    <g>
      <rect class="cls-1" x="446.11" y="188.37" width="12.92" height="12.92"/>
      <path class="cls-1" d="M458.61,188.79v12.07h-12.07v-12.07h12.07M459.46,187.94h-13.77v13.77h13.77v-13.77h0Z"/>
    </g>
    <g>
      <rect class="cls-1" x="446" y="208" width="12.92" height="12.93"/>
      <path class="cls-1" d="M458.5,208.43v12.07h-12.07v-12.07h12.07M459.35,207.58h-13.77v13.77h13.77v-13.77h0Z"/>
    </g>
    <g>
      <rect class="cls-1" x="426.6" y="188.37" width="12.92" height="12.92"/>
      <path class="cls-1" d="M439.1,188.79v12.07h-12.07v-12.07h12.07M439.95,187.94h-13.77v13.77h13.77v-13.77h0Z"/>
    </g>
    <g>
      <rect class="cls-1" x="407.08" y="188.37" width="12.92" height="12.92"/>
      <path class="cls-1" d="M419.58,188.79v12.07h-12.07v-12.07h12.07M420.43,187.94h-13.77v13.77h13.77v-13.77h0Z"/>
    </g>
    <g>
      <rect class="cls-1" x="406.96" y="208" width="12.92" height="12.93"/>
      <path class="cls-1" d="M419.46,208.43v12.07h-12.07v-12.07h12.07M420.31,207.58h-13.77v13.77h13.77v-13.77h0Z"/>
    </g>
    <g>
      <rect class="cls-1" x="426.48" y="208" width="12.92" height="12.93"/>
      <path class="cls-1" d="M438.98,208.43v12.07h-12.07v-12.07h12.07M439.83,207.58h-13.77v13.77h13.77v-13.77h0Z"/>
    </g>
    <g>
      <rect class="cls-1" x="387.57" y="188.37" width="12.92" height="12.92"/>
      <path class="cls-1" d="M400.06,188.79v12.07h-12.07v-12.07h12.07M400.92,187.94h-13.77v13.77h13.77v-13.77h0Z"/>
    </g>
    <g>
      <rect class="cls-1" x="387.45" y="208" width="12.92" height="12.93"/>
      <path class="cls-1" d="M399.95,208.43v12.07h-12.07v-12.07h12.07M400.8,207.58h-13.77v13.77h13.77v-13.77h0Z"/>
    </g>
    <g>
      <rect class="cls-1" x="465.63" y="227.63" width="12.92" height="12.92"/>
      <path class="cls-1" d="M478.13,228.06v12.07h-12.07v-12.07h12.07M478.98,227.21h-13.77v13.77h13.77v-13.77h0Z"/>
    </g>
    <g>
      <rect class="cls-1" x="465.51" y="247.27" width="12.92" height="12.93"/>
      <path class="cls-1" d="M478.01,247.69v12.07h-12.07v-12.07h12.07M478.86,246.84h-13.77v13.77h13.77v-13.77h0Z"/>
    </g>
    <g>
      <rect class="cls-1" x="446.11" y="227.63" width="12.92" height="12.92"/>
      <path class="cls-1" d="M458.61,228.06v12.07h-12.07v-12.07h12.07M459.46,227.21h-13.77v13.77h13.77v-13.77h0Z"/>
    </g>
    <g>
      <rect class="cls-1" x="446" y="247.27" width="12.92" height="12.93"/>
      <path class="cls-1" d="M458.5,247.69v12.07h-12.07v-12.07h12.07M459.35,246.84h-13.77v13.77h13.77v-13.77h0Z"/>
    </g>
    <g>
      <rect class="cls-1" x="426.6" y="227.63" width="12.92" height="12.92"/>
      <path class="cls-1" d="M439.1,228.06v12.07h-12.07v-12.07h12.07M439.95,227.21h-13.77v13.77h13.77v-13.77h0Z"/>
    </g>
    <g>
      <rect class="cls-1" x="407.08" y="227.63" width="12.92" height="12.92"/>
      <path class="cls-1" d="M419.58,228.06v12.07h-12.07v-12.07h12.07M420.43,227.21h-13.77v13.77h13.77v-13.77h0Z"/>
    </g>
    <g>
      <rect class="cls-1" x="406.96" y="247.27" width="12.92" height="12.93"/>
      <path class="cls-1" d="M419.46,247.69v12.07h-12.07v-12.07h12.07M420.31,246.84h-13.77v13.77h13.77v-13.77h0Z"/>
    </g>
    <g>
      <rect class="cls-1" x="426.48" y="247.27" width="12.92" height="12.93"/>
      <path class="cls-1" d="M438.98,247.69v12.07h-12.07v-12.07h12.07M439.83,246.84h-13.77v13.77h13.77v-13.77h0Z"/>
    </g>
    <g>
      <rect class="cls-1" x="387.57" y="227.63" width="12.92" height="12.92"/>
      <path class="cls-1" d="M400.06,228.06v12.07h-12.07v-12.07h12.07M400.92,227.21h-13.77v13.77h13.77v-13.77h0Z"/>
    </g>
    <g>
      <rect class="cls-1" x="387.45" y="247.27" width="12.92" height="12.93"/>
      <path class="cls-1" d="M399.95,247.69v12.07h-12.07v-12.07h12.07M400.8,246.84h-13.77v13.77h13.77v-13.77h0Z"/>
    </g>
    <g>
      <rect class="cls-1" x="465.63" y="266.9" width="12.92" height="12.92"/>
      <path class="cls-1" d="M478.13,267.33v12.07h-12.07v-12.07h12.07M478.98,266.48h-13.77v13.77h13.77v-13.77h0Z"/>
    </g>
    <g>
      <rect class="cls-1" x="446.11" y="266.9" width="12.92" height="12.92"/>
      <path class="cls-1" d="M458.61,267.33v12.07h-12.07v-12.07h12.07M459.46,266.48h-13.77v13.77h13.77v-13.77h0Z"/>
    </g>
    <g>
      <rect class="cls-1" x="426.6" y="266.9" width="12.92" height="12.92"/>
      <path class="cls-1" d="M439.1,267.33v12.07h-12.07v-12.07h12.07M439.95,266.48h-13.77v13.77h13.77v-13.77h0Z"/>
    </g>
    <g>
      <rect class="cls-1" x="407.08" y="266.9" width="12.92" height="12.92"/>
      <path class="cls-1" d="M419.58,267.33v12.07h-12.07v-12.07h12.07M420.43,266.48h-13.77v13.77h13.77v-13.77h0Z"/>
    </g>
    <g>
      <rect class="cls-1" x="387.57" y="266.9" width="12.92" height="12.92"/>
      <path class="cls-1" d="M400.06,267.33v12.07h-12.07v-12.07h12.07M400.92,266.48h-13.77v13.77h13.77v-13.77h0Z"/>
    </g>
  </g>
</svg>