<?xml version="1.0" encoding="UTF-8"?>
<svg id="Layer_2" xmlns="http://www.w3.org/2000/svg" viewBox="0 0 623.62 368.5">
  <defs>
    <style>
      .cls-1 {
        fill: #231f20;
      }

      .cls-2 {
        fill: #fff;
      }
    </style>
  </defs>
  <g id="Layer_1-2" data-name="Layer_1">
    <rect class="cls-2" x="0" y="0" width="623.62" height="368.5" transform="translate(623.62 368.5) rotate(-180)"/>
    <g>
      <g>
        <rect class="cls-1" x="282.47" y="84.8" width="7.76" height="7.76"/>
        <path class="cls-1" d="M289.81,85.23v6.91h-6.91v-6.91h6.91M290.66,84.38h-8.61v8.61h8.61v-8.61h0Z"/>
      </g>
      <g>
        <rect class="cls-1" x="282.55" y="97.07" width="7.76" height="7.76"/>
        <path class="cls-1" d="M289.88,97.5v6.91h-6.91v-6.91h6.91M290.73,96.65h-8.61v8.61h8.61v-8.61h0Z"/>
      </g>
      <g>
        <rect class="cls-1" x="294.67" y="84.8" width="7.76" height="7.76"/>
        <path class="cls-1" d="M302,85.23v6.91h-6.91v-6.91h6.91M302.85,84.38h-8.61v8.61h8.61v-8.61h0Z"/>
      </g>
      <g>
        <rect class="cls-1" x="294.74" y="97.07" width="7.76" height="7.76"/>
        <path class="cls-1" d="M302.08,97.5v6.91h-6.91v-6.91h6.91M302.93,96.65h-8.61v8.61h8.61v-8.61h0Z"/>
      </g>
      <g>
        <rect class="cls-1" x="306.87" y="84.8" width="7.76" height="7.76"/>
        <path class="cls-1" d="M314.2,85.23v6.91h-6.91v-6.91h6.91M315.05,84.38h-8.61v8.61h8.61v-8.61h0Z"/>
      </g>
      <g>
        <rect class="cls-1" x="319.06" y="84.8" width="7.76" height="7.76"/>
        <path class="cls-1" d="M326.4,85.23v6.91h-6.91v-6.91h6.91M327.25,84.38h-8.61v8.61h8.61v-8.61h0Z"/>
      </g>
      <g>
        <rect class="cls-1" x="319.14" y="97.07" width="7.76" height="7.76"/>
        <path class="cls-1" d="M326.47,97.5v6.91h-6.91v-6.91h6.91M327.32,96.65h-8.61v8.61h8.61v-8.61h0Z"/>
      </g>
      <g>
        <rect class="cls-1" x="306.94" y="97.07" width="7.76" height="7.76"/>
        <path class="cls-1" d="M314.27,97.5v6.91h-6.91v-6.91h6.91M315.12,96.65h-8.61v8.61h8.61v-8.61h0Z"/>
      </g>
      <g>
        <rect class="cls-1" x="331.26" y="84.8" width="7.76" height="7.76"/>
        <path class="cls-1" d="M338.59,85.23v6.91h-6.91v-6.91h6.91M339.44,84.38h-8.61v8.61h8.61v-8.61h0Z"/>
      </g>
      <g>
        <rect class="cls-1" x="331.33" y="97.07" width="7.76" height="7.76"/>
        <path class="cls-1" d="M338.67,97.5v6.91h-6.91v-6.91h6.91M339.52,96.65h-8.61v8.61h8.61v-8.61h0Z"/>
      </g>
      <g>
        <rect class="cls-1" x="282.47" y="109.34" width="7.76" height="7.76"/>
        <path class="cls-1" d="M289.81,109.77v6.91h-6.91v-6.91h6.91M290.66,108.92h-8.61v8.61h8.61v-8.61h0Z"/>
      </g>
      <g>
        <rect class="cls-1" x="282.55" y="121.62" width="7.76" height="7.76"/>
        <path class="cls-1" d="M289.88,122.04v6.91h-6.91v-6.91h6.91M290.73,121.19h-8.61v8.61h8.61v-8.61h0Z"/>
      </g>
      <g>
        <rect class="cls-1" x="294.67" y="109.34" width="7.76" height="7.76"/>
        <path class="cls-1" d="M302,109.77v6.91h-6.91v-6.91h6.91M302.85,108.92h-8.61v8.61h8.61v-8.61h0Z"/>
      </g>
      <g>
        <rect class="cls-1" x="294.74" y="121.62" width="7.76" height="7.76"/>
        <path class="cls-1" d="M302.08,122.04v6.91h-6.91v-6.91h6.91M302.93,121.19h-8.61v8.61h8.61v-8.61h0Z"/>
      </g>
      <g>
        <rect class="cls-1" x="306.87" y="109.34" width="7.76" height="7.76"/>
        <path class="cls-1" d="M314.2,109.77v6.91h-6.91v-6.91h6.91M315.05,108.92h-8.61v8.61h8.61v-8.61h0Z"/>
      </g>
      <g>
        <rect class="cls-1" x="319.06" y="109.34" width="7.76" height="7.76"/>
        <path class="cls-1" d="M326.4,109.77v6.91h-6.91v-6.91h6.91M327.25,108.92h-8.61v8.61h8.61v-8.61h0Z"/>
      </g>
      <g>
        <rect class="cls-1" x="319.14" y="121.62" width="7.76" height="7.76"/>
        <path class="cls-1" d="M326.47,122.04v6.91h-6.91v-6.91h6.91M327.32,121.19h-8.61v8.61h8.61v-8.61h0Z"/>
      </g>
      <g>
        <rect class="cls-1" x="306.94" y="121.62" width="7.76" height="7.76"/>
        <path class="cls-1" d="M314.27,122.04v6.91h-6.91v-6.91h6.91M315.12,121.19h-8.61v8.61h8.61v-8.61h0Z"/>
      </g>
      <g>
        <rect class="cls-1" x="331.26" y="109.34" width="7.76" height="7.76"/>
        <path class="cls-1" d="M338.59,109.77v6.91h-6.91v-6.91h6.91M339.44,108.92h-8.61v8.61h8.61v-8.61h0Z"/>
      </g>
      <g>
        <rect class="cls-1" x="331.33" y="121.62" width="7.76" height="7.76"/>
        <path class="cls-1" d="M338.67,122.04v6.91h-6.91v-6.91h6.91M339.52,121.19h-8.61v8.61h8.61v-8.61h0Z"/>
      </g>
      <g>
        <rect class="cls-1" x="282.47" y="133.88" width="7.76" height="7.76"/>
        <path class="cls-1" d="M289.81,134.31v6.91h-6.91v-6.91h6.91M290.66,133.46h-8.61v8.61h8.61v-8.61h0Z"/>
      </g>
      <g>
        <rect class="cls-1" x="294.67" y="133.88" width="7.76" height="7.76"/>
        <path class="cls-1" d="M302,134.31v6.91h-6.91v-6.91h6.91M302.85,133.46h-8.61v8.61h8.61v-8.61h0Z"/>
      </g>
      <g>
        <rect class="cls-1" x="306.87" y="133.88" width="7.76" height="7.76"/>
        <path class="cls-1" d="M314.2,134.31v6.91h-6.91v-6.91h6.91M315.05,133.46h-8.61v8.61h8.61v-8.61h0Z"/>
      </g>
      <g>
        <rect class="cls-1" x="319.06" y="133.88" width="7.76" height="7.76"/>
        <path class="cls-1" d="M326.4,134.31v6.91h-6.91v-6.91h6.91M327.25,133.46h-8.61v8.61h8.61v-8.61h0Z"/>
      </g>
      <g>
        <rect class="cls-1" x="331.26" y="133.88" width="7.76" height="7.76"/>
        <path class="cls-1" d="M338.59,134.31v6.91h-6.91v-6.91h6.91M339.44,133.46h-8.61v8.61h8.61v-8.61h0Z"/>
      </g>
      <g>
        <rect class="cls-1" x="385.26" y="190.05" width="7.76" height="7.76"/>
        <path class="cls-1" d="M392.59,190.47v6.91h-6.91v-6.91h6.91M393.44,189.62h-8.61v8.61h8.61v-8.61h0Z"/>
      </g>
      <g>
        <rect class="cls-1" x="385.33" y="202.32" width="7.76" height="7.76"/>
        <path class="cls-1" d="M392.66,202.74v6.91h-6.91v-6.91h6.91M393.51,201.89h-8.61v8.61h8.61v-8.61h0Z"/>
      </g>
      <g>
        <rect class="cls-1" x="397.45" y="190.05" width="7.76" height="7.76"/>
        <path class="cls-1" d="M404.79,190.47v6.91h-6.91v-6.91h6.91M405.64,189.62h-8.61v8.61h8.61v-8.61h0Z"/>
      </g>
      <g>
        <rect class="cls-1" x="409.65" y="190.05" width="7.76" height="7.76"/>
        <path class="cls-1" d="M416.98,190.47v6.91h-6.91v-6.91h6.91M417.84,189.62h-8.61v8.61h8.61v-8.61h0Z"/>
      </g>
      <g>
        <rect class="cls-1" x="409.72" y="202.32" width="7.76" height="7.76"/>
        <path class="cls-1" d="M417.06,202.74v6.91h-6.91v-6.91h6.91M417.91,201.89h-8.61v8.61h8.61v-8.61h0Z"/>
      </g>
      <g>
        <rect class="cls-1" x="397.53" y="202.32" width="7.76" height="7.76"/>
        <path class="cls-1" d="M404.86,202.74v6.91h-6.91v-6.91h6.91M405.71,201.89h-8.61v8.61h8.61v-8.61h0Z"/>
      </g>
      <g>
        <rect class="cls-1" x="421.85" y="190.05" width="7.76" height="7.76"/>
        <path class="cls-1" d="M429.18,190.47v6.91h-6.91v-6.91h6.91M430.03,189.62h-8.61v8.61h8.61v-8.61h0Z"/>
      </g>
      <g>
        <rect class="cls-1" x="421.92" y="202.32" width="7.76" height="7.76"/>
        <path class="cls-1" d="M429.26,202.74v6.91h-6.91v-6.91h6.91M430.11,201.89h-8.61v8.61h8.61v-8.61h0Z"/>
      </g>
      <g>
        <rect class="cls-1" x="385.26" y="214.59" width="7.76" height="7.76"/>
        <path class="cls-1" d="M392.59,215.02v6.91h-6.91v-6.91h6.91M393.44,214.16h-8.61v8.61h8.61v-8.61h0Z"/>
      </g>
      <g>
        <rect class="cls-1" x="385.33" y="226.86" width="7.76" height="7.76"/>
        <path class="cls-1" d="M392.66,227.29v6.91h-6.91v-6.91h6.91M393.51,226.43h-8.61v8.61h8.61v-8.61h0Z"/>
      </g>
      <g>
        <rect class="cls-1" x="397.45" y="214.59" width="7.76" height="7.76"/>
        <path class="cls-1" d="M404.79,215.02v6.91h-6.91v-6.91h6.91M405.64,214.16h-8.61v8.61h8.61v-8.61h0Z"/>
      </g>
      <g>
        <rect class="cls-1" x="409.65" y="214.59" width="7.76" height="7.76"/>
        <path class="cls-1" d="M416.98,215.02v6.91h-6.91v-6.91h6.91M417.84,214.16h-8.61v8.61h8.61v-8.61h0Z"/>
      </g>
      <g>
        <rect class="cls-1" x="409.72" y="226.86" width="7.76" height="7.76"/>
        <path class="cls-1" d="M417.06,227.29v6.91h-6.91v-6.91h6.91M417.91,226.43h-8.61v8.61h8.61v-8.61h0Z"/>
      </g>
      <g>
        <rect class="cls-1" x="397.53" y="226.86" width="7.76" height="7.76"/>
        <path class="cls-1" d="M404.86,227.29v6.91h-6.91v-6.91h6.91M405.71,226.43h-8.61v8.61h8.61v-8.61h0Z"/>
      </g>
      <g>
        <rect class="cls-1" x="421.85" y="214.59" width="7.76" height="7.76"/>
        <path class="cls-1" d="M429.18,215.02v6.91h-6.91v-6.91h6.91M430.03,214.16h-8.61v8.61h8.61v-8.61h0Z"/>
      </g>
      <g>
        <rect class="cls-1" x="421.92" y="226.86" width="7.76" height="7.76"/>
        <path class="cls-1" d="M429.26,227.29v6.91h-6.91v-6.91h6.91M430.11,226.43h-8.61v8.61h8.61v-8.61h0Z"/>
      </g>
      <g>
        <rect class="cls-1" x="385.26" y="239.13" width="7.76" height="7.76"/>
        <path class="cls-1" d="M392.59,239.56v6.91h-6.91v-6.91h6.91M393.44,238.71h-8.61v8.61h8.61v-8.61h0Z"/>
      </g>
      <g>
        <rect class="cls-1" x="385.33" y="251.4" width="7.76" height="7.76"/>
        <path class="cls-1" d="M392.66,251.83v6.91h-6.91v-6.91h6.91M393.51,250.98h-8.61v8.61h8.61v-8.61h0Z"/>
      </g>
      <g>
        <rect class="cls-1" x="397.45" y="239.13" width="7.76" height="7.76"/>
        <path class="cls-1" d="M404.79,239.56v6.91h-6.91v-6.91h6.91M405.64,238.71h-8.61v8.61h8.61v-8.61h0Z"/>
      </g>
      <g>
        <rect class="cls-1" x="409.65" y="239.13" width="7.76" height="7.76"/>
        <path class="cls-1" d="M416.98,239.56v6.91h-6.91v-6.91h6.91M417.84,238.71h-8.61v8.61h8.61v-8.61h0Z"/>
      </g>
      <g>
        <rect class="cls-1" x="409.72" y="251.4" width="7.76" height="7.76"/>
        <path class="cls-1" d="M417.06,251.83v6.91h-6.91v-6.91h6.91M417.91,250.98h-8.61v8.61h8.61v-8.61h0Z"/>
      </g>
      <g>
        <rect class="cls-1" x="397.53" y="251.4" width="7.76" height="7.76"/>
        <path class="cls-1" d="M404.86,251.83v6.91h-6.91v-6.91h6.91M405.71,250.98h-8.61v8.61h8.61v-8.61h0Z"/>
      </g>
      <g>
        <rect class="cls-1" x="421.85" y="239.13" width="7.76" height="7.76"/>
        <path class="cls-1" d="M429.18,239.56v6.91h-6.91v-6.91h6.91M430.03,238.71h-8.61v8.61h8.61v-8.61h0Z"/>
      </g>
      <g>
        <rect class="cls-1" x="421.92" y="251.4" width="7.76" height="7.76"/>
        <path class="cls-1" d="M429.26,251.83v6.91h-6.91v-6.91h6.91M430.11,250.98h-8.61v8.61h8.61v-8.61h0Z"/>
      </g>
      <g>
        <rect class="cls-1" x="385.26" y="263.67" width="7.76" height="7.76"/>
        <path class="cls-1" d="M392.59,264.1v6.91h-6.91v-6.91h6.91M393.44,263.25h-8.61v8.61h8.61v-8.61h0Z"/>
      </g>
      <g>
        <rect class="cls-1" x="385.33" y="275.94" width="7.76" height="7.76"/>
        <path class="cls-1" d="M392.66,276.37v6.91h-6.91v-6.91h6.91M393.51,275.52h-8.61v8.61h8.61v-8.61h0Z"/>
      </g>
      <g>
        <rect class="cls-1" x="397.45" y="263.67" width="7.76" height="7.76"/>
        <path class="cls-1" d="M404.79,264.1v6.91h-6.91v-6.91h6.91M405.64,263.25h-8.61v8.61h8.61v-8.61h0Z"/>
      </g>
      <g>
        <rect class="cls-1" x="409.65" y="263.67" width="7.76" height="7.76"/>
        <path class="cls-1" d="M416.98,264.1v6.91h-6.91v-6.91h6.91M417.84,263.25h-8.61v8.61h8.61v-8.61h0Z"/>
      </g>
      <g>
        <rect class="cls-1" x="409.72" y="275.94" width="7.76" height="7.76"/>
        <path class="cls-1" d="M417.06,276.37v6.91h-6.91v-6.91h6.91M417.91,275.52h-8.61v8.61h8.61v-8.61h0Z"/>
      </g>
      <g>
        <rect class="cls-1" x="397.53" y="275.94" width="7.76" height="7.76"/>
        <path class="cls-1" d="M404.86,276.37v6.91h-6.91v-6.91h6.91M405.71,275.52h-8.61v8.61h8.61v-8.61h0Z"/>
      </g>
      <g>
        <rect class="cls-1" x="421.85" y="263.67" width="7.76" height="7.76"/>
        <path class="cls-1" d="M429.18,264.1v6.91h-6.91v-6.91h6.91M430.03,263.25h-8.61v8.61h8.61v-8.61h0Z"/>
      </g>
      <g>
        <rect class="cls-1" x="421.92" y="275.94" width="7.76" height="7.76"/>
        <path class="cls-1" d="M429.26,276.37v6.91h-6.91v-6.91h6.91M430.11,275.52h-8.61v8.61h8.61v-8.61h0Z"/>
      </g>
      <g>
        <rect class="cls-1" x="434.13" y="190.05" width="7.76" height="7.76"/>
        <path class="cls-1" d="M441.46,190.47v6.91h-6.91v-6.91h6.91M442.31,189.62h-8.61v8.61h8.61v-8.61h0Z"/>
      </g>
      <g>
        <rect class="cls-1" x="446.33" y="190.05" width="7.76" height="7.76"/>
        <path class="cls-1" d="M453.66,190.47v6.91h-6.91v-6.91h6.91M454.51,189.62h-8.61v8.61h8.61v-8.61h0Z"/>
      </g>
      <g>
        <rect class="cls-1" x="446.4" y="202.32" width="7.76" height="7.76"/>
        <path class="cls-1" d="M453.73,202.74v6.91h-6.91v-6.91h6.91M454.59,201.89h-8.61v8.61h8.61v-8.61h0Z"/>
      </g>
      <g>
        <rect class="cls-1" x="434.13" y="202.32" width="7.76" height="7.76"/>
        <path class="cls-1" d="M441.46,202.74v6.91h-6.91v-6.91h6.91M442.31,201.89h-8.61v8.61h8.61v-8.61h0Z"/>
      </g>
      <g>
        <rect class="cls-1" x="458.53" y="190.05" width="7.76" height="7.76"/>
        <path class="cls-1" d="M465.86,190.47v6.91h-6.91v-6.91h6.91M466.71,189.62h-8.61v8.61h8.61v-8.61h0Z"/>
      </g>
      <g>
        <rect class="cls-1" x="458.6" y="202.32" width="7.76" height="7.76"/>
        <path class="cls-1" d="M465.93,202.74v6.91h-6.91v-6.91h6.91M466.78,201.89h-8.61v8.61h8.61v-8.61h0Z"/>
      </g>
      <g>
        <rect class="cls-1" x="470.72" y="190.05" width="7.76" height="7.76"/>
        <path class="cls-1" d="M478.06,190.47v6.91h-6.91v-6.91h6.91M478.91,189.62h-8.61v8.61h8.61v-8.61h0Z"/>
      </g>
      <g>
        <rect class="cls-1" x="470.8" y="202.32" width="7.76" height="7.76"/>
        <path class="cls-1" d="M478.13,202.74v6.91h-6.91v-6.91h6.91M478.98,201.89h-8.61v8.61h8.61v-8.61h0Z"/>
      </g>
      <g>
        <rect class="cls-1" x="434.13" y="214.59" width="7.76" height="7.76"/>
        <path class="cls-1" d="M441.46,215.02v6.91h-6.91v-6.91h6.91M442.31,214.16h-8.61v8.61h8.61v-8.61h0Z"/>
      </g>
      <g>
        <rect class="cls-1" x="446.33" y="214.59" width="7.76" height="7.76"/>
        <path class="cls-1" d="M453.66,215.02v6.91h-6.91v-6.91h6.91M454.51,214.16h-8.61v8.61h8.61v-8.61h0Z"/>
      </g>
      <g>
        <rect class="cls-1" x="446.4" y="226.86" width="7.76" height="7.76"/>
        <path class="cls-1" d="M453.73,227.29v6.91h-6.91v-6.91h6.91M454.59,226.43h-8.61v8.61h8.61v-8.61h0Z"/>
      </g>
      <g>
        <rect class="cls-1" x="434.13" y="226.86" width="7.76" height="7.76"/>
        <path class="cls-1" d="M441.46,227.29v6.91h-6.91v-6.91h6.91M442.31,226.43h-8.61v8.61h8.61v-8.61h0Z"/>
      </g>
      <g>
        <rect class="cls-1" x="458.53" y="214.59" width="7.76" height="7.76"/>
        <path class="cls-1" d="M465.86,215.02v6.91h-6.91v-6.91h6.91M466.71,214.16h-8.61v8.61h8.61v-8.61h0Z"/>
      </g>
      <g>
        <rect class="cls-1" x="458.6" y="226.86" width="7.76" height="7.76"/>
        <path class="cls-1" d="M465.93,227.29v6.91h-6.91v-6.91h6.91M466.78,226.43h-8.61v8.61h8.61v-8.61h0Z"/>
      </g>
      <g>
        <rect class="cls-1" x="470.72" y="214.59" width="7.76" height="7.76"/>
        <path class="cls-1" d="M478.06,215.02v6.91h-6.91v-6.91h6.91M478.91,214.16h-8.61v8.61h8.61v-8.61h0Z"/>
      </g>
      <g>
        <rect class="cls-1" x="470.8" y="226.86" width="7.76" height="7.76"/>
        <path class="cls-1" d="M478.13,227.29v6.91h-6.91v-6.91h6.91M478.98,226.43h-8.61v8.61h8.61v-8.61h0Z"/>
      </g>
      <g>
        <rect class="cls-1" x="434.13" y="239.13" width="7.76" height="7.76"/>
        <path class="cls-1" d="M441.46,239.56v6.91h-6.91v-6.91h6.91M442.31,238.71h-8.61v8.61h8.61v-8.61h0Z"/>
      </g>
      <g>
        <rect class="cls-1" x="446.33" y="239.13" width="7.76" height="7.76"/>
        <path class="cls-1" d="M453.66,239.56v6.91h-6.91v-6.91h6.91M454.51,238.71h-8.61v8.61h8.61v-8.61h0Z"/>
      </g>
      <g>
        <rect class="cls-1" x="446.4" y="251.4" width="7.76" height="7.76"/>
        <path class="cls-1" d="M453.73,251.83v6.91h-6.91v-6.91h6.91M454.59,250.98h-8.61v8.61h8.61v-8.61h0Z"/>
      </g>
      <g>
        <rect class="cls-1" x="434.13" y="251.4" width="7.76" height="7.76"/>
        <path class="cls-1" d="M441.46,251.83v6.91h-6.91v-6.91h6.91M442.31,250.98h-8.61v8.61h8.61v-8.61h0Z"/>
      </g>
      <g>
        <rect class="cls-1" x="458.53" y="239.13" width="7.76" height="7.76"/>
        <path class="cls-1" d="M465.86,239.56v6.91h-6.91v-6.91h6.91M466.71,238.71h-8.61v8.61h8.61v-8.61h0Z"/>
      </g>
      <g>
        <rect class="cls-1" x="458.6" y="251.4" width="7.76" height="7.76"/>
        <path class="cls-1" d="M465.93,251.83v6.91h-6.91v-6.91h6.91M466.78,250.98h-8.61v8.61h8.61v-8.61h0Z"/>
      </g>
      <g>
        <rect class="cls-1" x="470.72" y="239.13" width="7.76" height="7.76"/>
        <path class="cls-1" d="M478.06,239.56v6.91h-6.91v-6.91h6.91M478.91,238.71h-8.61v8.61h8.61v-8.61h0Z"/>
      </g>
      <g>
        <rect class="cls-1" x="470.8" y="251.4" width="7.76" height="7.76"/>
        <path class="cls-1" d="M478.13,251.83v6.91h-6.91v-6.91h6.91M478.98,250.98h-8.61v8.61h8.61v-8.61h0Z"/>
      </g>
      <g>
        <rect class="cls-1" x="434.13" y="263.67" width="7.76" height="7.76"/>
        <path class="cls-1" d="M441.46,264.1v6.91h-6.91v-6.91h6.91M442.31,263.25h-8.61v8.61h8.61v-8.61h0Z"/>
      </g>
      <g>
        <rect class="cls-1" x="446.33" y="263.67" width="7.76" height="7.76"/>
        <path class="cls-1" d="M453.66,264.1v6.91h-6.91v-6.91h6.91M454.51,263.25h-8.61v8.61h8.61v-8.61h0Z"/>
      </g>
      <g>
        <rect class="cls-1" x="446.4" y="275.94" width="7.76" height="7.76"/>
        <path class="cls-1" d="M453.73,276.37v6.91h-6.91v-6.91h6.91M454.59,275.52h-8.61v8.61h8.61v-8.61h0Z"/>
      </g>
      <g>
        <rect class="cls-1" x="434.13" y="275.94" width="7.76" height="7.76"/>
        <path class="cls-1" d="M441.46,276.37v6.91h-6.91v-6.91h6.91M442.31,275.52h-8.61v8.61h8.61v-8.61h0Z"/>
      </g>
      <g>
        <rect class="cls-1" x="458.53" y="263.67" width="7.76" height="7.76"/>
        <path class="cls-1" d="M465.86,264.1v6.91h-6.91v-6.91h6.91M466.71,263.25h-8.61v8.61h8.61v-8.61h0Z"/>
      </g>
      <g>
        <rect class="cls-1" x="458.6" y="275.94" width="7.76" height="7.76"/>
        <path class="cls-1" d="M465.93,276.37v6.91h-6.91v-6.91h6.91M466.78,275.52h-8.61v8.61h8.61v-8.61h0Z"/>
      </g>
      <g>
        <rect class="cls-1" x="470.72" y="263.67" width="7.76" height="7.76"/>
        <path class="cls-1" d="M478.06,264.1v6.91h-6.91v-6.91h6.91M478.91,263.25h-8.61v8.61h8.61v-8.61h0Z"/>
      </g>
      <g>
        <rect class="cls-1" x="470.8" y="275.94" width="7.76" height="7.76"/>
        <path class="cls-1" d="M478.13,276.37v6.91h-6.91v-6.91h6.91M478.98,275.52h-8.61v8.61h8.61v-8.61h0Z"/>
      </g>
      <g>
        <rect class="cls-1" x="145.32" y="188.62" width="12.41" height="12.41"/>
        <path class="cls-1" d="M157.06,189.3v11.05h-11.05v-11.05h11.05M158.42,187.94h-13.77v13.77h13.77v-13.77h0Z"/>
      </g>
      <g>
        <rect class="cls-1" x="145.44" y="208.26" width="12.41" height="12.41"/>
        <path class="cls-1" d="M157.17,208.94v11.05h-11.05v-11.05h11.05M158.54,207.58h-13.77v13.77h13.77v-13.77h0Z"/>
      </g>
      <g>
        <rect class="cls-1" x="164.84" y="188.62" width="12.41" height="12.41"/>
        <path class="cls-1" d="M176.57,189.3v11.05h-11.05v-11.05h11.05M177.93,187.94h-13.77v13.77h13.77v-13.77h0Z"/>
      </g>
      <g>
        <rect class="cls-1" x="164.96" y="208.26" width="12.41" height="12.41"/>
        <path class="cls-1" d="M176.69,208.94v11.05h-11.05v-11.05h11.05M178.05,207.58h-13.77v13.77h13.77v-13.77h0Z"/>
      </g>
      <g>
        <rect class="cls-1" x="184.36" y="188.62" width="12.41" height="12.41"/>
        <path class="cls-1" d="M196.09,189.3v11.05h-11.05v-11.05h11.05M197.45,187.94h-13.77v13.77h13.77v-13.77h0Z"/>
      </g>
      <g>
        <rect class="cls-1" x="203.87" y="188.62" width="12.41" height="12.41"/>
        <path class="cls-1" d="M215.61,189.3v11.05h-11.05v-11.05h11.05M216.97,187.94h-13.77v13.77h13.77v-13.77h0Z"/>
      </g>
      <g>
        <rect class="cls-1" x="203.99" y="208.26" width="12.41" height="12.41"/>
        <path class="cls-1" d="M215.72,208.94v11.05h-11.05v-11.05h11.05M217.08,207.58h-13.77v13.77h13.77v-13.77h0Z"/>
      </g>
      <g>
        <rect class="cls-1" x="184.47" y="208.26" width="12.41" height="12.41"/>
        <path class="cls-1" d="M196.21,208.94v11.05h-11.05v-11.05h11.05M197.57,207.58h-13.77v13.77h13.77v-13.77h0Z"/>
      </g>
      <g>
        <rect class="cls-1" x="223.39" y="188.62" width="12.41" height="12.41"/>
        <path class="cls-1" d="M235.12,189.3v11.05h-11.05v-11.05h11.05M236.48,187.94h-13.77v13.77h13.77v-13.77h0Z"/>
      </g>
      <g>
        <rect class="cls-1" x="223.5" y="208.26" width="12.41" height="12.41"/>
        <path class="cls-1" d="M235.24,208.94v11.05h-11.05v-11.05h11.05M236.6,207.58h-13.77v13.77h13.77v-13.77h0Z"/>
      </g>
      <g>
        <rect class="cls-1" x="145.32" y="227.89" width="12.41" height="12.41"/>
        <path class="cls-1" d="M157.06,228.57v11.05h-11.05v-11.05h11.05M158.42,227.21h-13.77v13.77h13.77v-13.77h0Z"/>
      </g>
      <g>
        <rect class="cls-1" x="145.44" y="247.52" width="12.41" height="12.41"/>
        <path class="cls-1" d="M157.17,248.2v11.05h-11.05v-11.05h11.05M158.54,246.84h-13.77v13.77h13.77v-13.77h0Z"/>
      </g>
      <g>
        <rect class="cls-1" x="164.84" y="227.89" width="12.41" height="12.41"/>
        <path class="cls-1" d="M176.57,228.57v11.05h-11.05v-11.05h11.05M177.93,227.21h-13.77v13.77h13.77v-13.77h0Z"/>
      </g>
      <g>
        <rect class="cls-1" x="164.96" y="247.52" width="12.41" height="12.41"/>
        <path class="cls-1" d="M176.69,248.2v11.05h-11.05v-11.05h11.05M178.05,246.84h-13.77v13.77h13.77v-13.77h0Z"/>
      </g>
      <g>
        <rect class="cls-1" x="184.36" y="227.89" width="12.41" height="12.41"/>
        <path class="cls-1" d="M196.09,228.57v11.05h-11.05v-11.05h11.05M197.45,227.21h-13.77v13.77h13.77v-13.77h0Z"/>
      </g>
      <g>
        <rect class="cls-1" x="203.87" y="227.89" width="12.41" height="12.41"/>
        <path class="cls-1" d="M215.61,228.57v11.05h-11.05v-11.05h11.05M216.97,227.21h-13.77v13.77h13.77v-13.77h0Z"/>
      </g>
      <g>
        <rect class="cls-1" x="203.99" y="247.52" width="12.41" height="12.41"/>
        <path class="cls-1" d="M215.72,248.2v11.05h-11.05v-11.05h11.05M217.08,246.84h-13.77v13.77h13.77v-13.77h0Z"/>
      </g>
      <g>
        <rect class="cls-1" x="184.47" y="247.52" width="12.41" height="12.41"/>
        <path class="cls-1" d="M196.21,248.2v11.05h-11.05v-11.05h11.05M197.57,246.84h-13.77v13.77h13.77v-13.77h0Z"/>
      </g>
      <g>
        <rect class="cls-1" x="223.39" y="227.89" width="12.41" height="12.41"/>
        <path class="cls-1" d="M235.12,228.57v11.05h-11.05v-11.05h11.05M236.48,227.21h-13.77v13.77h13.77v-13.77h0Z"/>
      </g>
      <g>
        <rect class="cls-1" x="223.5" y="247.52" width="12.41" height="12.41"/>
        <path class="cls-1" d="M235.24,248.2v11.05h-11.05v-11.05h11.05M236.6,246.84h-13.77v13.77h13.77v-13.77h0Z"/>
      </g>
      <g>
        <rect class="cls-1" x="145.32" y="267.16" width="12.41" height="12.41"/>
        <path class="cls-1" d="M157.06,267.84v11.05h-11.05v-11.05h11.05M158.42,266.48h-13.77v13.77h13.77v-13.77h0Z"/>
      </g>
      <g>
        <rect class="cls-1" x="164.84" y="267.16" width="12.41" height="12.41"/>
        <path class="cls-1" d="M176.57,267.84v11.05h-11.05v-11.05h11.05M177.93,266.48h-13.77v13.77h13.77v-13.77h0Z"/>
      </g>
      <g>
        <rect class="cls-1" x="184.36" y="267.16" width="12.41" height="12.41"/>
        <path class="cls-1" d="M196.09,267.84v11.05h-11.05v-11.05h11.05M197.45,266.48h-13.77v13.77h13.77v-13.77h0Z"/>
      </g>
      <g>
        <rect class="cls-1" x="203.87" y="267.16" width="12.41" height="12.41"/>
        <path class="cls-1" d="M215.61,267.84v11.05h-11.05v-11.05h11.05M216.97,266.48h-13.77v13.77h13.77v-13.77h0Z"/>
      </g>
      <g>
        <rect class="cls-1" x="223.39" y="267.16" width="12.41" height="12.41"/>
        <path class="cls-1" d="M235.12,267.84v11.05h-11.05v-11.05h11.05M236.48,266.48h-13.77v13.77h13.77v-13.77h0Z"/>
      </g>
    </g>
  </g>
</svg>