<?xml version="1.0" encoding="UTF-8"?>
<svg id="Layer_2" xmlns="http://www.w3.org/2000/svg" viewBox="0 0 623.62 368.5">
  <defs>
    <style>
      .cls-1 {
        fill: #231f20;
      }

      .cls-2 {
        fill: #fff;
      }
    </style>
  </defs>
  <g id="Layer_2-2" data-name="Layer_2">
    <rect class="cls-2" width="623.62" height="368.5"/>
    <g>
      <g>
        <rect class="cls-2" x="332.36" y="84.8" width="7.76" height="7.76"/>
        <path class="cls-1" d="M339.7,85.23v6.91h-6.91v-6.91h6.91M340.55,84.38h-8.61v8.61h8.61v-8.61h0Z"/>
      </g>
      <g>
        <rect class="cls-2" x="332.29" y="97.07" width="7.76" height="7.76"/>
        <path class="cls-1" d="M339.62,97.5v6.91h-6.91v-6.91h6.91M340.47,96.65h-8.61v8.61h8.61v-8.61h0Z"/>
      </g>
      <g>
        <rect class="cls-2" x="320.16" y="84.8" width="7.76" height="7.76"/>
        <path class="cls-1" d="M327.5,85.23v6.91h-6.91v-6.91h6.91M328.35,84.38h-8.61v8.61h8.61v-8.61h0Z"/>
      </g>
      <g>
        <rect class="cls-2" x="320.09" y="97.07" width="7.76" height="7.76"/>
        <path class="cls-1" d="M327.42,97.5v6.91h-6.91v-6.91h6.91M328.28,96.65h-8.61v8.61h8.61v-8.61h0Z"/>
      </g>
      <g>
        <rect class="cls-2" x="307.97" y="84.8" width="7.76" height="7.76"/>
        <path class="cls-1" d="M315.3,85.23v6.91h-6.91v-6.91h6.91M316.15,84.38h-8.61v8.61h8.61v-8.61h0Z"/>
      </g>
      <g>
        <rect class="cls-2" x="295.77" y="84.8" width="7.76" height="7.76"/>
        <path class="cls-1" d="M303.1,85.23v6.91h-6.91v-6.91h6.91M303.96,84.38h-8.61v8.61h8.61v-8.61h0Z"/>
      </g>
      <g>
        <rect class="cls-2" x="295.7" y="97.07" width="7.76" height="7.76"/>
        <path class="cls-1" d="M303.03,97.5v6.91h-6.91v-6.91h6.91M303.88,96.65h-8.61v8.61h8.61v-8.61h0Z"/>
      </g>
      <g>
        <rect class="cls-2" x="307.9" y="97.07" width="7.76" height="7.76"/>
        <path class="cls-1" d="M315.23,97.5v6.91h-6.91v-6.91h6.91M316.08,96.65h-8.61v8.61h8.61v-8.61h0Z"/>
      </g>
      <g>
        <rect class="cls-2" x="283.57" y="84.8" width="7.76" height="7.76"/>
        <path class="cls-1" d="M290.91,85.23v6.91h-6.91v-6.91h6.91M291.76,84.38h-8.61v8.61h8.61v-8.61h0Z"/>
      </g>
      <g>
        <rect class="cls-2" x="283.5" y="97.07" width="7.76" height="7.76"/>
        <path class="cls-1" d="M290.83,97.5v6.91h-6.91v-6.91h6.91M291.69,96.65h-8.61v8.61h8.61v-8.61h0Z"/>
      </g>
      <g>
        <rect class="cls-2" x="332.36" y="109.34" width="7.76" height="7.76"/>
        <path class="cls-1" d="M339.7,109.77v6.91h-6.91v-6.91h6.91M340.55,108.92h-8.61v8.61h8.61v-8.61h0Z"/>
      </g>
      <g>
        <rect class="cls-2" x="332.29" y="121.62" width="7.76" height="7.76"/>
        <path class="cls-1" d="M339.62,122.04v6.91h-6.91v-6.91h6.91M340.47,121.19h-8.61v8.61h8.61v-8.61h0Z"/>
      </g>
      <g>
        <rect class="cls-2" x="320.16" y="109.34" width="7.76" height="7.76"/>
        <path class="cls-1" d="M327.5,109.77v6.91h-6.91v-6.91h6.91M328.35,108.92h-8.61v8.61h8.61v-8.61h0Z"/>
      </g>
      <g>
        <rect class="cls-2" x="320.09" y="121.62" width="7.76" height="7.76"/>
        <path class="cls-1" d="M327.42,122.04v6.91h-6.91v-6.91h6.91M328.28,121.19h-8.61v8.61h8.61v-8.61h0Z"/>
      </g>
      <g>
        <rect class="cls-2" x="307.97" y="109.34" width="7.76" height="7.76"/>
        <path class="cls-1" d="M315.3,109.77v6.91h-6.91v-6.91h6.91M316.15,108.92h-8.61v8.61h8.61v-8.61h0Z"/>
      </g>
      <g>
        <rect class="cls-2" x="295.77" y="109.34" width="7.76" height="7.76"/>
        <path class="cls-1" d="M303.1,109.77v6.91h-6.91v-6.91h6.91M303.96,108.92h-8.61v8.61h8.61v-8.61h0Z"/>
      </g>
      <g>
        <rect class="cls-2" x="295.7" y="121.62" width="7.76" height="7.76"/>
        <path class="cls-1" d="M303.03,122.04v6.91h-6.91v-6.91h6.91M303.88,121.19h-8.61v8.61h8.61v-8.61h0Z"/>
      </g>
      <g>
        <rect class="cls-2" x="307.9" y="121.62" width="7.76" height="7.76"/>
        <path class="cls-1" d="M315.23,122.04v6.91h-6.91v-6.91h6.91M316.08,121.19h-8.61v8.61h8.61v-8.61h0Z"/>
      </g>
      <g>
        <rect class="cls-2" x="283.57" y="109.34" width="7.76" height="7.76"/>
        <path class="cls-1" d="M290.91,109.77v6.91h-6.91v-6.91h6.91M291.76,108.92h-8.61v8.61h8.61v-8.61h0Z"/>
      </g>
      <g>
        <rect class="cls-2" x="283.5" y="121.62" width="7.76" height="7.76"/>
        <path class="cls-1" d="M290.83,122.04v6.91h-6.91v-6.91h6.91M291.69,121.19h-8.61v8.61h8.61v-8.61h0Z"/>
      </g>
      <g>
        <rect class="cls-2" x="332.36" y="133.89" width="7.76" height="7.76"/>
        <path class="cls-1" d="M339.7,134.31v6.91h-6.91v-6.91h6.91M340.55,133.46h-8.61v8.61h8.61v-8.61h0Z"/>
      </g>
      <g>
        <rect class="cls-2" x="320.16" y="133.89" width="7.76" height="7.76"/>
        <path class="cls-1" d="M327.5,134.31v6.91h-6.91v-6.91h6.91M328.35,133.46h-8.61v8.61h8.61v-8.61h0Z"/>
      </g>
      <g>
        <rect class="cls-2" x="307.97" y="133.89" width="7.76" height="7.76"/>
        <path class="cls-1" d="M315.3,134.31v6.91h-6.91v-6.91h6.91M316.15,133.46h-8.61v8.61h8.61v-8.61h0Z"/>
      </g>
      <g>
        <rect class="cls-2" x="295.77" y="133.89" width="7.76" height="7.76"/>
        <path class="cls-1" d="M303.1,134.31v6.91h-6.91v-6.91h6.91M303.96,133.46h-8.61v8.61h8.61v-8.61h0Z"/>
      </g>
      <g>
        <rect class="cls-2" x="283.57" y="133.89" width="7.76" height="7.76"/>
        <path class="cls-1" d="M290.91,134.31v6.91h-6.91v-6.91h6.91M291.76,133.46h-8.61v8.61h8.61v-8.61h0Z"/>
      </g>
    </g>
    <g>
      <g>
        <rect class="cls-2" x="229.92" y="187.6" width="7.76" height="7.76"/>
        <path class="cls-1" d="M237.25,188.03v6.91h-6.91v-6.91h6.91M238.1,187.18h-8.61v8.61h8.61v-8.61h0Z"/>
      </g>
      <g>
        <rect class="cls-2" x="229.84" y="199.87" width="7.76" height="7.76"/>
        <path class="cls-1" d="M237.18,200.3v6.91h-6.91v-6.91h6.91M238.03,199.45h-8.61v8.61h8.61v-8.61h0Z"/>
      </g>
      <g>
        <rect class="cls-2" x="217.72" y="187.6" width="7.76" height="7.76"/>
        <path class="cls-1" d="M225.05,188.03v6.91h-6.91v-6.91h6.91M225.9,187.18h-8.61v8.61h8.61v-8.61h0Z"/>
      </g>
      <g>
        <rect class="cls-2" x="205.52" y="187.6" width="7.76" height="7.76"/>
        <path class="cls-1" d="M212.86,188.03v6.91h-6.91v-6.91h6.91M213.71,187.18h-8.61v8.61h8.61v-8.61h0Z"/>
      </g>
      <g>
        <rect class="cls-2" x="205.45" y="199.87" width="7.76" height="7.76"/>
        <path class="cls-1" d="M212.78,200.3v6.91h-6.91v-6.91h6.91M213.63,199.45h-8.61v8.61h8.61v-8.61h0Z"/>
      </g>
      <g>
        <rect class="cls-2" x="217.65" y="199.87" width="7.76" height="7.76"/>
        <path class="cls-1" d="M224.98,200.3v6.91h-6.91v-6.91h6.91M225.83,199.45h-8.61v8.61h8.61v-8.61h0Z"/>
      </g>
      <g>
        <rect class="cls-2" x="193.32" y="187.6" width="7.76" height="7.76"/>
        <path class="cls-1" d="M200.66,188.03v6.91h-6.91v-6.91h6.91M201.51,187.18h-8.61v8.61h8.61v-8.61h0Z"/>
      </g>
      <g>
        <rect class="cls-2" x="193.25" y="199.87" width="7.76" height="7.76"/>
        <path class="cls-1" d="M200.58,200.3v6.91h-6.91v-6.91h6.91M201.44,199.45h-8.61v8.61h8.61v-8.61h0Z"/>
      </g>
      <g>
        <rect class="cls-2" x="229.92" y="212.14" width="7.76" height="7.76"/>
        <path class="cls-1" d="M237.25,212.57v6.91h-6.91v-6.91h6.91M238.1,211.72h-8.61v8.61h8.61v-8.61h0Z"/>
      </g>
      <g>
        <rect class="cls-2" x="229.84" y="224.41" width="7.76" height="7.76"/>
        <path class="cls-1" d="M237.18,224.84v6.91h-6.91v-6.91h6.91M238.03,223.99h-8.61v8.61h8.61v-8.61h0Z"/>
      </g>
      <g>
        <rect class="cls-2" x="217.72" y="212.14" width="7.76" height="7.76"/>
        <path class="cls-1" d="M225.05,212.57v6.91h-6.91v-6.91h6.91M225.9,211.72h-8.61v8.61h8.61v-8.61h0Z"/>
      </g>
      <g>
        <rect class="cls-2" x="205.52" y="212.14" width="7.76" height="7.76"/>
        <path class="cls-1" d="M212.86,212.57v6.91h-6.91v-6.91h6.91M213.71,211.72h-8.61v8.61h8.61v-8.61h0Z"/>
      </g>
      <g>
        <rect class="cls-2" x="205.45" y="224.41" width="7.76" height="7.76"/>
        <path class="cls-1" d="M212.78,224.84v6.91h-6.91v-6.91h6.91M213.63,223.99h-8.61v8.61h8.61v-8.61h0Z"/>
      </g>
      <g>
        <rect class="cls-2" x="217.65" y="224.41" width="7.76" height="7.76"/>
        <path class="cls-1" d="M224.98,224.84v6.91h-6.91v-6.91h6.91M225.83,223.99h-8.61v8.61h8.61v-8.61h0Z"/>
      </g>
      <g>
        <rect class="cls-2" x="193.32" y="212.14" width="7.76" height="7.76"/>
        <path class="cls-1" d="M200.66,212.57v6.91h-6.91v-6.91h6.91M201.51,211.72h-8.61v8.61h8.61v-8.61h0Z"/>
      </g>
      <g>
        <rect class="cls-2" x="193.25" y="224.41" width="7.76" height="7.76"/>
        <path class="cls-1" d="M200.58,224.84v6.91h-6.91v-6.91h6.91M201.44,223.99h-8.61v8.61h8.61v-8.61h0Z"/>
      </g>
      <g>
        <rect class="cls-2" x="229.92" y="236.68" width="7.76" height="7.76"/>
        <path class="cls-1" d="M237.25,237.11v6.91h-6.91v-6.91h6.91M238.1,236.26h-8.61v8.61h8.61v-8.61h0Z"/>
      </g>
      <g>
        <rect class="cls-2" x="229.84" y="248.95" width="7.76" height="7.76"/>
        <path class="cls-1" d="M237.18,249.38v6.91h-6.91v-6.91h6.91M238.03,248.53h-8.61v8.61h8.61v-8.61h0Z"/>
      </g>
      <g>
        <rect class="cls-2" x="217.72" y="236.68" width="7.76" height="7.76"/>
        <path class="cls-1" d="M225.05,237.11v6.91h-6.91v-6.91h6.91M225.9,236.26h-8.61v8.61h8.61v-8.61h0Z"/>
      </g>
      <g>
        <rect class="cls-2" x="205.52" y="236.68" width="7.76" height="7.76"/>
        <path class="cls-1" d="M212.86,237.11v6.91h-6.91v-6.91h6.91M213.71,236.26h-8.61v8.61h8.61v-8.61h0Z"/>
      </g>
      <g>
        <rect class="cls-2" x="205.45" y="248.95" width="7.76" height="7.76"/>
        <path class="cls-1" d="M212.78,249.38v6.91h-6.91v-6.91h6.91M213.63,248.53h-8.61v8.61h8.61v-8.61h0Z"/>
      </g>
      <g>
        <rect class="cls-2" x="217.65" y="248.95" width="7.76" height="7.76"/>
        <path class="cls-1" d="M224.98,249.38v6.91h-6.91v-6.91h6.91M225.83,248.53h-8.61v8.61h8.61v-8.61h0Z"/>
      </g>
      <g>
        <rect class="cls-2" x="193.32" y="236.68" width="7.76" height="7.76"/>
        <path class="cls-1" d="M200.66,237.11v6.91h-6.91v-6.91h6.91M201.51,236.26h-8.61v8.61h8.61v-8.61h0Z"/>
      </g>
      <g>
        <rect class="cls-2" x="193.25" y="248.95" width="7.76" height="7.76"/>
        <path class="cls-1" d="M200.58,249.38v6.91h-6.91v-6.91h6.91M201.44,248.53h-8.61v8.61h8.61v-8.61h0Z"/>
      </g>
      <g>
        <rect class="cls-2" x="229.92" y="261.22" width="7.76" height="7.76"/>
        <path class="cls-1" d="M237.25,261.65v6.91h-6.91v-6.91h6.91M238.1,260.8h-8.61v8.61h8.61v-8.61h0Z"/>
      </g>
      <g>
        <rect class="cls-2" x="229.84" y="273.49" width="7.76" height="7.76"/>
        <path class="cls-1" d="M237.18,273.92v6.91h-6.91v-6.91h6.91M238.03,273.07h-8.61v8.61h8.61v-8.61h0Z"/>
      </g>
      <g>
        <rect class="cls-2" x="217.72" y="261.22" width="7.76" height="7.76"/>
        <path class="cls-1" d="M225.05,261.65v6.91h-6.91v-6.91h6.91M225.9,260.8h-8.61v8.61h8.61v-8.61h0Z"/>
      </g>
      <g>
        <rect class="cls-2" x="205.52" y="261.22" width="7.76" height="7.76"/>
        <path class="cls-1" d="M212.86,261.65v6.91h-6.91v-6.91h6.91M213.71,260.8h-8.61v8.61h8.61v-8.61h0Z"/>
      </g>
      <g>
        <rect class="cls-2" x="205.45" y="273.49" width="7.76" height="7.76"/>
        <path class="cls-1" d="M212.78,273.92v6.91h-6.91v-6.91h6.91M213.63,273.07h-8.61v8.61h8.61v-8.61h0Z"/>
      </g>
      <g>
        <rect class="cls-2" x="217.65" y="273.49" width="7.76" height="7.76"/>
        <path class="cls-1" d="M224.98,273.92v6.91h-6.91v-6.91h6.91M225.83,273.07h-8.61v8.61h8.61v-8.61h0Z"/>
      </g>
      <g>
        <rect class="cls-2" x="193.32" y="261.22" width="7.76" height="7.76"/>
        <path class="cls-1" d="M200.66,261.65v6.91h-6.91v-6.91h6.91M201.51,260.8h-8.61v8.61h8.61v-8.61h0Z"/>
      </g>
      <g>
        <rect class="cls-2" x="193.25" y="273.49" width="7.76" height="7.76"/>
        <path class="cls-1" d="M200.58,273.92v6.91h-6.91v-6.91h6.91M201.44,273.07h-8.61v8.61h8.61v-8.61h0Z"/>
      </g>
      <g>
        <rect class="cls-2" x="181.04" y="187.6" width="7.76" height="7.76"/>
        <path class="cls-1" d="M188.38,188.03v6.91h-6.91v-6.91h6.91M189.23,187.18h-8.61v8.61h8.61v-8.61h0Z"/>
      </g>
      <g>
        <rect class="cls-2" x="168.85" y="187.6" width="7.76" height="7.76"/>
        <path class="cls-1" d="M176.18,188.03v6.91h-6.91v-6.91h6.91M177.03,187.18h-8.61v8.61h8.61v-8.61h0Z"/>
      </g>
      <g>
        <rect class="cls-2" x="168.77" y="199.87" width="7.76" height="7.76"/>
        <path class="cls-1" d="M176.11,200.3v6.91h-6.91v-6.91h6.91M176.96,199.45h-8.61v8.61h8.61v-8.61h0Z"/>
      </g>
      <g>
        <rect class="cls-2" x="181.04" y="199.87" width="7.76" height="7.76"/>
        <path class="cls-1" d="M188.38,200.3v6.91h-6.91v-6.91h6.91M189.23,199.45h-8.61v8.61h8.61v-8.61h0Z"/>
      </g>
      <g>
        <rect class="cls-2" x="156.65" y="187.6" width="7.76" height="7.76"/>
        <path class="cls-1" d="M163.98,188.03v6.91h-6.91v-6.91h6.91M164.83,187.18h-8.61v8.61h8.61v-8.61h0Z"/>
      </g>
      <g>
        <rect class="cls-2" x="156.57" y="199.87" width="7.76" height="7.76"/>
        <path class="cls-1" d="M163.91,200.3v6.91h-6.91v-6.91h6.91M164.76,199.45h-8.61v8.61h8.61v-8.61h0Z"/>
      </g>
      <g>
        <rect class="cls-2" x="144.45" y="187.6" width="7.76" height="7.76"/>
        <path class="cls-1" d="M151.78,188.03v6.91h-6.91v-6.91h6.91M152.64,187.18h-8.61v8.61h8.61v-8.61h0Z"/>
      </g>
      <g>
        <rect class="cls-2" x="144.38" y="199.87" width="7.76" height="7.76"/>
        <path class="cls-1" d="M151.71,200.3v6.91h-6.91v-6.91h6.91M152.56,199.45h-8.61v8.61h8.61v-8.61h0Z"/>
      </g>
      <g>
        <rect class="cls-2" x="181.04" y="212.14" width="7.76" height="7.76"/>
        <path class="cls-1" d="M188.38,212.57v6.91h-6.91v-6.91h6.91M189.23,211.72h-8.61v8.61h8.61v-8.61h0Z"/>
      </g>
      <g>
        <rect class="cls-2" x="168.85" y="212.14" width="7.76" height="7.76"/>
        <path class="cls-1" d="M176.18,212.57v6.91h-6.91v-6.91h6.91M177.03,211.72h-8.61v8.61h8.61v-8.61h0Z"/>
      </g>
      <g>
        <rect class="cls-2" x="168.77" y="224.41" width="7.76" height="7.76"/>
        <path class="cls-1" d="M176.11,224.84v6.91h-6.91v-6.91h6.91M176.96,223.99h-8.61v8.61h8.61v-8.61h0Z"/>
      </g>
      <g>
        <rect class="cls-2" x="181.04" y="224.41" width="7.76" height="7.76"/>
        <path class="cls-1" d="M188.38,224.84v6.91h-6.91v-6.91h6.91M189.23,223.99h-8.61v8.61h8.61v-8.61h0Z"/>
      </g>
      <g>
        <rect class="cls-2" x="156.65" y="212.14" width="7.76" height="7.76"/>
        <path class="cls-1" d="M163.98,212.57v6.91h-6.91v-6.91h6.91M164.83,211.72h-8.61v8.61h8.61v-8.61h0Z"/>
      </g>
      <g>
        <rect class="cls-2" x="156.57" y="224.41" width="7.76" height="7.76"/>
        <path class="cls-1" d="M163.91,224.84v6.91h-6.91v-6.91h6.91M164.76,223.99h-8.61v8.61h8.61v-8.61h0Z"/>
      </g>
      <g>
        <rect class="cls-2" x="144.45" y="212.14" width="7.76" height="7.76"/>
        <path class="cls-1" d="M151.78,212.57v6.91h-6.91v-6.91h6.91M152.64,211.72h-8.61v8.61h8.61v-8.61h0Z"/>
      </g>
      <g>
        <rect class="cls-2" x="144.38" y="224.41" width="7.76" height="7.76"/>
        <path class="cls-1" d="M151.71,224.84v6.91h-6.91v-6.91h6.91M152.56,223.99h-8.61v8.61h8.61v-8.61h0Z"/>
      </g>
      <g>
        <rect class="cls-2" x="181.04" y="236.68" width="7.76" height="7.76"/>
        <path class="cls-1" d="M188.38,237.11v6.91h-6.91v-6.91h6.91M189.23,236.26h-8.61v8.61h8.61v-8.61h0Z"/>
      </g>
      <g>
        <rect class="cls-2" x="168.85" y="236.68" width="7.76" height="7.76"/>
        <path class="cls-1" d="M176.18,237.11v6.91h-6.91v-6.91h6.91M177.03,236.26h-8.61v8.61h8.61v-8.61h0Z"/>
      </g>
      <g>
        <rect class="cls-2" x="168.77" y="248.95" width="7.76" height="7.76"/>
        <path class="cls-1" d="M176.11,249.38v6.91h-6.91v-6.91h6.91M176.96,248.53h-8.61v8.61h8.61v-8.61h0Z"/>
      </g>
      <g>
        <rect class="cls-2" x="181.04" y="248.95" width="7.76" height="7.76"/>
        <path class="cls-1" d="M188.38,249.38v6.91h-6.91v-6.91h6.91M189.23,248.53h-8.61v8.61h8.61v-8.61h0Z"/>
      </g>
      <g>
        <rect class="cls-2" x="156.65" y="236.68" width="7.76" height="7.76"/>
        <path class="cls-1" d="M163.98,237.11v6.91h-6.91v-6.91h6.91M164.83,236.26h-8.61v8.61h8.61v-8.61h0Z"/>
      </g>
      <g>
        <rect class="cls-2" x="156.57" y="248.95" width="7.76" height="7.76"/>
        <path class="cls-1" d="M163.91,249.38v6.91h-6.91v-6.91h6.91M164.76,248.53h-8.61v8.61h8.61v-8.61h0Z"/>
      </g>
      <g>
        <rect class="cls-2" x="144.45" y="236.68" width="7.76" height="7.76"/>
        <path class="cls-1" d="M151.78,237.11v6.91h-6.91v-6.91h6.91M152.64,236.26h-8.61v8.61h8.61v-8.61h0Z"/>
      </g>
      <g>
        <rect class="cls-2" x="144.38" y="248.95" width="7.76" height="7.76"/>
        <path class="cls-1" d="M151.71,249.38v6.91h-6.91v-6.91h6.91M152.56,248.53h-8.61v8.61h8.61v-8.61h0Z"/>
      </g>
      <g>
        <rect class="cls-2" x="181.04" y="261.22" width="7.76" height="7.76"/>
        <path class="cls-1" d="M188.38,261.65v6.91h-6.91v-6.91h6.91M189.23,260.8h-8.61v8.61h8.61v-8.61h0Z"/>
      </g>
      <g>
        <rect class="cls-2" x="168.85" y="261.22" width="7.76" height="7.76"/>
        <path class="cls-1" d="M176.18,261.65v6.91h-6.91v-6.91h6.91M177.03,260.8h-8.61v8.61h8.61v-8.61h0Z"/>
      </g>
      <g>
        <rect class="cls-2" x="168.77" y="273.49" width="7.76" height="7.76"/>
        <path class="cls-1" d="M176.11,273.92v6.91h-6.91v-6.91h6.91M176.96,273.07h-8.61v8.61h8.61v-8.61h0Z"/>
      </g>
      <g>
        <rect class="cls-2" x="181.04" y="273.49" width="7.76" height="7.76"/>
        <path class="cls-1" d="M188.38,273.92v6.91h-6.91v-6.91h6.91M189.23,273.07h-8.61v8.61h8.61v-8.61h0Z"/>
      </g>
      <g>
        <rect class="cls-2" x="156.65" y="261.22" width="7.76" height="7.76"/>
        <path class="cls-1" d="M163.98,261.65v6.91h-6.91v-6.91h6.91M164.83,260.8h-8.61v8.61h8.61v-8.61h0Z"/>
      </g>
      <g>
        <rect class="cls-2" x="156.57" y="273.49" width="7.76" height="7.76"/>
        <path class="cls-1" d="M163.91,273.92v6.91h-6.91v-6.91h6.91M164.76,273.07h-8.61v8.61h8.61v-8.61h0Z"/>
      </g>
      <g>
        <rect class="cls-2" x="144.45" y="261.22" width="7.76" height="7.76"/>
        <path class="cls-1" d="M151.78,261.65v6.91h-6.91v-6.91h6.91M152.64,260.8h-8.61v8.61h8.61v-8.61h0Z"/>
      </g>
      <g>
        <rect class="cls-2" x="144.38" y="273.49" width="7.76" height="7.76"/>
        <path class="cls-1" d="M151.71,273.92v6.91h-6.91v-6.91h6.91M152.56,273.07h-8.61v8.61h8.61v-8.61h0Z"/>
      </g>
    </g>
    <g>
      <rect class="cls-2" x="464.53" y="187.86" width="12.41" height="12.41"/>
      <path class="cls-1" d="M476.27,188.54v11.05h-11.05v-11.05h11.05M477.63,187.18h-13.77v13.77h13.77v-13.77h0Z"/>
    </g>
    <g>
      <rect class="cls-2" x="464.42" y="207.49" width="12.41" height="12.41"/>
      <path class="cls-1" d="M476.15,208.17v11.05h-11.05v-11.05h11.05M477.51,206.81h-13.77v13.77h13.77v-13.77h0Z"/>
    </g>
    <g>
      <rect class="cls-2" x="445.02" y="187.86" width="12.41" height="12.41"/>
      <path class="cls-1" d="M456.75,188.54v11.05h-11.05v-11.05h11.05M458.11,187.18h-13.77v13.77h13.77v-13.77h0Z"/>
    </g>
    <g>
      <rect class="cls-2" x="444.9" y="207.49" width="12.41" height="12.41"/>
      <path class="cls-1" d="M456.63,208.17v11.05h-11.05v-11.05h11.05M457.99,206.81h-13.77v13.77h13.77v-13.77h0Z"/>
    </g>
    <g>
      <rect class="cls-2" x="425.5" y="187.86" width="12.41" height="12.41"/>
      <path class="cls-1" d="M437.23,188.54v11.05h-11.05v-11.05h11.05M438.6,187.18h-13.77v13.77h13.77v-13.77h0Z"/>
    </g>
    <g>
      <rect class="cls-2" x="405.99" y="187.86" width="12.41" height="12.41"/>
      <path class="cls-1" d="M417.72,188.54v11.05h-11.05v-11.05h11.05M419.08,187.18h-13.77v13.77h13.77v-13.77h0Z"/>
    </g>
    <g>
      <rect class="cls-2" x="405.87" y="207.49" width="12.41" height="12.41"/>
      <path class="cls-1" d="M417.6,208.17v11.05h-11.05v-11.05h11.05M418.96,206.81h-13.77v13.77h13.77v-13.77h0Z"/>
    </g>
    <g>
      <rect class="cls-2" x="425.38" y="207.49" width="12.41" height="12.41"/>
      <path class="cls-1" d="M437.12,208.17v11.05h-11.05v-11.05h11.05M438.48,206.81h-13.77v13.77h13.77v-13.77h0Z"/>
    </g>
    <g>
      <rect class="cls-2" x="386.47" y="187.86" width="12.41" height="12.41"/>
      <path class="cls-1" d="M398.2,188.54v11.05h-11.05v-11.05h11.05M399.56,187.18h-13.77v13.77h13.77v-13.77h0Z"/>
    </g>
    <g>
      <rect class="cls-2" x="386.35" y="207.49" width="12.41" height="12.41"/>
      <path class="cls-1" d="M398.09,208.17v11.05h-11.05v-11.05h11.05M399.45,206.81h-13.77v13.77h13.77v-13.77h0Z"/>
    </g>
    <g>
      <rect class="cls-2" x="464.53" y="227.12" width="12.41" height="12.41"/>
      <path class="cls-1" d="M476.27,227.8v11.05h-11.05v-11.05h11.05M477.63,226.44h-13.77v13.77h13.77v-13.77h0Z"/>
    </g>
    <g>
      <rect class="cls-2" x="464.42" y="246.76" width="12.41" height="12.41"/>
      <path class="cls-1" d="M476.15,247.44v11.05h-11.05v-11.05h11.05M477.51,246.08h-13.77v13.77h13.77v-13.77h0Z"/>
    </g>
    <g>
      <rect class="cls-2" x="445.02" y="227.12" width="12.41" height="12.41"/>
      <path class="cls-1" d="M456.75,227.8v11.05h-11.05v-11.05h11.05M458.11,226.44h-13.77v13.77h13.77v-13.77h0Z"/>
    </g>
    <g>
      <rect class="cls-2" x="444.9" y="246.76" width="12.41" height="12.41"/>
      <path class="cls-1" d="M456.63,247.44v11.05h-11.05v-11.05h11.05M457.99,246.08h-13.77v13.77h13.77v-13.77h0Z"/>
    </g>
    <g>
      <rect class="cls-2" x="425.5" y="227.12" width="12.41" height="12.41"/>
      <path class="cls-1" d="M437.23,227.8v11.05h-11.05v-11.05h11.05M438.6,226.44h-13.77v13.77h13.77v-13.77h0Z"/>
    </g>
    <g>
      <rect class="cls-2" x="405.99" y="227.12" width="12.41" height="12.41"/>
      <path class="cls-1" d="M417.72,227.8v11.05h-11.05v-11.05h11.05M419.08,226.44h-13.77v13.77h13.77v-13.77h0Z"/>
    </g>
    <g>
      <rect class="cls-2" x="405.87" y="246.76" width="12.41" height="12.41"/>
      <path class="cls-1" d="M417.6,247.44v11.05h-11.05v-11.05h11.05M418.96,246.08h-13.77v13.77h13.77v-13.77h0Z"/>
    </g>
    <g>
      <rect class="cls-2" x="425.38" y="246.76" width="12.41" height="12.41"/>
      <path class="cls-1" d="M437.12,247.44v11.05h-11.05v-11.05h11.05M438.48,246.08h-13.77v13.77h13.77v-13.77h0Z"/>
    </g>
    <g>
      <rect class="cls-2" x="386.47" y="227.12" width="12.41" height="12.41"/>
      <path class="cls-1" d="M398.2,227.8v11.05h-11.05v-11.05h11.05M399.56,226.44h-13.77v13.77h13.77v-13.77h0Z"/>
    </g>
    <g>
      <rect class="cls-2" x="386.35" y="246.76" width="12.41" height="12.41"/>
      <path class="cls-1" d="M398.09,247.44v11.05h-11.05v-11.05h11.05M399.45,246.08h-13.77v13.77h13.77v-13.77h0Z"/>
    </g>
    <g>
      <rect class="cls-2" x="464.53" y="266.39" width="12.41" height="12.41"/>
      <path class="cls-1" d="M476.27,267.07v11.05h-11.05v-11.05h11.05M477.63,265.71h-13.77v13.77h13.77v-13.77h0Z"/>
    </g>
    <g>
      <rect class="cls-2" x="445.02" y="266.39" width="12.41" height="12.41"/>
      <path class="cls-1" d="M456.75,267.07v11.05h-11.05v-11.05h11.05M458.11,265.71h-13.77v13.77h13.77v-13.77h0Z"/>
    </g>
    <g>
      <rect class="cls-2" x="425.5" y="266.39" width="12.41" height="12.41"/>
      <path class="cls-1" d="M437.23,267.07v11.05h-11.05v-11.05h11.05M438.6,265.71h-13.77v13.77h13.77v-13.77h0Z"/>
    </g>
    <g>
      <rect class="cls-2" x="405.99" y="266.39" width="12.41" height="12.41"/>
      <path class="cls-1" d="M417.72,267.07v11.05h-11.05v-11.05h11.05M419.08,265.71h-13.77v13.77h13.77v-13.77h0Z"/>
    </g>
    <g>
      <rect class="cls-2" x="386.47" y="266.39" width="12.41" height="12.41"/>
      <path class="cls-1" d="M398.2,267.07v11.05h-11.05v-11.05h11.05M399.56,265.71h-13.77v13.77h13.77v-13.77h0Z"/>
    </g>
  </g>
</svg>