<?xml version="1.0" encoding="UTF-8"?>
<svg id="Layer_2" xmlns="http://www.w3.org/2000/svg" viewBox="0 0 623.62 368.5">
  <defs>
    <style>
      .cls-1 {
        fill: #231f20;
      }

      .cls-2 {
        fill: #fff;
      }
    </style>
  </defs>
  <g id="Layer_2-2" data-name="Layer_2">
    <rect class="cls-2" x="0" y="0" width="623.62" height="368.5" transform="translate(623.62 368.5) rotate(-180)"/>
    <g>
      <g>
        <rect class="cls-2" x="283.5" y="84.8" width="7.76" height="7.76"/>
        <path class="cls-1" d="M290.83,85.23v6.91h-6.91v-6.91h6.91M291.69,84.38h-8.61v8.61h8.61v-8.61h0Z"/>
      </g>
      <g>
        <rect class="cls-2" x="283.57" y="97.07" width="7.76" height="7.76"/>
        <path class="cls-1" d="M290.91,97.5v6.91h-6.91v-6.91h6.91M291.76,96.65h-8.61v8.61h8.61v-8.61h0Z"/>
      </g>
      <g>
        <rect class="cls-2" x="295.7" y="84.8" width="7.76" height="7.76"/>
        <path class="cls-1" d="M303.03,85.23v6.91h-6.91v-6.91h6.91M303.88,84.38h-8.61v8.61h8.61v-8.61h0Z"/>
      </g>
      <g>
        <rect class="cls-2" x="295.77" y="97.07" width="7.76" height="7.76"/>
        <path class="cls-1" d="M303.1,97.5v6.91h-6.91v-6.91h6.91M303.96,96.65h-8.61v8.61h8.61v-8.61h0Z"/>
      </g>
      <g>
        <rect class="cls-2" x="307.9" y="84.8" width="7.76" height="7.76"/>
        <path class="cls-1" d="M315.23,85.23v6.91h-6.91v-6.91h6.91M316.08,84.38h-8.61v8.61h8.61v-8.61h0Z"/>
      </g>
      <g>
        <rect class="cls-2" x="320.09" y="84.8" width="7.76" height="7.76"/>
        <path class="cls-1" d="M327.42,85.23v6.91h-6.91v-6.91h6.91M328.28,84.38h-8.61v8.61h8.61v-8.61h0Z"/>
      </g>
      <g>
        <rect class="cls-2" x="320.16" y="97.07" width="7.76" height="7.76"/>
        <path class="cls-1" d="M327.5,97.5v6.91h-6.91v-6.91h6.91M328.35,96.65h-8.61v8.61h8.61v-8.61h0Z"/>
      </g>
      <g>
        <rect class="cls-2" x="307.97" y="97.07" width="7.76" height="7.76"/>
        <path class="cls-1" d="M315.3,97.5v6.91h-6.91v-6.91h6.91M316.15,96.65h-8.61v8.61h8.61v-8.61h0Z"/>
      </g>
      <g>
        <rect class="cls-2" x="332.29" y="84.8" width="7.76" height="7.76"/>
        <path class="cls-1" d="M339.62,85.23v6.91h-6.91v-6.91h6.91M340.47,84.38h-8.61v8.61h8.61v-8.61h0Z"/>
      </g>
      <g>
        <rect class="cls-2" x="332.36" y="97.07" width="7.76" height="7.76"/>
        <path class="cls-1" d="M339.7,97.5v6.91h-6.91v-6.91h6.91M340.55,96.65h-8.61v8.61h8.61v-8.61h0Z"/>
      </g>
      <g>
        <rect class="cls-2" x="283.5" y="109.34" width="7.76" height="7.76"/>
        <path class="cls-1" d="M290.83,109.77v6.91h-6.91v-6.91h6.91M291.69,108.92h-8.61v8.61h8.61v-8.61h0Z"/>
      </g>
      <g>
        <rect class="cls-2" x="283.57" y="121.61" width="7.76" height="7.76"/>
        <path class="cls-1" d="M290.91,122.04v6.91h-6.91v-6.91h6.91M291.76,121.19h-8.61v8.61h8.61v-8.61h0Z"/>
      </g>
      <g>
        <rect class="cls-2" x="295.7" y="109.34" width="7.76" height="7.76"/>
        <path class="cls-1" d="M303.03,109.77v6.91h-6.91v-6.91h6.91M303.88,108.92h-8.61v8.61h8.61v-8.61h0Z"/>
      </g>
      <g>
        <rect class="cls-2" x="295.77" y="121.61" width="7.76" height="7.76"/>
        <path class="cls-1" d="M303.1,122.04v6.91h-6.91v-6.91h6.91M303.96,121.19h-8.61v8.61h8.61v-8.61h0Z"/>
      </g>
      <g>
        <rect class="cls-2" x="307.9" y="109.34" width="7.76" height="7.76"/>
        <path class="cls-1" d="M315.23,109.77v6.91h-6.91v-6.91h6.91M316.08,108.92h-8.61v8.61h8.61v-8.61h0Z"/>
      </g>
      <g>
        <rect class="cls-2" x="320.09" y="109.34" width="7.76" height="7.76"/>
        <path class="cls-1" d="M327.42,109.77v6.91h-6.91v-6.91h6.91M328.28,108.92h-8.61v8.61h8.61v-8.61h0Z"/>
      </g>
      <g>
        <rect class="cls-2" x="320.16" y="121.61" width="7.76" height="7.76"/>
        <path class="cls-1" d="M327.5,122.04v6.91h-6.91v-6.91h6.91M328.35,121.19h-8.61v8.61h8.61v-8.61h0Z"/>
      </g>
      <g>
        <rect class="cls-2" x="307.97" y="121.61" width="7.76" height="7.76"/>
        <path class="cls-1" d="M315.3,122.04v6.91h-6.91v-6.91h6.91M316.15,121.19h-8.61v8.61h8.61v-8.61h0Z"/>
      </g>
      <g>
        <rect class="cls-2" x="332.29" y="109.34" width="7.76" height="7.76"/>
        <path class="cls-1" d="M339.62,109.77v6.91h-6.91v-6.91h6.91M340.47,108.92h-8.61v8.61h8.61v-8.61h0Z"/>
      </g>
      <g>
        <rect class="cls-2" x="332.36" y="121.61" width="7.76" height="7.76"/>
        <path class="cls-1" d="M339.7,122.04v6.91h-6.91v-6.91h6.91M340.55,121.19h-8.61v8.61h8.61v-8.61h0Z"/>
      </g>
      <g>
        <rect class="cls-2" x="283.5" y="133.89" width="7.76" height="7.76"/>
        <path class="cls-1" d="M290.83,134.31v6.91h-6.91v-6.91h6.91M291.69,133.46h-8.61v8.61h8.61v-8.61h0Z"/>
      </g>
      <g>
        <rect class="cls-2" x="295.7" y="133.89" width="7.76" height="7.76"/>
        <path class="cls-1" d="M303.03,134.31v6.91h-6.91v-6.91h6.91M303.88,133.46h-8.61v8.61h8.61v-8.61h0Z"/>
      </g>
      <g>
        <rect class="cls-2" x="307.9" y="133.89" width="7.76" height="7.76"/>
        <path class="cls-1" d="M315.23,134.31v6.91h-6.91v-6.91h6.91M316.08,133.46h-8.61v8.61h8.61v-8.61h0Z"/>
      </g>
      <g>
        <rect class="cls-2" x="320.09" y="133.89" width="7.76" height="7.76"/>
        <path class="cls-1" d="M327.42,134.31v6.91h-6.91v-6.91h6.91M328.28,133.46h-8.61v8.61h8.61v-8.61h0Z"/>
      </g>
      <g>
        <rect class="cls-2" x="332.29" y="133.89" width="7.76" height="7.76"/>
        <path class="cls-1" d="M339.62,134.31v6.91h-6.91v-6.91h6.91M340.47,133.46h-8.61v8.61h8.61v-8.61h0Z"/>
      </g>
    </g>
    <g>
      <g>
        <rect class="cls-2" x="386.06" y="187.91" width="7.76" height="7.76"/>
        <path class="cls-1" d="M393.39,188.34v6.91h-6.91v-6.91h6.91M394.24,187.49h-8.61v8.61h8.61v-8.61h0Z"/>
      </g>
      <g>
        <rect class="cls-2" x="386.13" y="200.18" width="7.76" height="7.76"/>
        <path class="cls-1" d="M393.47,200.61v6.91h-6.91v-6.91h6.91M394.32,199.76h-8.61v8.61h8.61v-8.61h0Z"/>
      </g>
      <g>
        <rect class="cls-2" x="398.26" y="187.91" width="7.76" height="7.76"/>
        <path class="cls-1" d="M405.59,188.34v6.91h-6.91v-6.91h6.91M406.44,187.49h-8.61v8.61h8.61v-8.61h0Z"/>
      </g>
      <g>
        <rect class="cls-2" x="410.45" y="187.91" width="7.76" height="7.76"/>
        <path class="cls-1" d="M417.79,188.34v6.91h-6.91v-6.91h6.91M418.64,187.49h-8.61v8.61h8.61v-8.61h0Z"/>
      </g>
      <g>
        <rect class="cls-2" x="410.53" y="200.18" width="7.76" height="7.76"/>
        <path class="cls-1" d="M417.86,200.61v6.91h-6.91v-6.91h6.91M418.71,199.76h-8.61v8.61h8.61v-8.61h0Z"/>
      </g>
      <g>
        <rect class="cls-2" x="398.33" y="200.18" width="7.76" height="7.76"/>
        <path class="cls-1" d="M405.66,200.61v6.91h-6.91v-6.91h6.91M406.51,199.76h-8.61v8.61h8.61v-8.61h0Z"/>
      </g>
      <g>
        <rect class="cls-2" x="422.65" y="187.91" width="7.76" height="7.76"/>
        <path class="cls-1" d="M429.98,188.34v6.91h-6.91v-6.91h6.91M430.83,187.49h-8.61v8.61h8.61v-8.61h0Z"/>
      </g>
      <g>
        <rect class="cls-2" x="422.72" y="200.18" width="7.76" height="7.76"/>
        <path class="cls-1" d="M430.06,200.61v6.91h-6.91v-6.91h6.91M430.91,199.76h-8.61v8.61h8.61v-8.61h0Z"/>
      </g>
      <g>
        <rect class="cls-2" x="386.06" y="212.45" width="7.76" height="7.76"/>
        <path class="cls-1" d="M393.39,212.88v6.91h-6.91v-6.91h6.91M394.24,212.03h-8.61v8.61h8.61v-8.61h0Z"/>
      </g>
      <g>
        <rect class="cls-2" x="386.13" y="224.72" width="7.76" height="7.76"/>
        <path class="cls-1" d="M393.47,225.15v6.91h-6.91v-6.91h6.91M394.32,224.3h-8.61v8.61h8.61v-8.61h0Z"/>
      </g>
      <g>
        <rect class="cls-2" x="398.26" y="212.45" width="7.76" height="7.76"/>
        <path class="cls-1" d="M405.59,212.88v6.91h-6.91v-6.91h6.91M406.44,212.03h-8.61v8.61h8.61v-8.61h0Z"/>
      </g>
      <g>
        <rect class="cls-2" x="410.45" y="212.45" width="7.76" height="7.76"/>
        <path class="cls-1" d="M417.79,212.88v6.91h-6.91v-6.91h6.91M418.64,212.03h-8.61v8.61h8.61v-8.61h0Z"/>
      </g>
      <g>
        <rect class="cls-2" x="410.53" y="224.72" width="7.76" height="7.76"/>
        <path class="cls-1" d="M417.86,225.15v6.91h-6.91v-6.91h6.91M418.71,224.3h-8.61v8.61h8.61v-8.61h0Z"/>
      </g>
      <g>
        <rect class="cls-2" x="398.33" y="224.72" width="7.76" height="7.76"/>
        <path class="cls-1" d="M405.66,225.15v6.91h-6.91v-6.91h6.91M406.51,224.3h-8.61v8.61h8.61v-8.61h0Z"/>
      </g>
      <g>
        <rect class="cls-2" x="422.65" y="212.45" width="7.76" height="7.76"/>
        <path class="cls-1" d="M429.98,212.88v6.91h-6.91v-6.91h6.91M430.83,212.03h-8.61v8.61h8.61v-8.61h0Z"/>
      </g>
      <g>
        <rect class="cls-2" x="422.72" y="224.72" width="7.76" height="7.76"/>
        <path class="cls-1" d="M430.06,225.15v6.91h-6.91v-6.91h6.91M430.91,224.3h-8.61v8.61h8.61v-8.61h0Z"/>
      </g>
      <g>
        <rect class="cls-2" x="386.06" y="236.99" width="7.76" height="7.76"/>
        <path class="cls-1" d="M393.39,237.42v6.91h-6.91v-6.91h6.91M394.24,236.57h-8.61v8.61h8.61v-8.61h0Z"/>
      </g>
      <g>
        <rect class="cls-2" x="386.13" y="249.26" width="7.76" height="7.76"/>
        <path class="cls-1" d="M393.47,249.69v6.91h-6.91v-6.91h6.91M394.32,248.84h-8.61v8.61h8.61v-8.61h0Z"/>
      </g>
      <g>
        <rect class="cls-2" x="398.26" y="236.99" width="7.76" height="7.76"/>
        <path class="cls-1" d="M405.59,237.42v6.91h-6.91v-6.91h6.91M406.44,236.57h-8.61v8.61h8.61v-8.61h0Z"/>
      </g>
      <g>
        <rect class="cls-2" x="410.45" y="236.99" width="7.76" height="7.76"/>
        <path class="cls-1" d="M417.79,237.42v6.91h-6.91v-6.91h6.91M418.64,236.57h-8.61v8.61h8.61v-8.61h0Z"/>
      </g>
      <g>
        <rect class="cls-2" x="410.53" y="249.26" width="7.76" height="7.76"/>
        <path class="cls-1" d="M417.86,249.69v6.91h-6.91v-6.91h6.91M418.71,248.84h-8.61v8.61h8.61v-8.61h0Z"/>
      </g>
      <g>
        <rect class="cls-2" x="398.33" y="249.26" width="7.76" height="7.76"/>
        <path class="cls-1" d="M405.66,249.69v6.91h-6.91v-6.91h6.91M406.51,248.84h-8.61v8.61h8.61v-8.61h0Z"/>
      </g>
      <g>
        <rect class="cls-2" x="422.65" y="236.99" width="7.76" height="7.76"/>
        <path class="cls-1" d="M429.98,237.42v6.91h-6.91v-6.91h6.91M430.83,236.57h-8.61v8.61h8.61v-8.61h0Z"/>
      </g>
      <g>
        <rect class="cls-2" x="422.72" y="249.26" width="7.76" height="7.76"/>
        <path class="cls-1" d="M430.06,249.69v6.91h-6.91v-6.91h6.91M430.91,248.84h-8.61v8.61h8.61v-8.61h0Z"/>
      </g>
      <g>
        <rect class="cls-2" x="386.06" y="261.53" width="7.76" height="7.76"/>
        <path class="cls-1" d="M393.39,261.96v6.91h-6.91v-6.91h6.91M394.24,261.11h-8.61v8.61h8.61v-8.61h0Z"/>
      </g>
      <g>
        <rect class="cls-2" x="386.13" y="273.81" width="7.76" height="7.76"/>
        <path class="cls-1" d="M393.47,274.23v6.91h-6.91v-6.91h6.91M394.32,273.38h-8.61v8.61h8.61v-8.61h0Z"/>
      </g>
      <g>
        <rect class="cls-2" x="398.26" y="261.53" width="7.76" height="7.76"/>
        <path class="cls-1" d="M405.59,261.96v6.91h-6.91v-6.91h6.91M406.44,261.11h-8.61v8.61h8.61v-8.61h0Z"/>
      </g>
      <g>
        <rect class="cls-2" x="410.45" y="261.53" width="7.76" height="7.76"/>
        <path class="cls-1" d="M417.79,261.96v6.91h-6.91v-6.91h6.91M418.64,261.11h-8.61v8.61h8.61v-8.61h0Z"/>
      </g>
      <g>
        <rect class="cls-2" x="410.53" y="273.81" width="7.76" height="7.76"/>
        <path class="cls-1" d="M417.86,274.23v6.91h-6.91v-6.91h6.91M418.71,273.38h-8.61v8.61h8.61v-8.61h0Z"/>
      </g>
      <g>
        <rect class="cls-2" x="398.33" y="273.81" width="7.76" height="7.76"/>
        <path class="cls-1" d="M405.66,274.23v6.91h-6.91v-6.91h6.91M406.51,273.38h-8.61v8.61h8.61v-8.61h0Z"/>
      </g>
      <g>
        <rect class="cls-2" x="422.65" y="261.53" width="7.76" height="7.76"/>
        <path class="cls-1" d="M429.98,261.96v6.91h-6.91v-6.91h6.91M430.83,261.11h-8.61v8.61h8.61v-8.61h0Z"/>
      </g>
      <g>
        <rect class="cls-2" x="422.72" y="273.81" width="7.76" height="7.76"/>
        <path class="cls-1" d="M430.06,274.23v6.91h-6.91v-6.91h6.91M430.91,273.38h-8.61v8.61h8.61v-8.61h0Z"/>
      </g>
      <g>
        <rect class="cls-2" x="434.93" y="187.91" width="7.76" height="7.76"/>
        <path class="cls-1" d="M442.27,188.34v6.91h-6.91v-6.91h6.91M443.12,187.49h-8.61v8.61h8.61v-8.61h0Z"/>
      </g>
      <g>
        <rect class="cls-2" x="447.13" y="187.91" width="7.76" height="7.76"/>
        <path class="cls-1" d="M454.46,188.34v6.91h-6.91v-6.91h6.91M455.31,187.49h-8.61v8.61h8.61v-8.61h0Z"/>
      </g>
      <g>
        <rect class="cls-2" x="447.2" y="200.18" width="7.76" height="7.76"/>
        <path class="cls-1" d="M454.54,200.61v6.91h-6.91v-6.91h6.91M455.39,199.76h-8.61v8.61h8.61v-8.61h0Z"/>
      </g>
      <g>
        <rect class="cls-2" x="434.93" y="200.18" width="7.76" height="7.76"/>
        <path class="cls-1" d="M442.27,200.61v6.91h-6.91v-6.91h6.91M443.12,199.76h-8.61v8.61h8.61v-8.61h0Z"/>
      </g>
      <g>
        <rect class="cls-2" x="459.33" y="187.91" width="7.76" height="7.76"/>
        <path class="cls-1" d="M466.66,188.34v6.91h-6.91v-6.91h6.91M467.51,187.49h-8.61v8.61h8.61v-8.61h0Z"/>
      </g>
      <g>
        <rect class="cls-2" x="459.4" y="200.18" width="7.76" height="7.76"/>
        <path class="cls-1" d="M466.73,200.61v6.91h-6.91v-6.91h6.91M467.58,199.76h-8.61v8.61h8.61v-8.61h0Z"/>
      </g>
      <g>
        <rect class="cls-2" x="471.52" y="187.91" width="7.76" height="7.76"/>
        <path class="cls-1" d="M478.86,188.34v6.91h-6.91v-6.91h6.91M479.71,187.49h-8.61v8.61h8.61v-8.61h0Z"/>
      </g>
      <g>
        <rect class="cls-2" x="471.6" y="200.18" width="7.76" height="7.76"/>
        <path class="cls-1" d="M478.93,200.61v6.91h-6.91v-6.91h6.91M479.78,199.76h-8.61v8.61h8.61v-8.61h0Z"/>
      </g>
      <g>
        <rect class="cls-2" x="434.93" y="212.45" width="7.76" height="7.76"/>
        <path class="cls-1" d="M442.27,212.88v6.91h-6.91v-6.91h6.91M443.12,212.03h-8.61v8.61h8.61v-8.61h0Z"/>
      </g>
      <g>
        <rect class="cls-2" x="447.13" y="212.45" width="7.76" height="7.76"/>
        <path class="cls-1" d="M454.46,212.88v6.91h-6.91v-6.91h6.91M455.31,212.03h-8.61v8.61h8.61v-8.61h0Z"/>
      </g>
      <g>
        <rect class="cls-2" x="447.2" y="224.72" width="7.76" height="7.76"/>
        <path class="cls-1" d="M454.54,225.15v6.91h-6.91v-6.91h6.91M455.39,224.3h-8.61v8.61h8.61v-8.61h0Z"/>
      </g>
      <g>
        <rect class="cls-2" x="434.93" y="224.72" width="7.76" height="7.76"/>
        <path class="cls-1" d="M442.27,225.15v6.91h-6.91v-6.91h6.91M443.12,224.3h-8.61v8.61h8.61v-8.61h0Z"/>
      </g>
      <g>
        <rect class="cls-2" x="459.33" y="212.45" width="7.76" height="7.76"/>
        <path class="cls-1" d="M466.66,212.88v6.91h-6.91v-6.91h6.91M467.51,212.03h-8.61v8.61h8.61v-8.61h0Z"/>
      </g>
      <g>
        <rect class="cls-2" x="459.4" y="224.72" width="7.76" height="7.76"/>
        <path class="cls-1" d="M466.73,225.15v6.91h-6.91v-6.91h6.91M467.58,224.3h-8.61v8.61h8.61v-8.61h0Z"/>
      </g>
      <g>
        <rect class="cls-2" x="471.52" y="212.45" width="7.76" height="7.76"/>
        <path class="cls-1" d="M478.86,212.88v6.91h-6.91v-6.91h6.91M479.71,212.03h-8.61v8.61h8.61v-8.61h0Z"/>
      </g>
      <g>
        <rect class="cls-2" x="471.6" y="224.72" width="7.76" height="7.76"/>
        <path class="cls-1" d="M478.93,225.15v6.91h-6.91v-6.91h6.91M479.78,224.3h-8.61v8.61h8.61v-8.61h0Z"/>
      </g>
      <g>
        <rect class="cls-2" x="434.93" y="236.99" width="7.76" height="7.76"/>
        <path class="cls-1" d="M442.27,237.42v6.91h-6.91v-6.91h6.91M443.12,236.57h-8.61v8.61h8.61v-8.61h0Z"/>
      </g>
      <g>
        <rect class="cls-2" x="447.13" y="236.99" width="7.76" height="7.76"/>
        <path class="cls-1" d="M454.46,237.42v6.91h-6.91v-6.91h6.91M455.31,236.57h-8.61v8.61h8.61v-8.61h0Z"/>
      </g>
      <g>
        <rect class="cls-2" x="447.2" y="249.26" width="7.76" height="7.76"/>
        <path class="cls-1" d="M454.54,249.69v6.91h-6.91v-6.91h6.91M455.39,248.84h-8.61v8.61h8.61v-8.61h0Z"/>
      </g>
      <g>
        <rect class="cls-2" x="434.93" y="249.26" width="7.76" height="7.76"/>
        <path class="cls-1" d="M442.27,249.69v6.91h-6.91v-6.91h6.91M443.12,248.84h-8.61v8.61h8.61v-8.61h0Z"/>
      </g>
      <g>
        <rect class="cls-2" x="459.33" y="236.99" width="7.76" height="7.76"/>
        <path class="cls-1" d="M466.66,237.42v6.91h-6.91v-6.91h6.91M467.51,236.57h-8.61v8.61h8.61v-8.61h0Z"/>
      </g>
      <g>
        <rect class="cls-2" x="459.4" y="249.26" width="7.76" height="7.76"/>
        <path class="cls-1" d="M466.73,249.69v6.91h-6.91v-6.91h6.91M467.58,248.84h-8.61v8.61h8.61v-8.61h0Z"/>
      </g>
      <g>
        <rect class="cls-2" x="471.52" y="236.99" width="7.76" height="7.76"/>
        <path class="cls-1" d="M478.86,237.42v6.91h-6.91v-6.91h6.91M479.71,236.57h-8.61v8.61h8.61v-8.61h0Z"/>
      </g>
      <g>
        <rect class="cls-2" x="471.6" y="249.26" width="7.76" height="7.76"/>
        <path class="cls-1" d="M478.93,249.69v6.91h-6.91v-6.91h6.91M479.78,248.84h-8.61v8.61h8.61v-8.61h0Z"/>
      </g>
      <g>
        <rect class="cls-2" x="434.93" y="261.53" width="7.76" height="7.76"/>
        <path class="cls-1" d="M442.27,261.96v6.91h-6.91v-6.91h6.91M443.12,261.11h-8.61v8.61h8.61v-8.61h0Z"/>
      </g>
      <g>
        <rect class="cls-2" x="447.13" y="261.53" width="7.76" height="7.76"/>
        <path class="cls-1" d="M454.46,261.96v6.91h-6.91v-6.91h6.91M455.31,261.11h-8.61v8.61h8.61v-8.61h0Z"/>
      </g>
      <g>
        <rect class="cls-2" x="447.2" y="273.81" width="7.76" height="7.76"/>
        <path class="cls-1" d="M454.54,274.23v6.91h-6.91v-6.91h6.91M455.39,273.38h-8.61v8.61h8.61v-8.61h0Z"/>
      </g>
      <g>
        <rect class="cls-2" x="434.93" y="273.81" width="7.76" height="7.76"/>
        <path class="cls-1" d="M442.27,274.23v6.91h-6.91v-6.91h6.91M443.12,273.38h-8.61v8.61h8.61v-8.61h0Z"/>
      </g>
      <g>
        <rect class="cls-2" x="459.33" y="261.53" width="7.76" height="7.76"/>
        <path class="cls-1" d="M466.66,261.96v6.91h-6.91v-6.91h6.91M467.51,261.11h-8.61v8.61h8.61v-8.61h0Z"/>
      </g>
      <g>
        <rect class="cls-2" x="459.4" y="273.81" width="7.76" height="7.76"/>
        <path class="cls-1" d="M466.73,274.23v6.91h-6.91v-6.91h6.91M467.58,273.38h-8.61v8.61h8.61v-8.61h0Z"/>
      </g>
      <g>
        <rect class="cls-2" x="471.52" y="261.53" width="7.76" height="7.76"/>
        <path class="cls-1" d="M478.86,261.96v6.91h-6.91v-6.91h6.91M479.71,261.11h-8.61v8.61h8.61v-8.61h0Z"/>
      </g>
      <g>
        <rect class="cls-2" x="471.6" y="273.81" width="7.76" height="7.76"/>
        <path class="cls-1" d="M478.93,274.23v6.91h-6.91v-6.91h6.91M479.78,273.38h-8.61v8.61h8.61v-8.61h0Z"/>
      </g>
    </g>
    <g>
      <g>
        <rect class="cls-2" x="146.71" y="188.17" width="12.41" height="12.41"/>
        <path class="cls-1" d="M158.45,188.85v11.05h-11.05v-11.05h11.05M159.81,187.49h-13.77v13.77h13.77v-13.77h0Z"/>
      </g>
      <g>
        <rect class="cls-2" x="146.83" y="207.8" width="12.41" height="12.41"/>
        <path class="cls-1" d="M158.56,208.48v11.05h-11.05v-11.05h11.05M159.92,207.12h-13.77v13.77h13.77v-13.77h0Z"/>
      </g>
      <g>
        <rect class="cls-2" x="166.23" y="188.17" width="12.41" height="12.41"/>
        <path class="cls-1" d="M177.96,188.85v11.05h-11.05v-11.05h11.05M179.32,187.49h-13.77v13.77h13.77v-13.77h0Z"/>
      </g>
      <g>
        <rect class="cls-2" x="166.35" y="207.8" width="12.41" height="12.41"/>
        <path class="cls-1" d="M178.08,208.48v11.05h-11.05v-11.05h11.05M179.44,207.12h-13.77v13.77h13.77v-13.77h0Z"/>
      </g>
      <g>
        <rect class="cls-2" x="185.74" y="188.17" width="12.41" height="12.41"/>
        <path class="cls-1" d="M197.48,188.85v11.05h-11.05v-11.05h11.05M198.84,187.49h-13.77v13.77h13.77v-13.77h0Z"/>
      </g>
      <g>
        <rect class="cls-2" x="205.26" y="188.17" width="12.41" height="12.41"/>
        <path class="cls-1" d="M216.99,188.85v11.05h-11.05v-11.05h11.05M218.35,187.49h-13.77v13.77h13.77v-13.77h0Z"/>
      </g>
      <g>
        <rect class="cls-2" x="205.38" y="207.8" width="12.41" height="12.41"/>
        <path class="cls-1" d="M217.11,208.48v11.05h-11.05v-11.05h11.05M218.47,207.12h-13.77v13.77h13.77v-13.77h0Z"/>
      </g>
      <g>
        <rect class="cls-2" x="185.86" y="207.8" width="12.41" height="12.41"/>
        <path class="cls-1" d="M197.6,208.48v11.05h-11.05v-11.05h11.05M198.96,207.12h-13.77v13.77h13.77v-13.77h0Z"/>
      </g>
      <g>
        <rect class="cls-2" x="224.78" y="188.17" width="12.41" height="12.41"/>
        <path class="cls-1" d="M236.51,188.85v11.05h-11.05v-11.05h11.05M237.87,187.49h-13.77v13.77h13.77v-13.77h0Z"/>
      </g>
      <g>
        <rect class="cls-2" x="224.89" y="207.8" width="12.41" height="12.41"/>
        <path class="cls-1" d="M236.63,208.48v11.05h-11.05v-11.05h11.05M237.99,207.12h-13.77v13.77h13.77v-13.77h0Z"/>
      </g>
      <g>
        <rect class="cls-2" x="146.71" y="227.44" width="12.41" height="12.41"/>
        <path class="cls-1" d="M158.45,228.12v11.05h-11.05v-11.05h11.05M159.81,226.76h-13.77v13.77h13.77v-13.77h0Z"/>
      </g>
      <g>
        <rect class="cls-2" x="146.83" y="247.07" width="12.41" height="12.41"/>
        <path class="cls-1" d="M158.56,247.75v11.05h-11.05v-11.05h11.05M159.92,246.39h-13.77v13.77h13.77v-13.77h0Z"/>
      </g>
      <g>
        <rect class="cls-2" x="166.23" y="227.44" width="12.41" height="12.41"/>
        <path class="cls-1" d="M177.96,228.12v11.05h-11.05v-11.05h11.05M179.32,226.76h-13.77v13.77h13.77v-13.77h0Z"/>
      </g>
      <g>
        <rect class="cls-2" x="166.35" y="247.07" width="12.41" height="12.41"/>
        <path class="cls-1" d="M178.08,247.75v11.05h-11.05v-11.05h11.05M179.44,246.39h-13.77v13.77h13.77v-13.77h0Z"/>
      </g>
      <g>
        <rect class="cls-2" x="185.74" y="227.44" width="12.41" height="12.41"/>
        <path class="cls-1" d="M197.48,228.12v11.05h-11.05v-11.05h11.05M198.84,226.76h-13.77v13.77h13.77v-13.77h0Z"/>
      </g>
      <g>
        <rect class="cls-2" x="205.26" y="227.44" width="12.41" height="12.41"/>
        <path class="cls-1" d="M216.99,228.12v11.05h-11.05v-11.05h11.05M218.35,226.76h-13.77v13.77h13.77v-13.77h0Z"/>
      </g>
      <g>
        <rect class="cls-2" x="205.38" y="247.07" width="12.41" height="12.41"/>
        <path class="cls-1" d="M217.11,247.75v11.05h-11.05v-11.05h11.05M218.47,246.39h-13.77v13.77h13.77v-13.77h0Z"/>
      </g>
      <g>
        <rect class="cls-2" x="185.86" y="247.07" width="12.41" height="12.41"/>
        <path class="cls-1" d="M197.6,247.75v11.05h-11.05v-11.05h11.05M198.96,246.39h-13.77v13.77h13.77v-13.77h0Z"/>
      </g>
      <g>
        <rect class="cls-2" x="224.78" y="227.44" width="12.41" height="12.41"/>
        <path class="cls-1" d="M236.51,228.12v11.05h-11.05v-11.05h11.05M237.87,226.76h-13.77v13.77h13.77v-13.77h0Z"/>
      </g>
      <g>
        <rect class="cls-2" x="224.89" y="247.07" width="12.41" height="12.41"/>
        <path class="cls-1" d="M236.63,247.75v11.05h-11.05v-11.05h11.05M237.99,246.39h-13.77v13.77h13.77v-13.77h0Z"/>
      </g>
      <g>
        <rect class="cls-2" x="146.71" y="266.7" width="12.41" height="12.41"/>
        <path class="cls-1" d="M158.45,267.38v11.05h-11.05v-11.05h11.05M159.81,266.02h-13.77v13.77h13.77v-13.77h0Z"/>
      </g>
      <g>
        <rect class="cls-2" x="166.23" y="266.7" width="12.41" height="12.41"/>
        <path class="cls-1" d="M177.96,267.38v11.05h-11.05v-11.05h11.05M179.32,266.02h-13.77v13.77h13.77v-13.77h0Z"/>
      </g>
      <g>
        <rect class="cls-2" x="185.74" y="266.7" width="12.41" height="12.41"/>
        <path class="cls-1" d="M197.48,267.38v11.05h-11.05v-11.05h11.05M198.84,266.02h-13.77v13.77h13.77v-13.77h0Z"/>
      </g>
      <g>
        <rect class="cls-2" x="205.26" y="266.7" width="12.41" height="12.41"/>
        <path class="cls-1" d="M216.99,267.38v11.05h-11.05v-11.05h11.05M218.35,266.02h-13.77v13.77h13.77v-13.77h0Z"/>
      </g>
      <g>
        <rect class="cls-2" x="224.78" y="266.7" width="12.41" height="12.41"/>
        <path class="cls-1" d="M236.51,267.38v11.05h-11.05v-11.05h11.05M237.87,266.02h-13.77v13.77h13.77v-13.77h0Z"/>
      </g>
    </g>
  </g>
</svg>