<?xml version="1.0" encoding="UTF-8"?>
<svg id="Layer_2" xmlns="http://www.w3.org/2000/svg" viewBox="0 0 623.62 368.5">
  <defs>
    <style>
      .cls-1 {
        fill: #231f20;
      }

      .cls-2 {
        fill: #fff;
      }
    </style>
  </defs>
  <g id="Layer_1-2" data-name="Layer_1">
    <rect class="cls-2" x="0" y="0" width="623.62" height="368.5" transform="translate(623.62 368.5) rotate(-180)"/>
    <g>
      <g>
        <rect class="cls-2" x="283.5" y="84.8" width="7.76" height="7.76"/>
        <path class="cls-1" d="M290.83,85.23v6.91h-6.91v-6.91h6.91M291.69,84.38h-8.61v8.61h8.61v-8.61h0Z"/>
      </g>
      <g>
        <rect class="cls-2" x="283.57" y="97.07" width="7.76" height="7.76"/>
        <path class="cls-1" d="M290.91,97.5v6.91h-6.91v-6.91h6.91M291.76,96.65h-8.61v8.61h8.61v-8.61h0Z"/>
      </g>
      <g>
        <rect class="cls-2" x="295.7" y="84.8" width="7.76" height="7.76"/>
        <path class="cls-1" d="M303.03,85.23v6.91h-6.91v-6.91h6.91M303.88,84.38h-8.61v8.61h8.61v-8.61h0Z"/>
      </g>
      <g>
        <rect class="cls-2" x="295.77" y="97.07" width="7.76" height="7.76"/>
        <path class="cls-1" d="M303.1,97.5v6.91h-6.91v-6.91h6.91M303.96,96.65h-8.61v8.61h8.61v-8.61h0Z"/>
      </g>
      <g>
        <rect class="cls-2" x="307.89" y="84.8" width="7.76" height="7.76"/>
        <path class="cls-1" d="M315.23,85.23v6.91h-6.91v-6.91h6.91M316.08,84.38h-8.61v8.61h8.61v-8.61h0Z"/>
      </g>
      <g>
        <rect class="cls-2" x="320.09" y="84.8" width="7.76" height="7.76"/>
        <path class="cls-1" d="M327.43,85.23v6.91h-6.91v-6.91h6.91M328.28,84.38h-8.61v8.61h8.61v-8.61h0Z"/>
      </g>
      <g>
        <rect class="cls-2" x="320.17" y="97.07" width="7.76" height="7.76"/>
        <path class="cls-1" d="M327.5,97.5v6.91h-6.91v-6.91h6.91M328.35,96.65h-8.61v8.61h8.61v-8.61h0Z"/>
      </g>
      <g>
        <rect class="cls-2" x="307.97" y="97.07" width="7.76" height="7.76"/>
        <path class="cls-1" d="M315.3,97.5v6.91h-6.91v-6.91h6.91M316.15,96.65h-8.61v8.61h8.61v-8.61h0Z"/>
      </g>
      <g>
        <rect class="cls-2" x="332.29" y="84.8" width="7.76" height="7.76"/>
        <path class="cls-1" d="M339.62,85.23v6.91h-6.91v-6.91h6.91M340.47,84.38h-8.61v8.61h8.61v-8.61h0Z"/>
      </g>
      <g>
        <rect class="cls-2" x="332.36" y="97.07" width="7.76" height="7.76"/>
        <path class="cls-1" d="M339.7,97.5v6.91h-6.91v-6.91h6.91M340.55,96.65h-8.61v8.61h8.61v-8.61h0Z"/>
      </g>
      <g>
        <rect class="cls-2" x="283.5" y="109.34" width="7.76" height="7.76"/>
        <path class="cls-1" d="M290.83,109.77v6.91h-6.91v-6.91h6.91M291.69,108.92h-8.61v8.61h8.61v-8.61h0Z"/>
      </g>
      <g>
        <rect class="cls-2" x="283.57" y="121.62" width="7.76" height="7.76"/>
        <path class="cls-1" d="M290.91,122.04v6.91h-6.91v-6.91h6.91M291.76,121.19h-8.61v8.61h8.61v-8.61h0Z"/>
      </g>
      <g>
        <rect class="cls-2" x="295.7" y="109.34" width="7.76" height="7.76"/>
        <path class="cls-1" d="M303.03,109.77v6.91h-6.91v-6.91h6.91M303.88,108.92h-8.61v8.61h8.61v-8.61h0Z"/>
      </g>
      <g>
        <rect class="cls-2" x="295.77" y="121.62" width="7.76" height="7.76"/>
        <path class="cls-1" d="M303.1,122.04v6.91h-6.91v-6.91h6.91M303.96,121.19h-8.61v8.61h8.61v-8.61h0Z"/>
      </g>
      <g>
        <rect class="cls-2" x="307.89" y="109.34" width="7.76" height="7.76"/>
        <path class="cls-1" d="M315.23,109.77v6.91h-6.91v-6.91h6.91M316.08,108.92h-8.61v8.61h8.61v-8.61h0Z"/>
      </g>
      <g>
        <rect class="cls-2" x="320.09" y="109.34" width="7.76" height="7.76"/>
        <path class="cls-1" d="M327.43,109.77v6.91h-6.91v-6.91h6.91M328.28,108.92h-8.61v8.61h8.61v-8.61h0Z"/>
      </g>
      <g>
        <rect class="cls-2" x="320.17" y="121.62" width="7.76" height="7.76"/>
        <path class="cls-1" d="M327.5,122.04v6.91h-6.91v-6.91h6.91M328.35,121.19h-8.61v8.61h8.61v-8.61h0Z"/>
      </g>
      <g>
        <rect class="cls-2" x="307.97" y="121.62" width="7.76" height="7.76"/>
        <path class="cls-1" d="M315.3,122.04v6.91h-6.91v-6.91h6.91M316.15,121.19h-8.61v8.61h8.61v-8.61h0Z"/>
      </g>
      <g>
        <rect class="cls-2" x="332.29" y="109.34" width="7.76" height="7.76"/>
        <path class="cls-1" d="M339.62,109.77v6.91h-6.91v-6.91h6.91M340.47,108.92h-8.61v8.61h8.61v-8.61h0Z"/>
      </g>
      <g>
        <rect class="cls-2" x="332.36" y="121.62" width="7.76" height="7.76"/>
        <path class="cls-1" d="M339.7,122.04v6.91h-6.91v-6.91h6.91M340.55,121.19h-8.61v8.61h8.61v-8.61h0Z"/>
      </g>
      <g>
        <rect class="cls-2" x="283.5" y="133.88" width="7.76" height="7.76"/>
        <path class="cls-1" d="M290.83,134.31v6.91h-6.91v-6.91h6.91M291.69,133.46h-8.61v8.61h8.61v-8.61h0Z"/>
      </g>
      <g>
        <rect class="cls-2" x="295.7" y="133.88" width="7.76" height="7.76"/>
        <path class="cls-1" d="M303.03,134.31v6.91h-6.91v-6.91h6.91M303.88,133.46h-8.61v8.61h8.61v-8.61h0Z"/>
      </g>
      <g>
        <rect class="cls-2" x="307.89" y="133.88" width="7.76" height="7.76"/>
        <path class="cls-1" d="M315.23,134.31v6.91h-6.91v-6.91h6.91M316.08,133.46h-8.61v8.61h8.61v-8.61h0Z"/>
      </g>
      <g>
        <rect class="cls-2" x="320.09" y="133.88" width="7.76" height="7.76"/>
        <path class="cls-1" d="M327.43,134.31v6.91h-6.91v-6.91h6.91M328.28,133.46h-8.61v8.61h8.61v-8.61h0Z"/>
      </g>
      <g>
        <rect class="cls-2" x="332.29" y="133.88" width="7.76" height="7.76"/>
        <path class="cls-1" d="M339.62,134.31v6.91h-6.91v-6.91h6.91M340.47,133.46h-8.61v8.61h8.61v-8.61h0Z"/>
      </g>
    </g>
    <g>
      <g>
        <rect class="cls-2" x="386.04" y="187.79" width="7.76" height="7.76"/>
        <path class="cls-1" d="M393.37,188.22v6.91h-6.91v-6.91h6.91M394.22,187.37h-8.61v8.61h8.61v-8.61h0Z"/>
      </g>
      <g>
        <rect class="cls-2" x="386.11" y="200.06" width="7.76" height="7.76"/>
        <path class="cls-1" d="M393.45,200.49v6.91h-6.91v-6.91h6.91M394.3,199.64h-8.61v8.61h8.61v-8.61h0Z"/>
      </g>
      <g>
        <rect class="cls-2" x="398.24" y="187.79" width="7.76" height="7.76"/>
        <path class="cls-1" d="M405.57,188.22v6.91h-6.91v-6.91h6.91M406.42,187.37h-8.61v8.61h8.61v-8.61h0Z"/>
      </g>
      <g>
        <rect class="cls-2" x="410.43" y="187.79" width="7.76" height="7.76"/>
        <path class="cls-1" d="M417.77,188.22v6.91h-6.91v-6.91h6.91M418.62,187.37h-8.61v8.61h8.61v-8.61h0Z"/>
      </g>
      <g>
        <rect class="cls-2" x="410.51" y="200.06" width="7.76" height="7.76"/>
        <path class="cls-1" d="M417.84,200.49v6.91h-6.91v-6.91h6.91M418.69,199.64h-8.61v8.61h8.61v-8.61h0Z"/>
      </g>
      <g>
        <rect class="cls-2" x="398.31" y="200.06" width="7.76" height="7.76"/>
        <path class="cls-1" d="M405.64,200.49v6.91h-6.91v-6.91h6.91M406.49,199.64h-8.61v8.61h8.61v-8.61h0Z"/>
      </g>
      <g>
        <rect class="cls-2" x="422.63" y="187.79" width="7.76" height="7.76"/>
        <path class="cls-1" d="M429.96,188.22v6.91h-6.91v-6.91h6.91M430.81,187.37h-8.61v8.61h8.61v-8.61h0Z"/>
      </g>
      <g>
        <rect class="cls-2" x="422.7" y="200.06" width="7.76" height="7.76"/>
        <path class="cls-1" d="M430.04,200.49v6.91h-6.91v-6.91h6.91M430.89,199.64h-8.61v8.61h8.61v-8.61h0Z"/>
      </g>
      <g>
        <rect class="cls-2" x="386.04" y="212.33" width="7.76" height="7.76"/>
        <path class="cls-1" d="M393.37,212.76v6.91h-6.91v-6.91h6.91M394.22,211.91h-8.61v8.61h8.61v-8.61h0Z"/>
      </g>
      <g>
        <rect class="cls-2" x="386.11" y="224.6" width="7.76" height="7.76"/>
        <path class="cls-1" d="M393.45,225.03v6.91h-6.91v-6.91h6.91M394.3,224.18h-8.61v8.61h8.61v-8.61h0Z"/>
      </g>
      <g>
        <rect class="cls-2" x="398.24" y="212.33" width="7.76" height="7.76"/>
        <path class="cls-1" d="M405.57,212.76v6.91h-6.91v-6.91h6.91M406.42,211.91h-8.61v8.61h8.61v-8.61h0Z"/>
      </g>
      <g>
        <rect class="cls-2" x="410.43" y="212.33" width="7.76" height="7.76"/>
        <path class="cls-1" d="M417.77,212.76v6.91h-6.91v-6.91h6.91M418.62,211.91h-8.61v8.61h8.61v-8.61h0Z"/>
      </g>
      <g>
        <rect class="cls-2" x="410.51" y="224.6" width="7.76" height="7.76"/>
        <path class="cls-1" d="M417.84,225.03v6.91h-6.91v-6.91h6.91M418.69,224.18h-8.61v8.61h8.61v-8.61h0Z"/>
      </g>
      <g>
        <rect class="cls-2" x="398.31" y="224.6" width="7.76" height="7.76"/>
        <path class="cls-1" d="M405.64,225.03v6.91h-6.91v-6.91h6.91M406.49,224.18h-8.61v8.61h8.61v-8.61h0Z"/>
      </g>
      <g>
        <rect class="cls-2" x="422.63" y="212.33" width="7.76" height="7.76"/>
        <path class="cls-1" d="M429.96,212.76v6.91h-6.91v-6.91h6.91M430.81,211.91h-8.61v8.61h8.61v-8.61h0Z"/>
      </g>
      <g>
        <rect class="cls-2" x="422.7" y="224.6" width="7.76" height="7.76"/>
        <path class="cls-1" d="M430.04,225.03v6.91h-6.91v-6.91h6.91M430.89,224.18h-8.61v8.61h8.61v-8.61h0Z"/>
      </g>
      <g>
        <rect class="cls-2" x="386.04" y="236.87" width="7.76" height="7.76"/>
        <path class="cls-1" d="M393.37,237.3v6.91h-6.91v-6.91h6.91M394.22,236.45h-8.61v8.61h8.61v-8.61h0Z"/>
      </g>
      <g>
        <rect class="cls-2" x="386.11" y="249.14" width="7.76" height="7.76"/>
        <path class="cls-1" d="M393.45,249.57v6.91h-6.91v-6.91h6.91M394.3,248.72h-8.61v8.61h8.61v-8.61h0Z"/>
      </g>
      <g>
        <rect class="cls-2" x="398.24" y="236.87" width="7.76" height="7.76"/>
        <path class="cls-1" d="M405.57,237.3v6.91h-6.91v-6.91h6.91M406.42,236.45h-8.61v8.61h8.61v-8.61h0Z"/>
      </g>
      <g>
        <rect class="cls-2" x="410.43" y="236.87" width="7.76" height="7.76"/>
        <path class="cls-1" d="M417.77,237.3v6.91h-6.91v-6.91h6.91M418.62,236.45h-8.61v8.61h8.61v-8.61h0Z"/>
      </g>
      <g>
        <rect class="cls-2" x="410.51" y="249.14" width="7.76" height="7.76"/>
        <path class="cls-1" d="M417.84,249.57v6.91h-6.91v-6.91h6.91M418.69,248.72h-8.61v8.61h8.61v-8.61h0Z"/>
      </g>
      <g>
        <rect class="cls-2" x="398.31" y="249.14" width="7.76" height="7.76"/>
        <path class="cls-1" d="M405.64,249.57v6.91h-6.91v-6.91h6.91M406.49,248.72h-8.61v8.61h8.61v-8.61h0Z"/>
      </g>
      <g>
        <rect class="cls-2" x="422.63" y="236.87" width="7.76" height="7.76"/>
        <path class="cls-1" d="M429.96,237.3v6.91h-6.91v-6.91h6.91M430.81,236.45h-8.61v8.61h8.61v-8.61h0Z"/>
      </g>
      <g>
        <rect class="cls-2" x="422.7" y="249.14" width="7.76" height="7.76"/>
        <path class="cls-1" d="M430.04,249.57v6.91h-6.91v-6.91h6.91M430.89,248.72h-8.61v8.61h8.61v-8.61h0Z"/>
      </g>
      <g>
        <rect class="cls-2" x="386.04" y="261.42" width="7.76" height="7.76"/>
        <path class="cls-1" d="M393.37,261.84v6.91h-6.91v-6.91h6.91M394.22,260.99h-8.61v8.61h8.61v-8.61h0Z"/>
      </g>
      <g>
        <rect class="cls-2" x="386.11" y="273.69" width="7.76" height="7.76"/>
        <path class="cls-1" d="M393.45,274.11v6.91h-6.91v-6.91h6.91M394.3,273.26h-8.61v8.61h8.61v-8.61h0Z"/>
      </g>
      <g>
        <rect class="cls-2" x="398.24" y="261.42" width="7.76" height="7.76"/>
        <path class="cls-1" d="M405.57,261.84v6.91h-6.91v-6.91h6.91M406.42,260.99h-8.61v8.61h8.61v-8.61h0Z"/>
      </g>
      <g>
        <rect class="cls-2" x="410.43" y="261.42" width="7.76" height="7.76"/>
        <path class="cls-1" d="M417.77,261.84v6.91h-6.91v-6.91h6.91M418.62,260.99h-8.61v8.61h8.61v-8.61h0Z"/>
      </g>
      <g>
        <rect class="cls-2" x="410.51" y="273.69" width="7.76" height="7.76"/>
        <path class="cls-1" d="M417.84,274.11v6.91h-6.91v-6.91h6.91M418.69,273.26h-8.61v8.61h8.61v-8.61h0Z"/>
      </g>
      <g>
        <rect class="cls-2" x="398.31" y="273.69" width="7.76" height="7.76"/>
        <path class="cls-1" d="M405.64,274.11v6.91h-6.91v-6.91h6.91M406.49,273.26h-8.61v8.61h8.61v-8.61h0Z"/>
      </g>
      <g>
        <rect class="cls-2" x="422.63" y="261.42" width="7.76" height="7.76"/>
        <path class="cls-1" d="M429.96,261.84v6.91h-6.91v-6.91h6.91M430.81,260.99h-8.61v8.61h8.61v-8.61h0Z"/>
      </g>
      <g>
        <rect class="cls-2" x="422.7" y="273.69" width="7.76" height="7.76"/>
        <path class="cls-1" d="M430.04,274.11v6.91h-6.91v-6.91h6.91M430.89,273.26h-8.61v8.61h8.61v-8.61h0Z"/>
      </g>
      <g>
        <rect class="cls-2" x="434.91" y="187.79" width="7.76" height="7.76"/>
        <path class="cls-1" d="M442.25,188.22v6.91h-6.91v-6.91h6.91M443.1,187.37h-8.61v8.61h8.61v-8.61h0Z"/>
      </g>
      <g>
        <rect class="cls-2" x="447.11" y="187.79" width="7.76" height="7.76"/>
        <path class="cls-1" d="M454.44,188.22v6.91h-6.91v-6.91h6.91M455.29,187.37h-8.61v8.61h8.61v-8.61h0Z"/>
      </g>
      <g>
        <rect class="cls-2" x="447.18" y="200.06" width="7.76" height="7.76"/>
        <path class="cls-1" d="M454.52,200.49v6.91h-6.91v-6.91h6.91M455.37,199.64h-8.61v8.61h8.61v-8.61h0Z"/>
      </g>
      <g>
        <rect class="cls-2" x="434.91" y="200.06" width="7.76" height="7.76"/>
        <path class="cls-1" d="M442.25,200.49v6.91h-6.91v-6.91h6.91M443.1,199.64h-8.61v8.61h8.61v-8.61h0Z"/>
      </g>
      <g>
        <rect class="cls-2" x="459.31" y="187.79" width="7.76" height="7.76"/>
        <path class="cls-1" d="M466.64,188.22v6.91h-6.91v-6.91h6.91M467.49,187.37h-8.61v8.61h8.61v-8.61h0Z"/>
      </g>
      <g>
        <rect class="cls-2" x="459.38" y="200.06" width="7.76" height="7.76"/>
        <path class="cls-1" d="M466.71,200.49v6.91h-6.91v-6.91h6.91M467.56,199.64h-8.61v8.61h8.61v-8.61h0Z"/>
      </g>
      <g>
        <rect class="cls-2" x="471.5" y="187.79" width="7.76" height="7.76"/>
        <path class="cls-1" d="M478.84,188.22v6.91h-6.91v-6.91h6.91M479.69,187.37h-8.61v8.61h8.61v-8.61h0Z"/>
      </g>
      <g>
        <rect class="cls-2" x="471.58" y="200.06" width="7.76" height="7.76"/>
        <path class="cls-1" d="M478.91,200.49v6.91h-6.91v-6.91h6.91M479.76,199.64h-8.61v8.61h8.61v-8.61h0Z"/>
      </g>
      <g>
        <rect class="cls-2" x="434.91" y="212.33" width="7.76" height="7.76"/>
        <path class="cls-1" d="M442.25,212.76v6.91h-6.91v-6.91h6.91M443.1,211.91h-8.61v8.61h8.61v-8.61h0Z"/>
      </g>
      <g>
        <rect class="cls-2" x="447.11" y="212.33" width="7.76" height="7.76"/>
        <path class="cls-1" d="M454.44,212.76v6.91h-6.91v-6.91h6.91M455.29,211.91h-8.61v8.61h8.61v-8.61h0Z"/>
      </g>
      <g>
        <rect class="cls-2" x="447.18" y="224.6" width="7.76" height="7.76"/>
        <path class="cls-1" d="M454.52,225.03v6.91h-6.91v-6.91h6.91M455.37,224.18h-8.61v8.61h8.61v-8.61h0Z"/>
      </g>
      <g>
        <rect class="cls-2" x="434.91" y="224.6" width="7.76" height="7.76"/>
        <path class="cls-1" d="M442.25,225.03v6.91h-6.91v-6.91h6.91M443.1,224.18h-8.61v8.61h8.61v-8.61h0Z"/>
      </g>
      <g>
        <rect class="cls-2" x="459.31" y="212.33" width="7.76" height="7.76"/>
        <path class="cls-1" d="M466.64,212.76v6.91h-6.91v-6.91h6.91M467.49,211.91h-8.61v8.61h8.61v-8.61h0Z"/>
      </g>
      <g>
        <rect class="cls-2" x="459.38" y="224.6" width="7.76" height="7.76"/>
        <path class="cls-1" d="M466.71,225.03v6.91h-6.91v-6.91h6.91M467.56,224.18h-8.61v8.61h8.61v-8.61h0Z"/>
      </g>
      <g>
        <rect class="cls-2" x="471.5" y="212.33" width="7.76" height="7.76"/>
        <path class="cls-1" d="M478.84,212.76v6.91h-6.91v-6.91h6.91M479.69,211.91h-8.61v8.61h8.61v-8.61h0Z"/>
      </g>
      <g>
        <rect class="cls-2" x="471.58" y="224.6" width="7.76" height="7.76"/>
        <path class="cls-1" d="M478.91,225.03v6.91h-6.91v-6.91h6.91M479.76,224.18h-8.61v8.61h8.61v-8.61h0Z"/>
      </g>
      <g>
        <rect class="cls-2" x="434.91" y="236.87" width="7.76" height="7.76"/>
        <path class="cls-1" d="M442.25,237.3v6.91h-6.91v-6.91h6.91M443.1,236.45h-8.61v8.61h8.61v-8.61h0Z"/>
      </g>
      <g>
        <rect class="cls-2" x="447.11" y="236.87" width="7.76" height="7.76"/>
        <path class="cls-1" d="M454.44,237.3v6.91h-6.91v-6.91h6.91M455.29,236.45h-8.61v8.61h8.61v-8.61h0Z"/>
      </g>
      <g>
        <rect class="cls-2" x="447.18" y="249.14" width="7.76" height="7.76"/>
        <path class="cls-1" d="M454.52,249.57v6.91h-6.91v-6.91h6.91M455.37,248.72h-8.61v8.61h8.61v-8.61h0Z"/>
      </g>
      <g>
        <rect class="cls-2" x="434.91" y="249.14" width="7.76" height="7.76"/>
        <path class="cls-1" d="M442.25,249.57v6.91h-6.91v-6.91h6.91M443.1,248.72h-8.61v8.61h8.61v-8.61h0Z"/>
      </g>
      <g>
        <rect class="cls-2" x="459.31" y="236.87" width="7.76" height="7.76"/>
        <path class="cls-1" d="M466.64,237.3v6.91h-6.91v-6.91h6.91M467.49,236.45h-8.61v8.61h8.61v-8.61h0Z"/>
      </g>
      <g>
        <rect class="cls-2" x="459.38" y="249.14" width="7.76" height="7.76"/>
        <path class="cls-1" d="M466.71,249.57v6.91h-6.91v-6.91h6.91M467.56,248.72h-8.61v8.61h8.61v-8.61h0Z"/>
      </g>
      <g>
        <rect class="cls-2" x="471.5" y="236.87" width="7.76" height="7.76"/>
        <path class="cls-1" d="M478.84,237.3v6.91h-6.91v-6.91h6.91M479.69,236.45h-8.61v8.61h8.61v-8.61h0Z"/>
      </g>
      <g>
        <rect class="cls-2" x="471.58" y="249.14" width="7.76" height="7.76"/>
        <path class="cls-1" d="M478.91,249.57v6.91h-6.91v-6.91h6.91M479.76,248.72h-8.61v8.61h8.61v-8.61h0Z"/>
      </g>
      <g>
        <rect class="cls-2" x="434.91" y="261.42" width="7.76" height="7.76"/>
        <path class="cls-1" d="M442.25,261.84v6.91h-6.91v-6.91h6.91M443.1,260.99h-8.61v8.61h8.61v-8.61h0Z"/>
      </g>
      <g>
        <rect class="cls-2" x="447.11" y="261.42" width="7.76" height="7.76"/>
        <path class="cls-1" d="M454.44,261.84v6.91h-6.91v-6.91h6.91M455.29,260.99h-8.61v8.61h8.61v-8.61h0Z"/>
      </g>
      <g>
        <rect class="cls-2" x="447.18" y="273.69" width="7.76" height="7.76"/>
        <path class="cls-1" d="M454.52,274.11v6.91h-6.91v-6.91h6.91M455.37,273.26h-8.61v8.61h8.61v-8.61h0Z"/>
      </g>
      <g>
        <rect class="cls-2" x="434.91" y="273.69" width="7.76" height="7.76"/>
        <path class="cls-1" d="M442.25,274.11v6.91h-6.91v-6.91h6.91M443.1,273.26h-8.61v8.61h8.61v-8.61h0Z"/>
      </g>
      <g>
        <rect class="cls-2" x="459.31" y="261.42" width="7.76" height="7.76"/>
        <path class="cls-1" d="M466.64,261.84v6.91h-6.91v-6.91h6.91M467.49,260.99h-8.61v8.61h8.61v-8.61h0Z"/>
      </g>
      <g>
        <rect class="cls-2" x="459.38" y="273.69" width="7.76" height="7.76"/>
        <path class="cls-1" d="M466.71,274.11v6.91h-6.91v-6.91h6.91M467.56,273.26h-8.61v8.61h8.61v-8.61h0Z"/>
      </g>
      <g>
        <rect class="cls-2" x="471.5" y="261.42" width="7.76" height="7.76"/>
        <path class="cls-1" d="M478.84,261.84v6.91h-6.91v-6.91h6.91M479.69,260.99h-8.61v8.61h8.61v-8.61h0Z"/>
      </g>
      <g>
        <rect class="cls-2" x="471.58" y="273.69" width="7.76" height="7.76"/>
        <path class="cls-1" d="M478.91,274.11v6.91h-6.91v-6.91h6.91M479.76,273.26h-8.61v8.61h8.61v-8.61h0Z"/>
      </g>
    </g>
    <g>
      <rect class="cls-2" x="146.29" y="187.91" width="12.93" height="12.93"/>
      <path class="cls-1" d="M158.79,188.34v12.07h-12.07v-12.07h12.07M159.64,187.49h-13.77v13.77h13.77v-13.77h0Z"/>
    </g>
    <g>
      <rect class="cls-2" x="146.4" y="207.55" width="12.93" height="12.92"/>
      <path class="cls-1" d="M158.9,207.97v12.07h-12.07v-12.07h12.07M159.76,207.12h-13.77v13.77h13.77v-13.77h0Z"/>
    </g>
    <g>
      <rect class="cls-2" x="165.8" y="187.91" width="12.92" height="12.93"/>
      <path class="cls-1" d="M178.3,188.34v12.07h-12.07v-12.07h12.07M179.15,187.49h-13.77v13.77h13.77v-13.77h0Z"/>
    </g>
    <g>
      <rect class="cls-2" x="165.92" y="207.55" width="12.92" height="12.92"/>
      <path class="cls-1" d="M178.42,207.97v12.07h-12.07v-12.07h12.07M179.27,207.12h-13.77v13.77h13.77v-13.77h0Z"/>
    </g>
    <g>
      <rect class="cls-2" x="185.32" y="187.91" width="12.92" height="12.93"/>
      <path class="cls-1" d="M197.82,188.34v12.07h-12.07v-12.07h12.07M198.67,187.49h-13.77v13.77h13.77v-13.77h0Z"/>
    </g>
    <g>
      <rect class="cls-2" x="204.84" y="187.91" width="12.93" height="12.93"/>
      <path class="cls-1" d="M217.34,188.34v12.07h-12.07v-12.07h12.07M218.19,187.49h-13.77v13.77h13.77v-13.77h0Z"/>
    </g>
    <g>
      <rect class="cls-2" x="204.95" y="207.55" width="12.93" height="12.92"/>
      <path class="cls-1" d="M217.45,207.97v12.07h-12.07v-12.07h12.07M218.3,207.12h-13.77v13.77h13.77v-13.77h0Z"/>
    </g>
    <g>
      <rect class="cls-2" x="185.44" y="207.55" width="12.92" height="12.92"/>
      <path class="cls-1" d="M197.94,207.97v12.07h-12.07v-12.07h12.07M198.79,207.12h-13.77v13.77h13.77v-13.77h0Z"/>
    </g>
    <g>
      <rect class="cls-2" x="224.35" y="187.91" width="12.93" height="12.93"/>
      <path class="cls-1" d="M236.85,188.34v12.07h-12.07v-12.07h12.07M237.7,187.49h-13.77v13.77h13.77v-13.77h0Z"/>
    </g>
    <g>
      <rect class="cls-2" x="224.47" y="207.55" width="12.92" height="12.92"/>
      <path class="cls-1" d="M236.97,207.97v12.07h-12.07v-12.07h12.07M237.82,207.12h-13.77v13.77h13.77v-13.77h0Z"/>
    </g>
    <g>
      <rect class="cls-2" x="146.29" y="227.18" width="12.93" height="12.93"/>
      <path class="cls-1" d="M158.79,227.61v12.07h-12.07v-12.07h12.07M159.64,226.76h-13.77v13.77h13.77v-13.77h0Z"/>
    </g>
    <g>
      <rect class="cls-2" x="146.4" y="246.81" width="12.93" height="12.92"/>
      <path class="cls-1" d="M158.9,247.24v12.07h-12.07v-12.07h12.07M159.76,246.39h-13.77v13.77h13.77v-13.77h0Z"/>
    </g>
    <g>
      <rect class="cls-2" x="165.8" y="227.18" width="12.92" height="12.93"/>
      <path class="cls-1" d="M178.3,227.61v12.07h-12.07v-12.07h12.07M179.15,226.76h-13.77v13.77h13.77v-13.77h0Z"/>
    </g>
    <g>
      <rect class="cls-2" x="165.92" y="246.81" width="12.92" height="12.92"/>
      <path class="cls-1" d="M178.42,247.24v12.07h-12.07v-12.07h12.07M179.27,246.39h-13.77v13.77h13.77v-13.77h0Z"/>
    </g>
    <g>
      <rect class="cls-2" x="185.32" y="227.18" width="12.92" height="12.93"/>
      <path class="cls-1" d="M197.82,227.61v12.07h-12.07v-12.07h12.07M198.67,226.76h-13.77v13.77h13.77v-13.77h0Z"/>
    </g>
    <g>
      <rect class="cls-2" x="204.84" y="227.18" width="12.93" height="12.93"/>
      <path class="cls-1" d="M217.34,227.61v12.07h-12.07v-12.07h12.07M218.19,226.76h-13.77v13.77h13.77v-13.77h0Z"/>
    </g>
    <g>
      <rect class="cls-2" x="204.95" y="246.81" width="12.93" height="12.92"/>
      <path class="cls-1" d="M217.45,247.24v12.07h-12.07v-12.07h12.07M218.3,246.39h-13.77v13.77h13.77v-13.77h0Z"/>
    </g>
    <g>
      <rect class="cls-2" x="185.44" y="246.81" width="12.92" height="12.92"/>
      <path class="cls-1" d="M197.94,247.24v12.07h-12.07v-12.07h12.07M198.79,246.39h-13.77v13.77h13.77v-13.77h0Z"/>
    </g>
    <g>
      <rect class="cls-2" x="224.35" y="227.18" width="12.93" height="12.93"/>
      <path class="cls-1" d="M236.85,227.61v12.07h-12.07v-12.07h12.07M237.7,226.76h-13.77v13.77h13.77v-13.77h0Z"/>
    </g>
    <g>
      <rect class="cls-2" x="224.47" y="246.81" width="12.92" height="12.92"/>
      <path class="cls-1" d="M236.97,247.24v12.07h-12.07v-12.07h12.07M237.82,246.39h-13.77v13.77h13.77v-13.77h0Z"/>
    </g>
    <g>
      <rect class="cls-2" x="146.29" y="266.45" width="12.93" height="12.93"/>
      <path class="cls-1" d="M158.79,266.87v12.07h-12.07v-12.07h12.07M159.64,266.02h-13.77v13.77h13.77v-13.77h0Z"/>
    </g>
    <g>
      <rect class="cls-2" x="165.8" y="266.45" width="12.92" height="12.93"/>
      <path class="cls-1" d="M178.3,266.87v12.07h-12.07v-12.07h12.07M179.15,266.02h-13.77v13.77h13.77v-13.77h0Z"/>
    </g>
    <g>
      <rect class="cls-2" x="185.32" y="266.45" width="12.92" height="12.93"/>
      <path class="cls-1" d="M197.82,266.87v12.07h-12.07v-12.07h12.07M198.67,266.02h-13.77v13.77h13.77v-13.77h0Z"/>
    </g>
    <g>
      <rect class="cls-2" x="204.84" y="266.45" width="12.93" height="12.93"/>
      <path class="cls-1" d="M217.34,266.87v12.07h-12.07v-12.07h12.07M218.19,266.02h-13.77v13.77h13.77v-13.77h0Z"/>
    </g>
    <g>
      <rect class="cls-2" x="224.35" y="266.45" width="12.93" height="12.93"/>
      <path class="cls-1" d="M236.85,266.87v12.07h-12.07v-12.07h12.07M237.7,266.02h-13.77v13.77h13.77v-13.77h0Z"/>
    </g>
  </g>
</svg>