<?xml version="1.0" encoding="UTF-8"?>
<svg id="Layer_2" xmlns="http://www.w3.org/2000/svg" viewBox="0 0 623.62 368.5">
  <defs>
    <style>
      .cls-1 {
        fill: #231f20;
      }

      .cls-2 {
        fill: #fff;
      }
    </style>
  </defs>
  <g id="Layer_1-2" data-name="Layer_1">
    <rect class="cls-2" x="0" y="0" width="623.62" height="368.5" transform="translate(623.62 368.5) rotate(-180)"/>
    <g>
      <g>
        <rect class="cls-1" x="338.46" y="67.92" width="7.76" height="7.76"/>
        <path class="cls-1" d="M345.79,68.34v6.91h-6.91v-6.91h6.91M346.64,67.49h-8.61v8.61h8.61v-8.61h0Z"/>
      </g>
      <g>
        <rect class="cls-1" x="326.26" y="67.92" width="7.76" height="7.76"/>
        <path class="cls-1" d="M333.6,68.34v6.91h-6.91v-6.91h6.91M334.45,67.49h-8.61v8.61h8.61v-8.61h0Z"/>
      </g>
      <g>
        <rect class="cls-1" x="326.19" y="80.19" width="7.76" height="7.76"/>
        <path class="cls-1" d="M333.52,80.61v6.91h-6.91v-6.91h6.91M334.37,79.76h-8.61v8.61h8.61v-8.61h0Z"/>
      </g>
      <g>
        <rect class="cls-1" x="338.46" y="80.19" width="7.76" height="7.76"/>
        <path class="cls-1" d="M345.79,80.61v6.91h-6.91v-6.91h6.91M346.64,79.76h-8.61v8.61h8.61v-8.61h0Z"/>
      </g>
      <g>
        <rect class="cls-1" x="314.07" y="67.92" width="7.76" height="7.76"/>
        <path class="cls-1" d="M321.4,68.34v6.91h-6.91v-6.91h6.91M322.25,67.49h-8.61v8.61h8.61v-8.61h0Z"/>
      </g>
      <g>
        <rect class="cls-1" x="313.99" y="80.19" width="7.76" height="7.76"/>
        <path class="cls-1" d="M321.33,80.61v6.91h-6.91v-6.91h6.91M322.18,79.76h-8.61v8.61h8.61v-8.61h0Z"/>
      </g>
      <g>
        <rect class="cls-1" x="301.87" y="67.92" width="7.76" height="7.76"/>
        <path class="cls-1" d="M309.2,68.34v6.91h-6.91v-6.91h6.91M310.05,67.49h-8.61v8.61h8.61v-8.61h0Z"/>
      </g>
      <g>
        <rect class="cls-1" x="289.67" y="67.92" width="7.76" height="7.76"/>
        <path class="cls-1" d="M297.01,68.34v6.91h-6.91v-6.91h6.91M297.86,67.49h-8.61v8.61h8.61v-8.61h0Z"/>
      </g>
      <g>
        <rect class="cls-1" x="289.6" y="80.19" width="7.76" height="7.76"/>
        <path class="cls-1" d="M296.93,80.61v6.91h-6.91v-6.91h6.91M297.78,79.76h-8.61v8.61h8.61v-8.61h0Z"/>
      </g>
      <g>
        <rect class="cls-1" x="301.8" y="80.19" width="7.76" height="7.76"/>
        <path class="cls-1" d="M309.13,80.61v6.91h-6.91v-6.91h6.91M309.98,79.76h-8.61v8.61h8.61v-8.61h0Z"/>
      </g>
      <g>
        <rect class="cls-1" x="277.48" y="67.92" width="7.76" height="7.76"/>
        <path class="cls-1" d="M284.81,68.34v6.91h-6.91v-6.91h6.91M285.66,67.49h-8.61v8.61h8.61v-8.61h0Z"/>
      </g>
      <g>
        <rect class="cls-1" x="277.4" y="80.19" width="7.76" height="7.76"/>
        <path class="cls-1" d="M284.74,80.61v6.91h-6.91v-6.91h6.91M285.59,79.76h-8.61v8.61h8.61v-8.61h0Z"/>
      </g>
      <g>
        <g>
          <rect class="cls-1" x="338.46" y="92.46" width="7.76" height="7.76"/>
          <path class="cls-1" d="M345.79,92.88v6.91h-6.91v-6.91h6.91M346.64,92.03h-8.61v8.61h8.61v-8.61h0Z"/>
        </g>
        <g>
          <rect class="cls-1" x="326.26" y="92.46" width="7.76" height="7.76"/>
          <path class="cls-1" d="M333.6,92.88v6.91h-6.91v-6.91h6.91M334.45,92.03h-8.61v8.61h8.61v-8.61h0Z"/>
        </g>
        <g>
          <rect class="cls-1" x="326.19" y="104.73" width="7.76" height="7.76"/>
          <path class="cls-1" d="M333.52,105.15v6.91h-6.91v-6.91h6.91M334.37,104.3h-8.61v8.61h8.61v-8.61h0Z"/>
        </g>
        <g>
          <rect class="cls-1" x="338.46" y="104.73" width="7.76" height="7.76"/>
          <path class="cls-1" d="M345.79,105.15v6.91h-6.91v-6.91h6.91M346.64,104.3h-8.61v8.61h8.61v-8.61h0Z"/>
        </g>
        <g>
          <rect class="cls-1" x="314.07" y="92.46" width="7.76" height="7.76"/>
          <path class="cls-1" d="M321.4,92.88v6.91h-6.91v-6.91h6.91M322.25,92.03h-8.61v8.61h8.61v-8.61h0Z"/>
        </g>
        <g>
          <rect class="cls-1" x="313.99" y="104.73" width="7.76" height="7.76"/>
          <path class="cls-1" d="M321.33,105.15v6.91h-6.91v-6.91h6.91M322.18,104.3h-8.61v8.61h8.61v-8.61h0Z"/>
        </g>
        <g>
          <rect class="cls-1" x="301.87" y="92.46" width="7.76" height="7.76"/>
          <path class="cls-1" d="M309.2,92.88v6.91h-6.91v-6.91h6.91M310.05,92.03h-8.61v8.61h8.61v-8.61h0Z"/>
        </g>
        <g>
          <rect class="cls-1" x="289.67" y="92.46" width="7.76" height="7.76"/>
          <path class="cls-1" d="M297.01,92.88v6.91h-6.91v-6.91h6.91M297.86,92.03h-8.61v8.61h8.61v-8.61h0Z"/>
        </g>
        <g>
          <rect class="cls-1" x="289.6" y="104.73" width="7.76" height="7.76"/>
          <path class="cls-1" d="M296.93,105.15v6.91h-6.91v-6.91h6.91M297.78,104.3h-8.61v8.61h8.61v-8.61h0Z"/>
        </g>
        <g>
          <rect class="cls-1" x="301.8" y="104.73" width="7.76" height="7.76"/>
          <path class="cls-1" d="M309.13,105.15v6.91h-6.91v-6.91h6.91M309.98,104.3h-8.61v8.61h8.61v-8.61h0Z"/>
        </g>
        <g>
          <rect class="cls-1" x="277.48" y="92.46" width="7.76" height="7.76"/>
          <path class="cls-1" d="M284.81,92.88v6.91h-6.91v-6.91h6.91M285.66,92.03h-8.61v8.61h8.61v-8.61h0Z"/>
        </g>
        <g>
          <rect class="cls-1" x="277.4" y="104.73" width="7.76" height="7.76"/>
          <path class="cls-1" d="M284.74,105.15v6.91h-6.91v-6.91h6.91M285.59,104.3h-8.61v8.61h8.61v-8.61h0Z"/>
        </g>
      </g>
      <g>
        <g>
          <rect class="cls-1" x="338.46" y="117" width="7.76" height="7.76"/>
          <path class="cls-1" d="M345.79,117.42v6.91h-6.91v-6.91h6.91M346.64,116.57h-8.61v8.61h8.61v-8.61h0Z"/>
        </g>
        <g>
          <rect class="cls-1" x="326.26" y="117" width="7.76" height="7.76"/>
          <path class="cls-1" d="M333.6,117.42v6.91h-6.91v-6.91h6.91M334.45,116.57h-8.61v8.61h8.61v-8.61h0Z"/>
        </g>
        <g>
          <rect class="cls-1" x="326.19" y="129.27" width="7.76" height="7.76"/>
          <path class="cls-1" d="M333.52,129.69v6.91h-6.91v-6.91h6.91M334.37,128.84h-8.61v8.61h8.61v-8.61h0Z"/>
        </g>
        <g>
          <rect class="cls-1" x="338.46" y="129.27" width="7.76" height="7.76"/>
          <path class="cls-1" d="M345.79,129.69v6.91h-6.91v-6.91h6.91M346.64,128.84h-8.61v8.61h8.61v-8.61h0Z"/>
        </g>
        <g>
          <rect class="cls-1" x="314.07" y="117" width="7.76" height="7.76"/>
          <path class="cls-1" d="M321.4,117.42v6.91h-6.91v-6.91h6.91M322.25,116.57h-8.61v8.61h8.61v-8.61h0Z"/>
        </g>
        <g>
          <rect class="cls-1" x="313.99" y="129.27" width="7.76" height="7.76"/>
          <path class="cls-1" d="M321.33,129.69v6.91h-6.91v-6.91h6.91M322.18,128.84h-8.61v8.61h8.61v-8.61h0Z"/>
        </g>
        <g>
          <rect class="cls-1" x="301.87" y="117" width="7.76" height="7.76"/>
          <path class="cls-1" d="M309.2,117.42v6.91h-6.91v-6.91h6.91M310.05,116.57h-8.61v8.61h8.61v-8.61h0Z"/>
        </g>
        <g>
          <rect class="cls-1" x="289.67" y="117" width="7.76" height="7.76"/>
          <path class="cls-1" d="M297.01,117.42v6.91h-6.91v-6.91h6.91M297.86,116.57h-8.61v8.61h8.61v-8.61h0Z"/>
        </g>
        <g>
          <rect class="cls-1" x="289.6" y="129.27" width="7.76" height="7.76"/>
          <path class="cls-1" d="M296.93,129.69v6.91h-6.91v-6.91h6.91M297.78,128.84h-8.61v8.61h8.61v-8.61h0Z"/>
        </g>
        <g>
          <rect class="cls-1" x="301.8" y="129.27" width="7.76" height="7.76"/>
          <path class="cls-1" d="M309.13,129.69v6.91h-6.91v-6.91h6.91M309.98,128.84h-8.61v8.61h8.61v-8.61h0Z"/>
        </g>
        <g>
          <rect class="cls-1" x="277.48" y="117" width="7.76" height="7.76"/>
          <path class="cls-1" d="M284.81,117.42v6.91h-6.91v-6.91h6.91M285.66,116.57h-8.61v8.61h8.61v-8.61h0Z"/>
        </g>
        <g>
          <rect class="cls-1" x="277.4" y="129.27" width="7.76" height="7.76"/>
          <path class="cls-1" d="M284.74,129.69v6.91h-6.91v-6.91h6.91M285.59,128.84h-8.61v8.61h8.61v-8.61h0Z"/>
        </g>
      </g>
    </g>
    <g>
      <rect class="cls-1" x="490" y="182.4" width="12.92" height="12.92"/>
      <path class="cls-1" d="M502.5,182.82v12.07h-12.07v-12.07h12.07M503.35,181.97h-13.77v13.77h13.77v-13.77h0Z"/>
    </g>
    <g>
      <rect class="cls-1" x="470.49" y="182.4" width="12.92" height="12.92"/>
      <path class="cls-1" d="M482.99,182.82v12.07h-12.07v-12.07h12.07M483.84,181.97h-13.77v13.77h13.77v-13.77h0Z"/>
    </g>
    <g>
      <rect class="cls-1" x="470.37" y="202.03" width="12.92" height="12.92"/>
      <path class="cls-1" d="M482.87,202.45v12.07h-12.07v-12.07h12.07M483.72,201.6h-13.77v13.77h13.77v-13.77h0Z"/>
    </g>
    <g>
      <rect class="cls-1" x="490" y="202.03" width="12.92" height="12.92"/>
      <path class="cls-1" d="M502.5,202.45v12.07h-12.07v-12.07h12.07M503.35,201.6h-13.77v13.77h13.77v-13.77h0Z"/>
    </g>
    <g>
      <rect class="cls-1" x="450.97" y="182.4" width="12.92" height="12.92"/>
      <path class="cls-1" d="M463.47,182.82v12.07h-12.07v-12.07h12.07M464.32,181.97h-13.77v13.77h13.77v-13.77h0Z"/>
    </g>
    <g>
      <rect class="cls-1" x="450.85" y="202.03" width="12.92" height="12.92"/>
      <path class="cls-1" d="M463.35,202.45v12.07h-12.07v-12.07h12.07M464.2,201.6h-13.77v13.77h13.77v-13.77h0Z"/>
    </g>
    <g>
      <rect class="cls-1" x="431.46" y="182.4" width="12.92" height="12.92"/>
      <path class="cls-1" d="M443.96,182.82v12.07h-12.07v-12.07h12.07M444.81,181.97h-13.77v13.77h13.77v-13.77h0Z"/>
    </g>
    <g>
      <rect class="cls-1" x="411.94" y="182.4" width="12.92" height="12.92"/>
      <path class="cls-1" d="M424.44,182.82v12.07h-12.07v-12.07h12.07M425.29,181.97h-13.77v13.77h13.77v-13.77h0Z"/>
    </g>
    <g>
      <rect class="cls-1" x="411.82" y="202.03" width="12.92" height="12.92"/>
      <path class="cls-1" d="M424.32,202.45v12.07h-12.07v-12.07h12.07M425.17,201.6h-13.77v13.77h13.77v-13.77h0Z"/>
    </g>
    <g>
      <rect class="cls-1" x="431.34" y="202.03" width="12.92" height="12.92"/>
      <path class="cls-1" d="M443.84,202.45v12.07h-12.07v-12.07h12.07M444.69,201.6h-13.77v13.77h13.77v-13.77h0Z"/>
    </g>
    <g>
      <rect class="cls-1" x="392.43" y="182.4" width="12.92" height="12.92"/>
      <path class="cls-1" d="M404.93,182.82v12.07h-12.07v-12.07h12.07M405.78,181.97h-13.77v13.77h13.77v-13.77h0Z"/>
    </g>
    <g>
      <rect class="cls-1" x="392.31" y="202.03" width="12.92" height="12.92"/>
      <path class="cls-1" d="M404.81,202.45v12.07h-12.07v-12.07h12.07M405.66,201.6h-13.77v13.77h13.77v-13.77h0Z"/>
    </g>
    <g>
      <g>
        <rect class="cls-1" x="490" y="221.66" width="12.92" height="12.92"/>
        <path class="cls-1" d="M502.5,222.09v12.07h-12.07v-12.07h12.07M503.35,221.24h-13.77v13.77h13.77v-13.77h0Z"/>
      </g>
      <g>
        <rect class="cls-1" x="470.49" y="221.66" width="12.92" height="12.92"/>
        <path class="cls-1" d="M482.99,222.09v12.07h-12.07v-12.07h12.07M483.84,221.24h-13.77v13.77h13.77v-13.77h0Z"/>
      </g>
      <g>
        <rect class="cls-1" x="470.37" y="241.29" width="12.92" height="12.92"/>
        <path class="cls-1" d="M482.87,241.72v12.07h-12.07v-12.07h12.07M483.72,240.87h-13.77v13.77h13.77v-13.77h0Z"/>
      </g>
      <g>
        <rect class="cls-1" x="490" y="241.29" width="12.92" height="12.92"/>
        <path class="cls-1" d="M502.5,241.72v12.07h-12.07v-12.07h12.07M503.35,240.87h-13.77v13.77h13.77v-13.77h0Z"/>
      </g>
      <g>
        <rect class="cls-1" x="450.97" y="221.66" width="12.92" height="12.92"/>
        <path class="cls-1" d="M463.47,222.09v12.07h-12.07v-12.07h12.07M464.32,221.24h-13.77v13.77h13.77v-13.77h0Z"/>
      </g>
      <g>
        <rect class="cls-1" x="450.85" y="241.29" width="12.92" height="12.92"/>
        <path class="cls-1" d="M463.35,241.72v12.07h-12.07v-12.07h12.07M464.2,240.87h-13.77v13.77h13.77v-13.77h0Z"/>
      </g>
      <g>
        <rect class="cls-1" x="431.46" y="221.66" width="12.92" height="12.92"/>
        <path class="cls-1" d="M443.96,222.09v12.07h-12.07v-12.07h12.07M444.81,221.24h-13.77v13.77h13.77v-13.77h0Z"/>
      </g>
      <g>
        <rect class="cls-1" x="411.94" y="221.66" width="12.92" height="12.92"/>
        <path class="cls-1" d="M424.44,222.09v12.07h-12.07v-12.07h12.07M425.29,221.24h-13.77v13.77h13.77v-13.77h0Z"/>
      </g>
      <g>
        <rect class="cls-1" x="411.82" y="241.29" width="12.92" height="12.92"/>
        <path class="cls-1" d="M424.32,241.72v12.07h-12.07v-12.07h12.07M425.17,240.87h-13.77v13.77h13.77v-13.77h0Z"/>
      </g>
      <g>
        <rect class="cls-1" x="431.34" y="241.29" width="12.92" height="12.92"/>
        <path class="cls-1" d="M443.84,241.72v12.07h-12.07v-12.07h12.07M444.69,240.87h-13.77v13.77h13.77v-13.77h0Z"/>
      </g>
      <g>
        <rect class="cls-1" x="392.43" y="221.66" width="12.92" height="12.92"/>
        <path class="cls-1" d="M404.93,222.09v12.07h-12.07v-12.07h12.07M405.78,221.24h-13.77v13.77h13.77v-13.77h0Z"/>
      </g>
      <g>
        <rect class="cls-1" x="392.31" y="241.29" width="12.92" height="12.92"/>
        <path class="cls-1" d="M404.81,241.72v12.07h-12.07v-12.07h12.07M405.66,240.87h-13.77v13.77h13.77v-13.77h0Z"/>
      </g>
    </g>
    <g>
      <g>
        <rect class="cls-1" x="490" y="260.93" width="12.92" height="12.92"/>
        <path class="cls-1" d="M502.5,261.35v12.07h-12.07v-12.07h12.07M503.35,260.5h-13.77v13.77h13.77v-13.77h0Z"/>
      </g>
      <g>
        <rect class="cls-1" x="470.49" y="260.93" width="12.92" height="12.92"/>
        <path class="cls-1" d="M482.99,261.35v12.07h-12.07v-12.07h12.07M483.84,260.5h-13.77v13.77h13.77v-13.77h0Z"/>
      </g>
      <g>
        <rect class="cls-1" x="470.37" y="280.56" width="12.92" height="12.92"/>
        <path class="cls-1" d="M482.87,280.98v12.07h-12.07v-12.07h12.07M483.72,280.13h-13.77v13.77h13.77v-13.77h0Z"/>
      </g>
      <g>
        <rect class="cls-1" x="490" y="280.56" width="12.92" height="12.92"/>
        <path class="cls-1" d="M502.5,280.98v12.07h-12.07v-12.07h12.07M503.35,280.13h-13.77v13.77h13.77v-13.77h0Z"/>
      </g>
      <g>
        <rect class="cls-1" x="450.97" y="260.93" width="12.92" height="12.92"/>
        <path class="cls-1" d="M463.47,261.35v12.07h-12.07v-12.07h12.07M464.32,260.5h-13.77v13.77h13.77v-13.77h0Z"/>
      </g>
      <g>
        <rect class="cls-1" x="450.85" y="280.56" width="12.92" height="12.92"/>
        <path class="cls-1" d="M463.35,280.98v12.07h-12.07v-12.07h12.07M464.2,280.13h-13.77v13.77h13.77v-13.77h0Z"/>
      </g>
      <g>
        <rect class="cls-1" x="431.46" y="260.93" width="12.92" height="12.92"/>
        <path class="cls-1" d="M443.96,261.35v12.07h-12.07v-12.07h12.07M444.81,260.5h-13.77v13.77h13.77v-13.77h0Z"/>
      </g>
      <g>
        <rect class="cls-1" x="411.94" y="260.93" width="12.92" height="12.92"/>
        <path class="cls-1" d="M424.44,261.35v12.07h-12.07v-12.07h12.07M425.29,260.5h-13.77v13.77h13.77v-13.77h0Z"/>
      </g>
      <g>
        <rect class="cls-1" x="411.82" y="280.56" width="12.92" height="12.92"/>
        <path class="cls-1" d="M424.32,280.98v12.07h-12.07v-12.07h12.07M425.17,280.13h-13.77v13.77h13.77v-13.77h0Z"/>
      </g>
      <g>
        <rect class="cls-1" x="431.34" y="280.56" width="12.92" height="12.92"/>
        <path class="cls-1" d="M443.84,280.98v12.07h-12.07v-12.07h12.07M444.69,280.13h-13.77v13.77h13.77v-13.77h0Z"/>
      </g>
      <g>
        <rect class="cls-1" x="392.43" y="260.93" width="12.92" height="12.92"/>
        <path class="cls-1" d="M404.93,261.35v12.07h-12.07v-12.07h12.07M405.78,260.5h-13.77v13.77h13.77v-13.77h0Z"/>
      </g>
      <g>
        <rect class="cls-1" x="392.31" y="280.56" width="12.92" height="12.92"/>
        <path class="cls-1" d="M404.81,280.98v12.07h-12.07v-12.07h12.07M405.66,280.13h-13.77v13.77h13.77v-13.77h0Z"/>
      </g>
    </g>
    <g>
      <g>
        <rect class="cls-1" x="223.79" y="183.11" width="7.76" height="7.76"/>
        <path class="cls-1" d="M231.13,183.54v6.91h-6.91v-6.91h6.91M231.98,182.69h-8.61v8.61h8.61v-8.61h0Z"/>
      </g>
      <g>
        <rect class="cls-1" x="211.6" y="183.11" width="7.76" height="7.76"/>
        <path class="cls-1" d="M218.93,183.54v6.91h-6.91v-6.91h6.91M219.78,182.69h-8.61v8.61h8.61v-8.61h0Z"/>
      </g>
      <g>
        <rect class="cls-1" x="211.52" y="195.38" width="7.76" height="7.76"/>
        <path class="cls-1" d="M218.86,195.81v6.91h-6.91v-6.91h6.91M219.71,194.96h-8.61v8.61h8.61v-8.61h0Z"/>
      </g>
      <g>
        <rect class="cls-1" x="223.79" y="195.38" width="7.76" height="7.76"/>
        <path class="cls-1" d="M231.13,195.81v6.91h-6.91v-6.91h6.91M231.98,194.96h-8.61v8.61h8.61v-8.61h0Z"/>
      </g>
      <g>
        <rect class="cls-1" x="199.4" y="183.11" width="7.76" height="7.76"/>
        <path class="cls-1" d="M206.73,183.54v6.91h-6.91v-6.91h6.91M207.58,182.69h-8.61v8.61h8.61v-8.61h0Z"/>
      </g>
      <g>
        <rect class="cls-1" x="199.33" y="195.38" width="7.76" height="7.76"/>
        <path class="cls-1" d="M206.66,195.81v6.91h-6.91v-6.91h6.91M207.51,194.96h-8.61v8.61h8.61v-8.61h0Z"/>
      </g>
      <g>
        <rect class="cls-1" x="187.2" y="183.11" width="7.76" height="7.76"/>
        <path class="cls-1" d="M194.54,183.54v6.91h-6.91v-6.91h6.91M195.39,182.69h-8.61v8.61h8.61v-8.61h0Z"/>
      </g>
      <g>
        <rect class="cls-1" x="175.01" y="183.11" width="7.76" height="7.76"/>
        <path class="cls-1" d="M182.34,183.54v6.91h-6.91v-6.91h6.91M183.19,182.69h-8.61v8.61h8.61v-8.61h0Z"/>
      </g>
      <g>
        <rect class="cls-1" x="174.93" y="195.38" width="7.76" height="7.76"/>
        <path class="cls-1" d="M182.27,195.81v6.91h-6.91v-6.91h6.91M183.12,194.96h-8.61v8.61h8.61v-8.61h0Z"/>
      </g>
      <g>
        <rect class="cls-1" x="187.13" y="195.38" width="7.76" height="7.76"/>
        <path class="cls-1" d="M194.46,195.81v6.91h-6.91v-6.91h6.91M195.31,194.96h-8.61v8.61h8.61v-8.61h0Z"/>
      </g>
      <g>
        <rect class="cls-1" x="162.81" y="183.11" width="7.76" height="7.76"/>
        <path class="cls-1" d="M170.14,183.54v6.91h-6.91v-6.91h6.91M170.99,182.69h-8.61v8.61h8.61v-8.61h0Z"/>
      </g>
      <g>
        <rect class="cls-1" x="162.74" y="195.38" width="7.76" height="7.76"/>
        <path class="cls-1" d="M170.07,195.81v6.91h-6.91v-6.91h6.91M170.92,194.96h-8.61v8.61h8.61v-8.61h0Z"/>
      </g>
      <g>
        <g>
          <rect class="cls-1" x="223.79" y="207.65" width="7.76" height="7.76"/>
          <path class="cls-1" d="M231.13,208.08v6.91h-6.91v-6.91h6.91M231.98,207.23h-8.61v8.61h8.61v-8.61h0Z"/>
        </g>
        <g>
          <rect class="cls-1" x="211.6" y="207.65" width="7.76" height="7.76"/>
          <path class="cls-1" d="M218.93,208.08v6.91h-6.91v-6.91h6.91M219.78,207.23h-8.61v8.61h8.61v-8.61h0Z"/>
        </g>
        <g>
          <rect class="cls-1" x="211.52" y="219.92" width="7.76" height="7.76"/>
          <path class="cls-1" d="M218.86,220.35v6.91h-6.91v-6.91h6.91M219.71,219.5h-8.61v8.61h8.61v-8.61h0Z"/>
        </g>
        <g>
          <rect class="cls-1" x="223.79" y="219.92" width="7.76" height="7.76"/>
          <path class="cls-1" d="M231.13,220.35v6.91h-6.91v-6.91h6.91M231.98,219.5h-8.61v8.61h8.61v-8.61h0Z"/>
        </g>
        <g>
          <rect class="cls-1" x="199.4" y="207.65" width="7.76" height="7.76"/>
          <path class="cls-1" d="M206.73,208.08v6.91h-6.91v-6.91h6.91M207.58,207.23h-8.61v8.61h8.61v-8.61h0Z"/>
        </g>
        <g>
          <rect class="cls-1" x="199.33" y="219.92" width="7.76" height="7.76"/>
          <path class="cls-1" d="M206.66,220.35v6.91h-6.91v-6.91h6.91M207.51,219.5h-8.61v8.61h8.61v-8.61h0Z"/>
        </g>
        <g>
          <rect class="cls-1" x="187.2" y="207.65" width="7.76" height="7.76"/>
          <path class="cls-1" d="M194.54,208.08v6.91h-6.91v-6.91h6.91M195.39,207.23h-8.61v8.61h8.61v-8.61h0Z"/>
        </g>
        <g>
          <rect class="cls-1" x="175.01" y="207.65" width="7.76" height="7.76"/>
          <path class="cls-1" d="M182.34,208.08v6.91h-6.91v-6.91h6.91M183.19,207.23h-8.61v8.61h8.61v-8.61h0Z"/>
        </g>
        <g>
          <rect class="cls-1" x="174.93" y="219.92" width="7.76" height="7.76"/>
          <path class="cls-1" d="M182.27,220.35v6.91h-6.91v-6.91h6.91M183.12,219.5h-8.61v8.61h8.61v-8.61h0Z"/>
        </g>
        <g>
          <rect class="cls-1" x="187.13" y="219.92" width="7.76" height="7.76"/>
          <path class="cls-1" d="M194.46,220.35v6.91h-6.91v-6.91h6.91M195.31,219.5h-8.61v8.61h8.61v-8.61h0Z"/>
        </g>
        <g>
          <rect class="cls-1" x="162.81" y="207.65" width="7.76" height="7.76"/>
          <path class="cls-1" d="M170.14,208.08v6.91h-6.91v-6.91h6.91M170.99,207.23h-8.61v8.61h8.61v-8.61h0Z"/>
        </g>
        <g>
          <rect class="cls-1" x="162.74" y="219.92" width="7.76" height="7.76"/>
          <path class="cls-1" d="M170.07,220.35v6.91h-6.91v-6.91h6.91M170.92,219.5h-8.61v8.61h8.61v-8.61h0Z"/>
        </g>
      </g>
      <g>
        <g>
          <rect class="cls-1" x="223.79" y="232.19" width="7.76" height="7.76"/>
          <path class="cls-1" d="M231.13,232.62v6.91h-6.91v-6.91h6.91M231.98,231.77h-8.61v8.61h8.61v-8.61h0Z"/>
        </g>
        <g>
          <rect class="cls-1" x="211.6" y="232.19" width="7.76" height="7.76"/>
          <path class="cls-1" d="M218.93,232.62v6.91h-6.91v-6.91h6.91M219.78,231.77h-8.61v8.61h8.61v-8.61h0Z"/>
        </g>
        <g>
          <rect class="cls-1" x="211.52" y="244.46" width="7.76" height="7.76"/>
          <path class="cls-1" d="M218.86,244.89v6.91h-6.91v-6.91h6.91M219.71,244.04h-8.61v8.61h8.61v-8.61h0Z"/>
        </g>
        <g>
          <rect class="cls-1" x="223.79" y="244.46" width="7.76" height="7.76"/>
          <path class="cls-1" d="M231.13,244.89v6.91h-6.91v-6.91h6.91M231.98,244.04h-8.61v8.61h8.61v-8.61h0Z"/>
        </g>
        <g>
          <rect class="cls-1" x="199.4" y="232.19" width="7.76" height="7.76"/>
          <path class="cls-1" d="M206.73,232.62v6.91h-6.91v-6.91h6.91M207.58,231.77h-8.61v8.61h8.61v-8.61h0Z"/>
        </g>
        <g>
          <rect class="cls-1" x="199.33" y="244.46" width="7.76" height="7.76"/>
          <path class="cls-1" d="M206.66,244.89v6.91h-6.91v-6.91h6.91M207.51,244.04h-8.61v8.61h8.61v-8.61h0Z"/>
        </g>
        <g>
          <rect class="cls-1" x="187.2" y="232.19" width="7.76" height="7.76"/>
          <path class="cls-1" d="M194.54,232.62v6.91h-6.91v-6.91h6.91M195.39,231.77h-8.61v8.61h8.61v-8.61h0Z"/>
        </g>
        <g>
          <rect class="cls-1" x="175.01" y="232.19" width="7.76" height="7.76"/>
          <path class="cls-1" d="M182.34,232.62v6.91h-6.91v-6.91h6.91M183.19,231.77h-8.61v8.61h8.61v-8.61h0Z"/>
        </g>
        <g>
          <rect class="cls-1" x="174.93" y="244.46" width="7.76" height="7.76"/>
          <path class="cls-1" d="M182.27,244.89v6.91h-6.91v-6.91h6.91M183.12,244.04h-8.61v8.61h8.61v-8.61h0Z"/>
        </g>
        <g>
          <rect class="cls-1" x="187.13" y="244.46" width="7.76" height="7.76"/>
          <path class="cls-1" d="M194.46,244.89v6.91h-6.91v-6.91h6.91M195.31,244.04h-8.61v8.61h8.61v-8.61h0Z"/>
        </g>
        <g>
          <rect class="cls-1" x="162.81" y="232.19" width="7.76" height="7.76"/>
          <path class="cls-1" d="M170.14,232.62v6.91h-6.91v-6.91h6.91M170.99,231.77h-8.61v8.61h8.61v-8.61h0Z"/>
        </g>
        <g>
          <rect class="cls-1" x="162.74" y="244.46" width="7.76" height="7.76"/>
          <path class="cls-1" d="M170.07,244.89v6.91h-6.91v-6.91h6.91M170.92,244.04h-8.61v8.61h8.61v-8.61h0Z"/>
        </g>
      </g>
      <g>
        <g>
          <rect class="cls-1" x="223.79" y="256.74" width="7.76" height="7.76"/>
          <path class="cls-1" d="M231.13,257.16v6.91h-6.91v-6.91h6.91M231.98,256.31h-8.61v8.61h8.61v-8.61h0Z"/>
        </g>
        <g>
          <rect class="cls-1" x="211.6" y="256.74" width="7.76" height="7.76"/>
          <path class="cls-1" d="M218.93,257.16v6.91h-6.91v-6.91h6.91M219.78,256.31h-8.61v8.61h8.61v-8.61h0Z"/>
        </g>
        <g>
          <rect class="cls-1" x="211.52" y="269.01" width="7.76" height="7.76"/>
          <path class="cls-1" d="M218.86,269.43v6.91h-6.91v-6.91h6.91M219.71,268.58h-8.61v8.61h8.61v-8.61h0Z"/>
        </g>
        <g>
          <rect class="cls-1" x="223.79" y="269.01" width="7.76" height="7.76"/>
          <path class="cls-1" d="M231.13,269.43v6.91h-6.91v-6.91h6.91M231.98,268.58h-8.61v8.61h8.61v-8.61h0Z"/>
        </g>
        <g>
          <rect class="cls-1" x="199.4" y="256.74" width="7.76" height="7.76"/>
          <path class="cls-1" d="M206.73,257.16v6.91h-6.91v-6.91h6.91M207.58,256.31h-8.61v8.61h8.61v-8.61h0Z"/>
        </g>
        <g>
          <rect class="cls-1" x="199.33" y="269.01" width="7.76" height="7.76"/>
          <path class="cls-1" d="M206.66,269.43v6.91h-6.91v-6.91h6.91M207.51,268.58h-8.61v8.61h8.61v-8.61h0Z"/>
        </g>
        <g>
          <rect class="cls-1" x="187.2" y="256.74" width="7.76" height="7.76"/>
          <path class="cls-1" d="M194.54,257.16v6.91h-6.91v-6.91h6.91M195.39,256.31h-8.61v8.61h8.61v-8.61h0Z"/>
        </g>
        <g>
          <rect class="cls-1" x="175.01" y="256.74" width="7.76" height="7.76"/>
          <path class="cls-1" d="M182.34,257.16v6.91h-6.91v-6.91h6.91M183.19,256.31h-8.61v8.61h8.61v-8.61h0Z"/>
        </g>
        <g>
          <rect class="cls-1" x="174.93" y="269.01" width="7.76" height="7.76"/>
          <path class="cls-1" d="M182.27,269.43v6.91h-6.91v-6.91h6.91M183.12,268.58h-8.61v8.61h8.61v-8.61h0Z"/>
        </g>
        <g>
          <rect class="cls-1" x="187.13" y="269.01" width="7.76" height="7.76"/>
          <path class="cls-1" d="M194.46,269.43v6.91h-6.91v-6.91h6.91M195.31,268.58h-8.61v8.61h8.61v-8.61h0Z"/>
        </g>
        <g>
          <rect class="cls-1" x="162.81" y="256.74" width="7.76" height="7.76"/>
          <path class="cls-1" d="M170.14,257.16v6.91h-6.91v-6.91h6.91M170.99,256.31h-8.61v8.61h8.61v-8.61h0Z"/>
        </g>
        <g>
          <rect class="cls-1" x="162.74" y="269.01" width="7.76" height="7.76"/>
          <path class="cls-1" d="M170.07,269.43v6.91h-6.91v-6.91h6.91M170.92,268.58h-8.61v8.61h8.61v-8.61h0Z"/>
        </g>
      </g>
      <g>
        <g>
          <rect class="cls-1" x="223.72" y="281.28" width="7.76" height="7.76"/>
          <path class="cls-1" d="M231.05,281.7v6.91h-6.91v-6.91h6.91M231.9,280.85h-8.61v8.61h8.61v-8.61h0Z"/>
        </g>
        <g>
          <rect class="cls-1" x="211.52" y="281.28" width="7.76" height="7.76"/>
          <path class="cls-1" d="M218.86,281.7v6.91h-6.91v-6.91h6.91M219.71,280.85h-8.61v8.61h8.61v-8.61h0Z"/>
        </g>
        <g>
          <rect class="cls-1" x="211.45" y="293.55" width="7.76" height="7.76"/>
          <path class="cls-1" d="M218.78,293.97v6.91h-6.91v-6.91h6.91M219.63,293.12h-8.61v8.61h8.61v-8.61h0Z"/>
        </g>
        <g>
          <rect class="cls-1" x="223.72" y="293.55" width="7.76" height="7.76"/>
          <path class="cls-1" d="M231.05,293.97v6.91h-6.91v-6.91h6.91M231.9,293.12h-8.61v8.61h8.61v-8.61h0Z"/>
        </g>
        <g>
          <rect class="cls-1" x="199.33" y="281.28" width="7.76" height="7.76"/>
          <path class="cls-1" d="M206.66,281.7v6.91h-6.91v-6.91h6.91M207.51,280.85h-8.61v8.61h8.61v-8.61h0Z"/>
        </g>
        <g>
          <rect class="cls-1" x="199.25" y="293.55" width="7.76" height="7.76"/>
          <path class="cls-1" d="M206.59,293.97v6.91h-6.91v-6.91h6.91M207.44,293.12h-8.61v8.61h8.61v-8.61h0Z"/>
        </g>
        <g>
          <rect class="cls-1" x="187.13" y="281.28" width="7.76" height="7.76"/>
          <path class="cls-1" d="M194.46,281.7v6.91h-6.91v-6.91h6.91M195.31,280.85h-8.61v8.61h8.61v-8.61h0Z"/>
        </g>
        <g>
          <rect class="cls-1" x="174.93" y="281.28" width="7.76" height="7.76"/>
          <path class="cls-1" d="M182.27,281.7v6.91h-6.91v-6.91h6.91M183.12,280.85h-8.61v8.61h8.61v-8.61h0Z"/>
        </g>
        <g>
          <rect class="cls-1" x="174.86" y="293.55" width="7.76" height="7.76"/>
          <path class="cls-1" d="M182.19,293.97v6.91h-6.91v-6.91h6.91M183.04,293.12h-8.61v8.61h8.61v-8.61h0Z"/>
        </g>
        <g>
          <rect class="cls-1" x="187.06" y="293.55" width="7.76" height="7.76"/>
          <path class="cls-1" d="M194.39,293.97v6.91h-6.91v-6.91h6.91M195.24,293.12h-8.61v8.61h8.61v-8.61h0Z"/>
        </g>
        <g>
          <rect class="cls-1" x="162.74" y="281.28" width="7.76" height="7.76"/>
          <path class="cls-1" d="M170.07,281.7v6.91h-6.91v-6.91h6.91M170.92,280.85h-8.61v8.61h8.61v-8.61h0Z"/>
        </g>
        <g>
          <rect class="cls-1" x="162.66" y="293.55" width="7.76" height="7.76"/>
          <path class="cls-1" d="M170,293.97v6.91h-6.91v-6.91h6.91M170.85,293.12h-8.61v8.61h8.61v-8.61h0Z"/>
        </g>
      </g>
      <g>
        <rect class="cls-1" x="150.53" y="183.11" width="7.76" height="7.76"/>
        <path class="cls-1" d="M157.86,183.54v6.91h-6.91v-6.91h6.91M158.71,182.69h-8.61v8.61h8.61v-8.61h0Z"/>
      </g>
      <g>
        <rect class="cls-1" x="138.33" y="183.11" width="7.76" height="7.76"/>
        <path class="cls-1" d="M145.66,183.54v6.91h-6.91v-6.91h6.91M146.51,182.69h-8.61v8.61h8.61v-8.61h0Z"/>
      </g>
      <g>
        <rect class="cls-1" x="138.26" y="195.38" width="7.76" height="7.76"/>
        <path class="cls-1" d="M145.59,195.81v6.91h-6.91v-6.91h6.91M146.44,194.96h-8.61v8.61h8.61v-8.61h0Z"/>
      </g>
      <g>
        <rect class="cls-1" x="150.53" y="195.38" width="7.76" height="7.76"/>
        <path class="cls-1" d="M157.86,195.81v6.91h-6.91v-6.91h6.91M158.71,194.96h-8.61v8.61h8.61v-8.61h0Z"/>
      </g>
      <g>
        <rect class="cls-1" x="126.13" y="183.11" width="7.76" height="7.76"/>
        <path class="cls-1" d="M133.47,183.54v6.91h-6.91v-6.91h6.91M134.32,182.69h-8.61v8.61h8.61v-8.61h0Z"/>
      </g>
      <g>
        <rect class="cls-1" x="126.06" y="195.38" width="7.76" height="7.76"/>
        <path class="cls-1" d="M133.39,195.81v6.91h-6.91v-6.91h6.91M134.24,194.96h-8.61v8.61h8.61v-8.61h0Z"/>
      </g>
      <g>
        <rect class="cls-1" x="113.94" y="183.11" width="7.76" height="7.76"/>
        <path class="cls-1" d="M121.27,183.54v6.91h-6.91v-6.91h6.91M122.12,182.69h-8.61v8.61h8.61v-8.61h0Z"/>
      </g>
      <g>
        <rect class="cls-1" x="113.86" y="195.38" width="7.76" height="7.76"/>
        <path class="cls-1" d="M121.2,195.81v6.91h-6.91v-6.91h6.91M122.05,194.96h-8.61v8.61h8.61v-8.61h0Z"/>
      </g>
      <g>
        <rect class="cls-1" x="150.53" y="207.65" width="7.76" height="7.76"/>
        <path class="cls-1" d="M157.86,208.08v6.91h-6.91v-6.91h6.91M158.71,207.23h-8.61v8.61h8.61v-8.61h0Z"/>
      </g>
      <g>
        <rect class="cls-1" x="138.33" y="207.65" width="7.76" height="7.76"/>
        <path class="cls-1" d="M145.66,208.08v6.91h-6.91v-6.91h6.91M146.51,207.23h-8.61v8.61h8.61v-8.61h0Z"/>
      </g>
      <g>
        <rect class="cls-1" x="138.26" y="219.92" width="7.76" height="7.76"/>
        <path class="cls-1" d="M145.59,220.35v6.91h-6.91v-6.91h6.91M146.44,219.5h-8.61v8.61h8.61v-8.61h0Z"/>
      </g>
      <g>
        <rect class="cls-1" x="150.53" y="219.92" width="7.76" height="7.76"/>
        <path class="cls-1" d="M157.86,220.35v6.91h-6.91v-6.91h6.91M158.71,219.5h-8.61v8.61h8.61v-8.61h0Z"/>
      </g>
      <g>
        <rect class="cls-1" x="126.13" y="207.65" width="7.76" height="7.76"/>
        <path class="cls-1" d="M133.47,208.08v6.91h-6.91v-6.91h6.91M134.32,207.23h-8.61v8.61h8.61v-8.61h0Z"/>
      </g>
      <g>
        <rect class="cls-1" x="126.06" y="219.92" width="7.76" height="7.76"/>
        <path class="cls-1" d="M133.39,220.35v6.91h-6.91v-6.91h6.91M134.24,219.5h-8.61v8.61h8.61v-8.61h0Z"/>
      </g>
      <g>
        <rect class="cls-1" x="113.94" y="207.65" width="7.76" height="7.76"/>
        <path class="cls-1" d="M121.27,208.08v6.91h-6.91v-6.91h6.91M122.12,207.23h-8.61v8.61h8.61v-8.61h0Z"/>
      </g>
      <g>
        <rect class="cls-1" x="113.86" y="219.92" width="7.76" height="7.76"/>
        <path class="cls-1" d="M121.2,220.35v6.91h-6.91v-6.91h6.91M122.05,219.5h-8.61v8.61h8.61v-8.61h0Z"/>
      </g>
      <g>
        <rect class="cls-1" x="150.53" y="232.19" width="7.76" height="7.76"/>
        <path class="cls-1" d="M157.86,232.62v6.91h-6.91v-6.91h6.91M158.71,231.77h-8.61v8.61h8.61v-8.61h0Z"/>
      </g>
      <g>
        <rect class="cls-1" x="138.33" y="232.19" width="7.76" height="7.76"/>
        <path class="cls-1" d="M145.66,232.62v6.91h-6.91v-6.91h6.91M146.51,231.77h-8.61v8.61h8.61v-8.61h0Z"/>
      </g>
      <g>
        <rect class="cls-1" x="138.26" y="244.46" width="7.76" height="7.76"/>
        <path class="cls-1" d="M145.59,244.89v6.91h-6.91v-6.91h6.91M146.44,244.04h-8.61v8.61h8.61v-8.61h0Z"/>
      </g>
      <g>
        <rect class="cls-1" x="150.53" y="244.46" width="7.76" height="7.76"/>
        <path class="cls-1" d="M157.86,244.89v6.91h-6.91v-6.91h6.91M158.71,244.04h-8.61v8.61h8.61v-8.61h0Z"/>
      </g>
      <g>
        <rect class="cls-1" x="126.13" y="232.19" width="7.76" height="7.76"/>
        <path class="cls-1" d="M133.47,232.62v6.91h-6.91v-6.91h6.91M134.32,231.77h-8.61v8.61h8.61v-8.61h0Z"/>
      </g>
      <g>
        <rect class="cls-1" x="126.06" y="244.46" width="7.76" height="7.76"/>
        <path class="cls-1" d="M133.39,244.89v6.91h-6.91v-6.91h6.91M134.24,244.04h-8.61v8.61h8.61v-8.61h0Z"/>
      </g>
      <g>
        <rect class="cls-1" x="113.94" y="232.19" width="7.76" height="7.76"/>
        <path class="cls-1" d="M121.27,232.62v6.91h-6.91v-6.91h6.91M122.12,231.77h-8.61v8.61h8.61v-8.61h0Z"/>
      </g>
      <g>
        <rect class="cls-1" x="113.86" y="244.46" width="7.76" height="7.76"/>
        <path class="cls-1" d="M121.2,244.89v6.91h-6.91v-6.91h6.91M122.05,244.04h-8.61v8.61h8.61v-8.61h0Z"/>
      </g>
      <g>
        <rect class="cls-1" x="150.53" y="256.74" width="7.76" height="7.76"/>
        <path class="cls-1" d="M157.86,257.16v6.91h-6.91v-6.91h6.91M158.71,256.31h-8.61v8.61h8.61v-8.61h0Z"/>
      </g>
      <g>
        <rect class="cls-1" x="138.33" y="256.74" width="7.76" height="7.76"/>
        <path class="cls-1" d="M145.66,257.16v6.91h-6.91v-6.91h6.91M146.51,256.31h-8.61v8.61h8.61v-8.61h0Z"/>
      </g>
      <g>
        <rect class="cls-1" x="138.26" y="269.01" width="7.76" height="7.76"/>
        <path class="cls-1" d="M145.59,269.43v6.91h-6.91v-6.91h6.91M146.44,268.58h-8.61v8.61h8.61v-8.61h0Z"/>
      </g>
      <g>
        <rect class="cls-1" x="150.53" y="269.01" width="7.76" height="7.76"/>
        <path class="cls-1" d="M157.86,269.43v6.91h-6.91v-6.91h6.91M158.71,268.58h-8.61v8.61h8.61v-8.61h0Z"/>
      </g>
      <g>
        <rect class="cls-1" x="126.13" y="256.74" width="7.76" height="7.76"/>
        <path class="cls-1" d="M133.47,257.16v6.91h-6.91v-6.91h6.91M134.32,256.31h-8.61v8.61h8.61v-8.61h0Z"/>
      </g>
      <g>
        <rect class="cls-1" x="126.06" y="269.01" width="7.76" height="7.76"/>
        <path class="cls-1" d="M133.39,269.43v6.91h-6.91v-6.91h6.91M134.24,268.58h-8.61v8.61h8.61v-8.61h0Z"/>
      </g>
      <g>
        <rect class="cls-1" x="113.94" y="256.74" width="7.76" height="7.76"/>
        <path class="cls-1" d="M121.27,257.16v6.91h-6.91v-6.91h6.91M122.12,256.31h-8.61v8.61h8.61v-8.61h0Z"/>
      </g>
      <g>
        <rect class="cls-1" x="113.86" y="269.01" width="7.76" height="7.76"/>
        <path class="cls-1" d="M121.2,269.43v6.91h-6.91v-6.91h6.91M122.05,268.58h-8.61v8.61h8.61v-8.61h0Z"/>
      </g>
      <g>
        <rect class="cls-1" x="150.45" y="281.28" width="7.76" height="7.76"/>
        <path class="cls-1" d="M157.79,281.7v6.91h-6.91v-6.91h6.91M158.64,280.85h-8.61v8.61h8.61v-8.61h0Z"/>
      </g>
      <g>
        <rect class="cls-1" x="138.26" y="281.28" width="7.76" height="7.76"/>
        <path class="cls-1" d="M145.59,281.7v6.91h-6.91v-6.91h6.91M146.44,280.85h-8.61v8.61h8.61v-8.61h0Z"/>
      </g>
      <g>
        <rect class="cls-1" x="138.18" y="293.55" width="7.76" height="7.76"/>
        <path class="cls-1" d="M145.52,293.97v6.91h-6.91v-6.91h6.91M146.37,293.12h-8.61v8.61h8.61v-8.61h0Z"/>
      </g>
      <g>
        <rect class="cls-1" x="150.45" y="293.55" width="7.76" height="7.76"/>
        <path class="cls-1" d="M157.79,293.97v6.91h-6.91v-6.91h6.91M158.64,293.12h-8.61v8.61h8.61v-8.61h0Z"/>
      </g>
      <g>
        <rect class="cls-1" x="126.06" y="281.28" width="7.76" height="7.76"/>
        <path class="cls-1" d="M133.39,281.7v6.91h-6.91v-6.91h6.91M134.24,280.85h-8.61v8.61h8.61v-8.61h0Z"/>
      </g>
      <g>
        <rect class="cls-1" x="125.99" y="293.55" width="7.76" height="7.76"/>
        <path class="cls-1" d="M133.32,293.97v6.91h-6.91v-6.91h6.91M134.17,293.12h-8.61v8.61h8.61v-8.61h0Z"/>
      </g>
      <g>
        <rect class="cls-1" x="113.86" y="281.28" width="7.76" height="7.76"/>
        <path class="cls-1" d="M121.2,281.7v6.91h-6.91v-6.91h6.91M122.05,280.85h-8.61v8.61h8.61v-8.61h0Z"/>
      </g>
      <g>
        <rect class="cls-1" x="113.79" y="293.55" width="7.76" height="7.76"/>
        <path class="cls-1" d="M121.12,293.97v6.91h-6.91v-6.91h6.91M121.97,293.12h-8.61v8.61h8.61v-8.61h0Z"/>
      </g>
    </g>
  </g>
</svg>