<?xml version="1.0" encoding="UTF-8"?>
<svg id="Layer_2" xmlns="http://www.w3.org/2000/svg" viewBox="0 0 623.62 368.5">
  <defs>
    <style>
      .cls-1 {
        fill: #231f20;
      }

      .cls-2 {
        fill: #fff;
      }
    </style>
  </defs>
  <g id="Layer_2-2" data-name="Layer_2">
    <rect class="cls-2" x="0" y="0" width="623.62" height="368.5" transform="translate(623.62 368.5) rotate(-180)"/>
    <g>
      <g>
        <rect class="cls-2" x="338.46" y="67.92" width="7.76" height="7.76"/>
        <path class="cls-1" d="M345.79,68.34v6.91h-6.91v-6.91h6.91M346.64,67.49h-8.61v8.61h8.61v-8.61h0Z"/>
      </g>
      <g>
        <rect class="cls-2" x="326.26" y="67.92" width="7.76" height="7.76"/>
        <path class="cls-1" d="M333.6,68.34v6.91h-6.91v-6.91h6.91M334.45,67.49h-8.61v8.61h8.61v-8.61h0Z"/>
      </g>
      <g>
        <rect class="cls-2" x="326.19" y="80.19" width="7.76" height="7.76"/>
        <path class="cls-1" d="M333.52,80.61v6.91h-6.91v-6.91h6.91M334.37,79.76h-8.61v8.61h8.61v-8.61h0Z"/>
      </g>
      <g>
        <rect class="cls-2" x="338.46" y="80.19" width="7.76" height="7.76"/>
        <path class="cls-1" d="M345.79,80.61v6.91h-6.91v-6.91h6.91M346.64,79.76h-8.61v8.61h8.61v-8.61h0Z"/>
      </g>
      <g>
        <rect class="cls-2" x="314.07" y="67.92" width="7.76" height="7.76"/>
        <path class="cls-1" d="M321.4,68.34v6.91h-6.91v-6.91h6.91M322.25,67.49h-8.61v8.61h8.61v-8.61h0Z"/>
      </g>
      <g>
        <rect class="cls-2" x="313.99" y="80.19" width="7.76" height="7.76"/>
        <path class="cls-1" d="M321.33,80.61v6.91h-6.91v-6.91h6.91M322.18,79.76h-8.61v8.61h8.61v-8.61h0Z"/>
      </g>
      <g>
        <rect class="cls-2" x="301.87" y="67.92" width="7.76" height="7.76"/>
        <path class="cls-1" d="M309.2,68.34v6.91h-6.91v-6.91h6.91M310.05,67.49h-8.61v8.61h8.61v-8.61h0Z"/>
      </g>
      <g>
        <rect class="cls-2" x="289.67" y="67.92" width="7.76" height="7.76"/>
        <path class="cls-1" d="M297.01,68.34v6.91h-6.91v-6.91h6.91M297.86,67.49h-8.61v8.61h8.61v-8.61h0Z"/>
      </g>
      <g>
        <rect class="cls-2" x="289.6" y="80.19" width="7.76" height="7.76"/>
        <path class="cls-1" d="M296.93,80.61v6.91h-6.91v-6.91h6.91M297.78,79.76h-8.61v8.61h8.61v-8.61h0Z"/>
      </g>
      <g>
        <rect class="cls-2" x="301.8" y="80.19" width="7.76" height="7.76"/>
        <path class="cls-1" d="M309.13,80.61v6.91h-6.91v-6.91h6.91M309.98,79.76h-8.61v8.61h8.61v-8.61h0Z"/>
      </g>
      <g>
        <rect class="cls-2" x="277.48" y="67.92" width="7.76" height="7.76"/>
        <path class="cls-1" d="M284.81,68.34v6.91h-6.91v-6.91h6.91M285.66,67.49h-8.61v8.61h8.61v-8.61h0Z"/>
      </g>
      <g>
        <rect class="cls-2" x="277.4" y="80.19" width="7.76" height="7.76"/>
        <path class="cls-1" d="M284.74,80.61v6.91h-6.91v-6.91h6.91M285.59,79.76h-8.61v8.61h8.61v-8.61h0Z"/>
      </g>
      <g>
        <g>
          <rect class="cls-2" x="338.46" y="92.46" width="7.76" height="7.76"/>
          <path class="cls-1" d="M345.79,92.88v6.91h-6.91v-6.91h6.91M346.64,92.03h-8.61v8.61h8.61v-8.61h0Z"/>
        </g>
        <g>
          <rect class="cls-2" x="326.26" y="92.46" width="7.76" height="7.76"/>
          <path class="cls-1" d="M333.6,92.88v6.91h-6.91v-6.91h6.91M334.45,92.03h-8.61v8.61h8.61v-8.61h0Z"/>
        </g>
        <g>
          <rect class="cls-2" x="326.19" y="104.73" width="7.76" height="7.76"/>
          <path class="cls-1" d="M333.52,105.15v6.91h-6.91v-6.91h6.91M334.37,104.3h-8.61v8.61h8.61v-8.61h0Z"/>
        </g>
        <g>
          <rect class="cls-2" x="338.46" y="104.73" width="7.76" height="7.76"/>
          <path class="cls-1" d="M345.79,105.15v6.91h-6.91v-6.91h6.91M346.64,104.3h-8.61v8.61h8.61v-8.61h0Z"/>
        </g>
        <g>
          <rect class="cls-2" x="314.07" y="92.46" width="7.76" height="7.76"/>
          <path class="cls-1" d="M321.4,92.88v6.91h-6.91v-6.91h6.91M322.25,92.03h-8.61v8.61h8.61v-8.61h0Z"/>
        </g>
        <g>
          <rect class="cls-2" x="313.99" y="104.73" width="7.76" height="7.76"/>
          <path class="cls-1" d="M321.33,105.15v6.91h-6.91v-6.91h6.91M322.18,104.3h-8.61v8.61h8.61v-8.61h0Z"/>
        </g>
        <g>
          <rect class="cls-2" x="301.87" y="92.46" width="7.76" height="7.76"/>
          <path class="cls-1" d="M309.2,92.88v6.91h-6.91v-6.91h6.91M310.05,92.03h-8.61v8.61h8.61v-8.61h0Z"/>
        </g>
        <g>
          <rect class="cls-2" x="289.67" y="92.46" width="7.76" height="7.76"/>
          <path class="cls-1" d="M297.01,92.88v6.91h-6.91v-6.91h6.91M297.86,92.03h-8.61v8.61h8.61v-8.61h0Z"/>
        </g>
        <g>
          <rect class="cls-2" x="289.6" y="104.73" width="7.76" height="7.76"/>
          <path class="cls-1" d="M296.93,105.15v6.91h-6.91v-6.91h6.91M297.78,104.3h-8.61v8.61h8.61v-8.61h0Z"/>
        </g>
        <g>
          <rect class="cls-2" x="301.8" y="104.73" width="7.76" height="7.76"/>
          <path class="cls-1" d="M309.13,105.15v6.91h-6.91v-6.91h6.91M309.98,104.3h-8.61v8.61h8.61v-8.61h0Z"/>
        </g>
        <g>
          <rect class="cls-2" x="277.48" y="92.46" width="7.76" height="7.76"/>
          <path class="cls-1" d="M284.81,92.88v6.91h-6.91v-6.91h6.91M285.66,92.03h-8.61v8.61h8.61v-8.61h0Z"/>
        </g>
        <g>
          <rect class="cls-2" x="277.4" y="104.73" width="7.76" height="7.76"/>
          <path class="cls-1" d="M284.74,105.15v6.91h-6.91v-6.91h6.91M285.59,104.3h-8.61v8.61h8.61v-8.61h0Z"/>
        </g>
      </g>
      <g>
        <g>
          <rect class="cls-2" x="338.46" y="117" width="7.76" height="7.76"/>
          <path class="cls-1" d="M345.79,117.42v6.91h-6.91v-6.91h6.91M346.64,116.57h-8.61v8.61h8.61v-8.61h0Z"/>
        </g>
        <g>
          <rect class="cls-2" x="326.26" y="117" width="7.76" height="7.76"/>
          <path class="cls-1" d="M333.6,117.42v6.91h-6.91v-6.91h6.91M334.45,116.57h-8.61v8.61h8.61v-8.61h0Z"/>
        </g>
        <g>
          <rect class="cls-2" x="326.19" y="129.27" width="7.76" height="7.76"/>
          <path class="cls-1" d="M333.52,129.69v6.91h-6.91v-6.91h6.91M334.37,128.84h-8.61v8.61h8.61v-8.61h0Z"/>
        </g>
        <g>
          <rect class="cls-2" x="338.46" y="129.27" width="7.76" height="7.76"/>
          <path class="cls-1" d="M345.79,129.69v6.91h-6.91v-6.91h6.91M346.64,128.84h-8.61v8.61h8.61v-8.61h0Z"/>
        </g>
        <g>
          <rect class="cls-2" x="314.07" y="117" width="7.76" height="7.76"/>
          <path class="cls-1" d="M321.4,117.42v6.91h-6.91v-6.91h6.91M322.25,116.57h-8.61v8.61h8.61v-8.61h0Z"/>
        </g>
        <g>
          <rect class="cls-2" x="313.99" y="129.27" width="7.76" height="7.76"/>
          <path class="cls-1" d="M321.33,129.69v6.91h-6.91v-6.91h6.91M322.18,128.84h-8.61v8.61h8.61v-8.61h0Z"/>
        </g>
        <g>
          <rect class="cls-2" x="301.87" y="117" width="7.76" height="7.76"/>
          <path class="cls-1" d="M309.2,117.42v6.91h-6.91v-6.91h6.91M310.05,116.57h-8.61v8.61h8.61v-8.61h0Z"/>
        </g>
        <g>
          <rect class="cls-2" x="289.67" y="117" width="7.76" height="7.76"/>
          <path class="cls-1" d="M297.01,117.42v6.91h-6.91v-6.91h6.91M297.86,116.57h-8.61v8.61h8.61v-8.61h0Z"/>
        </g>
        <g>
          <rect class="cls-2" x="289.6" y="129.27" width="7.76" height="7.76"/>
          <path class="cls-1" d="M296.93,129.69v6.91h-6.91v-6.91h6.91M297.78,128.84h-8.61v8.61h8.61v-8.61h0Z"/>
        </g>
        <g>
          <rect class="cls-2" x="301.8" y="129.27" width="7.76" height="7.76"/>
          <path class="cls-1" d="M309.13,129.69v6.91h-6.91v-6.91h6.91M309.98,128.84h-8.61v8.61h8.61v-8.61h0Z"/>
        </g>
        <g>
          <rect class="cls-2" x="277.48" y="117" width="7.76" height="7.76"/>
          <path class="cls-1" d="M284.81,117.42v6.91h-6.91v-6.91h6.91M285.66,116.57h-8.61v8.61h8.61v-8.61h0Z"/>
        </g>
        <g>
          <rect class="cls-2" x="277.4" y="129.27" width="7.76" height="7.76"/>
          <path class="cls-1" d="M284.74,129.69v6.91h-6.91v-6.91h6.91M285.59,128.84h-8.61v8.61h8.61v-8.61h0Z"/>
        </g>
      </g>
    </g>
    <g>
      <g>
        <rect class="cls-2" x="490.22" y="183.55" width="12.41" height="12.41"/>
        <path class="cls-1" d="M501.95,184.23v11.05h-11.05v-11.05h11.05M503.31,182.87h-13.77v13.77h13.77v-13.77h0Z"/>
      </g>
      <g>
        <rect class="cls-2" x="470.7" y="183.55" width="12.41" height="12.41"/>
        <path class="cls-1" d="M482.43,184.23v11.05h-11.05v-11.05h11.05M483.8,182.87h-13.77v13.77h13.77v-13.77h0Z"/>
      </g>
      <g>
        <rect class="cls-2" x="470.58" y="203.19" width="12.41" height="12.41"/>
        <path class="cls-1" d="M482.32,203.87v11.05h-11.05v-11.05h11.05M483.68,202.5h-13.77v13.77h13.77v-13.77h0Z"/>
      </g>
      <g>
        <rect class="cls-2" x="490.22" y="203.19" width="12.41" height="12.41"/>
        <path class="cls-1" d="M501.95,203.87v11.05h-11.05v-11.05h11.05M503.31,202.5h-13.77v13.77h13.77v-13.77h0Z"/>
      </g>
      <g>
        <rect class="cls-2" x="451.19" y="183.55" width="12.41" height="12.41"/>
        <path class="cls-1" d="M462.92,184.23v11.05h-11.05v-11.05h11.05M464.28,182.87h-13.77v13.77h13.77v-13.77h0Z"/>
      </g>
      <g>
        <rect class="cls-2" x="451.07" y="203.19" width="12.41" height="12.41"/>
        <path class="cls-1" d="M462.8,203.87v11.05h-11.05v-11.05h11.05M464.16,202.5h-13.77v13.77h13.77v-13.77h0Z"/>
      </g>
      <g>
        <rect class="cls-2" x="431.67" y="183.55" width="12.41" height="12.41"/>
        <path class="cls-1" d="M443.4,184.23v11.05h-11.05v-11.05h11.05M444.77,182.87h-13.77v13.77h13.77v-13.77h0Z"/>
      </g>
      <g>
        <rect class="cls-2" x="412.16" y="183.55" width="12.41" height="12.41"/>
        <path class="cls-1" d="M423.89,184.23v11.05h-11.05v-11.05h11.05M425.25,182.87h-13.77v13.77h13.77v-13.77h0Z"/>
      </g>
      <g>
        <rect class="cls-2" x="412.04" y="203.19" width="12.41" height="12.41"/>
        <path class="cls-1" d="M423.77,203.87v11.05h-11.05v-11.05h11.05M425.13,202.5h-13.77v13.77h13.77v-13.77h0Z"/>
      </g>
      <g>
        <rect class="cls-2" x="431.55" y="203.19" width="12.41" height="12.41"/>
        <path class="cls-1" d="M443.29,203.87v11.05h-11.05v-11.05h11.05M444.65,202.5h-13.77v13.77h13.77v-13.77h0Z"/>
      </g>
      <g>
        <rect class="cls-2" x="392.64" y="183.55" width="12.41" height="12.41"/>
        <path class="cls-1" d="M404.37,184.23v11.05h-11.05v-11.05h11.05M405.74,182.87h-13.77v13.77h13.77v-13.77h0Z"/>
      </g>
      <g>
        <rect class="cls-2" x="392.52" y="203.19" width="12.41" height="12.41"/>
        <path class="cls-1" d="M404.26,203.87v11.05h-11.05v-11.05h11.05M405.62,202.5h-13.77v13.77h13.77v-13.77h0Z"/>
      </g>
      <g>
        <g>
          <rect class="cls-2" x="490.22" y="222.82" width="12.41" height="12.41"/>
          <path class="cls-1" d="M501.95,223.5v11.05h-11.05v-11.05h11.05M503.31,222.14h-13.77v13.77h13.77v-13.77h0Z"/>
        </g>
        <g>
          <rect class="cls-2" x="470.7" y="222.82" width="12.41" height="12.41"/>
          <path class="cls-1" d="M482.43,223.5v11.05h-11.05v-11.05h11.05M483.8,222.14h-13.77v13.77h13.77v-13.77h0Z"/>
        </g>
        <g>
          <rect class="cls-2" x="470.58" y="242.45" width="12.41" height="12.41"/>
          <path class="cls-1" d="M482.32,243.13v11.05h-11.05v-11.05h11.05M483.68,241.77h-13.77v13.77h13.77v-13.77h0Z"/>
        </g>
        <g>
          <rect class="cls-2" x="490.22" y="242.45" width="12.41" height="12.41"/>
          <path class="cls-1" d="M501.95,243.13v11.05h-11.05v-11.05h11.05M503.31,241.77h-13.77v13.77h13.77v-13.77h0Z"/>
        </g>
        <g>
          <rect class="cls-2" x="451.19" y="222.82" width="12.41" height="12.41"/>
          <path class="cls-1" d="M462.92,223.5v11.05h-11.05v-11.05h11.05M464.28,222.14h-13.77v13.77h13.77v-13.77h0Z"/>
        </g>
        <g>
          <rect class="cls-2" x="451.07" y="242.45" width="12.41" height="12.41"/>
          <path class="cls-1" d="M462.8,243.13v11.05h-11.05v-11.05h11.05M464.16,241.77h-13.77v13.77h13.77v-13.77h0Z"/>
        </g>
        <g>
          <rect class="cls-2" x="431.67" y="222.82" width="12.41" height="12.41"/>
          <path class="cls-1" d="M443.4,223.5v11.05h-11.05v-11.05h11.05M444.77,222.14h-13.77v13.77h13.77v-13.77h0Z"/>
        </g>
        <g>
          <rect class="cls-2" x="412.16" y="222.82" width="12.41" height="12.41"/>
          <path class="cls-1" d="M423.89,223.5v11.05h-11.05v-11.05h11.05M425.25,222.14h-13.77v13.77h13.77v-13.77h0Z"/>
        </g>
        <g>
          <rect class="cls-2" x="412.04" y="242.45" width="12.41" height="12.41"/>
          <path class="cls-1" d="M423.77,243.13v11.05h-11.05v-11.05h11.05M425.13,241.77h-13.77v13.77h13.77v-13.77h0Z"/>
        </g>
        <g>
          <rect class="cls-2" x="431.55" y="242.45" width="12.41" height="12.41"/>
          <path class="cls-1" d="M443.29,243.13v11.05h-11.05v-11.05h11.05M444.65,241.77h-13.77v13.77h13.77v-13.77h0Z"/>
        </g>
        <g>
          <rect class="cls-2" x="392.64" y="222.82" width="12.41" height="12.41"/>
          <path class="cls-1" d="M404.37,223.5v11.05h-11.05v-11.05h11.05M405.74,222.14h-13.77v13.77h13.77v-13.77h0Z"/>
        </g>
        <g>
          <rect class="cls-2" x="392.52" y="242.45" width="12.41" height="12.41"/>
          <path class="cls-1" d="M404.26,243.13v11.05h-11.05v-11.05h11.05M405.62,241.77h-13.77v13.77h13.77v-13.77h0Z"/>
        </g>
      </g>
      <g>
        <g>
          <rect class="cls-2" x="490.22" y="262.08" width="12.41" height="12.41"/>
          <path class="cls-1" d="M501.95,262.76v11.05h-11.05v-11.05h11.05M503.31,261.4h-13.77v13.77h13.77v-13.77h0Z"/>
        </g>
        <g>
          <rect class="cls-2" x="470.7" y="262.08" width="12.41" height="12.41"/>
          <path class="cls-1" d="M482.43,262.76v11.05h-11.05v-11.05h11.05M483.8,261.4h-13.77v13.77h13.77v-13.77h0Z"/>
        </g>
        <g>
          <rect class="cls-2" x="470.58" y="281.72" width="12.41" height="12.41"/>
          <path class="cls-1" d="M482.32,282.39v11.05h-11.05v-11.05h11.05M483.68,281.03h-13.77v13.77h13.77v-13.77h0Z"/>
        </g>
        <g>
          <rect class="cls-2" x="490.22" y="281.72" width="12.41" height="12.41"/>
          <path class="cls-1" d="M501.95,282.39v11.05h-11.05v-11.05h11.05M503.31,281.03h-13.77v13.77h13.77v-13.77h0Z"/>
        </g>
        <g>
          <rect class="cls-2" x="451.19" y="262.08" width="12.41" height="12.41"/>
          <path class="cls-1" d="M462.92,262.76v11.05h-11.05v-11.05h11.05M464.28,261.4h-13.77v13.77h13.77v-13.77h0Z"/>
        </g>
        <g>
          <rect class="cls-2" x="451.07" y="281.72" width="12.41" height="12.41"/>
          <path class="cls-1" d="M462.8,282.39v11.05h-11.05v-11.05h11.05M464.16,281.03h-13.77v13.77h13.77v-13.77h0Z"/>
        </g>
        <g>
          <rect class="cls-2" x="431.67" y="262.08" width="12.41" height="12.41"/>
          <path class="cls-1" d="M443.4,262.76v11.05h-11.05v-11.05h11.05M444.77,261.4h-13.77v13.77h13.77v-13.77h0Z"/>
        </g>
        <g>
          <rect class="cls-2" x="412.16" y="262.08" width="12.41" height="12.41"/>
          <path class="cls-1" d="M423.89,262.76v11.05h-11.05v-11.05h11.05M425.25,261.4h-13.77v13.77h13.77v-13.77h0Z"/>
        </g>
        <g>
          <rect class="cls-2" x="412.04" y="281.72" width="12.41" height="12.41"/>
          <path class="cls-1" d="M423.77,282.39v11.05h-11.05v-11.05h11.05M425.13,281.03h-13.77v13.77h13.77v-13.77h0Z"/>
        </g>
        <g>
          <rect class="cls-2" x="431.55" y="281.72" width="12.41" height="12.41"/>
          <path class="cls-1" d="M443.29,282.39v11.05h-11.05v-11.05h11.05M444.65,281.03h-13.77v13.77h13.77v-13.77h0Z"/>
        </g>
        <g>
          <rect class="cls-2" x="392.64" y="262.08" width="12.41" height="12.41"/>
          <path class="cls-1" d="M404.37,262.76v11.05h-11.05v-11.05h11.05M405.74,261.4h-13.77v13.77h13.77v-13.77h0Z"/>
        </g>
        <g>
          <rect class="cls-2" x="392.52" y="281.72" width="12.41" height="12.41"/>
          <path class="cls-1" d="M404.26,282.39v11.05h-11.05v-11.05h11.05M405.62,281.03h-13.77v13.77h13.77v-13.77h0Z"/>
        </g>
      </g>
    </g>
    <g>
      <g>
        <rect class="cls-2" x="223.67" y="182.67" width="7.76" height="7.76"/>
        <path class="cls-1" d="M231,183.1v6.91h-6.91v-6.91h6.91M231.85,182.25h-8.61v8.61h8.61v-8.61h0Z"/>
      </g>
      <g>
        <rect class="cls-2" x="211.47" y="182.67" width="7.76" height="7.76"/>
        <path class="cls-1" d="M218.8,183.1v6.91h-6.91v-6.91h6.91M219.66,182.25h-8.61v8.61h8.61v-8.61h0Z"/>
      </g>
      <g>
        <rect class="cls-2" x="211.4" y="194.94" width="7.76" height="7.76"/>
        <path class="cls-1" d="M218.73,195.37v6.91h-6.91v-6.91h6.91M219.58,194.52h-8.61v8.61h8.61v-8.61h0Z"/>
      </g>
      <g>
        <rect class="cls-2" x="223.67" y="194.94" width="7.76" height="7.76"/>
        <path class="cls-1" d="M231,195.37v6.91h-6.91v-6.91h6.91M231.85,194.52h-8.61v8.61h8.61v-8.61h0Z"/>
      </g>
      <g>
        <rect class="cls-2" x="199.27" y="182.67" width="7.76" height="7.76"/>
        <path class="cls-1" d="M206.61,183.1v6.91h-6.91v-6.91h6.91M207.46,182.25h-8.61v8.61h8.61v-8.61h0Z"/>
      </g>
      <g>
        <rect class="cls-2" x="199.2" y="194.94" width="7.76" height="7.76"/>
        <path class="cls-1" d="M206.53,195.37v6.91h-6.91v-6.91h6.91M207.38,194.52h-8.61v8.61h8.61v-8.61h0Z"/>
      </g>
      <g>
        <rect class="cls-2" x="187.08" y="182.67" width="7.76" height="7.76"/>
        <path class="cls-1" d="M194.41,183.1v6.91h-6.91v-6.91h6.91M195.26,182.25h-8.61v8.61h8.61v-8.61h0Z"/>
      </g>
      <g>
        <rect class="cls-2" x="174.88" y="182.67" width="7.76" height="7.76"/>
        <path class="cls-1" d="M182.21,183.1v6.91h-6.91v-6.91h6.91M183.06,182.25h-8.61v8.61h8.61v-8.61h0Z"/>
      </g>
      <g>
        <rect class="cls-2" x="174.81" y="194.94" width="7.76" height="7.76"/>
        <path class="cls-1" d="M182.14,195.37v6.91h-6.91v-6.91h6.91M182.99,194.52h-8.61v8.61h8.61v-8.61h0Z"/>
      </g>
      <g>
        <rect class="cls-2" x="187" y="194.94" width="7.76" height="7.76"/>
        <path class="cls-1" d="M194.34,195.37v6.91h-6.91v-6.91h6.91M195.19,194.52h-8.61v8.61h8.61v-8.61h0Z"/>
      </g>
      <g>
        <rect class="cls-2" x="162.68" y="182.67" width="7.76" height="7.76"/>
        <path class="cls-1" d="M170.02,183.1v6.91h-6.91v-6.91h6.91M170.87,182.25h-8.61v8.61h8.61v-8.61h0Z"/>
      </g>
      <g>
        <rect class="cls-2" x="162.61" y="194.94" width="7.76" height="7.76"/>
        <path class="cls-1" d="M169.94,195.37v6.91h-6.91v-6.91h6.91M170.79,194.52h-8.61v8.61h8.61v-8.61h0Z"/>
      </g>
      <g>
        <g>
          <rect class="cls-2" x="223.67" y="207.21" width="7.76" height="7.76"/>
          <path class="cls-1" d="M231,207.64v6.91h-6.91v-6.91h6.91M231.85,206.79h-8.61v8.61h8.61v-8.61h0Z"/>
        </g>
        <g>
          <rect class="cls-2" x="211.47" y="207.21" width="7.76" height="7.76"/>
          <path class="cls-1" d="M218.8,207.64v6.91h-6.91v-6.91h6.91M219.66,206.79h-8.61v8.61h8.61v-8.61h0Z"/>
        </g>
        <g>
          <rect class="cls-2" x="211.4" y="219.48" width="7.76" height="7.76"/>
          <path class="cls-1" d="M218.73,219.91v6.91h-6.91v-6.91h6.91M219.58,219.06h-8.61v8.61h8.61v-8.61h0Z"/>
        </g>
        <g>
          <rect class="cls-2" x="223.67" y="219.48" width="7.76" height="7.76"/>
          <path class="cls-1" d="M231,219.91v6.91h-6.91v-6.91h6.91M231.85,219.06h-8.61v8.61h8.61v-8.61h0Z"/>
        </g>
        <g>
          <rect class="cls-2" x="199.27" y="207.21" width="7.76" height="7.76"/>
          <path class="cls-1" d="M206.61,207.64v6.91h-6.91v-6.91h6.91M207.46,206.79h-8.61v8.61h8.61v-8.61h0Z"/>
        </g>
        <g>
          <rect class="cls-2" x="199.2" y="219.48" width="7.76" height="7.76"/>
          <path class="cls-1" d="M206.53,219.91v6.91h-6.91v-6.91h6.91M207.38,219.06h-8.61v8.61h8.61v-8.61h0Z"/>
        </g>
        <g>
          <rect class="cls-2" x="187.08" y="207.21" width="7.76" height="7.76"/>
          <path class="cls-1" d="M194.41,207.64v6.91h-6.91v-6.91h6.91M195.26,206.79h-8.61v8.61h8.61v-8.61h0Z"/>
        </g>
        <g>
          <rect class="cls-2" x="174.88" y="207.21" width="7.76" height="7.76"/>
          <path class="cls-1" d="M182.21,207.64v6.91h-6.91v-6.91h6.91M183.06,206.79h-8.61v8.61h8.61v-8.61h0Z"/>
        </g>
        <g>
          <rect class="cls-2" x="174.81" y="219.48" width="7.76" height="7.76"/>
          <path class="cls-1" d="M182.14,219.91v6.91h-6.91v-6.91h6.91M182.99,219.06h-8.61v8.61h8.61v-8.61h0Z"/>
        </g>
        <g>
          <rect class="cls-2" x="187" y="219.48" width="7.76" height="7.76"/>
          <path class="cls-1" d="M194.34,219.91v6.91h-6.91v-6.91h6.91M195.19,219.06h-8.61v8.61h8.61v-8.61h0Z"/>
        </g>
        <g>
          <rect class="cls-2" x="162.68" y="207.21" width="7.76" height="7.76"/>
          <path class="cls-1" d="M170.02,207.64v6.91h-6.91v-6.91h6.91M170.87,206.79h-8.61v8.61h8.61v-8.61h0Z"/>
        </g>
        <g>
          <rect class="cls-2" x="162.61" y="219.48" width="7.76" height="7.76"/>
          <path class="cls-1" d="M169.94,219.91v6.91h-6.91v-6.91h6.91M170.79,219.06h-8.61v8.61h8.61v-8.61h0Z"/>
        </g>
      </g>
      <g>
        <g>
          <rect class="cls-2" x="223.67" y="231.75" width="7.76" height="7.76"/>
          <path class="cls-1" d="M231,232.18v6.91h-6.91v-6.91h6.91M231.85,231.33h-8.61v8.61h8.61v-8.61h0Z"/>
        </g>
        <g>
          <rect class="cls-2" x="211.47" y="231.75" width="7.76" height="7.76"/>
          <path class="cls-1" d="M218.8,232.18v6.91h-6.91v-6.91h6.91M219.66,231.33h-8.61v8.61h8.61v-8.61h0Z"/>
        </g>
        <g>
          <rect class="cls-2" x="211.4" y="244.02" width="7.76" height="7.76"/>
          <path class="cls-1" d="M218.73,244.45v6.91h-6.91v-6.91h6.91M219.58,243.6h-8.61v8.61h8.61v-8.61h0Z"/>
        </g>
        <g>
          <rect class="cls-2" x="223.67" y="244.02" width="7.76" height="7.76"/>
          <path class="cls-1" d="M231,244.45v6.91h-6.91v-6.91h6.91M231.85,243.6h-8.61v8.61h8.61v-8.61h0Z"/>
        </g>
        <g>
          <rect class="cls-2" x="199.27" y="231.75" width="7.76" height="7.76"/>
          <path class="cls-1" d="M206.61,232.18v6.91h-6.91v-6.91h6.91M207.46,231.33h-8.61v8.61h8.61v-8.61h0Z"/>
        </g>
        <g>
          <rect class="cls-2" x="199.2" y="244.02" width="7.76" height="7.76"/>
          <path class="cls-1" d="M206.53,244.45v6.91h-6.91v-6.91h6.91M207.38,243.6h-8.61v8.61h8.61v-8.61h0Z"/>
        </g>
        <g>
          <rect class="cls-2" x="187.08" y="231.75" width="7.76" height="7.76"/>
          <path class="cls-1" d="M194.41,232.18v6.91h-6.91v-6.91h6.91M195.26,231.33h-8.61v8.61h8.61v-8.61h0Z"/>
        </g>
        <g>
          <rect class="cls-2" x="174.88" y="231.75" width="7.76" height="7.76"/>
          <path class="cls-1" d="M182.21,232.18v6.91h-6.91v-6.91h6.91M183.06,231.33h-8.61v8.61h8.61v-8.61h0Z"/>
        </g>
        <g>
          <rect class="cls-2" x="174.81" y="244.02" width="7.76" height="7.76"/>
          <path class="cls-1" d="M182.14,244.45v6.91h-6.91v-6.91h6.91M182.99,243.6h-8.61v8.61h8.61v-8.61h0Z"/>
        </g>
        <g>
          <rect class="cls-2" x="187" y="244.02" width="7.76" height="7.76"/>
          <path class="cls-1" d="M194.34,244.45v6.91h-6.91v-6.91h6.91M195.19,243.6h-8.61v8.61h8.61v-8.61h0Z"/>
        </g>
        <g>
          <rect class="cls-2" x="162.68" y="231.75" width="7.76" height="7.76"/>
          <path class="cls-1" d="M170.02,232.18v6.91h-6.91v-6.91h6.91M170.87,231.33h-8.61v8.61h8.61v-8.61h0Z"/>
        </g>
        <g>
          <rect class="cls-2" x="162.61" y="244.02" width="7.76" height="7.76"/>
          <path class="cls-1" d="M169.94,244.45v6.91h-6.91v-6.91h6.91M170.79,243.6h-8.61v8.61h8.61v-8.61h0Z"/>
        </g>
      </g>
      <g>
        <g>
          <rect class="cls-2" x="223.67" y="256.3" width="7.76" height="7.76"/>
          <path class="cls-1" d="M231,256.72v6.91h-6.91v-6.91h6.91M231.85,255.87h-8.61v8.61h8.61v-8.61h0Z"/>
        </g>
        <g>
          <rect class="cls-2" x="211.47" y="256.3" width="7.76" height="7.76"/>
          <path class="cls-1" d="M218.8,256.72v6.91h-6.91v-6.91h6.91M219.66,255.87h-8.61v8.61h8.61v-8.61h0Z"/>
        </g>
        <g>
          <rect class="cls-2" x="211.4" y="268.56" width="7.76" height="7.76"/>
          <path class="cls-1" d="M218.73,268.99v6.91h-6.91v-6.91h6.91M219.58,268.14h-8.61v8.61h8.61v-8.61h0Z"/>
        </g>
        <g>
          <rect class="cls-2" x="223.67" y="268.56" width="7.76" height="7.76"/>
          <path class="cls-1" d="M231,268.99v6.91h-6.91v-6.91h6.91M231.85,268.14h-8.61v8.61h8.61v-8.61h0Z"/>
        </g>
        <g>
          <rect class="cls-2" x="199.27" y="256.3" width="7.76" height="7.76"/>
          <path class="cls-1" d="M206.61,256.72v6.91h-6.91v-6.91h6.91M207.46,255.87h-8.61v8.61h8.61v-8.61h0Z"/>
        </g>
        <g>
          <rect class="cls-2" x="199.2" y="268.56" width="7.76" height="7.76"/>
          <path class="cls-1" d="M206.53,268.99v6.91h-6.91v-6.91h6.91M207.38,268.14h-8.61v8.61h8.61v-8.61h0Z"/>
        </g>
        <g>
          <rect class="cls-2" x="187.08" y="256.3" width="7.76" height="7.76"/>
          <path class="cls-1" d="M194.41,256.72v6.91h-6.91v-6.91h6.91M195.26,255.87h-8.61v8.61h8.61v-8.61h0Z"/>
        </g>
        <g>
          <rect class="cls-2" x="174.88" y="256.3" width="7.76" height="7.76"/>
          <path class="cls-1" d="M182.21,256.72v6.91h-6.91v-6.91h6.91M183.06,255.87h-8.61v8.61h8.61v-8.61h0Z"/>
        </g>
        <g>
          <rect class="cls-2" x="174.81" y="268.56" width="7.76" height="7.76"/>
          <path class="cls-1" d="M182.14,268.99v6.91h-6.91v-6.91h6.91M182.99,268.14h-8.61v8.61h8.61v-8.61h0Z"/>
        </g>
        <g>
          <rect class="cls-2" x="187" y="268.56" width="7.76" height="7.76"/>
          <path class="cls-1" d="M194.34,268.99v6.91h-6.91v-6.91h6.91M195.19,268.14h-8.61v8.61h8.61v-8.61h0Z"/>
        </g>
        <g>
          <rect class="cls-2" x="162.68" y="256.3" width="7.76" height="7.76"/>
          <path class="cls-1" d="M170.02,256.72v6.91h-6.91v-6.91h6.91M170.87,255.87h-8.61v8.61h8.61v-8.61h0Z"/>
        </g>
        <g>
          <rect class="cls-2" x="162.61" y="268.56" width="7.76" height="7.76"/>
          <path class="cls-1" d="M169.94,268.99v6.91h-6.91v-6.91h6.91M170.79,268.14h-8.61v8.61h8.61v-8.61h0Z"/>
        </g>
      </g>
      <g>
        <g>
          <rect class="cls-2" x="223.59" y="280.84" width="7.76" height="7.76"/>
          <path class="cls-1" d="M230.93,281.26v6.91h-6.91v-6.91h6.91M231.78,280.41h-8.61v8.61h8.61v-8.61h0Z"/>
        </g>
        <g>
          <rect class="cls-2" x="211.4" y="280.84" width="7.76" height="7.76"/>
          <path class="cls-1" d="M218.73,281.26v6.91h-6.91v-6.91h6.91M219.58,280.41h-8.61v8.61h8.61v-8.61h0Z"/>
        </g>
        <g>
          <rect class="cls-2" x="211.32" y="293.11" width="7.76" height="7.76"/>
          <path class="cls-1" d="M218.66,293.53v6.91h-6.91v-6.91h6.91M219.51,292.68h-8.61v8.61h8.61v-8.61h0Z"/>
        </g>
        <g>
          <rect class="cls-2" x="223.59" y="293.11" width="7.76" height="7.76"/>
          <path class="cls-1" d="M230.93,293.53v6.91h-6.91v-6.91h6.91M231.78,292.68h-8.61v8.61h8.61v-8.61h0Z"/>
        </g>
        <g>
          <rect class="cls-2" x="199.2" y="280.84" width="7.76" height="7.76"/>
          <path class="cls-1" d="M206.53,281.26v6.91h-6.91v-6.91h6.91M207.38,280.41h-8.61v8.61h8.61v-8.61h0Z"/>
        </g>
        <g>
          <rect class="cls-2" x="199.13" y="293.11" width="7.76" height="7.76"/>
          <path class="cls-1" d="M206.46,293.53v6.91h-6.91v-6.91h6.91M207.31,292.68h-8.61v8.61h8.61v-8.61h0Z"/>
        </g>
        <g>
          <rect class="cls-2" x="187" y="280.84" width="7.76" height="7.76"/>
          <path class="cls-1" d="M194.34,281.26v6.91h-6.91v-6.91h6.91M195.19,280.41h-8.61v8.61h8.61v-8.61h0Z"/>
        </g>
        <g>
          <rect class="cls-2" x="174.81" y="280.84" width="7.76" height="7.76"/>
          <path class="cls-1" d="M182.14,281.26v6.91h-6.91v-6.91h6.91M182.99,280.41h-8.61v8.61h8.61v-8.61h0Z"/>
        </g>
        <g>
          <rect class="cls-2" x="174.73" y="293.11" width="7.76" height="7.76"/>
          <path class="cls-1" d="M182.07,293.53v6.91h-6.91v-6.91h6.91M182.92,292.68h-8.61v8.61h8.61v-8.61h0Z"/>
        </g>
        <g>
          <rect class="cls-2" x="186.93" y="293.11" width="7.76" height="7.76"/>
          <path class="cls-1" d="M194.26,293.53v6.91h-6.91v-6.91h6.91M195.11,292.68h-8.61v8.61h8.61v-8.61h0Z"/>
        </g>
        <g>
          <rect class="cls-2" x="162.61" y="280.84" width="7.76" height="7.76"/>
          <path class="cls-1" d="M169.94,281.26v6.91h-6.91v-6.91h6.91M170.79,280.41h-8.61v8.61h8.61v-8.61h0Z"/>
        </g>
        <g>
          <rect class="cls-2" x="162.54" y="293.11" width="7.76" height="7.76"/>
          <path class="cls-1" d="M169.87,293.53v6.91h-6.91v-6.91h6.91M170.72,292.68h-8.61v8.61h8.61v-8.61h0Z"/>
        </g>
      </g>
      <g>
        <rect class="cls-2" x="150.4" y="182.67" width="7.76" height="7.76"/>
        <path class="cls-1" d="M157.73,183.1v6.91h-6.91v-6.91h6.91M158.58,182.25h-8.61v8.61h8.61v-8.61h0Z"/>
      </g>
      <g>
        <rect class="cls-2" x="138.2" y="182.67" width="7.76" height="7.76"/>
        <path class="cls-1" d="M145.54,183.1v6.91h-6.91v-6.91h6.91M146.39,182.25h-8.61v8.61h8.61v-8.61h0Z"/>
      </g>
      <g>
        <rect class="cls-2" x="138.13" y="194.94" width="7.76" height="7.76"/>
        <path class="cls-1" d="M145.46,195.37v6.91h-6.91v-6.91h6.91M146.31,194.52h-8.61v8.61h8.61v-8.61h0Z"/>
      </g>
      <g>
        <rect class="cls-2" x="150.4" y="194.94" width="7.76" height="7.76"/>
        <path class="cls-1" d="M157.73,195.37v6.91h-6.91v-6.91h6.91M158.58,194.52h-8.61v8.61h8.61v-8.61h0Z"/>
      </g>
      <g>
        <rect class="cls-2" x="126.01" y="182.67" width="7.76" height="7.76"/>
        <path class="cls-1" d="M133.34,183.1v6.91h-6.91v-6.91h6.91M134.19,182.25h-8.61v8.61h8.61v-8.61h0Z"/>
      </g>
      <g>
        <rect class="cls-2" x="125.93" y="194.94" width="7.76" height="7.76"/>
        <path class="cls-1" d="M133.27,195.37v6.91h-6.91v-6.91h6.91M134.12,194.52h-8.61v8.61h8.61v-8.61h0Z"/>
      </g>
      <g>
        <rect class="cls-2" x="113.81" y="182.67" width="7.76" height="7.76"/>
        <path class="cls-1" d="M121.14,183.1v6.91h-6.91v-6.91h6.91M121.99,182.25h-8.61v8.61h8.61v-8.61h0Z"/>
      </g>
      <g>
        <rect class="cls-2" x="113.74" y="194.94" width="7.76" height="7.76"/>
        <path class="cls-1" d="M121.07,195.37v6.91h-6.91v-6.91h6.91M121.92,194.52h-8.61v8.61h8.61v-8.61h0Z"/>
      </g>
      <g>
        <rect class="cls-2" x="150.4" y="207.21" width="7.76" height="7.76"/>
        <path class="cls-1" d="M157.73,207.64v6.91h-6.91v-6.91h6.91M158.58,206.79h-8.61v8.61h8.61v-8.61h0Z"/>
      </g>
      <g>
        <rect class="cls-2" x="138.2" y="207.21" width="7.76" height="7.76"/>
        <path class="cls-1" d="M145.54,207.64v6.91h-6.91v-6.91h6.91M146.39,206.79h-8.61v8.61h8.61v-8.61h0Z"/>
      </g>
      <g>
        <rect class="cls-2" x="138.13" y="219.48" width="7.76" height="7.76"/>
        <path class="cls-1" d="M145.46,219.91v6.91h-6.91v-6.91h6.91M146.31,219.06h-8.61v8.61h8.61v-8.61h0Z"/>
      </g>
      <g>
        <rect class="cls-2" x="150.4" y="219.48" width="7.76" height="7.76"/>
        <path class="cls-1" d="M157.73,219.91v6.91h-6.91v-6.91h6.91M158.58,219.06h-8.61v8.61h8.61v-8.61h0Z"/>
      </g>
      <g>
        <rect class="cls-2" x="126.01" y="207.21" width="7.76" height="7.76"/>
        <path class="cls-1" d="M133.34,207.64v6.91h-6.91v-6.91h6.91M134.19,206.79h-8.61v8.61h8.61v-8.61h0Z"/>
      </g>
      <g>
        <rect class="cls-2" x="125.93" y="219.48" width="7.76" height="7.76"/>
        <path class="cls-1" d="M133.27,219.91v6.91h-6.91v-6.91h6.91M134.12,219.06h-8.61v8.61h8.61v-8.61h0Z"/>
      </g>
      <g>
        <rect class="cls-2" x="113.81" y="207.21" width="7.76" height="7.76"/>
        <path class="cls-1" d="M121.14,207.64v6.91h-6.91v-6.91h6.91M121.99,206.79h-8.61v8.61h8.61v-8.61h0Z"/>
      </g>
      <g>
        <rect class="cls-2" x="113.74" y="219.48" width="7.76" height="7.76"/>
        <path class="cls-1" d="M121.07,219.91v6.91h-6.91v-6.91h6.91M121.92,219.06h-8.61v8.61h8.61v-8.61h0Z"/>
      </g>
      <g>
        <rect class="cls-2" x="150.4" y="231.75" width="7.76" height="7.76"/>
        <path class="cls-1" d="M157.73,232.18v6.91h-6.91v-6.91h6.91M158.58,231.33h-8.61v8.61h8.61v-8.61h0Z"/>
      </g>
      <g>
        <rect class="cls-2" x="138.2" y="231.75" width="7.76" height="7.76"/>
        <path class="cls-1" d="M145.54,232.18v6.91h-6.91v-6.91h6.91M146.39,231.33h-8.61v8.61h8.61v-8.61h0Z"/>
      </g>
      <g>
        <rect class="cls-2" x="138.13" y="244.02" width="7.76" height="7.76"/>
        <path class="cls-1" d="M145.46,244.45v6.91h-6.91v-6.91h6.91M146.31,243.6h-8.61v8.61h8.61v-8.61h0Z"/>
      </g>
      <g>
        <rect class="cls-2" x="150.4" y="244.02" width="7.76" height="7.76"/>
        <path class="cls-1" d="M157.73,244.45v6.91h-6.91v-6.91h6.91M158.58,243.6h-8.61v8.61h8.61v-8.61h0Z"/>
      </g>
      <g>
        <rect class="cls-2" x="126.01" y="231.75" width="7.76" height="7.76"/>
        <path class="cls-1" d="M133.34,232.18v6.91h-6.91v-6.91h6.91M134.19,231.33h-8.61v8.61h8.61v-8.61h0Z"/>
      </g>
      <g>
        <rect class="cls-2" x="125.93" y="244.02" width="7.76" height="7.76"/>
        <path class="cls-1" d="M133.27,244.45v6.91h-6.91v-6.91h6.91M134.12,243.6h-8.61v8.61h8.61v-8.61h0Z"/>
      </g>
      <g>
        <rect class="cls-2" x="113.81" y="231.75" width="7.76" height="7.76"/>
        <path class="cls-1" d="M121.14,232.18v6.91h-6.91v-6.91h6.91M121.99,231.33h-8.61v8.61h8.61v-8.61h0Z"/>
      </g>
      <g>
        <rect class="cls-2" x="113.74" y="244.02" width="7.76" height="7.76"/>
        <path class="cls-1" d="M121.07,244.45v6.91h-6.91v-6.91h6.91M121.92,243.6h-8.61v8.61h8.61v-8.61h0Z"/>
      </g>
      <g>
        <rect class="cls-2" x="150.4" y="256.3" width="7.76" height="7.76"/>
        <path class="cls-1" d="M157.73,256.72v6.91h-6.91v-6.91h6.91M158.58,255.87h-8.61v8.61h8.61v-8.61h0Z"/>
      </g>
      <g>
        <rect class="cls-2" x="138.2" y="256.3" width="7.76" height="7.76"/>
        <path class="cls-1" d="M145.54,256.72v6.91h-6.91v-6.91h6.91M146.39,255.87h-8.61v8.61h8.61v-8.61h0Z"/>
      </g>
      <g>
        <rect class="cls-2" x="138.13" y="268.56" width="7.76" height="7.76"/>
        <path class="cls-1" d="M145.46,268.99v6.91h-6.91v-6.91h6.91M146.31,268.14h-8.61v8.61h8.61v-8.61h0Z"/>
      </g>
      <g>
        <rect class="cls-2" x="150.4" y="268.56" width="7.76" height="7.76"/>
        <path class="cls-1" d="M157.73,268.99v6.91h-6.91v-6.91h6.91M158.58,268.14h-8.61v8.61h8.61v-8.61h0Z"/>
      </g>
      <g>
        <rect class="cls-2" x="126.01" y="256.3" width="7.76" height="7.76"/>
        <path class="cls-1" d="M133.34,256.72v6.91h-6.91v-6.91h6.91M134.19,255.87h-8.61v8.61h8.61v-8.61h0Z"/>
      </g>
      <g>
        <rect class="cls-2" x="125.93" y="268.56" width="7.76" height="7.76"/>
        <path class="cls-1" d="M133.27,268.99v6.91h-6.91v-6.91h6.91M134.12,268.14h-8.61v8.61h8.61v-8.61h0Z"/>
      </g>
      <g>
        <rect class="cls-2" x="113.81" y="256.3" width="7.76" height="7.76"/>
        <path class="cls-1" d="M121.14,256.72v6.91h-6.91v-6.91h6.91M121.99,255.87h-8.61v8.61h8.61v-8.61h0Z"/>
      </g>
      <g>
        <rect class="cls-2" x="113.74" y="268.56" width="7.76" height="7.76"/>
        <path class="cls-1" d="M121.07,268.99v6.91h-6.91v-6.91h6.91M121.92,268.14h-8.61v8.61h8.61v-8.61h0Z"/>
      </g>
      <g>
        <rect class="cls-2" x="150.33" y="280.84" width="7.76" height="7.76"/>
        <path class="cls-1" d="M157.66,281.26v6.91h-6.91v-6.91h6.91M158.51,280.41h-8.61v8.61h8.61v-8.61h0Z"/>
      </g>
      <g>
        <rect class="cls-2" x="138.13" y="280.84" width="7.76" height="7.76"/>
        <path class="cls-1" d="M145.46,281.26v6.91h-6.91v-6.91h6.91M146.31,280.41h-8.61v8.61h8.61v-8.61h0Z"/>
      </g>
      <g>
        <rect class="cls-2" x="138.06" y="293.11" width="7.76" height="7.76"/>
        <path class="cls-1" d="M145.39,293.53v6.91h-6.91v-6.91h6.91M146.24,292.68h-8.61v8.61h8.61v-8.61h0Z"/>
      </g>
      <g>
        <rect class="cls-2" x="150.33" y="293.11" width="7.76" height="7.76"/>
        <path class="cls-1" d="M157.66,293.53v6.91h-6.91v-6.91h6.91M158.51,292.68h-8.61v8.61h8.61v-8.61h0Z"/>
      </g>
      <g>
        <rect class="cls-2" x="125.93" y="280.84" width="7.76" height="7.76"/>
        <path class="cls-1" d="M133.27,281.26v6.91h-6.91v-6.91h6.91M134.12,280.41h-8.61v8.61h8.61v-8.61h0Z"/>
      </g>
      <g>
        <rect class="cls-2" x="125.86" y="293.11" width="7.76" height="7.76"/>
        <path class="cls-1" d="M133.19,293.53v6.91h-6.91v-6.91h6.91M134.04,292.68h-8.61v8.61h8.61v-8.61h0Z"/>
      </g>
      <g>
        <rect class="cls-2" x="113.74" y="280.84" width="7.76" height="7.76"/>
        <path class="cls-1" d="M121.07,281.26v6.91h-6.91v-6.91h6.91M121.92,280.41h-8.61v8.61h8.61v-8.61h0Z"/>
      </g>
      <g>
        <rect class="cls-2" x="113.66" y="293.11" width="7.76" height="7.76"/>
        <path class="cls-1" d="M121,293.53v6.91h-6.91v-6.91h6.91M121.85,292.68h-8.61v8.61h8.61v-8.61h0Z"/>
      </g>
    </g>
  </g>
</svg>