<?xml version="1.0" encoding="UTF-8"?>
<svg id="Layer_2" xmlns="http://www.w3.org/2000/svg" viewBox="0 0 623.62 368.5">
  <defs>
    <style>
      .cls-1 {
        fill: #231f20;
      }

      .cls-2 {
        fill: #fff;
      }
    </style>
  </defs>
  <g id="Layer_2-2" data-name="Layer_2">
    <rect class="cls-2" x="0" width="623.62" height="368.5"/>
    <g>
      <g>
        <rect class="cls-2" x="277.4" y="67.92" width="7.76" height="7.76"/>
        <path class="cls-1" d="M284.74,68.34v6.91h-6.91v-6.91h6.91M285.59,67.49h-8.61v8.61h8.61v-8.61h0Z"/>
      </g>
      <g>
        <rect class="cls-2" x="289.6" y="67.92" width="7.76" height="7.76"/>
        <path class="cls-1" d="M296.93,68.34v6.91h-6.91v-6.91h6.91M297.78,67.49h-8.61v8.61h8.61v-8.61h0Z"/>
      </g>
      <g>
        <rect class="cls-2" x="289.67" y="80.19" width="7.76" height="7.76"/>
        <path class="cls-1" d="M297.01,80.61v6.91h-6.91v-6.91h6.91M297.86,79.76h-8.61v8.61h8.61v-8.61h0Z"/>
      </g>
      <g>
        <rect class="cls-2" x="277.4" y="80.19" width="7.76" height="7.76"/>
        <path class="cls-1" d="M284.74,80.61v6.91h-6.91v-6.91h6.91M285.59,79.76h-8.61v8.61h8.61v-8.61h0Z"/>
      </g>
      <g>
        <rect class="cls-2" x="301.8" y="67.92" width="7.76" height="7.76"/>
        <path class="cls-1" d="M309.13,68.34v6.91h-6.91v-6.91h6.91M309.98,67.49h-8.61v8.61h8.61v-8.61h0Z"/>
      </g>
      <g>
        <rect class="cls-2" x="301.87" y="80.19" width="7.76" height="7.76"/>
        <path class="cls-1" d="M309.2,80.61v6.91h-6.91v-6.91h6.91M310.05,79.76h-8.61v8.61h8.61v-8.61h0Z"/>
      </g>
      <g>
        <rect class="cls-2" x="313.99" y="67.92" width="7.76" height="7.76"/>
        <path class="cls-1" d="M321.33,68.34v6.91h-6.91v-6.91h6.91M322.18,67.49h-8.61v8.61h8.61v-8.61h0Z"/>
      </g>
      <g>
        <rect class="cls-2" x="326.19" y="67.92" width="7.76" height="7.76"/>
        <path class="cls-1" d="M333.52,68.34v6.91h-6.91v-6.91h6.91M334.37,67.49h-8.61v8.61h8.61v-8.61h0Z"/>
      </g>
      <g>
        <rect class="cls-2" x="326.26" y="80.19" width="7.76" height="7.76"/>
        <path class="cls-1" d="M333.6,80.61v6.91h-6.91v-6.91h6.91M334.45,79.76h-8.61v8.61h8.61v-8.61h0Z"/>
      </g>
      <g>
        <rect class="cls-2" x="314.07" y="80.19" width="7.76" height="7.76"/>
        <path class="cls-1" d="M321.4,80.61v6.91h-6.91v-6.91h6.91M322.25,79.76h-8.61v8.61h8.61v-8.61h0Z"/>
      </g>
      <g>
        <rect class="cls-2" x="338.39" y="67.92" width="7.76" height="7.76"/>
        <path class="cls-1" d="M345.72,68.34v6.91h-6.91v-6.91h6.91M346.57,67.49h-8.61v8.61h8.61v-8.61h0Z"/>
      </g>
      <g>
        <rect class="cls-2" x="338.46" y="80.19" width="7.76" height="7.76"/>
        <path class="cls-1" d="M345.79,80.61v6.91h-6.91v-6.91h6.91M346.64,79.76h-8.61v8.61h8.61v-8.61h0Z"/>
      </g>
      <g>
        <g>
          <rect class="cls-2" x="277.4" y="92.46" width="7.76" height="7.76"/>
          <path class="cls-1" d="M284.74,92.88v6.91h-6.91v-6.91h6.91M285.59,92.03h-8.61v8.61h8.61v-8.61h0Z"/>
        </g>
        <g>
          <rect class="cls-2" x="289.6" y="92.46" width="7.76" height="7.76"/>
          <path class="cls-1" d="M296.93,92.88v6.91h-6.91v-6.91h6.91M297.78,92.03h-8.61v8.61h8.61v-8.61h0Z"/>
        </g>
        <g>
          <rect class="cls-2" x="289.67" y="104.73" width="7.76" height="7.76"/>
          <path class="cls-1" d="M297.01,105.15v6.91h-6.91v-6.91h6.91M297.86,104.3h-8.61v8.61h8.61v-8.61h0Z"/>
        </g>
        <g>
          <rect class="cls-2" x="277.4" y="104.73" width="7.76" height="7.76"/>
          <path class="cls-1" d="M284.74,105.15v6.91h-6.91v-6.91h6.91M285.59,104.3h-8.61v8.61h8.61v-8.61h0Z"/>
        </g>
        <g>
          <rect class="cls-2" x="301.8" y="92.46" width="7.76" height="7.76"/>
          <path class="cls-1" d="M309.13,92.88v6.91h-6.91v-6.91h6.91M309.98,92.03h-8.61v8.61h8.61v-8.61h0Z"/>
        </g>
        <g>
          <rect class="cls-2" x="301.87" y="104.73" width="7.76" height="7.76"/>
          <path class="cls-1" d="M309.2,105.15v6.91h-6.91v-6.91h6.91M310.05,104.3h-8.61v8.61h8.61v-8.61h0Z"/>
        </g>
        <g>
          <rect class="cls-2" x="313.99" y="92.46" width="7.76" height="7.76"/>
          <path class="cls-1" d="M321.33,92.88v6.91h-6.91v-6.91h6.91M322.18,92.03h-8.61v8.61h8.61v-8.61h0Z"/>
        </g>
        <g>
          <rect class="cls-2" x="326.19" y="92.46" width="7.76" height="7.76"/>
          <path class="cls-1" d="M333.52,92.88v6.91h-6.91v-6.91h6.91M334.37,92.03h-8.61v8.61h8.61v-8.61h0Z"/>
        </g>
        <g>
          <rect class="cls-2" x="326.26" y="104.73" width="7.76" height="7.76"/>
          <path class="cls-1" d="M333.6,105.15v6.91h-6.91v-6.91h6.91M334.45,104.3h-8.61v8.61h8.61v-8.61h0Z"/>
        </g>
        <g>
          <rect class="cls-2" x="314.07" y="104.73" width="7.76" height="7.76"/>
          <path class="cls-1" d="M321.4,105.15v6.91h-6.91v-6.91h6.91M322.25,104.3h-8.61v8.61h8.61v-8.61h0Z"/>
        </g>
        <g>
          <rect class="cls-2" x="338.39" y="92.46" width="7.76" height="7.76"/>
          <path class="cls-1" d="M345.72,92.88v6.91h-6.91v-6.91h6.91M346.57,92.03h-8.61v8.61h8.61v-8.61h0Z"/>
        </g>
        <g>
          <rect class="cls-2" x="338.46" y="104.73" width="7.76" height="7.76"/>
          <path class="cls-1" d="M345.79,105.15v6.91h-6.91v-6.91h6.91M346.64,104.3h-8.61v8.61h8.61v-8.61h0Z"/>
        </g>
      </g>
      <g>
        <g>
          <rect class="cls-2" x="277.4" y="117" width="7.76" height="7.76"/>
          <path class="cls-1" d="M284.74,117.42v6.91h-6.91v-6.91h6.91M285.59,116.57h-8.61v8.61h8.61v-8.61h0Z"/>
        </g>
        <g>
          <rect class="cls-2" x="289.6" y="117" width="7.76" height="7.76"/>
          <path class="cls-1" d="M296.93,117.42v6.91h-6.91v-6.91h6.91M297.78,116.57h-8.61v8.61h8.61v-8.61h0Z"/>
        </g>
        <g>
          <rect class="cls-2" x="289.67" y="129.27" width="7.76" height="7.76"/>
          <path class="cls-1" d="M297.01,129.69v6.91h-6.91v-6.91h6.91M297.86,128.84h-8.61v8.61h8.61v-8.61h0Z"/>
        </g>
        <g>
          <rect class="cls-2" x="277.4" y="129.27" width="7.76" height="7.76"/>
          <path class="cls-1" d="M284.74,129.69v6.91h-6.91v-6.91h6.91M285.59,128.84h-8.61v8.61h8.61v-8.61h0Z"/>
        </g>
        <g>
          <rect class="cls-2" x="301.8" y="117" width="7.76" height="7.76"/>
          <path class="cls-1" d="M309.13,117.42v6.91h-6.91v-6.91h6.91M309.98,116.57h-8.61v8.61h8.61v-8.61h0Z"/>
        </g>
        <g>
          <rect class="cls-2" x="301.87" y="129.27" width="7.76" height="7.76"/>
          <path class="cls-1" d="M309.2,129.69v6.91h-6.91v-6.91h6.91M310.05,128.84h-8.61v8.61h8.61v-8.61h0Z"/>
        </g>
        <g>
          <rect class="cls-2" x="313.99" y="117" width="7.76" height="7.76"/>
          <path class="cls-1" d="M321.33,117.42v6.91h-6.91v-6.91h6.91M322.18,116.57h-8.61v8.61h8.61v-8.61h0Z"/>
        </g>
        <g>
          <rect class="cls-2" x="326.19" y="117" width="7.76" height="7.76"/>
          <path class="cls-1" d="M333.52,117.42v6.91h-6.91v-6.91h6.91M334.37,116.57h-8.61v8.61h8.61v-8.61h0Z"/>
        </g>
        <g>
          <rect class="cls-2" x="326.26" y="129.27" width="7.76" height="7.76"/>
          <path class="cls-1" d="M333.6,129.69v6.91h-6.91v-6.91h6.91M334.45,128.84h-8.61v8.61h8.61v-8.61h0Z"/>
        </g>
        <g>
          <rect class="cls-2" x="314.07" y="129.27" width="7.76" height="7.76"/>
          <path class="cls-1" d="M321.4,129.69v6.91h-6.91v-6.91h6.91M322.25,128.84h-8.61v8.61h8.61v-8.61h0Z"/>
        </g>
        <g>
          <rect class="cls-2" x="338.39" y="117" width="7.76" height="7.76"/>
          <path class="cls-1" d="M345.72,117.42v6.91h-6.91v-6.91h6.91M346.57,116.57h-8.61v8.61h8.61v-8.61h0Z"/>
        </g>
        <g>
          <rect class="cls-2" x="338.46" y="129.27" width="7.76" height="7.76"/>
          <path class="cls-1" d="M345.79,129.69v6.91h-6.91v-6.91h6.91M346.64,128.84h-8.61v8.61h8.61v-8.61h0Z"/>
        </g>
      </g>
    </g>
    <g>
      <rect class="cls-2" x="117.73" y="182.27" width="12.41" height="12.41"/>
      <path class="cls-1" d="M129.46,182.95v11.05h-11.05v-11.05h11.05M130.82,181.59h-13.77v13.77h13.77v-13.77h0Z"/>
    </g>
    <g>
      <rect class="cls-2" x="137.25" y="182.27" width="12.41" height="12.41"/>
      <path class="cls-1" d="M148.98,182.95v11.05h-11.05v-11.05h11.05M150.34,181.59h-13.77v13.77h13.77v-13.77h0Z"/>
    </g>
    <g>
      <rect class="cls-2" x="137.36" y="201.91" width="12.41" height="12.41"/>
      <path class="cls-1" d="M149.1,202.59v11.05h-11.05v-11.05h11.05M150.46,201.23h-13.77v13.77h13.77v-13.77h0Z"/>
    </g>
    <g>
      <rect class="cls-2" x="117.73" y="201.91" width="12.41" height="12.41"/>
      <path class="cls-1" d="M129.46,202.59v11.05h-11.05v-11.05h11.05M130.82,201.23h-13.77v13.77h13.77v-13.77h0Z"/>
    </g>
    <g>
      <rect class="cls-2" x="156.76" y="182.27" width="12.41" height="12.41"/>
      <path class="cls-1" d="M168.49,182.95v11.05h-11.05v-11.05h11.05M169.85,181.59h-13.77v13.77h13.77v-13.77h0Z"/>
    </g>
    <g>
      <rect class="cls-2" x="156.88" y="201.91" width="12.41" height="12.41"/>
      <path class="cls-1" d="M168.61,202.59v11.05h-11.05v-11.05h11.05M169.97,201.23h-13.77v13.77h13.77v-13.77h0Z"/>
    </g>
    <g>
      <rect class="cls-2" x="176.28" y="182.27" width="12.41" height="12.41"/>
      <path class="cls-1" d="M188.01,182.95v11.05h-11.05v-11.05h11.05M189.37,181.59h-13.77v13.77h13.77v-13.77h0Z"/>
    </g>
    <g>
      <rect class="cls-2" x="195.79" y="182.27" width="12.41" height="12.41"/>
      <path class="cls-1" d="M207.52,182.95v11.05h-11.05v-11.05h11.05M208.88,181.59h-13.77v13.77h13.77v-13.77h0Z"/>
    </g>
    <g>
      <rect class="cls-2" x="195.91" y="201.91" width="12.41" height="12.41"/>
      <path class="cls-1" d="M207.64,202.59v11.05h-11.05v-11.05h11.05M209,201.23h-13.77v13.77h13.77v-13.77h0Z"/>
    </g>
    <g>
      <rect class="cls-2" x="176.39" y="201.91" width="12.41" height="12.41"/>
      <path class="cls-1" d="M188.13,202.59v11.05h-11.05v-11.05h11.05M189.49,201.23h-13.77v13.77h13.77v-13.77h0Z"/>
    </g>
    <g>
      <rect class="cls-2" x="215.31" y="182.27" width="12.41" height="12.41"/>
      <path class="cls-1" d="M227.04,182.95v11.05h-11.05v-11.05h11.05M228.4,181.59h-13.77v13.77h13.77v-13.77h0Z"/>
    </g>
    <g>
      <rect class="cls-2" x="215.42" y="201.91" width="12.41" height="12.41"/>
      <path class="cls-1" d="M227.16,202.59v11.05h-11.05v-11.05h11.05M228.52,201.23h-13.77v13.77h13.77v-13.77h0Z"/>
    </g>
    <g>
      <g>
        <rect class="cls-2" x="117.73" y="221.54" width="12.41" height="12.41"/>
        <path class="cls-1" d="M129.46,222.22v11.05h-11.05v-11.05h11.05M130.82,220.86h-13.77v13.77h13.77v-13.77h0Z"/>
      </g>
      <g>
        <rect class="cls-2" x="137.25" y="221.54" width="12.41" height="12.41"/>
        <path class="cls-1" d="M148.98,222.22v11.05h-11.05v-11.05h11.05M150.34,220.86h-13.77v13.77h13.77v-13.77h0Z"/>
      </g>
      <g>
        <rect class="cls-2" x="137.36" y="241.17" width="12.41" height="12.41"/>
        <path class="cls-1" d="M149.1,241.85v11.05h-11.05v-11.05h11.05M150.46,240.49h-13.77v13.77h13.77v-13.77h0Z"/>
      </g>
      <g>
        <rect class="cls-2" x="117.73" y="241.17" width="12.41" height="12.41"/>
        <path class="cls-1" d="M129.46,241.85v11.05h-11.05v-11.05h11.05M130.82,240.49h-13.77v13.77h13.77v-13.77h0Z"/>
      </g>
      <g>
        <rect class="cls-2" x="156.76" y="221.54" width="12.41" height="12.41"/>
        <path class="cls-1" d="M168.49,222.22v11.05h-11.05v-11.05h11.05M169.85,220.86h-13.77v13.77h13.77v-13.77h0Z"/>
      </g>
      <g>
        <rect class="cls-2" x="156.88" y="241.17" width="12.41" height="12.41"/>
        <path class="cls-1" d="M168.61,241.85v11.05h-11.05v-11.05h11.05M169.97,240.49h-13.77v13.77h13.77v-13.77h0Z"/>
      </g>
      <g>
        <rect class="cls-2" x="176.28" y="221.54" width="12.41" height="12.41"/>
        <path class="cls-1" d="M188.01,222.22v11.05h-11.05v-11.05h11.05M189.37,220.86h-13.77v13.77h13.77v-13.77h0Z"/>
      </g>
      <g>
        <rect class="cls-2" x="195.79" y="221.54" width="12.41" height="12.41"/>
        <path class="cls-1" d="M207.52,222.22v11.05h-11.05v-11.05h11.05M208.88,220.86h-13.77v13.77h13.77v-13.77h0Z"/>
      </g>
      <g>
        <rect class="cls-2" x="195.91" y="241.17" width="12.41" height="12.41"/>
        <path class="cls-1" d="M207.64,241.85v11.05h-11.05v-11.05h11.05M209,240.49h-13.77v13.77h13.77v-13.77h0Z"/>
      </g>
      <g>
        <rect class="cls-2" x="176.39" y="241.17" width="12.41" height="12.41"/>
        <path class="cls-1" d="M188.13,241.85v11.05h-11.05v-11.05h11.05M189.49,240.49h-13.77v13.77h13.77v-13.77h0Z"/>
      </g>
      <g>
        <rect class="cls-2" x="215.31" y="221.54" width="12.41" height="12.41"/>
        <path class="cls-1" d="M227.04,222.22v11.05h-11.05v-11.05h11.05M228.4,220.86h-13.77v13.77h13.77v-13.77h0Z"/>
      </g>
      <g>
        <rect class="cls-2" x="215.42" y="241.17" width="12.41" height="12.41"/>
        <path class="cls-1" d="M227.16,241.85v11.05h-11.05v-11.05h11.05M228.52,240.49h-13.77v13.77h13.77v-13.77h0Z"/>
      </g>
    </g>
    <g>
      <g>
        <rect class="cls-2" x="117.73" y="260.8" width="12.41" height="12.41"/>
        <path class="cls-1" d="M129.46,261.48v11.05h-11.05v-11.05h11.05M130.82,260.12h-13.77v13.77h13.77v-13.77h0Z"/>
      </g>
      <g>
        <rect class="cls-2" x="137.25" y="260.8" width="12.41" height="12.41"/>
        <path class="cls-1" d="M148.98,261.48v11.05h-11.05v-11.05h11.05M150.34,260.12h-13.77v13.77h13.77v-13.77h0Z"/>
      </g>
      <g>
        <rect class="cls-2" x="137.36" y="280.44" width="12.41" height="12.41"/>
        <path class="cls-1" d="M149.1,281.12v11.05h-11.05v-11.05h11.05M150.46,279.76h-13.77v13.77h13.77v-13.77h0Z"/>
      </g>
      <g>
        <rect class="cls-2" x="117.73" y="280.44" width="12.41" height="12.41"/>
        <path class="cls-1" d="M129.46,281.12v11.05h-11.05v-11.05h11.05M130.82,279.76h-13.77v13.77h13.77v-13.77h0Z"/>
      </g>
      <g>
        <rect class="cls-2" x="156.76" y="260.8" width="12.41" height="12.41"/>
        <path class="cls-1" d="M168.49,261.48v11.05h-11.05v-11.05h11.05M169.85,260.12h-13.77v13.77h13.77v-13.77h0Z"/>
      </g>
      <g>
        <rect class="cls-2" x="156.88" y="280.44" width="12.41" height="12.41"/>
        <path class="cls-1" d="M168.61,281.12v11.05h-11.05v-11.05h11.05M169.97,279.76h-13.77v13.77h13.77v-13.77h0Z"/>
      </g>
      <g>
        <rect class="cls-2" x="176.28" y="260.8" width="12.41" height="12.41"/>
        <path class="cls-1" d="M188.01,261.48v11.05h-11.05v-11.05h11.05M189.37,260.12h-13.77v13.77h13.77v-13.77h0Z"/>
      </g>
      <g>
        <rect class="cls-2" x="195.79" y="260.8" width="12.41" height="12.41"/>
        <path class="cls-1" d="M207.52,261.48v11.05h-11.05v-11.05h11.05M208.88,260.12h-13.77v13.77h13.77v-13.77h0Z"/>
      </g>
      <g>
        <rect class="cls-2" x="195.91" y="280.44" width="12.41" height="12.41"/>
        <path class="cls-1" d="M207.64,281.12v11.05h-11.05v-11.05h11.05M209,279.76h-13.77v13.77h13.77v-13.77h0Z"/>
      </g>
      <g>
        <rect class="cls-2" x="176.39" y="280.44" width="12.41" height="12.41"/>
        <path class="cls-1" d="M188.13,281.12v11.05h-11.05v-11.05h11.05M189.49,279.76h-13.77v13.77h13.77v-13.77h0Z"/>
      </g>
      <g>
        <rect class="cls-2" x="215.31" y="260.8" width="12.41" height="12.41"/>
        <path class="cls-1" d="M227.04,261.48v11.05h-11.05v-11.05h11.05M228.4,260.12h-13.77v13.77h13.77v-13.77h0Z"/>
      </g>
      <g>
        <rect class="cls-2" x="215.42" y="280.44" width="12.41" height="12.41"/>
        <path class="cls-1" d="M227.16,281.12v11.05h-11.05v-11.05h11.05M228.52,279.76h-13.77v13.77h13.77v-13.77h0Z"/>
      </g>
    </g>
    <g>
      <rect class="cls-2" x="388.38" y="182.39" width="7.76" height="7.76"/>
      <path class="cls-1" d="M395.72,182.82v6.91h-6.91v-6.91h6.91M396.57,181.97h-8.61v8.61h8.61v-8.61h0Z"/>
    </g>
    <g>
      <rect class="cls-2" x="400.58" y="182.39" width="7.76" height="7.76"/>
      <path class="cls-1" d="M407.91,182.82v6.91h-6.91v-6.91h6.91M408.76,181.97h-8.61v8.61h8.61v-8.61h0Z"/>
    </g>
    <g>
      <rect class="cls-2" x="400.65" y="194.67" width="7.76" height="7.76"/>
      <path class="cls-1" d="M407.99,195.09v6.91h-6.91v-6.91h6.91M408.84,194.24h-8.61v8.61h8.61v-8.61h0Z"/>
    </g>
    <g>
      <rect class="cls-2" x="388.38" y="194.67" width="7.76" height="7.76"/>
      <path class="cls-1" d="M395.72,195.09v6.91h-6.91v-6.91h6.91M396.57,194.24h-8.61v8.61h8.61v-8.61h0Z"/>
    </g>
    <g>
      <rect class="cls-2" x="412.78" y="182.39" width="7.76" height="7.76"/>
      <path class="cls-1" d="M420.11,182.82v6.91h-6.91v-6.91h6.91M420.96,181.97h-8.61v8.61h8.61v-8.61h0Z"/>
    </g>
    <g>
      <rect class="cls-2" x="412.85" y="194.67" width="7.76" height="7.76"/>
      <path class="cls-1" d="M420.18,195.09v6.91h-6.91v-6.91h6.91M421.03,194.24h-8.61v8.61h8.61v-8.61h0Z"/>
    </g>
    <g>
      <rect class="cls-2" x="424.97" y="182.39" width="7.76" height="7.76"/>
      <path class="cls-1" d="M432.31,182.82v6.91h-6.91v-6.91h6.91M433.16,181.97h-8.61v8.61h8.61v-8.61h0Z"/>
    </g>
    <g>
      <rect class="cls-2" x="437.17" y="182.39" width="7.76" height="7.76"/>
      <path class="cls-1" d="M444.5,182.82v6.91h-6.91v-6.91h6.91M445.35,181.97h-8.61v8.61h8.61v-8.61h0Z"/>
    </g>
    <g>
      <rect class="cls-2" x="437.24" y="194.67" width="7.76" height="7.76"/>
      <path class="cls-1" d="M444.58,195.09v6.91h-6.91v-6.91h6.91M445.43,194.24h-8.61v8.61h8.61v-8.61h0Z"/>
    </g>
    <g>
      <rect class="cls-2" x="425.05" y="194.67" width="7.76" height="7.76"/>
      <path class="cls-1" d="M432.38,195.09v6.91h-6.91v-6.91h6.91M433.23,194.24h-8.61v8.61h8.61v-8.61h0Z"/>
    </g>
    <g>
      <rect class="cls-2" x="449.37" y="182.39" width="7.76" height="7.76"/>
      <path class="cls-1" d="M456.7,182.82v6.91h-6.91v-6.91h6.91M457.55,181.97h-8.61v8.61h8.61v-8.61h0Z"/>
    </g>
    <g>
      <rect class="cls-2" x="449.44" y="194.67" width="7.76" height="7.76"/>
      <path class="cls-1" d="M456.77,195.09v6.91h-6.91v-6.91h6.91M457.62,194.24h-8.61v8.61h8.61v-8.61h0Z"/>
    </g>
    <g>
      <g>
        <rect class="cls-2" x="388.38" y="206.94" width="7.76" height="7.76"/>
        <path class="cls-1" d="M395.72,207.36v6.91h-6.91v-6.91h6.91M396.57,206.51h-8.61v8.61h8.61v-8.61h0Z"/>
      </g>
      <g>
        <rect class="cls-2" x="400.58" y="206.94" width="7.76" height="7.76"/>
        <path class="cls-1" d="M407.91,207.36v6.91h-6.91v-6.91h6.91M408.76,206.51h-8.61v8.61h8.61v-8.61h0Z"/>
      </g>
      <g>
        <rect class="cls-2" x="400.65" y="219.21" width="7.76" height="7.76"/>
        <path class="cls-1" d="M407.99,219.63v6.91h-6.91v-6.91h6.91M408.84,218.78h-8.61v8.61h8.61v-8.61h0Z"/>
      </g>
      <g>
        <rect class="cls-2" x="388.38" y="219.21" width="7.76" height="7.76"/>
        <path class="cls-1" d="M395.72,219.63v6.91h-6.91v-6.91h6.91M396.57,218.78h-8.61v8.61h8.61v-8.61h0Z"/>
      </g>
      <g>
        <rect class="cls-2" x="412.78" y="206.94" width="7.76" height="7.76"/>
        <path class="cls-1" d="M420.11,207.36v6.91h-6.91v-6.91h6.91M420.96,206.51h-8.61v8.61h8.61v-8.61h0Z"/>
      </g>
      <g>
        <rect class="cls-2" x="412.85" y="219.21" width="7.76" height="7.76"/>
        <path class="cls-1" d="M420.18,219.63v6.91h-6.91v-6.91h6.91M421.03,218.78h-8.61v8.61h8.61v-8.61h0Z"/>
      </g>
      <g>
        <rect class="cls-2" x="424.97" y="206.94" width="7.76" height="7.76"/>
        <path class="cls-1" d="M432.31,207.36v6.91h-6.91v-6.91h6.91M433.16,206.51h-8.61v8.61h8.61v-8.61h0Z"/>
      </g>
      <g>
        <rect class="cls-2" x="437.17" y="206.94" width="7.76" height="7.76"/>
        <path class="cls-1" d="M444.5,207.36v6.91h-6.91v-6.91h6.91M445.35,206.51h-8.61v8.61h8.61v-8.61h0Z"/>
      </g>
      <g>
        <rect class="cls-2" x="437.24" y="219.21" width="7.76" height="7.76"/>
        <path class="cls-1" d="M444.58,219.63v6.91h-6.91v-6.91h6.91M445.43,218.78h-8.61v8.61h8.61v-8.61h0Z"/>
      </g>
      <g>
        <rect class="cls-2" x="425.05" y="219.21" width="7.76" height="7.76"/>
        <path class="cls-1" d="M432.38,219.63v6.91h-6.91v-6.91h6.91M433.23,218.78h-8.61v8.61h8.61v-8.61h0Z"/>
      </g>
      <g>
        <rect class="cls-2" x="449.37" y="206.94" width="7.76" height="7.76"/>
        <path class="cls-1" d="M456.7,207.36v6.91h-6.91v-6.91h6.91M457.55,206.51h-8.61v8.61h8.61v-8.61h0Z"/>
      </g>
      <g>
        <rect class="cls-2" x="449.44" y="219.21" width="7.76" height="7.76"/>
        <path class="cls-1" d="M456.77,219.63v6.91h-6.91v-6.91h6.91M457.62,218.78h-8.61v8.61h8.61v-8.61h0Z"/>
      </g>
    </g>
    <g>
      <g>
        <rect class="cls-2" x="388.38" y="231.48" width="7.76" height="7.76"/>
        <path class="cls-1" d="M395.72,231.9v6.91h-6.91v-6.91h6.91M396.57,231.05h-8.61v8.61h8.61v-8.61h0Z"/>
      </g>
      <g>
        <rect class="cls-2" x="400.58" y="231.48" width="7.76" height="7.76"/>
        <path class="cls-1" d="M407.91,231.9v6.91h-6.91v-6.91h6.91M408.76,231.05h-8.61v8.61h8.61v-8.61h0Z"/>
      </g>
      <g>
        <rect class="cls-2" x="400.65" y="243.75" width="7.76" height="7.76"/>
        <path class="cls-1" d="M407.99,244.17v6.91h-6.91v-6.91h6.91M408.84,243.32h-8.61v8.61h8.61v-8.61h0Z"/>
      </g>
      <g>
        <rect class="cls-2" x="388.38" y="243.75" width="7.76" height="7.76"/>
        <path class="cls-1" d="M395.72,244.17v6.91h-6.91v-6.91h6.91M396.57,243.32h-8.61v8.61h8.61v-8.61h0Z"/>
      </g>
      <g>
        <rect class="cls-2" x="412.78" y="231.48" width="7.76" height="7.76"/>
        <path class="cls-1" d="M420.11,231.9v6.91h-6.91v-6.91h6.91M420.96,231.05h-8.61v8.61h8.61v-8.61h0Z"/>
      </g>
      <g>
        <rect class="cls-2" x="412.85" y="243.75" width="7.76" height="7.76"/>
        <path class="cls-1" d="M420.18,244.17v6.91h-6.91v-6.91h6.91M421.03,243.32h-8.61v8.61h8.61v-8.61h0Z"/>
      </g>
      <g>
        <rect class="cls-2" x="424.97" y="231.48" width="7.76" height="7.76"/>
        <path class="cls-1" d="M432.31,231.9v6.91h-6.91v-6.91h6.91M433.16,231.05h-8.61v8.61h8.61v-8.61h0Z"/>
      </g>
      <g>
        <rect class="cls-2" x="437.17" y="231.48" width="7.76" height="7.76"/>
        <path class="cls-1" d="M444.5,231.9v6.91h-6.91v-6.91h6.91M445.35,231.05h-8.61v8.61h8.61v-8.61h0Z"/>
      </g>
      <g>
        <rect class="cls-2" x="437.24" y="243.75" width="7.76" height="7.76"/>
        <path class="cls-1" d="M444.58,244.17v6.91h-6.91v-6.91h6.91M445.43,243.32h-8.61v8.61h8.61v-8.61h0Z"/>
      </g>
      <g>
        <rect class="cls-2" x="425.05" y="243.75" width="7.76" height="7.76"/>
        <path class="cls-1" d="M432.38,244.17v6.91h-6.91v-6.91h6.91M433.23,243.32h-8.61v8.61h8.61v-8.61h0Z"/>
      </g>
      <g>
        <rect class="cls-2" x="449.37" y="231.48" width="7.76" height="7.76"/>
        <path class="cls-1" d="M456.7,231.9v6.91h-6.91v-6.91h6.91M457.55,231.05h-8.61v8.61h8.61v-8.61h0Z"/>
      </g>
      <g>
        <rect class="cls-2" x="449.44" y="243.75" width="7.76" height="7.76"/>
        <path class="cls-1" d="M456.77,244.17v6.91h-6.91v-6.91h6.91M457.62,243.32h-8.61v8.61h8.61v-8.61h0Z"/>
      </g>
    </g>
    <g>
      <g>
        <rect class="cls-2" x="388.38" y="256.02" width="7.76" height="7.76"/>
        <path class="cls-1" d="M395.72,256.44v6.91h-6.91v-6.91h6.91M396.57,255.59h-8.61v8.61h8.61v-8.61h0Z"/>
      </g>
      <g>
        <rect class="cls-2" x="400.58" y="256.02" width="7.76" height="7.76"/>
        <path class="cls-1" d="M407.91,256.44v6.91h-6.91v-6.91h6.91M408.76,255.59h-8.61v8.61h8.61v-8.61h0Z"/>
      </g>
      <g>
        <rect class="cls-2" x="400.65" y="268.29" width="7.76" height="7.76"/>
        <path class="cls-1" d="M407.99,268.71v6.91h-6.91v-6.91h6.91M408.84,267.86h-8.61v8.61h8.61v-8.61h0Z"/>
      </g>
      <g>
        <rect class="cls-2" x="388.38" y="268.29" width="7.76" height="7.76"/>
        <path class="cls-1" d="M395.72,268.71v6.91h-6.91v-6.91h6.91M396.57,267.86h-8.61v8.61h8.61v-8.61h0Z"/>
      </g>
      <g>
        <rect class="cls-2" x="412.78" y="256.02" width="7.76" height="7.76"/>
        <path class="cls-1" d="M420.11,256.44v6.91h-6.91v-6.91h6.91M420.96,255.59h-8.61v8.61h8.61v-8.61h0Z"/>
      </g>
      <g>
        <rect class="cls-2" x="412.85" y="268.29" width="7.76" height="7.76"/>
        <path class="cls-1" d="M420.18,268.71v6.91h-6.91v-6.91h6.91M421.03,267.86h-8.61v8.61h8.61v-8.61h0Z"/>
      </g>
      <g>
        <rect class="cls-2" x="424.97" y="256.02" width="7.76" height="7.76"/>
        <path class="cls-1" d="M432.31,256.44v6.91h-6.91v-6.91h6.91M433.16,255.59h-8.61v8.61h8.61v-8.61h0Z"/>
      </g>
      <g>
        <rect class="cls-2" x="437.17" y="256.02" width="7.76" height="7.76"/>
        <path class="cls-1" d="M444.5,256.44v6.91h-6.91v-6.91h6.91M445.35,255.59h-8.61v8.61h8.61v-8.61h0Z"/>
      </g>
      <g>
        <rect class="cls-2" x="437.24" y="268.29" width="7.76" height="7.76"/>
        <path class="cls-1" d="M444.58,268.71v6.91h-6.91v-6.91h6.91M445.43,267.86h-8.61v8.61h8.61v-8.61h0Z"/>
      </g>
      <g>
        <rect class="cls-2" x="425.05" y="268.29" width="7.76" height="7.76"/>
        <path class="cls-1" d="M432.38,268.71v6.91h-6.91v-6.91h6.91M433.23,267.86h-8.61v8.61h8.61v-8.61h0Z"/>
      </g>
      <g>
        <rect class="cls-2" x="449.37" y="256.02" width="7.76" height="7.76"/>
        <path class="cls-1" d="M456.7,256.44v6.91h-6.91v-6.91h6.91M457.55,255.59h-8.61v8.61h8.61v-8.61h0Z"/>
      </g>
      <g>
        <rect class="cls-2" x="449.44" y="268.29" width="7.76" height="7.76"/>
        <path class="cls-1" d="M456.77,268.71v6.91h-6.91v-6.91h6.91M457.62,267.86h-8.61v8.61h8.61v-8.61h0Z"/>
      </g>
    </g>
    <g>
      <g>
        <rect class="cls-2" x="388.46" y="280.56" width="7.76" height="7.76"/>
        <path class="cls-1" d="M395.79,280.98v6.91h-6.91v-6.91h6.91M396.64,280.13h-8.61v8.61h8.61v-8.61h0Z"/>
      </g>
      <g>
        <rect class="cls-2" x="400.65" y="280.56" width="7.76" height="7.76"/>
        <path class="cls-1" d="M407.99,280.98v6.91h-6.91v-6.91h6.91M408.84,280.13h-8.61v8.61h8.61v-8.61h0Z"/>
      </g>
      <g>
        <rect class="cls-2" x="400.73" y="292.83" width="7.76" height="7.76"/>
        <path class="cls-1" d="M408.06,293.25v6.91h-6.91v-6.91h6.91M408.91,292.4h-8.61v8.61h8.61v-8.61h0Z"/>
      </g>
      <g>
        <rect class="cls-2" x="388.46" y="292.83" width="7.76" height="7.76"/>
        <path class="cls-1" d="M395.79,293.25v6.91h-6.91v-6.91h6.91M396.64,292.4h-8.61v8.61h8.61v-8.61h0Z"/>
      </g>
      <g>
        <rect class="cls-2" x="412.85" y="280.56" width="7.76" height="7.76"/>
        <path class="cls-1" d="M420.18,280.98v6.91h-6.91v-6.91h6.91M421.03,280.13h-8.61v8.61h8.61v-8.61h0Z"/>
      </g>
      <g>
        <rect class="cls-2" x="412.92" y="292.83" width="7.76" height="7.76"/>
        <path class="cls-1" d="M420.26,293.25v6.91h-6.91v-6.91h6.91M421.11,292.4h-8.61v8.61h8.61v-8.61h0Z"/>
      </g>
      <g>
        <rect class="cls-2" x="425.05" y="280.56" width="7.76" height="7.76"/>
        <path class="cls-1" d="M432.38,280.98v6.91h-6.91v-6.91h6.91M433.23,280.13h-8.61v8.61h8.61v-8.61h0Z"/>
      </g>
      <g>
        <rect class="cls-2" x="437.24" y="280.56" width="7.76" height="7.76"/>
        <path class="cls-1" d="M444.58,280.98v6.91h-6.91v-6.91h6.91M445.43,280.13h-8.61v8.61h8.61v-8.61h0Z"/>
      </g>
      <g>
        <rect class="cls-2" x="437.32" y="292.83" width="7.76" height="7.76"/>
        <path class="cls-1" d="M444.65,293.25v6.91h-6.91v-6.91h6.91M445.5,292.4h-8.61v8.61h8.61v-8.61h0Z"/>
      </g>
      <g>
        <rect class="cls-2" x="425.12" y="292.83" width="7.76" height="7.76"/>
        <path class="cls-1" d="M432.45,293.25v6.91h-6.91v-6.91h6.91M433.3,292.4h-8.61v8.61h8.61v-8.61h0Z"/>
      </g>
      <g>
        <rect class="cls-2" x="449.44" y="280.56" width="7.76" height="7.76"/>
        <path class="cls-1" d="M456.77,280.98v6.91h-6.91v-6.91h6.91M457.62,280.13h-8.61v8.61h8.61v-8.61h0Z"/>
      </g>
      <g>
        <rect class="cls-2" x="449.51" y="292.83" width="7.76" height="7.76"/>
        <path class="cls-1" d="M456.85,293.25v6.91h-6.91v-6.91h6.91M457.7,292.4h-8.61v8.61h8.61v-8.61h0Z"/>
      </g>
    </g>
    <g>
      <rect class="cls-2" x="461.65" y="182.39" width="7.76" height="7.76"/>
      <path class="cls-1" d="M468.98,182.82v6.91h-6.91v-6.91h6.91M469.83,181.97h-8.61v8.61h8.61v-8.61h0Z"/>
    </g>
    <g>
      <rect class="cls-2" x="473.85" y="182.39" width="7.76" height="7.76"/>
      <path class="cls-1" d="M481.18,182.82v6.91h-6.91v-6.91h6.91M482.03,181.97h-8.61v8.61h8.61v-8.61h0Z"/>
    </g>
    <g>
      <rect class="cls-2" x="473.92" y="194.67" width="7.76" height="7.76"/>
      <path class="cls-1" d="M481.25,195.09v6.91h-6.91v-6.91h6.91M482.1,194.24h-8.61v8.61h8.61v-8.61h0Z"/>
    </g>
    <g>
      <rect class="cls-2" x="461.65" y="194.67" width="7.76" height="7.76"/>
      <path class="cls-1" d="M468.98,195.09v6.91h-6.91v-6.91h6.91M469.83,194.24h-8.61v8.61h8.61v-8.61h0Z"/>
    </g>
    <g>
      <rect class="cls-2" x="486.04" y="182.39" width="7.76" height="7.76"/>
      <path class="cls-1" d="M493.38,182.82v6.91h-6.91v-6.91h6.91M494.23,181.97h-8.61v8.61h8.61v-8.61h0Z"/>
    </g>
    <g>
      <rect class="cls-2" x="486.12" y="194.67" width="7.76" height="7.76"/>
      <path class="cls-1" d="M493.45,195.09v6.91h-6.91v-6.91h6.91M494.3,194.24h-8.61v8.61h8.61v-8.61h0Z"/>
    </g>
    <g>
      <rect class="cls-2" x="498.24" y="182.39" width="7.76" height="7.76"/>
      <path class="cls-1" d="M505.57,182.82v6.91h-6.91v-6.91h6.91M506.42,181.97h-8.61v8.61h8.61v-8.61h0Z"/>
    </g>
    <g>
      <rect class="cls-2" x="498.31" y="194.67" width="7.76" height="7.76"/>
      <path class="cls-1" d="M505.65,195.09v6.91h-6.91v-6.91h6.91M506.5,194.24h-8.61v8.61h8.61v-8.61h0Z"/>
    </g>
    <g>
      <rect class="cls-2" x="461.65" y="206.94" width="7.76" height="7.76"/>
      <path class="cls-1" d="M468.98,207.36v6.91h-6.91v-6.91h6.91M469.83,206.51h-8.61v8.61h8.61v-8.61h0Z"/>
    </g>
    <g>
      <rect class="cls-2" x="473.85" y="206.94" width="7.76" height="7.76"/>
      <path class="cls-1" d="M481.18,207.36v6.91h-6.91v-6.91h6.91M482.03,206.51h-8.61v8.61h8.61v-8.61h0Z"/>
    </g>
    <g>
      <rect class="cls-2" x="473.92" y="219.21" width="7.76" height="7.76"/>
      <path class="cls-1" d="M481.25,219.63v6.91h-6.91v-6.91h6.91M482.1,218.78h-8.61v8.61h8.61v-8.61h0Z"/>
    </g>
    <g>
      <rect class="cls-2" x="461.65" y="219.21" width="7.76" height="7.76"/>
      <path class="cls-1" d="M468.98,219.63v6.91h-6.91v-6.91h6.91M469.83,218.78h-8.61v8.61h8.61v-8.61h0Z"/>
    </g>
    <g>
      <rect class="cls-2" x="486.04" y="206.94" width="7.76" height="7.76"/>
      <path class="cls-1" d="M493.38,207.36v6.91h-6.91v-6.91h6.91M494.23,206.51h-8.61v8.61h8.61v-8.61h0Z"/>
    </g>
    <g>
      <rect class="cls-2" x="486.12" y="219.21" width="7.76" height="7.76"/>
      <path class="cls-1" d="M493.45,219.63v6.91h-6.91v-6.91h6.91M494.3,218.78h-8.61v8.61h8.61v-8.61h0Z"/>
    </g>
    <g>
      <rect class="cls-2" x="498.24" y="206.94" width="7.76" height="7.76"/>
      <path class="cls-1" d="M505.57,207.36v6.91h-6.91v-6.91h6.91M506.42,206.51h-8.61v8.61h8.61v-8.61h0Z"/>
    </g>
    <g>
      <rect class="cls-2" x="498.31" y="219.21" width="7.76" height="7.76"/>
      <path class="cls-1" d="M505.65,219.63v6.91h-6.91v-6.91h6.91M506.5,218.78h-8.61v8.61h8.61v-8.61h0Z"/>
    </g>
    <g>
      <rect class="cls-2" x="461.65" y="231.48" width="7.76" height="7.76"/>
      <path class="cls-1" d="M468.98,231.9v6.91h-6.91v-6.91h6.91M469.83,231.05h-8.61v8.61h8.61v-8.61h0Z"/>
    </g>
    <g>
      <rect class="cls-2" x="473.85" y="231.48" width="7.76" height="7.76"/>
      <path class="cls-1" d="M481.18,231.9v6.91h-6.91v-6.91h6.91M482.03,231.05h-8.61v8.61h8.61v-8.61h0Z"/>
    </g>
    <g>
      <rect class="cls-2" x="473.92" y="243.75" width="7.76" height="7.76"/>
      <path class="cls-1" d="M481.25,244.17v6.91h-6.91v-6.91h6.91M482.1,243.32h-8.61v8.61h8.61v-8.61h0Z"/>
    </g>
    <g>
      <rect class="cls-2" x="461.65" y="243.75" width="7.76" height="7.76"/>
      <path class="cls-1" d="M468.98,244.17v6.91h-6.91v-6.91h6.91M469.83,243.32h-8.61v8.61h8.61v-8.61h0Z"/>
    </g>
    <g>
      <rect class="cls-2" x="486.04" y="231.48" width="7.76" height="7.76"/>
      <path class="cls-1" d="M493.38,231.9v6.91h-6.91v-6.91h6.91M494.23,231.05h-8.61v8.61h8.61v-8.61h0Z"/>
    </g>
    <g>
      <rect class="cls-2" x="486.12" y="243.75" width="7.76" height="7.76"/>
      <path class="cls-1" d="M493.45,244.17v6.91h-6.91v-6.91h6.91M494.3,243.32h-8.61v8.61h8.61v-8.61h0Z"/>
    </g>
    <g>
      <rect class="cls-2" x="498.24" y="231.48" width="7.76" height="7.76"/>
      <path class="cls-1" d="M505.57,231.9v6.91h-6.91v-6.91h6.91M506.42,231.05h-8.61v8.61h8.61v-8.61h0Z"/>
    </g>
    <g>
      <rect class="cls-2" x="498.31" y="243.75" width="7.76" height="7.76"/>
      <path class="cls-1" d="M505.65,244.17v6.91h-6.91v-6.91h6.91M506.5,243.32h-8.61v8.61h8.61v-8.61h0Z"/>
    </g>
    <g>
      <rect class="cls-2" x="461.65" y="256.02" width="7.76" height="7.76"/>
      <path class="cls-1" d="M468.98,256.44v6.91h-6.91v-6.91h6.91M469.83,255.59h-8.61v8.61h8.61v-8.61h0Z"/>
    </g>
    <g>
      <rect class="cls-2" x="473.85" y="256.02" width="7.76" height="7.76"/>
      <path class="cls-1" d="M481.18,256.44v6.91h-6.91v-6.91h6.91M482.03,255.59h-8.61v8.61h8.61v-8.61h0Z"/>
    </g>
    <g>
      <rect class="cls-2" x="473.92" y="268.29" width="7.76" height="7.76"/>
      <path class="cls-1" d="M481.25,268.71v6.91h-6.91v-6.91h6.91M482.1,267.86h-8.61v8.61h8.61v-8.61h0Z"/>
    </g>
    <g>
      <rect class="cls-2" x="461.65" y="268.29" width="7.76" height="7.76"/>
      <path class="cls-1" d="M468.98,268.71v6.91h-6.91v-6.91h6.91M469.83,267.86h-8.61v8.61h8.61v-8.61h0Z"/>
    </g>
    <g>
      <rect class="cls-2" x="486.04" y="256.02" width="7.76" height="7.76"/>
      <path class="cls-1" d="M493.38,256.44v6.91h-6.91v-6.91h6.91M494.23,255.59h-8.61v8.61h8.61v-8.61h0Z"/>
    </g>
    <g>
      <rect class="cls-2" x="486.12" y="268.29" width="7.76" height="7.76"/>
      <path class="cls-1" d="M493.45,268.71v6.91h-6.91v-6.91h6.91M494.3,267.86h-8.61v8.61h8.61v-8.61h0Z"/>
    </g>
    <g>
      <rect class="cls-2" x="498.24" y="256.02" width="7.76" height="7.76"/>
      <path class="cls-1" d="M505.57,256.44v6.91h-6.91v-6.91h6.91M506.42,255.59h-8.61v8.61h8.61v-8.61h0Z"/>
    </g>
    <g>
      <rect class="cls-2" x="498.31" y="268.29" width="7.76" height="7.76"/>
      <path class="cls-1" d="M505.65,268.71v6.91h-6.91v-6.91h6.91M506.5,267.86h-8.61v8.61h8.61v-8.61h0Z"/>
    </g>
    <g>
      <rect class="cls-2" x="461.72" y="280.56" width="7.76" height="7.76"/>
      <path class="cls-1" d="M469.06,280.98v6.91h-6.91v-6.91h6.91M469.91,280.13h-8.61v8.61h8.61v-8.61h0Z"/>
    </g>
    <g>
      <rect class="cls-2" x="473.92" y="280.56" width="7.76" height="7.76"/>
      <path class="cls-1" d="M481.25,280.98v6.91h-6.91v-6.91h6.91M482.1,280.13h-8.61v8.61h8.61v-8.61h0Z"/>
    </g>
    <g>
      <rect class="cls-2" x="473.99" y="292.83" width="7.76" height="7.76"/>
      <path class="cls-1" d="M481.33,293.25v6.91h-6.91v-6.91h6.91M482.18,292.4h-8.61v8.61h8.61v-8.61h0Z"/>
    </g>
    <g>
      <rect class="cls-2" x="461.72" y="292.83" width="7.76" height="7.76"/>
      <path class="cls-1" d="M469.06,293.25v6.91h-6.91v-6.91h6.91M469.91,292.4h-8.61v8.61h8.61v-8.61h0Z"/>
    </g>
    <g>
      <rect class="cls-2" x="486.12" y="280.56" width="7.76" height="7.76"/>
      <path class="cls-1" d="M493.45,280.98v6.91h-6.91v-6.91h6.91M494.3,280.13h-8.61v8.61h8.61v-8.61h0Z"/>
    </g>
    <g>
      <rect class="cls-2" x="486.19" y="292.83" width="7.76" height="7.76"/>
      <path class="cls-1" d="M493.52,293.25v6.91h-6.91v-6.91h6.91M494.37,292.4h-8.61v8.61h8.61v-8.61h0Z"/>
    </g>
    <g>
      <rect class="cls-2" x="498.31" y="280.56" width="7.76" height="7.76"/>
      <path class="cls-1" d="M505.65,280.98v6.91h-6.91v-6.91h6.91M506.5,280.13h-8.61v8.61h8.61v-8.61h0Z"/>
    </g>
    <g>
      <rect class="cls-2" x="498.39" y="292.83" width="7.76" height="7.76"/>
      <path class="cls-1" d="M505.72,293.25v6.91h-6.91v-6.91h6.91M506.57,292.4h-8.61v8.61h8.61v-8.61h0Z"/>
    </g>
  </g>
</svg>