<?xml version="1.0" encoding="UTF-8"?>
<svg id="Layer_2" xmlns="http://www.w3.org/2000/svg" viewBox="0 0 623.62 368.5">
  <defs>
    <style>
      .cls-1 {
        fill: #231f20;
      }

      .cls-2 {
        fill: #fff;
      }
    </style>
  </defs>
  <g id="Layer_2-2" data-name="Layer_2">
    <rect class="cls-2" x="0" width="623.62" height="368.5"/>
    <g>
      <g>
        <rect class="cls-2" x="277.4" y="67.92" width="7.76" height="7.76"/>
        <path class="cls-1" d="M284.74,68.34v6.91h-6.91v-6.91h6.91M285.59,67.49h-8.61v8.61h8.61v-8.61h0Z"/>
      </g>
      <g>
        <rect class="cls-2" x="289.6" y="67.92" width="7.76" height="7.76"/>
        <path class="cls-1" d="M296.93,68.34v6.91h-6.91v-6.91h6.91M297.78,67.49h-8.61v8.61h8.61v-8.61h0Z"/>
      </g>
      <g>
        <rect class="cls-2" x="289.67" y="80.19" width="7.76" height="7.76"/>
        <path class="cls-1" d="M297.01,80.61v6.91h-6.91v-6.91h6.91M297.86,79.76h-8.61v8.61h8.61v-8.61h0Z"/>
      </g>
      <g>
        <rect class="cls-2" x="277.4" y="80.19" width="7.76" height="7.76"/>
        <path class="cls-1" d="M284.74,80.61v6.91h-6.91v-6.91h6.91M285.59,79.76h-8.61v8.61h8.61v-8.61h0Z"/>
      </g>
      <g>
        <rect class="cls-2" x="301.8" y="67.92" width="7.76" height="7.76"/>
        <path class="cls-1" d="M309.13,68.34v6.91h-6.91v-6.91h6.91M309.98,67.49h-8.61v8.61h8.61v-8.61h0Z"/>
      </g>
      <g>
        <rect class="cls-2" x="301.87" y="80.19" width="7.76" height="7.76"/>
        <path class="cls-1" d="M309.2,80.61v6.91h-6.91v-6.91h6.91M310.05,79.76h-8.61v8.61h8.61v-8.61h0Z"/>
      </g>
      <g>
        <rect class="cls-2" x="313.99" y="67.92" width="7.76" height="7.76"/>
        <path class="cls-1" d="M321.33,68.34v6.91h-6.91v-6.91h6.91M322.18,67.49h-8.61v8.61h8.61v-8.61h0Z"/>
      </g>
      <g>
        <rect class="cls-2" x="326.19" y="67.92" width="7.76" height="7.76"/>
        <path class="cls-1" d="M333.52,68.34v6.91h-6.91v-6.91h6.91M334.37,67.49h-8.61v8.61h8.61v-8.61h0Z"/>
      </g>
      <g>
        <rect class="cls-2" x="326.26" y="80.19" width="7.76" height="7.76"/>
        <path class="cls-1" d="M333.6,80.61v6.91h-6.91v-6.91h6.91M334.45,79.76h-8.61v8.61h8.61v-8.61h0Z"/>
      </g>
      <g>
        <rect class="cls-2" x="314.07" y="80.19" width="7.76" height="7.76"/>
        <path class="cls-1" d="M321.4,80.61v6.91h-6.91v-6.91h6.91M322.25,79.76h-8.61v8.61h8.61v-8.61h0Z"/>
      </g>
      <g>
        <rect class="cls-2" x="338.39" y="67.92" width="7.76" height="7.76"/>
        <path class="cls-1" d="M345.72,68.34v6.91h-6.91v-6.91h6.91M346.57,67.49h-8.61v8.61h8.61v-8.61h0Z"/>
      </g>
      <g>
        <rect class="cls-2" x="338.46" y="80.19" width="7.76" height="7.76"/>
        <path class="cls-1" d="M345.79,80.61v6.91h-6.91v-6.91h6.91M346.64,79.76h-8.61v8.61h8.61v-8.61h0Z"/>
      </g>
      <g>
        <g>
          <rect class="cls-2" x="277.4" y="92.46" width="7.76" height="7.76"/>
          <path class="cls-1" d="M284.74,92.88v6.91h-6.91v-6.91h6.91M285.59,92.03h-8.61v8.61h8.61v-8.61h0Z"/>
        </g>
        <g>
          <rect class="cls-2" x="289.6" y="92.46" width="7.76" height="7.76"/>
          <path class="cls-1" d="M296.93,92.88v6.91h-6.91v-6.91h6.91M297.78,92.03h-8.61v8.61h8.61v-8.61h0Z"/>
        </g>
        <g>
          <rect class="cls-2" x="289.67" y="104.73" width="7.76" height="7.76"/>
          <path class="cls-1" d="M297.01,105.15v6.91h-6.91v-6.91h6.91M297.86,104.3h-8.61v8.61h8.61v-8.61h0Z"/>
        </g>
        <g>
          <rect class="cls-2" x="277.4" y="104.73" width="7.76" height="7.76"/>
          <path class="cls-1" d="M284.74,105.15v6.91h-6.91v-6.91h6.91M285.59,104.3h-8.61v8.61h8.61v-8.61h0Z"/>
        </g>
        <g>
          <rect class="cls-2" x="301.8" y="92.46" width="7.76" height="7.76"/>
          <path class="cls-1" d="M309.13,92.88v6.91h-6.91v-6.91h6.91M309.98,92.03h-8.61v8.61h8.61v-8.61h0Z"/>
        </g>
        <g>
          <rect class="cls-2" x="301.87" y="104.73" width="7.76" height="7.76"/>
          <path class="cls-1" d="M309.2,105.15v6.91h-6.91v-6.91h6.91M310.05,104.3h-8.61v8.61h8.61v-8.61h0Z"/>
        </g>
        <g>
          <rect class="cls-2" x="313.99" y="92.46" width="7.76" height="7.76"/>
          <path class="cls-1" d="M321.33,92.88v6.91h-6.91v-6.91h6.91M322.18,92.03h-8.61v8.61h8.61v-8.61h0Z"/>
        </g>
        <g>
          <rect class="cls-2" x="326.19" y="92.46" width="7.76" height="7.76"/>
          <path class="cls-1" d="M333.52,92.88v6.91h-6.91v-6.91h6.91M334.37,92.03h-8.61v8.61h8.61v-8.61h0Z"/>
        </g>
        <g>
          <rect class="cls-2" x="326.26" y="104.73" width="7.76" height="7.76"/>
          <path class="cls-1" d="M333.6,105.15v6.91h-6.91v-6.91h6.91M334.45,104.3h-8.61v8.61h8.61v-8.61h0Z"/>
        </g>
        <g>
          <rect class="cls-2" x="314.07" y="104.73" width="7.76" height="7.76"/>
          <path class="cls-1" d="M321.4,105.15v6.91h-6.91v-6.91h6.91M322.25,104.3h-8.61v8.61h8.61v-8.61h0Z"/>
        </g>
        <g>
          <rect class="cls-2" x="338.39" y="92.46" width="7.76" height="7.76"/>
          <path class="cls-1" d="M345.72,92.88v6.91h-6.91v-6.91h6.91M346.57,92.03h-8.61v8.61h8.61v-8.61h0Z"/>
        </g>
        <g>
          <rect class="cls-2" x="338.46" y="104.73" width="7.76" height="7.76"/>
          <path class="cls-1" d="M345.79,105.15v6.91h-6.91v-6.91h6.91M346.64,104.3h-8.61v8.61h8.61v-8.61h0Z"/>
        </g>
      </g>
      <g>
        <g>
          <rect class="cls-2" x="277.4" y="117" width="7.76" height="7.76"/>
          <path class="cls-1" d="M284.74,117.42v6.91h-6.91v-6.91h6.91M285.59,116.57h-8.61v8.61h8.61v-8.61h0Z"/>
        </g>
        <g>
          <rect class="cls-2" x="289.6" y="117" width="7.76" height="7.76"/>
          <path class="cls-1" d="M296.93,117.42v6.91h-6.91v-6.91h6.91M297.78,116.57h-8.61v8.61h8.61v-8.61h0Z"/>
        </g>
        <g>
          <rect class="cls-2" x="289.67" y="129.27" width="7.76" height="7.76"/>
          <path class="cls-1" d="M297.01,129.69v6.91h-6.91v-6.91h6.91M297.86,128.84h-8.61v8.61h8.61v-8.61h0Z"/>
        </g>
        <g>
          <rect class="cls-2" x="277.4" y="129.27" width="7.76" height="7.76"/>
          <path class="cls-1" d="M284.74,129.69v6.91h-6.91v-6.91h6.91M285.59,128.84h-8.61v8.61h8.61v-8.61h0Z"/>
        </g>
        <g>
          <rect class="cls-2" x="301.8" y="117" width="7.76" height="7.76"/>
          <path class="cls-1" d="M309.13,117.42v6.91h-6.91v-6.91h6.91M309.98,116.57h-8.61v8.61h8.61v-8.61h0Z"/>
        </g>
        <g>
          <rect class="cls-2" x="301.87" y="129.27" width="7.76" height="7.76"/>
          <path class="cls-1" d="M309.2,129.69v6.91h-6.91v-6.91h6.91M310.05,128.84h-8.61v8.61h8.61v-8.61h0Z"/>
        </g>
        <g>
          <rect class="cls-2" x="313.99" y="117" width="7.76" height="7.76"/>
          <path class="cls-1" d="M321.33,117.42v6.91h-6.91v-6.91h6.91M322.18,116.57h-8.61v8.61h8.61v-8.61h0Z"/>
        </g>
        <g>
          <rect class="cls-2" x="326.19" y="117" width="7.76" height="7.76"/>
          <path class="cls-1" d="M333.52,117.42v6.91h-6.91v-6.91h6.91M334.37,116.57h-8.61v8.61h8.61v-8.61h0Z"/>
        </g>
        <g>
          <rect class="cls-2" x="326.26" y="129.27" width="7.76" height="7.76"/>
          <path class="cls-1" d="M333.6,129.69v6.91h-6.91v-6.91h6.91M334.45,128.84h-8.61v8.61h8.61v-8.61h0Z"/>
        </g>
        <g>
          <rect class="cls-2" x="314.07" y="129.27" width="7.76" height="7.76"/>
          <path class="cls-1" d="M321.4,129.69v6.91h-6.91v-6.91h6.91M322.25,128.84h-8.61v8.61h8.61v-8.61h0Z"/>
        </g>
        <g>
          <rect class="cls-2" x="338.39" y="117" width="7.76" height="7.76"/>
          <path class="cls-1" d="M345.72,117.42v6.91h-6.91v-6.91h6.91M346.57,116.57h-8.61v8.61h8.61v-8.61h0Z"/>
        </g>
        <g>
          <rect class="cls-2" x="338.46" y="129.27" width="7.76" height="7.76"/>
          <path class="cls-1" d="M345.79,129.69v6.91h-6.91v-6.91h6.91M346.64,128.84h-8.61v8.61h8.61v-8.61h0Z"/>
        </g>
      </g>
    </g>
    <g>
      <g>
        <rect class="cls-2" x="121.03" y="183.55" width="12.41" height="12.41"/>
        <path class="cls-1" d="M132.76,184.23v11.05h-11.05v-11.05h11.05M134.12,182.87h-13.77v13.77h13.77v-13.77h0Z"/>
      </g>
      <g>
        <rect class="cls-2" x="140.54" y="183.55" width="12.41" height="12.41"/>
        <path class="cls-1" d="M152.28,184.23v11.05h-11.05v-11.05h11.05M153.64,182.87h-13.77v13.77h13.77v-13.77h0Z"/>
      </g>
      <g>
        <rect class="cls-2" x="140.66" y="203.18" width="12.41" height="12.41"/>
        <path class="cls-1" d="M152.39,203.87v11.05h-11.05v-11.05h11.05M153.75,202.5h-13.77v13.77h13.77v-13.77h0Z"/>
      </g>
      <g>
        <rect class="cls-2" x="121.03" y="203.18" width="12.41" height="12.41"/>
        <path class="cls-1" d="M132.76,203.87v11.05h-11.05v-11.05h11.05M134.12,202.5h-13.77v13.77h13.77v-13.77h0Z"/>
      </g>
      <g>
        <rect class="cls-2" x="160.06" y="183.55" width="12.41" height="12.41"/>
        <path class="cls-1" d="M171.79,184.23v11.05h-11.05v-11.05h11.05M173.15,182.87h-13.77v13.77h13.77v-13.77h0Z"/>
      </g>
      <g>
        <rect class="cls-2" x="160.18" y="203.18" width="12.41" height="12.41"/>
        <path class="cls-1" d="M171.91,203.87v11.05h-11.05v-11.05h11.05M173.27,202.5h-13.77v13.77h13.77v-13.77h0Z"/>
      </g>
      <g>
        <rect class="cls-2" x="179.57" y="183.55" width="12.41" height="12.41"/>
        <path class="cls-1" d="M191.31,184.23v11.05h-11.05v-11.05h11.05M192.67,182.87h-13.77v13.77h13.77v-13.77h0Z"/>
      </g>
      <g>
        <rect class="cls-2" x="199.09" y="183.55" width="12.41" height="12.41"/>
        <path class="cls-1" d="M210.82,184.23v11.05h-11.05v-11.05h11.05M212.18,182.87h-13.77v13.77h13.77v-13.77h0Z"/>
      </g>
      <g>
        <rect class="cls-2" x="199.21" y="203.18" width="12.41" height="12.41"/>
        <path class="cls-1" d="M210.94,203.87v11.05h-11.05v-11.05h11.05M212.3,202.5h-13.77v13.77h13.77v-13.77h0Z"/>
      </g>
      <g>
        <rect class="cls-2" x="179.69" y="203.18" width="12.41" height="12.41"/>
        <path class="cls-1" d="M191.42,203.87v11.05h-11.05v-11.05h11.05M192.79,202.5h-13.77v13.77h13.77v-13.77h0Z"/>
      </g>
      <g>
        <rect class="cls-2" x="218.6" y="183.55" width="12.41" height="12.41"/>
        <path class="cls-1" d="M230.34,184.23v11.05h-11.05v-11.05h11.05M231.7,182.87h-13.77v13.77h13.77v-13.77h0Z"/>
      </g>
      <g>
        <rect class="cls-2" x="218.72" y="203.18" width="12.41" height="12.41"/>
        <path class="cls-1" d="M230.45,203.87v11.05h-11.05v-11.05h11.05M231.82,202.5h-13.77v13.77h13.77v-13.77h0Z"/>
      </g>
      <g>
        <g>
          <rect class="cls-2" x="121.03" y="222.82" width="12.41" height="12.41"/>
          <path class="cls-1" d="M132.76,223.5v11.05h-11.05v-11.05h11.05M134.12,222.14h-13.77v13.77h13.77v-13.77h0Z"/>
        </g>
        <g>
          <rect class="cls-2" x="140.54" y="222.82" width="12.41" height="12.41"/>
          <path class="cls-1" d="M152.28,223.5v11.05h-11.05v-11.05h11.05M153.64,222.14h-13.77v13.77h13.77v-13.77h0Z"/>
        </g>
        <g>
          <rect class="cls-2" x="140.66" y="242.45" width="12.41" height="12.41"/>
          <path class="cls-1" d="M152.39,243.13v11.05h-11.05v-11.05h11.05M153.75,241.77h-13.77v13.77h13.77v-13.77h0Z"/>
        </g>
        <g>
          <rect class="cls-2" x="121.03" y="242.45" width="12.41" height="12.41"/>
          <path class="cls-1" d="M132.76,243.13v11.05h-11.05v-11.05h11.05M134.12,241.77h-13.77v13.77h13.77v-13.77h0Z"/>
        </g>
        <g>
          <rect class="cls-2" x="160.06" y="222.82" width="12.41" height="12.41"/>
          <path class="cls-1" d="M171.79,223.5v11.05h-11.05v-11.05h11.05M173.15,222.14h-13.77v13.77h13.77v-13.77h0Z"/>
        </g>
        <g>
          <rect class="cls-2" x="160.18" y="242.45" width="12.41" height="12.41"/>
          <path class="cls-1" d="M171.91,243.13v11.05h-11.05v-11.05h11.05M173.27,241.77h-13.77v13.77h13.77v-13.77h0Z"/>
        </g>
        <g>
          <rect class="cls-2" x="179.57" y="222.82" width="12.41" height="12.41"/>
          <path class="cls-1" d="M191.31,223.5v11.05h-11.05v-11.05h11.05M192.67,222.14h-13.77v13.77h13.77v-13.77h0Z"/>
        </g>
        <g>
          <rect class="cls-2" x="199.09" y="222.82" width="12.41" height="12.41"/>
          <path class="cls-1" d="M210.82,223.5v11.05h-11.05v-11.05h11.05M212.18,222.14h-13.77v13.77h13.77v-13.77h0Z"/>
        </g>
        <g>
          <rect class="cls-2" x="199.21" y="242.45" width="12.41" height="12.41"/>
          <path class="cls-1" d="M210.94,243.13v11.05h-11.05v-11.05h11.05M212.3,241.77h-13.77v13.77h13.77v-13.77h0Z"/>
        </g>
        <g>
          <rect class="cls-2" x="179.69" y="242.45" width="12.41" height="12.41"/>
          <path class="cls-1" d="M191.42,243.13v11.05h-11.05v-11.05h11.05M192.79,241.77h-13.77v13.77h13.77v-13.77h0Z"/>
        </g>
        <g>
          <rect class="cls-2" x="218.6" y="222.82" width="12.41" height="12.41"/>
          <path class="cls-1" d="M230.34,223.5v11.05h-11.05v-11.05h11.05M231.7,222.14h-13.77v13.77h13.77v-13.77h0Z"/>
        </g>
        <g>
          <rect class="cls-2" x="218.72" y="242.45" width="12.41" height="12.41"/>
          <path class="cls-1" d="M230.45,243.13v11.05h-11.05v-11.05h11.05M231.82,241.77h-13.77v13.77h13.77v-13.77h0Z"/>
        </g>
      </g>
      <g>
        <g>
          <rect class="cls-2" x="121.03" y="262.08" width="12.41" height="12.41"/>
          <path class="cls-1" d="M132.76,262.76v11.05h-11.05v-11.05h11.05M134.12,261.4h-13.77v13.77h13.77v-13.77h0Z"/>
        </g>
        <g>
          <rect class="cls-2" x="140.54" y="262.08" width="12.41" height="12.41"/>
          <path class="cls-1" d="M152.28,262.76v11.05h-11.05v-11.05h11.05M153.64,261.4h-13.77v13.77h13.77v-13.77h0Z"/>
        </g>
        <g>
          <rect class="cls-2" x="140.66" y="281.72" width="12.41" height="12.41"/>
          <path class="cls-1" d="M152.39,282.4v11.05h-11.05v-11.05h11.05M153.75,281.03h-13.77v13.77h13.77v-13.77h0Z"/>
        </g>
        <g>
          <rect class="cls-2" x="121.03" y="281.72" width="12.41" height="12.41"/>
          <path class="cls-1" d="M132.76,282.4v11.05h-11.05v-11.05h11.05M134.12,281.03h-13.77v13.77h13.77v-13.77h0Z"/>
        </g>
        <g>
          <rect class="cls-2" x="160.06" y="262.08" width="12.41" height="12.41"/>
          <path class="cls-1" d="M171.79,262.76v11.05h-11.05v-11.05h11.05M173.15,261.4h-13.77v13.77h13.77v-13.77h0Z"/>
        </g>
        <g>
          <rect class="cls-2" x="160.18" y="281.72" width="12.41" height="12.41"/>
          <path class="cls-1" d="M171.91,282.4v11.05h-11.05v-11.05h11.05M173.27,281.03h-13.77v13.77h13.77v-13.77h0Z"/>
        </g>
        <g>
          <rect class="cls-2" x="179.57" y="262.08" width="12.41" height="12.41"/>
          <path class="cls-1" d="M191.31,262.76v11.05h-11.05v-11.05h11.05M192.67,261.4h-13.77v13.77h13.77v-13.77h0Z"/>
        </g>
        <g>
          <rect class="cls-2" x="199.09" y="262.08" width="12.41" height="12.41"/>
          <path class="cls-1" d="M210.82,262.76v11.05h-11.05v-11.05h11.05M212.18,261.4h-13.77v13.77h13.77v-13.77h0Z"/>
        </g>
        <g>
          <rect class="cls-2" x="199.21" y="281.72" width="12.41" height="12.41"/>
          <path class="cls-1" d="M210.94,282.4v11.05h-11.05v-11.05h11.05M212.3,281.03h-13.77v13.77h13.77v-13.77h0Z"/>
        </g>
        <g>
          <rect class="cls-2" x="179.69" y="281.72" width="12.41" height="12.41"/>
          <path class="cls-1" d="M191.42,282.4v11.05h-11.05v-11.05h11.05M192.79,281.03h-13.77v13.77h13.77v-13.77h0Z"/>
        </g>
        <g>
          <rect class="cls-2" x="218.6" y="262.08" width="12.41" height="12.41"/>
          <path class="cls-1" d="M230.34,262.76v11.05h-11.05v-11.05h11.05M231.7,261.4h-13.77v13.77h13.77v-13.77h0Z"/>
        </g>
        <g>
          <rect class="cls-2" x="218.72" y="281.72" width="12.41" height="12.41"/>
          <path class="cls-1" d="M230.45,282.4v11.05h-11.05v-11.05h11.05M231.82,281.03h-13.77v13.77h13.77v-13.77h0Z"/>
        </g>
      </g>
    </g>
    <g>
      <g>
        <rect class="cls-2" x="392.31" y="182.67" width="7.76" height="7.76"/>
        <path class="cls-1" d="M399.64,183.1v6.91h-6.91v-6.91h6.91M400.49,182.25h-8.61v8.61h8.61v-8.61h0Z"/>
      </g>
      <g>
        <rect class="cls-2" x="404.5" y="182.67" width="7.76" height="7.76"/>
        <path class="cls-1" d="M411.84,183.1v6.91h-6.91v-6.91h6.91M412.69,182.25h-8.61v8.61h8.61v-8.61h0Z"/>
      </g>
      <g>
        <rect class="cls-2" x="404.58" y="194.94" width="7.76" height="7.76"/>
        <path class="cls-1" d="M411.91,195.37v6.91h-6.91v-6.91h6.91M412.76,194.52h-8.61v8.61h8.61v-8.61h0Z"/>
      </g>
      <g>
        <rect class="cls-2" x="392.31" y="194.94" width="7.76" height="7.76"/>
        <path class="cls-1" d="M399.64,195.37v6.91h-6.91v-6.91h6.91M400.49,194.52h-8.61v8.61h8.61v-8.61h0Z"/>
      </g>
      <g>
        <rect class="cls-2" x="416.7" y="182.67" width="7.76" height="7.76"/>
        <path class="cls-1" d="M424.03,183.1v6.91h-6.91v-6.91h6.91M424.88,182.25h-8.61v8.61h8.61v-8.61h0Z"/>
      </g>
      <g>
        <rect class="cls-2" x="416.77" y="194.94" width="7.76" height="7.76"/>
        <path class="cls-1" d="M424.11,195.37v6.91h-6.91v-6.91h6.91M424.96,194.52h-8.61v8.61h8.61v-8.61h0Z"/>
      </g>
      <g>
        <rect class="cls-2" x="428.9" y="182.67" width="7.76" height="7.76"/>
        <path class="cls-1" d="M436.23,183.1v6.91h-6.91v-6.91h6.91M437.08,182.25h-8.61v8.61h8.61v-8.61h0Z"/>
      </g>
      <g>
        <rect class="cls-2" x="441.09" y="182.67" width="7.76" height="7.76"/>
        <path class="cls-1" d="M448.43,183.1v6.91h-6.91v-6.91h6.91M449.28,182.25h-8.61v8.61h8.61v-8.61h0Z"/>
      </g>
      <g>
        <rect class="cls-2" x="441.17" y="194.94" width="7.76" height="7.76"/>
        <path class="cls-1" d="M448.5,195.37v6.91h-6.91v-6.91h6.91M449.35,194.52h-8.61v8.61h8.61v-8.61h0Z"/>
      </g>
      <g>
        <rect class="cls-2" x="428.97" y="194.94" width="7.76" height="7.76"/>
        <path class="cls-1" d="M436.3,195.37v6.91h-6.91v-6.91h6.91M437.15,194.52h-8.61v8.61h8.61v-8.61h0Z"/>
      </g>
      <g>
        <rect class="cls-2" x="453.29" y="182.67" width="7.76" height="7.76"/>
        <path class="cls-1" d="M460.62,183.1v6.91h-6.91v-6.91h6.91M461.47,182.25h-8.61v8.61h8.61v-8.61h0Z"/>
      </g>
      <g>
        <rect class="cls-2" x="453.36" y="194.94" width="7.76" height="7.76"/>
        <path class="cls-1" d="M460.7,195.37v6.91h-6.91v-6.91h6.91M461.55,194.52h-8.61v8.61h8.61v-8.61h0Z"/>
      </g>
      <g>
        <g>
          <rect class="cls-2" x="392.31" y="207.21" width="7.76" height="7.76"/>
          <path class="cls-1" d="M399.64,207.64v6.91h-6.91v-6.91h6.91M400.49,206.79h-8.61v8.61h8.61v-8.61h0Z"/>
        </g>
        <g>
          <rect class="cls-2" x="404.5" y="207.21" width="7.76" height="7.76"/>
          <path class="cls-1" d="M411.84,207.64v6.91h-6.91v-6.91h6.91M412.69,206.79h-8.61v8.61h8.61v-8.61h0Z"/>
        </g>
        <g>
          <rect class="cls-2" x="404.58" y="219.48" width="7.76" height="7.76"/>
          <path class="cls-1" d="M411.91,219.91v6.91h-6.91v-6.91h6.91M412.76,219.06h-8.61v8.61h8.61v-8.61h0Z"/>
        </g>
        <g>
          <rect class="cls-2" x="392.31" y="219.48" width="7.76" height="7.76"/>
          <path class="cls-1" d="M399.64,219.91v6.91h-6.91v-6.91h6.91M400.49,219.06h-8.61v8.61h8.61v-8.61h0Z"/>
        </g>
        <g>
          <rect class="cls-2" x="416.7" y="207.21" width="7.76" height="7.76"/>
          <path class="cls-1" d="M424.03,207.64v6.91h-6.91v-6.91h6.91M424.88,206.79h-8.61v8.61h8.61v-8.61h0Z"/>
        </g>
        <g>
          <rect class="cls-2" x="416.77" y="219.48" width="7.76" height="7.76"/>
          <path class="cls-1" d="M424.11,219.91v6.91h-6.91v-6.91h6.91M424.96,219.06h-8.61v8.61h8.61v-8.61h0Z"/>
        </g>
        <g>
          <rect class="cls-2" x="428.9" y="207.21" width="7.76" height="7.76"/>
          <path class="cls-1" d="M436.23,207.64v6.91h-6.91v-6.91h6.91M437.08,206.79h-8.61v8.61h8.61v-8.61h0Z"/>
        </g>
        <g>
          <rect class="cls-2" x="441.09" y="207.21" width="7.76" height="7.76"/>
          <path class="cls-1" d="M448.43,207.64v6.91h-6.91v-6.91h6.91M449.28,206.79h-8.61v8.61h8.61v-8.61h0Z"/>
        </g>
        <g>
          <rect class="cls-2" x="441.17" y="219.48" width="7.76" height="7.76"/>
          <path class="cls-1" d="M448.5,219.91v6.91h-6.91v-6.91h6.91M449.35,219.06h-8.61v8.61h8.61v-8.61h0Z"/>
        </g>
        <g>
          <rect class="cls-2" x="428.97" y="219.48" width="7.76" height="7.76"/>
          <path class="cls-1" d="M436.3,219.91v6.91h-6.91v-6.91h6.91M437.15,219.06h-8.61v8.61h8.61v-8.61h0Z"/>
        </g>
        <g>
          <rect class="cls-2" x="453.29" y="207.21" width="7.76" height="7.76"/>
          <path class="cls-1" d="M460.62,207.64v6.91h-6.91v-6.91h6.91M461.47,206.79h-8.61v8.61h8.61v-8.61h0Z"/>
        </g>
        <g>
          <rect class="cls-2" x="453.36" y="219.48" width="7.76" height="7.76"/>
          <path class="cls-1" d="M460.7,219.91v6.91h-6.91v-6.91h6.91M461.55,219.06h-8.61v8.61h8.61v-8.61h0Z"/>
        </g>
      </g>
      <g>
        <g>
          <rect class="cls-2" x="392.31" y="231.75" width="7.76" height="7.76"/>
          <path class="cls-1" d="M399.64,232.18v6.91h-6.91v-6.91h6.91M400.49,231.33h-8.61v8.61h8.61v-8.61h0Z"/>
        </g>
        <g>
          <rect class="cls-2" x="404.5" y="231.75" width="7.76" height="7.76"/>
          <path class="cls-1" d="M411.84,232.18v6.91h-6.91v-6.91h6.91M412.69,231.33h-8.61v8.61h8.61v-8.61h0Z"/>
        </g>
        <g>
          <rect class="cls-2" x="404.58" y="244.02" width="7.76" height="7.76"/>
          <path class="cls-1" d="M411.91,244.45v6.91h-6.91v-6.91h6.91M412.76,243.6h-8.61v8.61h8.61v-8.61h0Z"/>
        </g>
        <g>
          <rect class="cls-2" x="392.31" y="244.02" width="7.76" height="7.76"/>
          <path class="cls-1" d="M399.64,244.45v6.91h-6.91v-6.91h6.91M400.49,243.6h-8.61v8.61h8.61v-8.61h0Z"/>
        </g>
        <g>
          <rect class="cls-2" x="416.7" y="231.75" width="7.76" height="7.76"/>
          <path class="cls-1" d="M424.03,232.18v6.91h-6.91v-6.91h6.91M424.88,231.33h-8.61v8.61h8.61v-8.61h0Z"/>
        </g>
        <g>
          <rect class="cls-2" x="416.77" y="244.02" width="7.76" height="7.76"/>
          <path class="cls-1" d="M424.11,244.45v6.91h-6.91v-6.91h6.91M424.96,243.6h-8.61v8.61h8.61v-8.61h0Z"/>
        </g>
        <g>
          <rect class="cls-2" x="428.9" y="231.75" width="7.76" height="7.76"/>
          <path class="cls-1" d="M436.23,232.18v6.91h-6.91v-6.91h6.91M437.08,231.33h-8.61v8.61h8.61v-8.61h0Z"/>
        </g>
        <g>
          <rect class="cls-2" x="441.09" y="231.75" width="7.76" height="7.76"/>
          <path class="cls-1" d="M448.43,232.18v6.91h-6.91v-6.91h6.91M449.28,231.33h-8.61v8.61h8.61v-8.61h0Z"/>
        </g>
        <g>
          <rect class="cls-2" x="441.17" y="244.02" width="7.76" height="7.76"/>
          <path class="cls-1" d="M448.5,244.45v6.91h-6.91v-6.91h6.91M449.35,243.6h-8.61v8.61h8.61v-8.61h0Z"/>
        </g>
        <g>
          <rect class="cls-2" x="428.97" y="244.02" width="7.76" height="7.76"/>
          <path class="cls-1" d="M436.3,244.45v6.91h-6.91v-6.91h6.91M437.15,243.6h-8.61v8.61h8.61v-8.61h0Z"/>
        </g>
        <g>
          <rect class="cls-2" x="453.29" y="231.75" width="7.76" height="7.76"/>
          <path class="cls-1" d="M460.62,232.18v6.91h-6.91v-6.91h6.91M461.47,231.33h-8.61v8.61h8.61v-8.61h0Z"/>
        </g>
        <g>
          <rect class="cls-2" x="453.36" y="244.02" width="7.76" height="7.76"/>
          <path class="cls-1" d="M460.7,244.45v6.91h-6.91v-6.91h6.91M461.55,243.6h-8.61v8.61h8.61v-8.61h0Z"/>
        </g>
      </g>
      <g>
        <g>
          <rect class="cls-2" x="392.31" y="256.3" width="7.76" height="7.76"/>
          <path class="cls-1" d="M399.64,256.72v6.91h-6.91v-6.91h6.91M400.49,255.87h-8.61v8.61h8.61v-8.61h0Z"/>
        </g>
        <g>
          <rect class="cls-2" x="404.5" y="256.3" width="7.76" height="7.76"/>
          <path class="cls-1" d="M411.84,256.72v6.91h-6.91v-6.91h6.91M412.69,255.87h-8.61v8.61h8.61v-8.61h0Z"/>
        </g>
        <g>
          <rect class="cls-2" x="404.58" y="268.57" width="7.76" height="7.76"/>
          <path class="cls-1" d="M411.91,268.99v6.91h-6.91v-6.91h6.91M412.76,268.14h-8.61v8.61h8.61v-8.61h0Z"/>
        </g>
        <g>
          <rect class="cls-2" x="392.31" y="268.57" width="7.76" height="7.76"/>
          <path class="cls-1" d="M399.64,268.99v6.91h-6.91v-6.91h6.91M400.49,268.14h-8.61v8.61h8.61v-8.61h0Z"/>
        </g>
        <g>
          <rect class="cls-2" x="416.7" y="256.3" width="7.76" height="7.76"/>
          <path class="cls-1" d="M424.03,256.72v6.91h-6.91v-6.91h6.91M424.88,255.87h-8.61v8.61h8.61v-8.61h0Z"/>
        </g>
        <g>
          <rect class="cls-2" x="416.77" y="268.57" width="7.76" height="7.76"/>
          <path class="cls-1" d="M424.11,268.99v6.91h-6.91v-6.91h6.91M424.96,268.14h-8.61v8.61h8.61v-8.61h0Z"/>
        </g>
        <g>
          <rect class="cls-2" x="428.9" y="256.3" width="7.76" height="7.76"/>
          <path class="cls-1" d="M436.23,256.72v6.91h-6.91v-6.91h6.91M437.08,255.87h-8.61v8.61h8.61v-8.61h0Z"/>
        </g>
        <g>
          <rect class="cls-2" x="441.09" y="256.3" width="7.76" height="7.76"/>
          <path class="cls-1" d="M448.43,256.72v6.91h-6.91v-6.91h6.91M449.28,255.87h-8.61v8.61h8.61v-8.61h0Z"/>
        </g>
        <g>
          <rect class="cls-2" x="441.17" y="268.57" width="7.76" height="7.76"/>
          <path class="cls-1" d="M448.5,268.99v6.91h-6.91v-6.91h6.91M449.35,268.14h-8.61v8.61h8.61v-8.61h0Z"/>
        </g>
        <g>
          <rect class="cls-2" x="428.97" y="268.57" width="7.76" height="7.76"/>
          <path class="cls-1" d="M436.3,268.99v6.91h-6.91v-6.91h6.91M437.15,268.14h-8.61v8.61h8.61v-8.61h0Z"/>
        </g>
        <g>
          <rect class="cls-2" x="453.29" y="256.3" width="7.76" height="7.76"/>
          <path class="cls-1" d="M460.62,256.72v6.91h-6.91v-6.91h6.91M461.47,255.87h-8.61v8.61h8.61v-8.61h0Z"/>
        </g>
        <g>
          <rect class="cls-2" x="453.36" y="268.57" width="7.76" height="7.76"/>
          <path class="cls-1" d="M460.7,268.99v6.91h-6.91v-6.91h6.91M461.55,268.14h-8.61v8.61h8.61v-8.61h0Z"/>
        </g>
      </g>
      <g>
        <g>
          <rect class="cls-2" x="392.38" y="280.84" width="7.76" height="7.76"/>
          <path class="cls-1" d="M399.71,281.26v6.91h-6.91v-6.91h6.91M400.56,280.41h-8.61v8.61h8.61v-8.61h0Z"/>
        </g>
        <g>
          <rect class="cls-2" x="404.58" y="280.84" width="7.76" height="7.76"/>
          <path class="cls-1" d="M411.91,281.26v6.91h-6.91v-6.91h6.91M412.76,280.41h-8.61v8.61h8.61v-8.61h0Z"/>
        </g>
        <g>
          <rect class="cls-2" x="404.65" y="293.11" width="7.76" height="7.76"/>
          <path class="cls-1" d="M411.98,293.53v6.91h-6.91v-6.91h6.91M412.83,292.68h-8.61v8.61h8.61v-8.61h0Z"/>
        </g>
        <g>
          <rect class="cls-2" x="392.38" y="293.11" width="7.76" height="7.76"/>
          <path class="cls-1" d="M399.71,293.53v6.91h-6.91v-6.91h6.91M400.56,292.68h-8.61v8.61h8.61v-8.61h0Z"/>
        </g>
        <g>
          <rect class="cls-2" x="416.77" y="280.84" width="7.76" height="7.76"/>
          <path class="cls-1" d="M424.11,281.26v6.91h-6.91v-6.91h6.91M424.96,280.41h-8.61v8.61h8.61v-8.61h0Z"/>
        </g>
        <g>
          <rect class="cls-2" x="416.85" y="293.11" width="7.76" height="7.76"/>
          <path class="cls-1" d="M424.18,293.53v6.91h-6.91v-6.91h6.91M425.03,292.68h-8.61v8.61h8.61v-8.61h0Z"/>
        </g>
        <g>
          <rect class="cls-2" x="428.97" y="280.84" width="7.76" height="7.76"/>
          <path class="cls-1" d="M436.3,281.26v6.91h-6.91v-6.91h6.91M437.15,280.41h-8.61v8.61h8.61v-8.61h0Z"/>
        </g>
        <g>
          <rect class="cls-2" x="441.17" y="280.84" width="7.76" height="7.76"/>
          <path class="cls-1" d="M448.5,281.26v6.91h-6.91v-6.91h6.91M449.35,280.41h-8.61v8.61h8.61v-8.61h0Z"/>
        </g>
        <g>
          <rect class="cls-2" x="441.24" y="293.11" width="7.76" height="7.76"/>
          <path class="cls-1" d="M448.57,293.53v6.91h-6.91v-6.91h6.91M449.42,292.68h-8.61v8.61h8.61v-8.61h0Z"/>
        </g>
        <g>
          <rect class="cls-2" x="429.04" y="293.11" width="7.76" height="7.76"/>
          <path class="cls-1" d="M436.38,293.53v6.91h-6.91v-6.91h6.91M437.23,292.68h-8.61v8.61h8.61v-8.61h0Z"/>
        </g>
        <g>
          <rect class="cls-2" x="453.36" y="280.84" width="7.76" height="7.76"/>
          <path class="cls-1" d="M460.7,281.26v6.91h-6.91v-6.91h6.91M461.55,280.41h-8.61v8.61h8.61v-8.61h0Z"/>
        </g>
        <g>
          <rect class="cls-2" x="453.44" y="293.11" width="7.76" height="7.76"/>
          <path class="cls-1" d="M460.77,293.53v6.91h-6.91v-6.91h6.91M461.62,292.68h-8.61v8.61h8.61v-8.61h0Z"/>
        </g>
      </g>
      <g>
        <rect class="cls-2" x="465.57" y="182.67" width="7.76" height="7.76"/>
        <path class="cls-1" d="M472.91,183.1v6.91h-6.91v-6.91h6.91M473.76,182.25h-8.61v8.61h8.61v-8.61h0Z"/>
      </g>
      <g>
        <rect class="cls-2" x="477.77" y="182.67" width="7.76" height="7.76"/>
        <path class="cls-1" d="M485.1,183.1v6.91h-6.91v-6.91h6.91M485.95,182.25h-8.61v8.61h8.61v-8.61h0Z"/>
      </g>
      <g>
        <rect class="cls-2" x="477.84" y="194.94" width="7.76" height="7.76"/>
        <path class="cls-1" d="M485.18,195.37v6.91h-6.91v-6.91h6.91M486.03,194.52h-8.61v8.61h8.61v-8.61h0Z"/>
      </g>
      <g>
        <rect class="cls-2" x="465.57" y="194.94" width="7.76" height="7.76"/>
        <path class="cls-1" d="M472.91,195.37v6.91h-6.91v-6.91h6.91M473.76,194.52h-8.61v8.61h8.61v-8.61h0Z"/>
      </g>
      <g>
        <rect class="cls-2" x="489.97" y="182.67" width="7.76" height="7.76"/>
        <path class="cls-1" d="M497.3,183.1v6.91h-6.91v-6.91h6.91M498.15,182.25h-8.61v8.61h8.61v-8.61h0Z"/>
      </g>
      <g>
        <rect class="cls-2" x="490.04" y="194.94" width="7.76" height="7.76"/>
        <path class="cls-1" d="M497.37,195.37v6.91h-6.91v-6.91h6.91M498.22,194.52h-8.61v8.61h8.61v-8.61h0Z"/>
      </g>
      <g>
        <rect class="cls-2" x="502.16" y="182.67" width="7.76" height="7.76"/>
        <path class="cls-1" d="M509.5,183.1v6.91h-6.91v-6.91h6.91M510.35,182.25h-8.61v8.61h8.61v-8.61h0Z"/>
      </g>
      <g>
        <rect class="cls-2" x="502.24" y="194.94" width="7.76" height="7.76"/>
        <path class="cls-1" d="M509.57,195.37v6.91h-6.91v-6.91h6.91M510.42,194.52h-8.61v8.61h8.61v-8.61h0Z"/>
      </g>
      <g>
        <rect class="cls-2" x="465.57" y="207.21" width="7.76" height="7.76"/>
        <path class="cls-1" d="M472.91,207.64v6.91h-6.91v-6.91h6.91M473.76,206.79h-8.61v8.61h8.61v-8.61h0Z"/>
      </g>
      <g>
        <rect class="cls-2" x="477.77" y="207.21" width="7.76" height="7.76"/>
        <path class="cls-1" d="M485.1,207.64v6.91h-6.91v-6.91h6.91M485.95,206.79h-8.61v8.61h8.61v-8.61h0Z"/>
      </g>
      <g>
        <rect class="cls-2" x="477.84" y="219.48" width="7.76" height="7.76"/>
        <path class="cls-1" d="M485.18,219.91v6.91h-6.91v-6.91h6.91M486.03,219.06h-8.61v8.61h8.61v-8.61h0Z"/>
      </g>
      <g>
        <rect class="cls-2" x="465.57" y="219.48" width="7.76" height="7.76"/>
        <path class="cls-1" d="M472.91,219.91v6.91h-6.91v-6.91h6.91M473.76,219.06h-8.61v8.61h8.61v-8.61h0Z"/>
      </g>
      <g>
        <rect class="cls-2" x="489.97" y="207.21" width="7.76" height="7.76"/>
        <path class="cls-1" d="M497.3,207.64v6.91h-6.91v-6.91h6.91M498.15,206.79h-8.61v8.61h8.61v-8.61h0Z"/>
      </g>
      <g>
        <rect class="cls-2" x="490.04" y="219.48" width="7.76" height="7.76"/>
        <path class="cls-1" d="M497.37,219.91v6.91h-6.91v-6.91h6.91M498.22,219.06h-8.61v8.61h8.61v-8.61h0Z"/>
      </g>
      <g>
        <rect class="cls-2" x="502.16" y="207.21" width="7.76" height="7.76"/>
        <path class="cls-1" d="M509.5,207.64v6.91h-6.91v-6.91h6.91M510.35,206.79h-8.61v8.61h8.61v-8.61h0Z"/>
      </g>
      <g>
        <rect class="cls-2" x="502.24" y="219.48" width="7.76" height="7.76"/>
        <path class="cls-1" d="M509.57,219.91v6.91h-6.91v-6.91h6.91M510.42,219.06h-8.61v8.61h8.61v-8.61h0Z"/>
      </g>
      <g>
        <rect class="cls-2" x="465.57" y="231.75" width="7.76" height="7.76"/>
        <path class="cls-1" d="M472.91,232.18v6.91h-6.91v-6.91h6.91M473.76,231.33h-8.61v8.61h8.61v-8.61h0Z"/>
      </g>
      <g>
        <rect class="cls-2" x="477.77" y="231.75" width="7.76" height="7.76"/>
        <path class="cls-1" d="M485.1,232.18v6.91h-6.91v-6.91h6.91M485.95,231.33h-8.61v8.61h8.61v-8.61h0Z"/>
      </g>
      <g>
        <rect class="cls-2" x="477.84" y="244.02" width="7.76" height="7.76"/>
        <path class="cls-1" d="M485.18,244.45v6.91h-6.91v-6.91h6.91M486.03,243.6h-8.61v8.61h8.61v-8.61h0Z"/>
      </g>
      <g>
        <rect class="cls-2" x="465.57" y="244.02" width="7.76" height="7.76"/>
        <path class="cls-1" d="M472.91,244.45v6.91h-6.91v-6.91h6.91M473.76,243.6h-8.61v8.61h8.61v-8.61h0Z"/>
      </g>
      <g>
        <rect class="cls-2" x="489.97" y="231.75" width="7.76" height="7.76"/>
        <path class="cls-1" d="M497.3,232.18v6.91h-6.91v-6.91h6.91M498.15,231.33h-8.61v8.61h8.61v-8.61h0Z"/>
      </g>
      <g>
        <rect class="cls-2" x="490.04" y="244.02" width="7.76" height="7.76"/>
        <path class="cls-1" d="M497.37,244.45v6.91h-6.91v-6.91h6.91M498.22,243.6h-8.61v8.61h8.61v-8.61h0Z"/>
      </g>
      <g>
        <rect class="cls-2" x="502.16" y="231.75" width="7.76" height="7.76"/>
        <path class="cls-1" d="M509.5,232.18v6.91h-6.91v-6.91h6.91M510.35,231.33h-8.61v8.61h8.61v-8.61h0Z"/>
      </g>
      <g>
        <rect class="cls-2" x="502.24" y="244.02" width="7.76" height="7.76"/>
        <path class="cls-1" d="M509.57,244.45v6.91h-6.91v-6.91h6.91M510.42,243.6h-8.61v8.61h8.61v-8.61h0Z"/>
      </g>
      <g>
        <rect class="cls-2" x="465.57" y="256.3" width="7.76" height="7.76"/>
        <path class="cls-1" d="M472.91,256.72v6.91h-6.91v-6.91h6.91M473.76,255.87h-8.61v8.61h8.61v-8.61h0Z"/>
      </g>
      <g>
        <rect class="cls-2" x="477.77" y="256.3" width="7.76" height="7.76"/>
        <path class="cls-1" d="M485.1,256.72v6.91h-6.91v-6.91h6.91M485.95,255.87h-8.61v8.61h8.61v-8.61h0Z"/>
      </g>
      <g>
        <rect class="cls-2" x="477.84" y="268.57" width="7.76" height="7.76"/>
        <path class="cls-1" d="M485.18,268.99v6.91h-6.91v-6.91h6.91M486.03,268.14h-8.61v8.61h8.61v-8.61h0Z"/>
      </g>
      <g>
        <rect class="cls-2" x="465.57" y="268.57" width="7.76" height="7.76"/>
        <path class="cls-1" d="M472.91,268.99v6.91h-6.91v-6.91h6.91M473.76,268.14h-8.61v8.61h8.61v-8.61h0Z"/>
      </g>
      <g>
        <rect class="cls-2" x="489.97" y="256.3" width="7.76" height="7.76"/>
        <path class="cls-1" d="M497.3,256.72v6.91h-6.91v-6.91h6.91M498.15,255.87h-8.61v8.61h8.61v-8.61h0Z"/>
      </g>
      <g>
        <rect class="cls-2" x="490.04" y="268.57" width="7.76" height="7.76"/>
        <path class="cls-1" d="M497.37,268.99v6.91h-6.91v-6.91h6.91M498.22,268.14h-8.61v8.61h8.61v-8.61h0Z"/>
      </g>
      <g>
        <rect class="cls-2" x="502.16" y="256.3" width="7.76" height="7.76"/>
        <path class="cls-1" d="M509.5,256.72v6.91h-6.91v-6.91h6.91M510.35,255.87h-8.61v8.61h8.61v-8.61h0Z"/>
      </g>
      <g>
        <rect class="cls-2" x="502.24" y="268.57" width="7.76" height="7.76"/>
        <path class="cls-1" d="M509.57,268.99v6.91h-6.91v-6.91h6.91M510.42,268.14h-8.61v8.61h8.61v-8.61h0Z"/>
      </g>
      <g>
        <rect class="cls-2" x="465.65" y="280.84" width="7.76" height="7.76"/>
        <path class="cls-1" d="M472.98,281.26v6.91h-6.91v-6.91h6.91M473.83,280.41h-8.61v8.61h8.61v-8.61h0Z"/>
      </g>
      <g>
        <rect class="cls-2" x="477.84" y="280.84" width="7.76" height="7.76"/>
        <path class="cls-1" d="M485.18,281.26v6.91h-6.91v-6.91h6.91M486.03,280.41h-8.61v8.61h8.61v-8.61h0Z"/>
      </g>
      <g>
        <rect class="cls-2" x="477.92" y="293.11" width="7.76" height="7.76"/>
        <path class="cls-1" d="M485.25,293.53v6.91h-6.91v-6.91h6.91M486.1,292.68h-8.61v8.61h8.61v-8.61h0Z"/>
      </g>
      <g>
        <rect class="cls-2" x="465.65" y="293.11" width="7.76" height="7.76"/>
        <path class="cls-1" d="M472.98,293.53v6.91h-6.91v-6.91h6.91M473.83,292.68h-8.61v8.61h8.61v-8.61h0Z"/>
      </g>
      <g>
        <rect class="cls-2" x="490.04" y="280.84" width="7.76" height="7.76"/>
        <path class="cls-1" d="M497.37,281.26v6.91h-6.91v-6.91h6.91M498.22,280.41h-8.61v8.61h8.61v-8.61h0Z"/>
      </g>
      <g>
        <rect class="cls-2" x="490.11" y="293.11" width="7.76" height="7.76"/>
        <path class="cls-1" d="M497.45,293.53v6.91h-6.91v-6.91h6.91M498.3,292.68h-8.61v8.61h8.61v-8.61h0Z"/>
      </g>
      <g>
        <rect class="cls-2" x="502.24" y="280.84" width="7.76" height="7.76"/>
        <path class="cls-1" d="M509.57,281.26v6.91h-6.91v-6.91h6.91M510.42,280.41h-8.61v8.61h8.61v-8.61h0Z"/>
      </g>
      <g>
        <rect class="cls-2" x="502.31" y="293.11" width="7.76" height="7.76"/>
        <path class="cls-1" d="M509.64,293.53v6.91h-6.91v-6.91h6.91M510.49,292.68h-8.61v8.61h8.61v-8.61h0Z"/>
      </g>
    </g>
  </g>
</svg>