<?xml version="1.0" encoding="UTF-8"?>
<svg id="Layer_2" xmlns="http://www.w3.org/2000/svg" viewBox="0 0 623.62 368.5">
  <defs>
    <style>
      .cls-1 {
        fill: #231f20;
      }

      .cls-2 {
        fill: #fff;
      }
    </style>
  </defs>
  <g id="Layer_2-2" data-name="Layer_2">
    <rect class="cls-2" width="623.62" height="368.5"/>
    <g>
      <rect class="cls-2" x="316.29" y="118.95" width="7.76" height="7.76"/>
      <path class="cls-1" d="M323.62,119.38v6.91h-6.91v-6.91h6.91M324.47,118.53h-8.61v8.61h8.61v-8.61h0Z"/>
    </g>
    <g>
      <rect class="cls-2" x="304.09" y="118.95" width="7.76" height="7.76"/>
      <path class="cls-1" d="M311.42,119.38v6.91h-6.91v-6.91h6.91M312.27,118.53h-8.61v8.61h8.61v-8.61h0Z"/>
    </g>
    <g>
      <rect class="cls-2" x="304.02" y="131.23" width="7.76" height="7.76"/>
      <path class="cls-1" d="M311.35,131.65v6.91h-6.91v-6.91h6.91M312.2,130.8h-8.61v8.61h8.61v-8.61h0Z"/>
    </g>
    <g>
      <rect class="cls-2" x="316.21" y="131.23" width="7.76" height="7.76"/>
      <path class="cls-1" d="M323.55,131.65v6.91h-6.91v-6.91h6.91M324.4,130.8h-8.61v8.61h8.61v-8.61h0Z"/>
    </g>
    <g>
      <rect class="cls-2" x="291.89" y="118.95" width="7.76" height="7.76"/>
      <path class="cls-1" d="M299.23,119.38v6.91h-6.91v-6.91h6.91M300.08,118.53h-8.61v8.61h8.61v-8.61h0Z"/>
    </g>
    <g>
      <rect class="cls-2" x="291.82" y="131.23" width="7.76" height="7.76"/>
      <path class="cls-1" d="M299.15,131.65v6.91h-6.91v-6.91h6.91M300,130.8h-8.61v8.61h8.61v-8.61h0Z"/>
    </g>
    <g>
      <rect class="cls-2" x="316.29" y="143.5" width="7.76" height="7.76"/>
      <path class="cls-1" d="M323.62,143.92v6.91h-6.91v-6.91h6.91M324.47,143.07h-8.61v8.61h8.61v-8.61h0Z"/>
    </g>
    <g>
      <rect class="cls-2" x="304.09" y="143.5" width="7.76" height="7.76"/>
      <path class="cls-1" d="M311.42,143.92v6.91h-6.91v-6.91h6.91M312.27,143.07h-8.61v8.61h8.61v-8.61h0Z"/>
    </g>
    <g>
      <rect class="cls-2" x="291.89" y="143.5" width="7.76" height="7.76"/>
      <path class="cls-1" d="M299.23,143.92v6.91h-6.91v-6.91h6.91M300.08,143.07h-8.61v8.61h8.61v-8.61h0Z"/>
    </g>
    <g>
      <rect class="cls-2" x="238.01" y="197.84" width="7.76" height="7.76"/>
      <path class="cls-1" d="M245.34,198.26v6.91h-6.91v-6.91h6.91M246.19,197.41h-8.61v8.61h8.61v-8.61h0Z"/>
    </g>
    <g>
      <rect class="cls-2" x="225.81" y="197.84" width="7.76" height="7.76"/>
      <path class="cls-1" d="M233.15,198.26v6.91h-6.91v-6.91h6.91M234,197.41h-8.61v8.61h8.61v-8.61h0Z"/>
    </g>
    <g>
      <rect class="cls-2" x="225.74" y="210.11" width="7.76" height="7.76"/>
      <path class="cls-1" d="M233.07,210.53v6.91h-6.91v-6.91h6.91M233.92,209.68h-8.61v8.61h8.61v-8.61h0Z"/>
    </g>
    <g>
      <rect class="cls-2" x="238.01" y="210.11" width="7.76" height="7.76"/>
      <path class="cls-1" d="M245.34,210.53v6.91h-6.91v-6.91h6.91M246.19,209.68h-8.61v8.61h8.61v-8.61h0Z"/>
    </g>
    <g>
      <rect class="cls-2" x="213.62" y="197.84" width="7.76" height="7.76"/>
      <path class="cls-1" d="M220.95,198.26v6.91h-6.91v-6.91h6.91M221.8,197.41h-8.61v8.61h8.61v-8.61h0Z"/>
    </g>
    <g>
      <rect class="cls-2" x="213.54" y="210.11" width="7.76" height="7.76"/>
      <path class="cls-1" d="M220.88,210.53v6.91h-6.91v-6.91h6.91M221.73,209.68h-8.61v8.61h8.61v-8.61h0Z"/>
    </g>
    <g>
      <rect class="cls-2" x="201.42" y="197.84" width="7.76" height="7.76"/>
      <path class="cls-1" d="M208.75,198.26v6.91h-6.91v-6.91h6.91M209.6,197.41h-8.61v8.61h8.61v-8.61h0Z"/>
    </g>
    <g>
      <rect class="cls-2" x="201.35" y="210.11" width="7.76" height="7.76"/>
      <path class="cls-1" d="M208.68,210.53v6.91h-6.91v-6.91h6.91M209.53,209.68h-8.61v8.61h8.61v-8.61h0Z"/>
    </g>
    <g>
      <rect class="cls-2" x="238.01" y="222.38" width="7.76" height="7.76"/>
      <path class="cls-1" d="M245.34,222.8v6.91h-6.91v-6.91h6.91M246.19,221.95h-8.61v8.61h8.61v-8.61h0Z"/>
    </g>
    <g>
      <rect class="cls-2" x="225.81" y="222.38" width="7.76" height="7.76"/>
      <path class="cls-1" d="M233.15,222.8v6.91h-6.91v-6.91h6.91M234,221.95h-8.61v8.61h8.61v-8.61h0Z"/>
    </g>
    <g>
      <rect class="cls-2" x="225.74" y="234.65" width="7.76" height="7.76"/>
      <path class="cls-1" d="M233.07,235.07v6.91h-6.91v-6.91h6.91M233.92,234.22h-8.61v8.61h8.61v-8.61h0Z"/>
    </g>
    <g>
      <rect class="cls-2" x="238.01" y="234.65" width="7.76" height="7.76"/>
      <path class="cls-1" d="M245.34,235.07v6.91h-6.91v-6.91h6.91M246.19,234.22h-8.61v8.61h8.61v-8.61h0Z"/>
    </g>
    <g>
      <rect class="cls-2" x="213.62" y="222.38" width="7.76" height="7.76"/>
      <path class="cls-1" d="M220.95,222.8v6.91h-6.91v-6.91h6.91M221.8,221.95h-8.61v8.61h8.61v-8.61h0Z"/>
    </g>
    <g>
      <rect class="cls-2" x="213.54" y="234.65" width="7.76" height="7.76"/>
      <path class="cls-1" d="M220.88,235.07v6.91h-6.91v-6.91h6.91M221.73,234.22h-8.61v8.61h8.61v-8.61h0Z"/>
    </g>
    <g>
      <rect class="cls-2" x="201.42" y="222.38" width="7.76" height="7.76"/>
      <path class="cls-1" d="M208.75,222.8v6.91h-6.91v-6.91h6.91M209.6,221.95h-8.61v8.61h8.61v-8.61h0Z"/>
    </g>
    <g>
      <rect class="cls-2" x="201.35" y="234.65" width="7.76" height="7.76"/>
      <path class="cls-1" d="M208.68,235.07v6.91h-6.91v-6.91h6.91M209.53,234.22h-8.61v8.61h8.61v-8.61h0Z"/>
    </g>
    <g>
      <rect class="cls-2" x="409.61" y="197.61" width="12.41" height="12.41"/>
      <path class="cls-1" d="M421.34,198.29v11.05h-11.05v-11.05h11.05M422.7,196.93h-13.77v13.77h13.77v-13.77h0Z"/>
    </g>
    <g>
      <rect class="cls-2" x="390.09" y="197.61" width="12.41" height="12.41"/>
      <path class="cls-1" d="M401.82,198.29v11.05h-11.05v-11.05h11.05M403.18,196.93h-13.77v13.77h13.77v-13.77h0Z"/>
    </g>
    <g>
      <rect class="cls-2" x="389.97" y="217.25" width="12.41" height="12.41"/>
      <path class="cls-1" d="M401.71,217.93v11.05h-11.05v-11.05h11.05M403.07,216.57h-13.77v13.77h13.77v-13.77h0Z"/>
    </g>
    <g>
      <rect class="cls-2" x="409.49" y="217.25" width="12.41" height="12.41"/>
      <path class="cls-1" d="M421.22,217.93v11.05h-11.05v-11.05h11.05M422.58,216.57h-13.77v13.77h13.77v-13.77h0Z"/>
    </g>
    <g>
      <rect class="cls-2" x="370.58" y="197.61" width="12.41" height="12.41"/>
      <path class="cls-1" d="M382.31,198.29v11.05h-11.05v-11.05h11.05M383.67,196.93h-13.77v13.77h13.77v-13.77h0Z"/>
    </g>
    <g>
      <rect class="cls-2" x="370.46" y="217.25" width="12.41" height="12.41"/>
      <path class="cls-1" d="M382.19,217.93v11.05h-11.05v-11.05h11.05M383.55,216.57h-13.77v13.77h13.77v-13.77h0Z"/>
    </g>
    <g>
      <rect class="cls-2" x="409.61" y="236.88" width="12.41" height="12.41"/>
      <path class="cls-1" d="M421.34,237.56v11.05h-11.05v-11.05h11.05M422.7,236.2h-13.77v13.77h13.77v-13.77h0Z"/>
    </g>
    <g>
      <rect class="cls-2" x="390.09" y="236.88" width="12.41" height="12.41"/>
      <path class="cls-1" d="M401.82,237.56v11.05h-11.05v-11.05h11.05M403.18,236.2h-13.77v13.77h13.77v-13.77h0Z"/>
    </g>
    <g>
      <rect class="cls-2" x="370.58" y="236.88" width="12.41" height="12.41"/>
      <path class="cls-1" d="M382.31,237.56v11.05h-11.05v-11.05h11.05M383.67,236.2h-13.77v13.77h13.77v-13.77h0Z"/>
    </g>
  </g>
</svg>