<?xml version="1.0" encoding="UTF-8"?>
<svg id="Layer_2" xmlns="http://www.w3.org/2000/svg" viewBox="0 0 623.62 368.5">
  <defs>
    <style>
      .cls-1 {
        fill: #231f20;
      }

      .cls-2 {
        fill: #fff;
      }
    </style>
  </defs>
  <g id="Layer_2-2" data-name="Layer_2">
    <rect class="cls-2" width="623.62" height="368.5"/>
    <g>
      <g>
        <rect class="cls-2" x="324.93" y="102.93" width="7.76" height="7.76"/>
        <path class="cls-1" d="M332.26,103.35v6.91h-6.91v-6.91h6.91M333.11,102.5h-8.61v8.61h8.61v-8.61h0Z"/>
      </g>
      <g>
        <rect class="cls-2" x="324.85" y="115.2" width="7.76" height="7.76"/>
        <path class="cls-1" d="M332.19,115.62v6.91h-6.91v-6.91h6.91M333.04,114.77h-8.61v8.61h8.61v-8.61h0Z"/>
      </g>
      <g>
        <rect class="cls-2" x="312.73" y="102.93" width="7.76" height="7.76"/>
        <path class="cls-1" d="M320.06,103.35v6.91h-6.91v-6.91h6.91M320.91,102.5h-8.61v8.61h8.61v-8.61h0Z"/>
      </g>
      <g>
        <rect class="cls-2" x="300.53" y="102.93" width="7.76" height="7.76"/>
        <path class="cls-1" d="M307.87,103.35v6.91h-6.91v-6.91h6.91M308.72,102.5h-8.61v8.61h8.61v-8.61h0Z"/>
      </g>
      <g>
        <rect class="cls-2" x="300.46" y="115.2" width="7.76" height="7.76"/>
        <path class="cls-1" d="M307.79,115.62v6.91h-6.91v-6.91h6.91M308.64,114.77h-8.61v8.61h8.61v-8.61h0Z"/>
      </g>
      <g>
        <rect class="cls-2" x="312.66" y="115.2" width="7.76" height="7.76"/>
        <path class="cls-1" d="M319.99,115.62v6.91h-6.91v-6.91h6.91M320.84,114.77h-8.61v8.61h8.61v-8.61h0Z"/>
      </g>
      <g>
        <rect class="cls-2" x="288.34" y="102.93" width="7.76" height="7.76"/>
        <path class="cls-1" d="M295.67,103.35v6.91h-6.91v-6.91h6.91M296.52,102.5h-8.61v8.61h8.61v-8.61h0Z"/>
      </g>
      <g>
        <rect class="cls-2" x="288.26" y="115.2" width="7.76" height="7.76"/>
        <path class="cls-1" d="M295.6,115.62v6.91h-6.91v-6.91h6.91M296.45,114.77h-8.61v8.61h8.61v-8.61h0Z"/>
      </g>
      <g>
        <rect class="cls-2" x="324.93" y="127.47" width="7.76" height="7.76"/>
        <path class="cls-1" d="M332.26,127.89v6.91h-6.91v-6.91h6.91M333.11,127.04h-8.61v8.61h8.61v-8.61h0Z"/>
      </g>
      <g>
        <rect class="cls-2" x="324.85" y="139.74" width="7.76" height="7.76"/>
        <path class="cls-1" d="M332.19,140.16v6.91h-6.91v-6.91h6.91M333.04,139.31h-8.61v8.61h8.61v-8.61h0Z"/>
      </g>
      <g>
        <rect class="cls-2" x="312.73" y="127.47" width="7.76" height="7.76"/>
        <path class="cls-1" d="M320.06,127.89v6.91h-6.91v-6.91h6.91M320.91,127.04h-8.61v8.61h8.61v-8.61h0Z"/>
      </g>
      <g>
        <rect class="cls-2" x="300.53" y="127.47" width="7.76" height="7.76"/>
        <path class="cls-1" d="M307.87,127.89v6.91h-6.91v-6.91h6.91M308.72,127.04h-8.61v8.61h8.61v-8.61h0Z"/>
      </g>
      <g>
        <rect class="cls-2" x="300.46" y="139.74" width="7.76" height="7.76"/>
        <path class="cls-1" d="M307.79,140.16v6.91h-6.91v-6.91h6.91M308.64,139.31h-8.61v8.61h8.61v-8.61h0Z"/>
      </g>
      <g>
        <rect class="cls-2" x="312.66" y="139.74" width="7.76" height="7.76"/>
        <path class="cls-1" d="M319.99,140.16v6.91h-6.91v-6.91h6.91M320.84,139.31h-8.61v8.61h8.61v-8.61h0Z"/>
      </g>
      <g>
        <rect class="cls-2" x="288.34" y="127.47" width="7.76" height="7.76"/>
        <path class="cls-1" d="M295.67,127.89v6.91h-6.91v-6.91h6.91M296.52,127.04h-8.61v8.61h8.61v-8.61h0Z"/>
      </g>
      <g>
        <rect class="cls-2" x="288.26" y="139.74" width="7.76" height="7.76"/>
        <path class="cls-1" d="M295.6,140.16v6.91h-6.91v-6.91h6.91M296.45,139.31h-8.61v8.61h8.61v-8.61h0Z"/>
      </g>
      <g>
        <rect class="cls-2" x="234.38" y="193.77" width="7.76" height="7.76"/>
        <path class="cls-1" d="M241.71,194.19v6.91h-6.91v-6.91h6.91M242.57,193.34h-8.61v8.61h8.61v-8.61h0Z"/>
      </g>
      <g>
        <rect class="cls-2" x="234.31" y="206.04" width="7.76" height="7.76"/>
        <path class="cls-1" d="M241.64,206.46v6.91h-6.91v-6.91h6.91M242.49,205.61h-8.61v8.61h8.61v-8.61h0Z"/>
      </g>
      <g>
        <rect class="cls-2" x="222.18" y="193.77" width="7.76" height="7.76"/>
        <path class="cls-1" d="M229.52,194.19v6.91h-6.91v-6.91h6.91M230.37,193.34h-8.61v8.61h8.61v-8.61h0Z"/>
      </g>
      <g>
        <rect class="cls-2" x="222.11" y="206.04" width="7.76" height="7.76"/>
        <path class="cls-1" d="M229.44,206.46v6.91h-6.91v-6.91h6.91M230.3,205.61h-8.61v8.61h8.61v-8.61h0Z"/>
      </g>
      <g>
        <rect class="cls-2" x="234.38" y="218.31" width="7.76" height="7.76"/>
        <path class="cls-1" d="M241.71,218.73v6.91h-6.91v-6.91h6.91M242.57,217.88h-8.61v8.61h8.61v-8.61h0Z"/>
      </g>
      <g>
        <rect class="cls-2" x="234.31" y="230.58" width="7.76" height="7.76"/>
        <path class="cls-1" d="M241.64,231v6.91h-6.91v-6.91h6.91M242.49,230.15h-8.61v8.61h8.61v-8.61h0Z"/>
      </g>
      <g>
        <rect class="cls-2" x="222.18" y="218.31" width="7.76" height="7.76"/>
        <path class="cls-1" d="M229.52,218.73v6.91h-6.91v-6.91h6.91M230.37,217.88h-8.61v8.61h8.61v-8.61h0Z"/>
      </g>
      <g>
        <rect class="cls-2" x="222.11" y="230.58" width="7.76" height="7.76"/>
        <path class="cls-1" d="M229.44,231v6.91h-6.91v-6.91h6.91M230.3,230.15h-8.61v8.61h8.61v-8.61h0Z"/>
      </g>
      <g>
        <rect class="cls-2" x="234.38" y="242.85" width="7.76" height="7.76"/>
        <path class="cls-1" d="M241.71,243.27v6.91h-6.91v-6.91h6.91M242.57,242.42h-8.61v8.61h8.61v-8.61h0Z"/>
      </g>
      <g>
        <rect class="cls-2" x="234.31" y="255.12" width="7.76" height="7.76"/>
        <path class="cls-1" d="M241.64,255.54v6.91h-6.91v-6.91h6.91M242.49,254.69h-8.61v8.61h8.61v-8.61h0Z"/>
      </g>
      <g>
        <rect class="cls-2" x="222.18" y="242.85" width="7.76" height="7.76"/>
        <path class="cls-1" d="M229.52,243.27v6.91h-6.91v-6.91h6.91M230.37,242.42h-8.61v8.61h8.61v-8.61h0Z"/>
      </g>
      <g>
        <rect class="cls-2" x="222.11" y="255.12" width="7.76" height="7.76"/>
        <path class="cls-1" d="M229.44,255.54v6.91h-6.91v-6.91h6.91M230.3,254.69h-8.61v8.61h8.61v-8.61h0Z"/>
      </g>
      <g>
        <rect class="cls-2" x="209.9" y="193.77" width="7.76" height="7.76"/>
        <path class="cls-1" d="M217.24,194.19v6.91h-6.91v-6.91h6.91M218.09,193.34h-8.61v8.61h8.61v-8.61h0Z"/>
      </g>
      <g>
        <rect class="cls-2" x="197.7" y="193.77" width="7.76" height="7.76"/>
        <path class="cls-1" d="M205.04,194.19v6.91h-6.91v-6.91h6.91M205.89,193.34h-8.61v8.61h8.61v-8.61h0Z"/>
      </g>
      <g>
        <rect class="cls-2" x="197.63" y="206.04" width="7.76" height="7.76"/>
        <path class="cls-1" d="M204.97,206.46v6.91h-6.91v-6.91h6.91M205.82,205.61h-8.61v8.61h8.61v-8.61h0Z"/>
      </g>
      <g>
        <rect class="cls-2" x="209.9" y="206.04" width="7.76" height="7.76"/>
        <path class="cls-1" d="M217.24,206.46v6.91h-6.91v-6.91h6.91M218.09,205.61h-8.61v8.61h8.61v-8.61h0Z"/>
      </g>
      <g>
        <rect class="cls-2" x="185.51" y="193.77" width="7.76" height="7.76"/>
        <path class="cls-1" d="M192.84,194.19v6.91h-6.91v-6.91h6.91M193.69,193.34h-8.61v8.61h8.61v-8.61h0Z"/>
      </g>
      <g>
        <rect class="cls-2" x="185.43" y="206.04" width="7.76" height="7.76"/>
        <path class="cls-1" d="M192.77,206.46v6.91h-6.91v-6.91h6.91M193.62,205.61h-8.61v8.61h8.61v-8.61h0Z"/>
      </g>
      <g>
        <rect class="cls-2" x="173.31" y="193.77" width="7.76" height="7.76"/>
        <path class="cls-1" d="M180.64,194.19v6.91h-6.91v-6.91h6.91M181.5,193.34h-8.61v8.61h8.61v-8.61h0Z"/>
      </g>
      <g>
        <rect class="cls-2" x="173.24" y="206.04" width="7.76" height="7.76"/>
        <path class="cls-1" d="M180.57,206.46v6.91h-6.91v-6.91h6.91M181.42,205.61h-8.61v8.61h8.61v-8.61h0Z"/>
      </g>
      <g>
        <rect class="cls-2" x="209.9" y="218.31" width="7.76" height="7.76"/>
        <path class="cls-1" d="M217.24,218.73v6.91h-6.91v-6.91h6.91M218.09,217.88h-8.61v8.61h8.61v-8.61h0Z"/>
      </g>
      <g>
        <rect class="cls-2" x="197.7" y="218.31" width="7.76" height="7.76"/>
        <path class="cls-1" d="M205.04,218.73v6.91h-6.91v-6.91h6.91M205.89,217.88h-8.61v8.61h8.61v-8.61h0Z"/>
      </g>
      <g>
        <rect class="cls-2" x="197.63" y="230.58" width="7.76" height="7.76"/>
        <path class="cls-1" d="M204.97,231v6.91h-6.91v-6.91h6.91M205.82,230.15h-8.61v8.61h8.61v-8.61h0Z"/>
      </g>
      <g>
        <rect class="cls-2" x="209.9" y="230.58" width="7.76" height="7.76"/>
        <path class="cls-1" d="M217.24,231v6.91h-6.91v-6.91h6.91M218.09,230.15h-8.61v8.61h8.61v-8.61h0Z"/>
      </g>
      <g>
        <rect class="cls-2" x="185.51" y="218.31" width="7.76" height="7.76"/>
        <path class="cls-1" d="M192.84,218.73v6.91h-6.91v-6.91h6.91M193.69,217.88h-8.61v8.61h8.61v-8.61h0Z"/>
      </g>
      <g>
        <rect class="cls-2" x="185.43" y="230.58" width="7.76" height="7.76"/>
        <path class="cls-1" d="M192.77,231v6.91h-6.91v-6.91h6.91M193.62,230.15h-8.61v8.61h8.61v-8.61h0Z"/>
      </g>
      <g>
        <rect class="cls-2" x="173.31" y="218.31" width="7.76" height="7.76"/>
        <path class="cls-1" d="M180.64,218.73v6.91h-6.91v-6.91h6.91M181.5,217.88h-8.61v8.61h8.61v-8.61h0Z"/>
      </g>
      <g>
        <rect class="cls-2" x="173.24" y="230.58" width="7.76" height="7.76"/>
        <path class="cls-1" d="M180.57,231v6.91h-6.91v-6.91h6.91M181.42,230.15h-8.61v8.61h8.61v-8.61h0Z"/>
      </g>
      <g>
        <rect class="cls-2" x="209.9" y="242.85" width="7.76" height="7.76"/>
        <path class="cls-1" d="M217.24,243.27v6.91h-6.91v-6.91h6.91M218.09,242.42h-8.61v8.61h8.61v-8.61h0Z"/>
      </g>
      <g>
        <rect class="cls-2" x="197.7" y="242.85" width="7.76" height="7.76"/>
        <path class="cls-1" d="M205.04,243.27v6.91h-6.91v-6.91h6.91M205.89,242.42h-8.61v8.61h8.61v-8.61h0Z"/>
      </g>
      <g>
        <rect class="cls-2" x="197.63" y="255.12" width="7.76" height="7.76"/>
        <path class="cls-1" d="M204.97,255.54v6.91h-6.91v-6.91h6.91M205.82,254.69h-8.61v8.61h8.61v-8.61h0Z"/>
      </g>
      <g>
        <rect class="cls-2" x="209.9" y="255.12" width="7.76" height="7.76"/>
        <path class="cls-1" d="M217.24,255.54v6.91h-6.91v-6.91h6.91M218.09,254.69h-8.61v8.61h8.61v-8.61h0Z"/>
      </g>
      <g>
        <rect class="cls-2" x="185.51" y="242.85" width="7.76" height="7.76"/>
        <path class="cls-1" d="M192.84,243.27v6.91h-6.91v-6.91h6.91M193.69,242.42h-8.61v8.61h8.61v-8.61h0Z"/>
      </g>
      <g>
        <rect class="cls-2" x="185.43" y="255.12" width="7.76" height="7.76"/>
        <path class="cls-1" d="M192.77,255.54v6.91h-6.91v-6.91h6.91M193.62,254.69h-8.61v8.61h8.61v-8.61h0Z"/>
      </g>
      <g>
        <rect class="cls-2" x="173.31" y="242.85" width="7.76" height="7.76"/>
        <path class="cls-1" d="M180.64,243.27v6.91h-6.91v-6.91h6.91M181.5,242.42h-8.61v8.61h8.61v-8.61h0Z"/>
      </g>
      <g>
        <rect class="cls-2" x="173.24" y="255.12" width="7.76" height="7.76"/>
        <path class="cls-1" d="M180.57,255.54v6.91h-6.91v-6.91h6.91M181.42,254.69h-8.61v8.61h8.61v-8.61h0Z"/>
      </g>
      <g>
        <rect class="cls-2" x="437.72" y="194.02" width="12.41" height="12.41"/>
        <path class="cls-1" d="M449.45,194.7v11.05h-11.05v-11.05h11.05M450.81,193.34h-13.77v13.77h13.77v-13.77h0Z"/>
      </g>
      <g>
        <rect class="cls-2" x="437.6" y="213.65" width="12.41" height="12.41"/>
        <path class="cls-1" d="M449.33,214.33v11.05h-11.05v-11.05h11.05M450.69,212.97h-13.77v13.77h13.77v-13.77h0Z"/>
      </g>
      <g>
        <rect class="cls-2" x="418.21" y="194.02" width="12.41" height="12.41"/>
        <path class="cls-1" d="M429.94,194.7v11.05h-11.05v-11.05h11.05M431.3,193.34h-13.77v13.77h13.77v-13.77h0Z"/>
      </g>
      <g>
        <rect class="cls-2" x="398.69" y="194.02" width="12.41" height="12.41"/>
        <path class="cls-1" d="M410.42,194.7v11.05h-11.05v-11.05h11.05M411.79,193.34h-13.77v13.77h13.77v-13.77h0Z"/>
      </g>
      <g>
        <rect class="cls-2" x="398.58" y="213.65" width="12.41" height="12.41"/>
        <path class="cls-1" d="M410.31,214.33v11.05h-11.05v-11.05h11.05M411.67,212.97h-13.77v13.77h13.77v-13.77h0Z"/>
      </g>
      <g>
        <rect class="cls-2" x="418.09" y="213.65" width="12.41" height="12.41"/>
        <path class="cls-1" d="M429.82,214.33v11.05h-11.05v-11.05h11.05M431.18,212.97h-13.77v13.77h13.77v-13.77h0Z"/>
      </g>
      <g>
        <rect class="cls-2" x="379.18" y="194.02" width="12.41" height="12.41"/>
        <path class="cls-1" d="M390.91,194.7v11.05h-11.05v-11.05h11.05M392.27,193.34h-13.77v13.77h13.77v-13.77h0Z"/>
      </g>
      <g>
        <rect class="cls-2" x="379.06" y="213.65" width="12.41" height="12.41"/>
        <path class="cls-1" d="M390.8,214.33v11.05h-11.05v-11.05h11.05M392.16,212.97h-13.77v13.77h13.77v-13.77h0Z"/>
      </g>
      <g>
        <rect class="cls-2" x="437.72" y="233.28" width="12.41" height="12.41"/>
        <path class="cls-1" d="M449.45,233.96v11.05h-11.05v-11.05h11.05M450.81,232.6h-13.77v13.77h13.77v-13.77h0Z"/>
      </g>
      <g>
        <rect class="cls-2" x="437.6" y="252.91" width="12.41" height="12.41"/>
        <path class="cls-1" d="M449.33,253.59v11.05h-11.05v-11.05h11.05M450.69,252.23h-13.77v13.77h13.77v-13.77h0Z"/>
      </g>
      <g>
        <rect class="cls-2" x="418.21" y="233.28" width="12.41" height="12.41"/>
        <path class="cls-1" d="M429.94,233.96v11.05h-11.05v-11.05h11.05M431.3,232.6h-13.77v13.77h13.77v-13.77h0Z"/>
      </g>
      <g>
        <rect class="cls-2" x="398.69" y="233.28" width="12.41" height="12.41"/>
        <path class="cls-1" d="M410.42,233.96v11.05h-11.05v-11.05h11.05M411.79,232.6h-13.77v13.77h13.77v-13.77h0Z"/>
      </g>
      <g>
        <rect class="cls-2" x="398.58" y="252.91" width="12.41" height="12.41"/>
        <path class="cls-1" d="M410.31,253.59v11.05h-11.05v-11.05h11.05M411.67,252.23h-13.77v13.77h13.77v-13.77h0Z"/>
      </g>
      <g>
        <rect class="cls-2" x="418.09" y="252.91" width="12.41" height="12.41"/>
        <path class="cls-1" d="M429.82,253.59v11.05h-11.05v-11.05h11.05M431.18,252.23h-13.77v13.77h13.77v-13.77h0Z"/>
      </g>
      <g>
        <rect class="cls-2" x="379.18" y="233.28" width="12.41" height="12.41"/>
        <path class="cls-1" d="M390.91,233.96v11.05h-11.05v-11.05h11.05M392.27,232.6h-13.77v13.77h13.77v-13.77h0Z"/>
      </g>
      <g>
        <rect class="cls-2" x="379.06" y="252.91" width="12.41" height="12.41"/>
        <path class="cls-1" d="M390.8,253.59v11.05h-11.05v-11.05h11.05M392.16,252.23h-13.77v13.77h13.77v-13.77h0Z"/>
      </g>
    </g>
  </g>
</svg>