<?xml version="1.0" encoding="UTF-8"?>
<svg id="Layer_2" xmlns="http://www.w3.org/2000/svg" viewBox="0 0 623.62 368.5">
  <defs>
    <style>
      .cls-1 {
        fill: #231f20;
      }

      .cls-2 {
        fill: #fff;
      }
    </style>
  </defs>
  <g id="Layer_2-2" data-name="Layer_2">
    <rect class="cls-2" width="623.62" height="368.5"/>
    <g>
      <g>
        <rect class="cls-2" x="333.39" y="84.8" width="7.76" height="7.76"/>
        <path class="cls-1" d="M340.72,85.23v6.91h-6.91v-6.91h6.91M341.57,84.38h-8.61v8.61h8.61v-8.61h0Z"/>
      </g>
      <g>
        <rect class="cls-2" x="333.32" y="97.07" width="7.76" height="7.76"/>
        <path class="cls-1" d="M340.65,97.5v6.91h-6.91v-6.91h6.91M341.5,96.65h-8.61v8.61h8.61v-8.61h0Z"/>
      </g>
      <g>
        <rect class="cls-2" x="321.19" y="84.8" width="7.76" height="7.76"/>
        <path class="cls-1" d="M328.53,85.23v6.91h-6.91v-6.91h6.91M329.38,84.38h-8.61v8.61h8.61v-8.61h0Z"/>
      </g>
      <g>
        <rect class="cls-2" x="321.12" y="97.07" width="7.76" height="7.76"/>
        <path class="cls-1" d="M328.45,97.5v6.91h-6.91v-6.91h6.91M329.3,96.65h-8.61v8.61h8.61v-8.61h0Z"/>
      </g>
      <g>
        <rect class="cls-2" x="309" y="84.8" width="7.76" height="7.76"/>
        <path class="cls-1" d="M316.33,85.23v6.91h-6.91v-6.91h6.91M317.18,84.38h-8.61v8.61h8.61v-8.61h0Z"/>
      </g>
      <g>
        <rect class="cls-2" x="296.8" y="84.8" width="7.76" height="7.76"/>
        <path class="cls-1" d="M304.13,85.23v6.91h-6.91v-6.91h6.91M304.98,84.38h-8.61v8.61h8.61v-8.61h0Z"/>
      </g>
      <g>
        <rect class="cls-2" x="296.73" y="97.07" width="7.76" height="7.76"/>
        <path class="cls-1" d="M304.06,97.5v6.91h-6.91v-6.91h6.91M304.91,96.65h-8.61v8.61h8.61v-8.61h0Z"/>
      </g>
      <g>
        <rect class="cls-2" x="308.92" y="97.07" width="7.76" height="7.76"/>
        <path class="cls-1" d="M316.26,97.5v6.91h-6.91v-6.91h6.91M317.11,96.65h-8.61v8.61h8.61v-8.61h0Z"/>
      </g>
      <g>
        <rect class="cls-2" x="284.6" y="84.8" width="7.76" height="7.76"/>
        <path class="cls-1" d="M291.94,85.23v6.91h-6.91v-6.91h6.91M292.79,84.38h-8.61v8.61h8.61v-8.61h0Z"/>
      </g>
      <g>
        <rect class="cls-2" x="284.53" y="97.07" width="7.76" height="7.76"/>
        <path class="cls-1" d="M291.86,97.5v6.91h-6.91v-6.91h6.91M292.71,96.65h-8.61v8.61h8.61v-8.61h0Z"/>
      </g>
      <g>
        <rect class="cls-2" x="333.39" y="109.34" width="7.76" height="7.76"/>
        <path class="cls-1" d="M340.72,109.77v6.91h-6.91v-6.91h6.91M341.57,108.92h-8.61v8.61h8.61v-8.61h0Z"/>
      </g>
      <g>
        <rect class="cls-2" x="333.32" y="121.62" width="7.76" height="7.76"/>
        <path class="cls-1" d="M340.65,122.04v6.91h-6.91v-6.91h6.91M341.5,121.19h-8.61v8.61h8.61v-8.61h0Z"/>
      </g>
      <g>
        <rect class="cls-2" x="321.19" y="109.34" width="7.76" height="7.76"/>
        <path class="cls-1" d="M328.53,109.77v6.91h-6.91v-6.91h6.91M329.38,108.92h-8.61v8.61h8.61v-8.61h0Z"/>
      </g>
      <g>
        <rect class="cls-2" x="321.12" y="121.62" width="7.76" height="7.76"/>
        <path class="cls-1" d="M328.45,122.04v6.91h-6.91v-6.91h6.91M329.3,121.19h-8.61v8.61h8.61v-8.61h0Z"/>
      </g>
      <g>
        <rect class="cls-2" x="309" y="109.34" width="7.76" height="7.76"/>
        <path class="cls-1" d="M316.33,109.77v6.91h-6.91v-6.91h6.91M317.18,108.92h-8.61v8.61h8.61v-8.61h0Z"/>
      </g>
      <g>
        <rect class="cls-2" x="296.8" y="109.34" width="7.76" height="7.76"/>
        <path class="cls-1" d="M304.13,109.77v6.91h-6.91v-6.91h6.91M304.98,108.92h-8.61v8.61h8.61v-8.61h0Z"/>
      </g>
      <g>
        <rect class="cls-2" x="296.73" y="121.62" width="7.76" height="7.76"/>
        <path class="cls-1" d="M304.06,122.04v6.91h-6.91v-6.91h6.91M304.91,121.19h-8.61v8.61h8.61v-8.61h0Z"/>
      </g>
      <g>
        <rect class="cls-2" x="308.92" y="121.62" width="7.76" height="7.76"/>
        <path class="cls-1" d="M316.26,122.04v6.91h-6.91v-6.91h6.91M317.11,121.19h-8.61v8.61h8.61v-8.61h0Z"/>
      </g>
      <g>
        <rect class="cls-2" x="284.6" y="109.34" width="7.76" height="7.76"/>
        <path class="cls-1" d="M291.94,109.77v6.91h-6.91v-6.91h6.91M292.79,108.92h-8.61v8.61h8.61v-8.61h0Z"/>
      </g>
      <g>
        <rect class="cls-2" x="284.53" y="121.62" width="7.76" height="7.76"/>
        <path class="cls-1" d="M291.86,122.04v6.91h-6.91v-6.91h6.91M292.71,121.19h-8.61v8.61h8.61v-8.61h0Z"/>
      </g>
      <g>
        <rect class="cls-2" x="333.39" y="133.89" width="7.76" height="7.76"/>
        <path class="cls-1" d="M340.72,134.31v6.91h-6.91v-6.91h6.91M341.57,133.46h-8.61v8.61h8.61v-8.61h0Z"/>
      </g>
      <g>
        <rect class="cls-2" x="321.19" y="133.89" width="7.76" height="7.76"/>
        <path class="cls-1" d="M328.53,134.31v6.91h-6.91v-6.91h6.91M329.38,133.46h-8.61v8.61h8.61v-8.61h0Z"/>
      </g>
      <g>
        <rect class="cls-2" x="309" y="133.89" width="7.76" height="7.76"/>
        <path class="cls-1" d="M316.33,134.31v6.91h-6.91v-6.91h6.91M317.18,133.46h-8.61v8.61h8.61v-8.61h0Z"/>
      </g>
      <g>
        <rect class="cls-2" x="296.8" y="133.89" width="7.76" height="7.76"/>
        <path class="cls-1" d="M304.13,134.31v6.91h-6.91v-6.91h6.91M304.98,133.46h-8.61v8.61h8.61v-8.61h0Z"/>
      </g>
      <g>
        <rect class="cls-2" x="284.6" y="133.89" width="7.76" height="7.76"/>
        <path class="cls-1" d="M291.94,134.31v6.91h-6.91v-6.91h6.91M292.79,133.46h-8.61v8.61h8.61v-8.61h0Z"/>
      </g>
      <g>
        <rect class="cls-2" x="230.61" y="190.05" width="7.76" height="7.76"/>
        <path class="cls-1" d="M237.94,190.47v6.91h-6.91v-6.91h6.91M238.79,189.62h-8.61v8.61h8.61v-8.61h0Z"/>
      </g>
      <g>
        <rect class="cls-2" x="230.53" y="202.32" width="7.76" height="7.76"/>
        <path class="cls-1" d="M237.87,202.74v6.91h-6.91v-6.91h6.91M238.72,201.89h-8.61v8.61h8.61v-8.61h0Z"/>
      </g>
      <g>
        <rect class="cls-2" x="218.41" y="190.05" width="7.76" height="7.76"/>
        <path class="cls-1" d="M225.74,190.47v6.91h-6.91v-6.91h6.91M226.59,189.62h-8.61v8.61h8.61v-8.61h0Z"/>
      </g>
      <g>
        <rect class="cls-2" x="206.21" y="190.05" width="7.76" height="7.76"/>
        <path class="cls-1" d="M213.55,190.47v6.91h-6.91v-6.91h6.91M214.4,189.62h-8.61v8.61h8.61v-8.61h0Z"/>
      </g>
      <g>
        <rect class="cls-2" x="206.14" y="202.32" width="7.76" height="7.76"/>
        <path class="cls-1" d="M213.47,202.74v6.91h-6.91v-6.91h6.91M214.32,201.89h-8.61v8.61h8.61v-8.61h0Z"/>
      </g>
      <g>
        <rect class="cls-2" x="218.33" y="202.32" width="7.76" height="7.76"/>
        <path class="cls-1" d="M225.67,202.74v6.91h-6.91v-6.91h6.91M226.52,201.89h-8.61v8.61h8.61v-8.61h0Z"/>
      </g>
      <g>
        <rect class="cls-2" x="194.01" y="190.05" width="7.76" height="7.76"/>
        <path class="cls-1" d="M201.35,190.47v6.91h-6.91v-6.91h6.91M202.2,189.62h-8.61v8.61h8.61v-8.61h0Z"/>
      </g>
      <g>
        <rect class="cls-2" x="193.94" y="202.32" width="7.76" height="7.76"/>
        <path class="cls-1" d="M201.27,202.74v6.91h-6.91v-6.91h6.91M202.13,201.89h-8.61v8.61h8.61v-8.61h0Z"/>
      </g>
      <g>
        <rect class="cls-2" x="230.61" y="214.59" width="7.76" height="7.76"/>
        <path class="cls-1" d="M237.94,215.01v6.91h-6.91v-6.91h6.91M238.79,214.16h-8.61v8.61h8.61v-8.61h0Z"/>
      </g>
      <g>
        <rect class="cls-2" x="230.53" y="226.86" width="7.76" height="7.76"/>
        <path class="cls-1" d="M237.87,227.28v6.91h-6.91v-6.91h6.91M238.72,226.43h-8.61v8.61h8.61v-8.61h0Z"/>
      </g>
      <g>
        <rect class="cls-2" x="218.41" y="214.59" width="7.76" height="7.76"/>
        <path class="cls-1" d="M225.74,215.01v6.91h-6.91v-6.91h6.91M226.59,214.16h-8.61v8.61h8.61v-8.61h0Z"/>
      </g>
      <g>
        <rect class="cls-2" x="206.21" y="214.59" width="7.76" height="7.76"/>
        <path class="cls-1" d="M213.55,215.01v6.91h-6.91v-6.91h6.91M214.4,214.16h-8.61v8.61h8.61v-8.61h0Z"/>
      </g>
      <g>
        <rect class="cls-2" x="206.14" y="226.86" width="7.76" height="7.76"/>
        <path class="cls-1" d="M213.47,227.28v6.91h-6.91v-6.91h6.91M214.32,226.43h-8.61v8.61h8.61v-8.61h0Z"/>
      </g>
      <g>
        <rect class="cls-2" x="218.33" y="226.86" width="7.76" height="7.76"/>
        <path class="cls-1" d="M225.67,227.28v6.91h-6.91v-6.91h6.91M226.52,226.43h-8.61v8.61h8.61v-8.61h0Z"/>
      </g>
      <g>
        <rect class="cls-2" x="194.01" y="214.59" width="7.76" height="7.76"/>
        <path class="cls-1" d="M201.35,215.01v6.91h-6.91v-6.91h6.91M202.2,214.16h-8.61v8.61h8.61v-8.61h0Z"/>
      </g>
      <g>
        <rect class="cls-2" x="193.94" y="226.86" width="7.76" height="7.76"/>
        <path class="cls-1" d="M201.27,227.28v6.91h-6.91v-6.91h6.91M202.13,226.43h-8.61v8.61h8.61v-8.61h0Z"/>
      </g>
      <g>
        <rect class="cls-2" x="230.61" y="239.13" width="7.76" height="7.76"/>
        <path class="cls-1" d="M237.94,239.56v6.91h-6.91v-6.91h6.91M238.79,238.7h-8.61v8.61h8.61v-8.61h0Z"/>
      </g>
      <g>
        <rect class="cls-2" x="230.53" y="251.4" width="7.76" height="7.76"/>
        <path class="cls-1" d="M237.87,251.83v6.91h-6.91v-6.91h6.91M238.72,250.98h-8.61v8.61h8.61v-8.61h0Z"/>
      </g>
      <g>
        <rect class="cls-2" x="218.41" y="239.13" width="7.76" height="7.76"/>
        <path class="cls-1" d="M225.74,239.56v6.91h-6.91v-6.91h6.91M226.59,238.7h-8.61v8.61h8.61v-8.61h0Z"/>
      </g>
      <g>
        <rect class="cls-2" x="206.21" y="239.13" width="7.76" height="7.76"/>
        <path class="cls-1" d="M213.55,239.56v6.91h-6.91v-6.91h6.91M214.4,238.7h-8.61v8.61h8.61v-8.61h0Z"/>
      </g>
      <g>
        <rect class="cls-2" x="206.14" y="251.4" width="7.76" height="7.76"/>
        <path class="cls-1" d="M213.47,251.83v6.91h-6.91v-6.91h6.91M214.32,250.98h-8.61v8.61h8.61v-8.61h0Z"/>
      </g>
      <g>
        <rect class="cls-2" x="218.33" y="251.4" width="7.76" height="7.76"/>
        <path class="cls-1" d="M225.67,251.83v6.91h-6.91v-6.91h6.91M226.52,250.98h-8.61v8.61h8.61v-8.61h0Z"/>
      </g>
      <g>
        <rect class="cls-2" x="194.01" y="239.13" width="7.76" height="7.76"/>
        <path class="cls-1" d="M201.35,239.56v6.91h-6.91v-6.91h6.91M202.2,238.7h-8.61v8.61h8.61v-8.61h0Z"/>
      </g>
      <g>
        <rect class="cls-2" x="193.94" y="251.4" width="7.76" height="7.76"/>
        <path class="cls-1" d="M201.27,251.83v6.91h-6.91v-6.91h6.91M202.13,250.98h-8.61v8.61h8.61v-8.61h0Z"/>
      </g>
      <g>
        <rect class="cls-2" x="230.61" y="263.67" width="7.76" height="7.76"/>
        <path class="cls-1" d="M237.94,264.1v6.91h-6.91v-6.91h6.91M238.79,263.25h-8.61v8.61h8.61v-8.61h0Z"/>
      </g>
      <g>
        <rect class="cls-2" x="230.53" y="275.94" width="7.76" height="7.76"/>
        <path class="cls-1" d="M237.87,276.37v6.91h-6.91v-6.91h6.91M238.72,275.52h-8.61v8.61h8.61v-8.61h0Z"/>
      </g>
      <g>
        <rect class="cls-2" x="218.41" y="263.67" width="7.76" height="7.76"/>
        <path class="cls-1" d="M225.74,264.1v6.91h-6.91v-6.91h6.91M226.59,263.25h-8.61v8.61h8.61v-8.61h0Z"/>
      </g>
      <g>
        <rect class="cls-2" x="206.21" y="263.67" width="7.76" height="7.76"/>
        <path class="cls-1" d="M213.55,264.1v6.91h-6.91v-6.91h6.91M214.4,263.25h-8.61v8.61h8.61v-8.61h0Z"/>
      </g>
      <g>
        <rect class="cls-2" x="206.14" y="275.94" width="7.76" height="7.76"/>
        <path class="cls-1" d="M213.47,276.37v6.91h-6.91v-6.91h6.91M214.32,275.52h-8.61v8.61h8.61v-8.61h0Z"/>
      </g>
      <g>
        <rect class="cls-2" x="218.33" y="275.94" width="7.76" height="7.76"/>
        <path class="cls-1" d="M225.67,276.37v6.91h-6.91v-6.91h6.91M226.52,275.52h-8.61v8.61h8.61v-8.61h0Z"/>
      </g>
      <g>
        <rect class="cls-2" x="194.01" y="263.67" width="7.76" height="7.76"/>
        <path class="cls-1" d="M201.35,264.1v6.91h-6.91v-6.91h6.91M202.2,263.25h-8.61v8.61h8.61v-8.61h0Z"/>
      </g>
      <g>
        <rect class="cls-2" x="193.94" y="275.94" width="7.76" height="7.76"/>
        <path class="cls-1" d="M201.27,276.37v6.91h-6.91v-6.91h6.91M202.13,275.52h-8.61v8.61h8.61v-8.61h0Z"/>
      </g>
      <g>
        <rect class="cls-2" x="181.73" y="190.05" width="7.76" height="7.76"/>
        <path class="cls-1" d="M189.07,190.47v6.91h-6.91v-6.91h6.91M189.92,189.62h-8.61v8.61h8.61v-8.61h0Z"/>
      </g>
      <g>
        <rect class="cls-2" x="169.53" y="190.05" width="7.76" height="7.76"/>
        <path class="cls-1" d="M176.87,190.47v6.91h-6.91v-6.91h6.91M177.72,189.62h-8.61v8.61h8.61v-8.61h0Z"/>
      </g>
      <g>
        <rect class="cls-2" x="169.46" y="202.32" width="7.76" height="7.76"/>
        <path class="cls-1" d="M176.8,202.74v6.91h-6.91v-6.91h6.91M177.65,201.89h-8.61v8.61h8.61v-8.61h0Z"/>
      </g>
      <g>
        <rect class="cls-2" x="181.73" y="202.32" width="7.76" height="7.76"/>
        <path class="cls-1" d="M189.07,202.74v6.91h-6.91v-6.91h6.91M189.92,201.89h-8.61v8.61h8.61v-8.61h0Z"/>
      </g>
      <g>
        <rect class="cls-2" x="157.34" y="190.05" width="7.76" height="7.76"/>
        <path class="cls-1" d="M164.67,190.47v6.91h-6.91v-6.91h6.91M165.52,189.62h-8.61v8.61h8.61v-8.61h0Z"/>
      </g>
      <g>
        <rect class="cls-2" x="157.27" y="202.32" width="7.76" height="7.76"/>
        <path class="cls-1" d="M164.6,202.74v6.91h-6.91v-6.91h6.91M165.45,201.89h-8.61v8.61h8.61v-8.61h0Z"/>
      </g>
      <g>
        <rect class="cls-2" x="145.14" y="190.05" width="7.76" height="7.76"/>
        <path class="cls-1" d="M152.47,190.47v6.91h-6.91v-6.91h6.91M153.33,189.62h-8.61v8.61h8.61v-8.61h0Z"/>
      </g>
      <g>
        <rect class="cls-2" x="145.07" y="202.32" width="7.76" height="7.76"/>
        <path class="cls-1" d="M152.4,202.74v6.91h-6.91v-6.91h6.91M153.25,201.89h-8.61v8.61h8.61v-8.61h0Z"/>
      </g>
      <g>
        <rect class="cls-2" x="181.73" y="214.59" width="7.76" height="7.76"/>
        <path class="cls-1" d="M189.07,215.01v6.91h-6.91v-6.91h6.91M189.92,214.16h-8.61v8.61h8.61v-8.61h0Z"/>
      </g>
      <g>
        <rect class="cls-2" x="169.53" y="214.59" width="7.76" height="7.76"/>
        <path class="cls-1" d="M176.87,215.01v6.91h-6.91v-6.91h6.91M177.72,214.16h-8.61v8.61h8.61v-8.61h0Z"/>
      </g>
      <g>
        <rect class="cls-2" x="169.46" y="226.86" width="7.76" height="7.76"/>
        <path class="cls-1" d="M176.8,227.28v6.91h-6.91v-6.91h6.91M177.65,226.43h-8.61v8.61h8.61v-8.61h0Z"/>
      </g>
      <g>
        <rect class="cls-2" x="181.73" y="226.86" width="7.76" height="7.76"/>
        <path class="cls-1" d="M189.07,227.28v6.91h-6.91v-6.91h6.91M189.92,226.43h-8.61v8.61h8.61v-8.61h0Z"/>
      </g>
      <g>
        <rect class="cls-2" x="157.34" y="214.59" width="7.76" height="7.76"/>
        <path class="cls-1" d="M164.67,215.01v6.91h-6.91v-6.91h6.91M165.52,214.16h-8.61v8.61h8.61v-8.61h0Z"/>
      </g>
      <g>
        <rect class="cls-2" x="157.27" y="226.86" width="7.76" height="7.76"/>
        <path class="cls-1" d="M164.6,227.28v6.91h-6.91v-6.91h6.91M165.45,226.43h-8.61v8.61h8.61v-8.61h0Z"/>
      </g>
      <g>
        <rect class="cls-2" x="145.14" y="214.59" width="7.76" height="7.76"/>
        <path class="cls-1" d="M152.47,215.01v6.91h-6.91v-6.91h6.91M153.33,214.16h-8.61v8.61h8.61v-8.61h0Z"/>
      </g>
      <g>
        <rect class="cls-2" x="145.07" y="226.86" width="7.76" height="7.76"/>
        <path class="cls-1" d="M152.4,227.28v6.91h-6.91v-6.91h6.91M153.25,226.43h-8.61v8.61h8.61v-8.61h0Z"/>
      </g>
      <g>
        <rect class="cls-2" x="181.73" y="239.13" width="7.76" height="7.76"/>
        <path class="cls-1" d="M189.07,239.56v6.91h-6.91v-6.91h6.91M189.92,238.7h-8.61v8.61h8.61v-8.61h0Z"/>
      </g>
      <g>
        <rect class="cls-2" x="169.53" y="239.13" width="7.76" height="7.76"/>
        <path class="cls-1" d="M176.87,239.56v6.91h-6.91v-6.91h6.91M177.72,238.7h-8.61v8.61h8.61v-8.61h0Z"/>
      </g>
      <g>
        <rect class="cls-2" x="169.46" y="251.4" width="7.76" height="7.76"/>
        <path class="cls-1" d="M176.8,251.83v6.91h-6.91v-6.91h6.91M177.65,250.98h-8.61v8.61h8.61v-8.61h0Z"/>
      </g>
      <g>
        <rect class="cls-2" x="181.73" y="251.4" width="7.76" height="7.76"/>
        <path class="cls-1" d="M189.07,251.83v6.91h-6.91v-6.91h6.91M189.92,250.98h-8.61v8.61h8.61v-8.61h0Z"/>
      </g>
      <g>
        <rect class="cls-2" x="157.34" y="239.13" width="7.76" height="7.76"/>
        <path class="cls-1" d="M164.67,239.56v6.91h-6.91v-6.91h6.91M165.52,238.7h-8.61v8.61h8.61v-8.61h0Z"/>
      </g>
      <g>
        <rect class="cls-2" x="157.27" y="251.4" width="7.76" height="7.76"/>
        <path class="cls-1" d="M164.6,251.83v6.91h-6.91v-6.91h6.91M165.45,250.98h-8.61v8.61h8.61v-8.61h0Z"/>
      </g>
      <g>
        <rect class="cls-2" x="145.14" y="239.13" width="7.76" height="7.76"/>
        <path class="cls-1" d="M152.47,239.56v6.91h-6.91v-6.91h6.91M153.33,238.7h-8.61v8.61h8.61v-8.61h0Z"/>
      </g>
      <g>
        <rect class="cls-2" x="145.07" y="251.4" width="7.76" height="7.76"/>
        <path class="cls-1" d="M152.4,251.83v6.91h-6.91v-6.91h6.91M153.25,250.98h-8.61v8.61h8.61v-8.61h0Z"/>
      </g>
      <g>
        <rect class="cls-2" x="181.73" y="263.67" width="7.76" height="7.76"/>
        <path class="cls-1" d="M189.07,264.1v6.91h-6.91v-6.91h6.91M189.92,263.25h-8.61v8.61h8.61v-8.61h0Z"/>
      </g>
      <g>
        <rect class="cls-2" x="169.53" y="263.67" width="7.76" height="7.76"/>
        <path class="cls-1" d="M176.87,264.1v6.91h-6.91v-6.91h6.91M177.72,263.25h-8.61v8.61h8.61v-8.61h0Z"/>
      </g>
      <g>
        <rect class="cls-2" x="169.46" y="275.94" width="7.76" height="7.76"/>
        <path class="cls-1" d="M176.8,276.37v6.91h-6.91v-6.91h6.91M177.65,275.52h-8.61v8.61h8.61v-8.61h0Z"/>
      </g>
      <g>
        <rect class="cls-2" x="181.73" y="275.94" width="7.76" height="7.76"/>
        <path class="cls-1" d="M189.07,276.37v6.91h-6.91v-6.91h6.91M189.92,275.52h-8.61v8.61h8.61v-8.61h0Z"/>
      </g>
      <g>
        <rect class="cls-2" x="157.34" y="263.67" width="7.76" height="7.76"/>
        <path class="cls-1" d="M164.67,264.1v6.91h-6.91v-6.91h6.91M165.52,263.25h-8.61v8.61h8.61v-8.61h0Z"/>
      </g>
      <g>
        <rect class="cls-2" x="157.27" y="275.94" width="7.76" height="7.76"/>
        <path class="cls-1" d="M164.6,276.37v6.91h-6.91v-6.91h6.91M165.45,275.52h-8.61v8.61h8.61v-8.61h0Z"/>
      </g>
      <g>
        <rect class="cls-2" x="145.14" y="263.67" width="7.76" height="7.76"/>
        <path class="cls-1" d="M152.47,264.1v6.91h-6.91v-6.91h6.91M153.33,263.25h-8.61v8.61h8.61v-8.61h0Z"/>
      </g>
      <g>
        <rect class="cls-2" x="145.07" y="275.94" width="7.76" height="7.76"/>
        <path class="cls-1" d="M152.4,276.37v6.91h-6.91v-6.91h6.91M153.25,275.52h-8.61v8.61h8.61v-8.61h0Z"/>
      </g>
      <g>
        <rect class="cls-2" x="465.88" y="188.62" width="12.41" height="12.41"/>
        <path class="cls-1" d="M477.62,189.3v11.05h-11.05v-11.05h11.05M478.98,187.94h-13.77v13.77h13.77v-13.77h0Z"/>
      </g>
      <g>
        <rect class="cls-2" x="465.77" y="208.26" width="12.41" height="12.41"/>
        <path class="cls-1" d="M477.5,208.94v11.05h-11.05v-11.05h11.05M478.86,207.58h-13.77v13.77h13.77v-13.77h0Z"/>
      </g>
      <g>
        <rect class="cls-2" x="446.37" y="188.62" width="12.41" height="12.41"/>
        <path class="cls-1" d="M458.1,189.3v11.05h-11.05v-11.05h11.05M459.46,187.94h-13.77v13.77h13.77v-13.77h0Z"/>
      </g>
      <g>
        <rect class="cls-2" x="446.25" y="208.26" width="12.41" height="12.41"/>
        <path class="cls-1" d="M457.98,208.94v11.05h-11.05v-11.05h11.05M459.35,207.58h-13.77v13.77h13.77v-13.77h0Z"/>
      </g>
      <g>
        <rect class="cls-2" x="426.85" y="188.62" width="12.41" height="12.41"/>
        <path class="cls-1" d="M438.59,189.3v11.05h-11.05v-11.05h11.05M439.95,187.94h-13.77v13.77h13.77v-13.77h0Z"/>
      </g>
      <g>
        <rect class="cls-2" x="407.34" y="188.62" width="12.41" height="12.41"/>
        <path class="cls-1" d="M419.07,189.3v11.05h-11.05v-11.05h11.05M420.43,187.94h-13.77v13.77h13.77v-13.77h0Z"/>
      </g>
      <g>
        <rect class="cls-2" x="407.22" y="208.26" width="12.41" height="12.41"/>
        <path class="cls-1" d="M418.95,208.94v11.05h-11.05v-11.05h11.05M420.31,207.58h-13.77v13.77h13.77v-13.77h0Z"/>
      </g>
      <g>
        <rect class="cls-2" x="426.74" y="208.26" width="12.41" height="12.41"/>
        <path class="cls-1" d="M438.47,208.94v11.05h-11.05v-11.05h11.05M439.83,207.58h-13.77v13.77h13.77v-13.77h0Z"/>
      </g>
      <g>
        <rect class="cls-2" x="387.82" y="188.62" width="12.41" height="12.41"/>
        <path class="cls-1" d="M399.55,189.3v11.05h-11.05v-11.05h11.05M400.92,187.94h-13.77v13.77h13.77v-13.77h0Z"/>
      </g>
      <g>
        <rect class="cls-2" x="387.7" y="208.26" width="12.41" height="12.41"/>
        <path class="cls-1" d="M399.44,208.94v11.05h-11.05v-11.05h11.05M400.8,207.58h-13.77v13.77h13.77v-13.77h0Z"/>
      </g>
      <g>
        <rect class="cls-2" x="465.88" y="227.89" width="12.41" height="12.41"/>
        <path class="cls-1" d="M477.62,228.57v11.05h-11.05v-11.05h11.05M478.98,227.21h-13.77v13.77h13.77v-13.77h0Z"/>
      </g>
      <g>
        <rect class="cls-2" x="465.77" y="247.52" width="12.41" height="12.41"/>
        <path class="cls-1" d="M477.5,248.2v11.05h-11.05v-11.05h11.05M478.86,246.84h-13.77v13.77h13.77v-13.77h0Z"/>
      </g>
      <g>
        <rect class="cls-2" x="446.37" y="227.89" width="12.41" height="12.41"/>
        <path class="cls-1" d="M458.1,228.57v11.05h-11.05v-11.05h11.05M459.46,227.21h-13.77v13.77h13.77v-13.77h0Z"/>
      </g>
      <g>
        <rect class="cls-2" x="446.25" y="247.52" width="12.41" height="12.41"/>
        <path class="cls-1" d="M457.98,248.2v11.05h-11.05v-11.05h11.05M459.35,246.84h-13.77v13.77h13.77v-13.77h0Z"/>
      </g>
      <g>
        <rect class="cls-2" x="426.85" y="227.89" width="12.41" height="12.41"/>
        <path class="cls-1" d="M438.59,228.57v11.05h-11.05v-11.05h11.05M439.95,227.21h-13.77v13.77h13.77v-13.77h0Z"/>
      </g>
      <g>
        <rect class="cls-2" x="407.34" y="227.89" width="12.41" height="12.41"/>
        <path class="cls-1" d="M419.07,228.57v11.05h-11.05v-11.05h11.05M420.43,227.21h-13.77v13.77h13.77v-13.77h0Z"/>
      </g>
      <g>
        <rect class="cls-2" x="407.22" y="247.52" width="12.41" height="12.41"/>
        <path class="cls-1" d="M418.95,248.2v11.05h-11.05v-11.05h11.05M420.31,246.84h-13.77v13.77h13.77v-13.77h0Z"/>
      </g>
      <g>
        <rect class="cls-2" x="426.74" y="247.52" width="12.41" height="12.41"/>
        <path class="cls-1" d="M438.47,248.2v11.05h-11.05v-11.05h11.05M439.83,246.84h-13.77v13.77h13.77v-13.77h0Z"/>
      </g>
      <g>
        <rect class="cls-2" x="387.82" y="227.89" width="12.41" height="12.41"/>
        <path class="cls-1" d="M399.55,228.57v11.05h-11.05v-11.05h11.05M400.92,227.21h-13.77v13.77h13.77v-13.77h0Z"/>
      </g>
      <g>
        <rect class="cls-2" x="387.7" y="247.52" width="12.41" height="12.41"/>
        <path class="cls-1" d="M399.44,248.2v11.05h-11.05v-11.05h11.05M400.8,246.84h-13.77v13.77h13.77v-13.77h0Z"/>
      </g>
      <g>
        <rect class="cls-2" x="465.88" y="267.16" width="12.41" height="12.41"/>
        <path class="cls-1" d="M477.62,267.84v11.05h-11.05v-11.05h11.05M478.98,266.48h-13.77v13.77h13.77v-13.77h0Z"/>
      </g>
      <g>
        <rect class="cls-2" x="446.37" y="267.16" width="12.41" height="12.41"/>
        <path class="cls-1" d="M458.1,267.84v11.05h-11.05v-11.05h11.05M459.46,266.48h-13.77v13.77h13.77v-13.77h0Z"/>
      </g>
      <g>
        <rect class="cls-2" x="426.85" y="267.16" width="12.41" height="12.41"/>
        <path class="cls-1" d="M438.59,267.84v11.05h-11.05v-11.05h11.05M439.95,266.48h-13.77v13.77h13.77v-13.77h0Z"/>
      </g>
      <g>
        <rect class="cls-2" x="407.34" y="267.16" width="12.41" height="12.41"/>
        <path class="cls-1" d="M419.07,267.84v11.05h-11.05v-11.05h11.05M420.43,266.48h-13.77v13.77h13.77v-13.77h0Z"/>
      </g>
      <g>
        <rect class="cls-2" x="387.82" y="267.16" width="12.41" height="12.41"/>
        <path class="cls-1" d="M399.55,267.84v11.05h-11.05v-11.05h11.05M400.92,266.48h-13.77v13.77h13.77v-13.77h0Z"/>
      </g>
    </g>
  </g>
</svg>