<?xml version="1.0" encoding="UTF-8"?>
<svg id="Layer_2" xmlns="http://www.w3.org/2000/svg" viewBox="0 0 623.62 368.5">
  <defs>
    <style>
      .cls-1 {
        fill: #231f20;
      }

      .cls-2 {
        fill: #fff;
      }
    </style>
  </defs>
  <g id="Layer_1-2" data-name="Layer_1">
    <rect class="cls-2" x="0" y="0" width="623.62" height="368.5" transform="translate(623.62 368.5) rotate(-180)"/>
    <g>
      <rect class="cls-2" x="342.22" y="67.92" width="7.76" height="7.76"/>
      <path class="cls-1" d="M349.55,68.34v6.91h-6.91v-6.91h6.91M350.4,67.49h-8.61v8.61h8.61v-8.61h0Z"/>
    </g>
    <g>
      <rect class="cls-2" x="330.02" y="67.92" width="7.76" height="7.76"/>
      <path class="cls-1" d="M337.35,68.34v6.91h-6.91v-6.91h6.91M338.2,67.49h-8.61v8.61h8.61v-8.61h0Z"/>
    </g>
    <g>
      <rect class="cls-2" x="329.95" y="80.19" width="7.76" height="7.76"/>
      <path class="cls-1" d="M337.28,80.61v6.91h-6.91v-6.91h6.91M338.13,79.76h-8.61v8.61h8.61v-8.61h0Z"/>
    </g>
    <g>
      <rect class="cls-2" x="342.22" y="80.19" width="7.76" height="7.76"/>
      <path class="cls-1" d="M349.55,80.61v6.91h-6.91v-6.91h6.91M350.4,79.76h-8.61v8.61h8.61v-8.61h0Z"/>
    </g>
    <g>
      <rect class="cls-2" x="317.82" y="67.92" width="7.76" height="7.76"/>
      <path class="cls-1" d="M325.16,68.34v6.91h-6.91v-6.91h6.91M326.01,67.49h-8.61v8.61h8.61v-8.61h0Z"/>
    </g>
    <g>
      <rect class="cls-2" x="317.75" y="80.19" width="7.76" height="7.76"/>
      <path class="cls-1" d="M325.08,80.61v6.91h-6.91v-6.91h6.91M325.93,79.76h-8.61v8.61h8.61v-8.61h0Z"/>
    </g>
    <g>
      <rect class="cls-2" x="305.63" y="67.92" width="7.76" height="7.76"/>
      <path class="cls-1" d="M312.96,68.34v6.91h-6.91v-6.91h6.91M313.81,67.49h-8.61v8.61h8.61v-8.61h0Z"/>
    </g>
    <g>
      <rect class="cls-2" x="293.43" y="67.92" width="7.76" height="7.76"/>
      <path class="cls-1" d="M300.76,68.34v6.91h-6.91v-6.91h6.91M301.61,67.49h-8.61v8.61h8.61v-8.61h0Z"/>
    </g>
    <g>
      <rect class="cls-2" x="293.36" y="80.19" width="7.76" height="7.76"/>
      <path class="cls-1" d="M300.69,80.61v6.91h-6.91v-6.91h6.91M301.54,79.76h-8.61v8.61h8.61v-8.61h0Z"/>
    </g>
    <g>
      <rect class="cls-2" x="305.55" y="80.19" width="7.76" height="7.76"/>
      <path class="cls-1" d="M312.89,80.61v6.91h-6.91v-6.91h6.91M313.74,79.76h-8.61v8.61h8.61v-8.61h0Z"/>
    </g>
    <g>
      <rect class="cls-2" x="281.23" y="67.92" width="7.76" height="7.76"/>
      <path class="cls-1" d="M288.57,68.34v6.91h-6.91v-6.91h6.91M289.42,67.49h-8.61v8.61h8.61v-8.61h0Z"/>
    </g>
    <g>
      <rect class="cls-2" x="281.16" y="80.19" width="7.76" height="7.76"/>
      <path class="cls-1" d="M288.49,80.61v6.91h-6.91v-6.91h6.91M289.34,79.76h-8.61v8.61h8.61v-8.61h0Z"/>
    </g>
    <g>
      <g>
        <rect class="cls-2" x="342.22" y="92.46" width="7.76" height="7.76"/>
        <path class="cls-1" d="M349.55,92.88v6.91h-6.91v-6.91h6.91M350.4,92.03h-8.61v8.61h8.61v-8.61h0Z"/>
      </g>
      <g>
        <rect class="cls-2" x="330.02" y="92.46" width="7.76" height="7.76"/>
        <path class="cls-1" d="M337.35,92.88v6.91h-6.91v-6.91h6.91M338.2,92.03h-8.61v8.61h8.61v-8.61h0Z"/>
      </g>
      <g>
        <rect class="cls-2" x="329.95" y="104.73" width="7.76" height="7.76"/>
        <path class="cls-1" d="M337.28,105.15v6.91h-6.91v-6.91h6.91M338.13,104.3h-8.61v8.61h8.61v-8.61h0Z"/>
      </g>
      <g>
        <rect class="cls-2" x="342.22" y="104.73" width="7.76" height="7.76"/>
        <path class="cls-1" d="M349.55,105.15v6.91h-6.91v-6.91h6.91M350.4,104.3h-8.61v8.61h8.61v-8.61h0Z"/>
      </g>
      <g>
        <rect class="cls-2" x="317.82" y="92.46" width="7.76" height="7.76"/>
        <path class="cls-1" d="M325.16,92.88v6.91h-6.91v-6.91h6.91M326.01,92.03h-8.61v8.61h8.61v-8.61h0Z"/>
      </g>
      <g>
        <rect class="cls-2" x="317.75" y="104.73" width="7.76" height="7.76"/>
        <path class="cls-1" d="M325.08,105.15v6.91h-6.91v-6.91h6.91M325.93,104.3h-8.61v8.61h8.61v-8.61h0Z"/>
      </g>
      <g>
        <rect class="cls-2" x="305.63" y="92.46" width="7.76" height="7.76"/>
        <path class="cls-1" d="M312.96,92.88v6.91h-6.91v-6.91h6.91M313.81,92.03h-8.61v8.61h8.61v-8.61h0Z"/>
      </g>
      <g>
        <rect class="cls-2" x="293.43" y="92.46" width="7.76" height="7.76"/>
        <path class="cls-1" d="M300.76,92.88v6.91h-6.91v-6.91h6.91M301.61,92.03h-8.61v8.61h8.61v-8.61h0Z"/>
      </g>
      <g>
        <rect class="cls-2" x="293.36" y="104.73" width="7.76" height="7.76"/>
        <path class="cls-1" d="M300.69,105.15v6.91h-6.91v-6.91h6.91M301.54,104.3h-8.61v8.61h8.61v-8.61h0Z"/>
      </g>
      <g>
        <rect class="cls-2" x="305.55" y="104.73" width="7.76" height="7.76"/>
        <path class="cls-1" d="M312.89,105.15v6.91h-6.91v-6.91h6.91M313.74,104.3h-8.61v8.61h8.61v-8.61h0Z"/>
      </g>
      <g>
        <rect class="cls-2" x="281.23" y="92.46" width="7.76" height="7.76"/>
        <path class="cls-1" d="M288.57,92.88v6.91h-6.91v-6.91h6.91M289.42,92.03h-8.61v8.61h8.61v-8.61h0Z"/>
      </g>
      <g>
        <rect class="cls-2" x="281.16" y="104.73" width="7.76" height="7.76"/>
        <path class="cls-1" d="M288.49,105.15v6.91h-6.91v-6.91h6.91M289.34,104.3h-8.61v8.61h8.61v-8.61h0Z"/>
      </g>
    </g>
    <g>
      <g>
        <rect class="cls-2" x="342.22" y="117" width="7.76" height="7.76"/>
        <path class="cls-1" d="M349.55,117.42v6.91h-6.91v-6.91h6.91M350.4,116.57h-8.61v8.61h8.61v-8.61h0Z"/>
      </g>
      <g>
        <rect class="cls-2" x="330.02" y="117" width="7.76" height="7.76"/>
        <path class="cls-1" d="M337.35,117.42v6.91h-6.91v-6.91h6.91M338.2,116.57h-8.61v8.61h8.61v-8.61h0Z"/>
      </g>
      <g>
        <rect class="cls-2" x="329.95" y="129.27" width="7.76" height="7.76"/>
        <path class="cls-1" d="M337.28,129.69v6.91h-6.91v-6.91h6.91M338.13,128.84h-8.61v8.61h8.61v-8.61h0Z"/>
      </g>
      <g>
        <rect class="cls-2" x="342.22" y="129.27" width="7.76" height="7.76"/>
        <path class="cls-1" d="M349.55,129.69v6.91h-6.91v-6.91h6.91M350.4,128.84h-8.61v8.61h8.61v-8.61h0Z"/>
      </g>
      <g>
        <rect class="cls-2" x="317.82" y="117" width="7.76" height="7.76"/>
        <path class="cls-1" d="M325.16,117.42v6.91h-6.91v-6.91h6.91M326.01,116.57h-8.61v8.61h8.61v-8.61h0Z"/>
      </g>
      <g>
        <rect class="cls-2" x="317.75" y="129.27" width="7.76" height="7.76"/>
        <path class="cls-1" d="M325.08,129.69v6.91h-6.91v-6.91h6.91M325.93,128.84h-8.61v8.61h8.61v-8.61h0Z"/>
      </g>
      <g>
        <rect class="cls-2" x="305.63" y="117" width="7.76" height="7.76"/>
        <path class="cls-1" d="M312.96,117.42v6.91h-6.91v-6.91h6.91M313.81,116.57h-8.61v8.61h8.61v-8.61h0Z"/>
      </g>
      <g>
        <rect class="cls-2" x="293.43" y="117" width="7.76" height="7.76"/>
        <path class="cls-1" d="M300.76,117.42v6.91h-6.91v-6.91h6.91M301.61,116.57h-8.61v8.61h8.61v-8.61h0Z"/>
      </g>
      <g>
        <rect class="cls-2" x="293.36" y="129.27" width="7.76" height="7.76"/>
        <path class="cls-1" d="M300.69,129.69v6.91h-6.91v-6.91h6.91M301.54,128.84h-8.61v8.61h8.61v-8.61h0Z"/>
      </g>
      <g>
        <rect class="cls-2" x="305.55" y="129.27" width="7.76" height="7.76"/>
        <path class="cls-1" d="M312.89,129.69v6.91h-6.91v-6.91h6.91M313.74,128.84h-8.61v8.61h8.61v-8.61h0Z"/>
      </g>
      <g>
        <rect class="cls-2" x="281.23" y="117" width="7.76" height="7.76"/>
        <path class="cls-1" d="M288.57,117.42v6.91h-6.91v-6.91h6.91M289.42,116.57h-8.61v8.61h8.61v-8.61h0Z"/>
      </g>
      <g>
        <rect class="cls-2" x="281.16" y="129.27" width="7.76" height="7.76"/>
        <path class="cls-1" d="M288.49,129.69v6.91h-6.91v-6.91h6.91M289.34,128.84h-8.61v8.61h8.61v-8.61h0Z"/>
      </g>
    </g>
    <g>
      <rect class="cls-2" x="493.22" y="182.02" width="12.92" height="12.92"/>
      <path class="cls-1" d="M505.72,182.44v12.07h-12.07v-12.07h12.07M506.57,181.59h-13.77v13.77h13.77v-13.77h0Z"/>
    </g>
    <g>
      <rect class="cls-2" x="473.71" y="182.02" width="12.92" height="12.92"/>
      <path class="cls-1" d="M486.21,182.44v12.07h-12.07v-12.07h12.07M487.06,181.59h-13.77v13.77h13.77v-13.77h0Z"/>
    </g>
    <g>
      <rect class="cls-2" x="473.59" y="201.65" width="12.92" height="12.92"/>
      <path class="cls-1" d="M486.09,202.08v12.07h-12.07v-12.07h12.07M486.94,201.23h-13.77v13.77h13.77v-13.77h0Z"/>
    </g>
    <g>
      <rect class="cls-2" x="493.22" y="201.65" width="12.92" height="12.92"/>
      <path class="cls-1" d="M505.72,202.08v12.07h-12.07v-12.07h12.07M506.57,201.23h-13.77v13.77h13.77v-13.77h0Z"/>
    </g>
    <g>
      <rect class="cls-2" x="454.19" y="182.02" width="12.92" height="12.92"/>
      <path class="cls-1" d="M466.69,182.44v12.07h-12.07v-12.07h12.07M467.54,181.59h-13.77v13.77h13.77v-13.77h0Z"/>
    </g>
    <g>
      <rect class="cls-2" x="454.08" y="201.65" width="12.92" height="12.92"/>
      <path class="cls-1" d="M466.57,202.08v12.07h-12.07v-12.07h12.07M467.42,201.23h-13.77v13.77h13.77v-13.77h0Z"/>
    </g>
    <g>
      <rect class="cls-2" x="434.68" y="182.02" width="12.92" height="12.92"/>
      <path class="cls-1" d="M447.18,182.44v12.07h-12.07v-12.07h12.07M448.03,181.59h-13.77v13.77h13.77v-13.77h0Z"/>
    </g>
    <g>
      <rect class="cls-2" x="415.16" y="182.02" width="12.92" height="12.92"/>
      <path class="cls-1" d="M427.66,182.44v12.07h-12.07v-12.07h12.07M428.51,181.59h-13.77v13.77h13.77v-13.77h0Z"/>
    </g>
    <g>
      <rect class="cls-2" x="415.05" y="201.65" width="12.92" height="12.92"/>
      <path class="cls-1" d="M427.54,202.08v12.07h-12.07v-12.07h12.07M428.39,201.23h-13.77v13.77h13.77v-13.77h0Z"/>
    </g>
    <g>
      <rect class="cls-2" x="434.56" y="201.65" width="12.92" height="12.92"/>
      <path class="cls-1" d="M447.06,202.08v12.07h-12.07v-12.07h12.07M447.91,201.23h-13.77v13.77h13.77v-13.77h0Z"/>
    </g>
    <g>
      <rect class="cls-2" x="395.65" y="182.02" width="12.92" height="12.92"/>
      <path class="cls-1" d="M408.15,182.44v12.07h-12.07v-12.07h12.07M409,181.59h-13.77v13.77h13.77v-13.77h0Z"/>
    </g>
    <g>
      <rect class="cls-2" x="395.53" y="201.65" width="12.92" height="12.92"/>
      <path class="cls-1" d="M408.03,202.08v12.07h-12.07v-12.07h12.07M408.88,201.23h-13.77v13.77h13.77v-13.77h0Z"/>
    </g>
    <g>
      <g>
        <rect class="cls-2" x="493.22" y="221.28" width="12.92" height="12.92"/>
        <path class="cls-1" d="M505.72,221.71v12.07h-12.07v-12.07h12.07M506.57,220.86h-13.77v13.77h13.77v-13.77h0Z"/>
      </g>
      <g>
        <rect class="cls-2" x="473.71" y="221.28" width="12.92" height="12.92"/>
        <path class="cls-1" d="M486.21,221.71v12.07h-12.07v-12.07h12.07M487.06,220.86h-13.77v13.77h13.77v-13.77h0Z"/>
      </g>
      <g>
        <rect class="cls-2" x="473.59" y="240.92" width="12.92" height="12.92"/>
        <path class="cls-1" d="M486.09,241.34v12.07h-12.07v-12.07h12.07M486.94,240.49h-13.77v13.77h13.77v-13.77h0Z"/>
      </g>
      <g>
        <rect class="cls-2" x="493.22" y="240.92" width="12.92" height="12.92"/>
        <path class="cls-1" d="M505.72,241.34v12.07h-12.07v-12.07h12.07M506.57,240.49h-13.77v13.77h13.77v-13.77h0Z"/>
      </g>
      <g>
        <rect class="cls-2" x="454.19" y="221.28" width="12.92" height="12.92"/>
        <path class="cls-1" d="M466.69,221.71v12.07h-12.07v-12.07h12.07M467.54,220.86h-13.77v13.77h13.77v-13.77h0Z"/>
      </g>
      <g>
        <rect class="cls-2" x="454.08" y="240.92" width="12.92" height="12.92"/>
        <path class="cls-1" d="M466.57,241.34v12.07h-12.07v-12.07h12.07M467.42,240.49h-13.77v13.77h13.77v-13.77h0Z"/>
      </g>
      <g>
        <rect class="cls-2" x="434.68" y="221.28" width="12.92" height="12.92"/>
        <path class="cls-1" d="M447.18,221.71v12.07h-12.07v-12.07h12.07M448.03,220.86h-13.77v13.77h13.77v-13.77h0Z"/>
      </g>
      <g>
        <rect class="cls-2" x="415.16" y="221.28" width="12.92" height="12.92"/>
        <path class="cls-1" d="M427.66,221.71v12.07h-12.07v-12.07h12.07M428.51,220.86h-13.77v13.77h13.77v-13.77h0Z"/>
      </g>
      <g>
        <rect class="cls-2" x="415.05" y="240.92" width="12.92" height="12.92"/>
        <path class="cls-1" d="M427.54,241.34v12.07h-12.07v-12.07h12.07M428.39,240.49h-13.77v13.77h13.77v-13.77h0Z"/>
      </g>
      <g>
        <rect class="cls-2" x="434.56" y="240.92" width="12.92" height="12.92"/>
        <path class="cls-1" d="M447.06,241.34v12.07h-12.07v-12.07h12.07M447.91,240.49h-13.77v13.77h13.77v-13.77h0Z"/>
      </g>
      <g>
        <rect class="cls-2" x="395.65" y="221.28" width="12.92" height="12.92"/>
        <path class="cls-1" d="M408.15,221.71v12.07h-12.07v-12.07h12.07M409,220.86h-13.77v13.77h13.77v-13.77h0Z"/>
      </g>
      <g>
        <rect class="cls-2" x="395.53" y="240.92" width="12.92" height="12.92"/>
        <path class="cls-1" d="M408.03,241.34v12.07h-12.07v-12.07h12.07M408.88,240.49h-13.77v13.77h13.77v-13.77h0Z"/>
      </g>
    </g>
    <g>
      <g>
        <rect class="cls-2" x="493.22" y="260.55" width="12.92" height="12.92"/>
        <path class="cls-1" d="M505.72,260.97v12.07h-12.07v-12.07h12.07M506.57,260.12h-13.77v13.77h13.77v-13.77h0Z"/>
      </g>
      <g>
        <rect class="cls-2" x="473.71" y="260.55" width="12.92" height="12.92"/>
        <path class="cls-1" d="M486.21,260.97v12.07h-12.07v-12.07h12.07M487.06,260.12h-13.77v13.77h13.77v-13.77h0Z"/>
      </g>
      <g>
        <rect class="cls-2" x="473.59" y="280.18" width="12.92" height="12.92"/>
        <path class="cls-1" d="M486.09,280.61v12.07h-12.07v-12.07h12.07M486.94,279.76h-13.77v13.77h13.77v-13.77h0Z"/>
      </g>
      <g>
        <rect class="cls-2" x="493.22" y="280.18" width="12.92" height="12.92"/>
        <path class="cls-1" d="M505.72,280.61v12.07h-12.07v-12.07h12.07M506.57,279.76h-13.77v13.77h13.77v-13.77h0Z"/>
      </g>
      <g>
        <rect class="cls-2" x="454.19" y="260.55" width="12.92" height="12.92"/>
        <path class="cls-1" d="M466.69,260.97v12.07h-12.07v-12.07h12.07M467.54,260.12h-13.77v13.77h13.77v-13.77h0Z"/>
      </g>
      <g>
        <rect class="cls-2" x="454.08" y="280.18" width="12.92" height="12.92"/>
        <path class="cls-1" d="M466.57,280.61v12.07h-12.07v-12.07h12.07M467.42,279.76h-13.77v13.77h13.77v-13.77h0Z"/>
      </g>
      <g>
        <rect class="cls-2" x="434.68" y="260.55" width="12.92" height="12.92"/>
        <path class="cls-1" d="M447.18,260.97v12.07h-12.07v-12.07h12.07M448.03,260.12h-13.77v13.77h13.77v-13.77h0Z"/>
      </g>
      <g>
        <rect class="cls-2" x="415.16" y="260.55" width="12.92" height="12.92"/>
        <path class="cls-1" d="M427.66,260.97v12.07h-12.07v-12.07h12.07M428.51,260.12h-13.77v13.77h13.77v-13.77h0Z"/>
      </g>
      <g>
        <rect class="cls-2" x="415.05" y="280.18" width="12.92" height="12.92"/>
        <path class="cls-1" d="M427.54,280.61v12.07h-12.07v-12.07h12.07M428.39,279.76h-13.77v13.77h13.77v-13.77h0Z"/>
      </g>
      <g>
        <rect class="cls-2" x="434.56" y="280.18" width="12.92" height="12.92"/>
        <path class="cls-1" d="M447.06,280.61v12.07h-12.07v-12.07h12.07M447.91,279.76h-13.77v13.77h13.77v-13.77h0Z"/>
      </g>
      <g>
        <rect class="cls-2" x="395.65" y="260.55" width="12.92" height="12.92"/>
        <path class="cls-1" d="M408.15,260.97v12.07h-12.07v-12.07h12.07M409,260.12h-13.77v13.77h13.77v-13.77h0Z"/>
      </g>
      <g>
        <rect class="cls-2" x="395.53" y="280.18" width="12.92" height="12.92"/>
        <path class="cls-1" d="M408.03,280.61v12.07h-12.07v-12.07h12.07M408.88,279.76h-13.77v13.77h13.77v-13.77h0Z"/>
      </g>
    </g>
    <g>
      <rect class="cls-2" x="227.48" y="182.4" width="7.76" height="7.76"/>
      <path class="cls-1" d="M234.81,182.82v6.91h-6.91v-6.91h6.91M235.66,181.97h-8.61v8.61h8.61v-8.61h0Z"/>
    </g>
    <g>
      <rect class="cls-2" x="215.28" y="182.4" width="7.76" height="7.76"/>
      <path class="cls-1" d="M222.62,182.82v6.91h-6.91v-6.91h6.91M223.47,181.97h-8.61v8.61h8.61v-8.61h0Z"/>
    </g>
    <g>
      <rect class="cls-2" x="215.21" y="194.67" width="7.76" height="7.76"/>
      <path class="cls-1" d="M222.54,195.09v6.91h-6.91v-6.91h6.91M223.39,194.24h-8.61v8.61h8.61v-8.61h0Z"/>
    </g>
    <g>
      <rect class="cls-2" x="227.48" y="194.67" width="7.76" height="7.76"/>
      <path class="cls-1" d="M234.81,195.09v6.91h-6.91v-6.91h6.91M235.66,194.24h-8.61v8.61h8.61v-8.61h0Z"/>
    </g>
    <g>
      <rect class="cls-2" x="203.09" y="182.4" width="7.76" height="7.76"/>
      <path class="cls-1" d="M210.42,182.82v6.91h-6.91v-6.91h6.91M211.27,181.97h-8.61v8.61h8.61v-8.61h0Z"/>
    </g>
    <g>
      <rect class="cls-2" x="203.01" y="194.67" width="7.76" height="7.76"/>
      <path class="cls-1" d="M210.35,195.09v6.91h-6.91v-6.91h6.91M211.2,194.24h-8.61v8.61h8.61v-8.61h0Z"/>
    </g>
    <g>
      <rect class="cls-2" x="190.89" y="182.4" width="7.76" height="7.76"/>
      <path class="cls-1" d="M198.22,182.82v6.91h-6.91v-6.91h6.91M199.07,181.97h-8.61v8.61h8.61v-8.61h0Z"/>
    </g>
    <g>
      <rect class="cls-2" x="178.69" y="182.4" width="7.76" height="7.76"/>
      <path class="cls-1" d="M186.03,182.82v6.91h-6.91v-6.91h6.91M186.88,181.97h-8.61v8.61h8.61v-8.61h0Z"/>
    </g>
    <g>
      <rect class="cls-2" x="178.62" y="194.67" width="7.76" height="7.76"/>
      <path class="cls-1" d="M185.95,195.09v6.91h-6.91v-6.91h6.91M186.8,194.24h-8.61v8.61h8.61v-8.61h0Z"/>
    </g>
    <g>
      <rect class="cls-2" x="190.82" y="194.67" width="7.76" height="7.76"/>
      <path class="cls-1" d="M198.15,195.09v6.91h-6.91v-6.91h6.91M199,194.24h-8.61v8.61h8.61v-8.61h0Z"/>
    </g>
    <g>
      <rect class="cls-2" x="166.5" y="182.4" width="7.76" height="7.76"/>
      <path class="cls-1" d="M173.83,182.82v6.91h-6.91v-6.91h6.91M174.68,181.97h-8.61v8.61h8.61v-8.61h0Z"/>
    </g>
    <g>
      <rect class="cls-2" x="166.42" y="194.67" width="7.76" height="7.76"/>
      <path class="cls-1" d="M173.76,195.09v6.91h-6.91v-6.91h6.91M174.61,194.24h-8.61v8.61h8.61v-8.61h0Z"/>
    </g>
    <g>
      <g>
        <rect class="cls-2" x="227.48" y="206.94" width="7.76" height="7.76"/>
        <path class="cls-1" d="M234.81,207.36v6.91h-6.91v-6.91h6.91M235.66,206.51h-8.61v8.61h8.61v-8.61h0Z"/>
      </g>
      <g>
        <rect class="cls-2" x="215.28" y="206.94" width="7.76" height="7.76"/>
        <path class="cls-1" d="M222.62,207.36v6.91h-6.91v-6.91h6.91M223.47,206.51h-8.61v8.61h8.61v-8.61h0Z"/>
      </g>
      <g>
        <rect class="cls-2" x="215.21" y="219.21" width="7.76" height="7.76"/>
        <path class="cls-1" d="M222.54,219.63v6.91h-6.91v-6.91h6.91M223.39,218.78h-8.61v8.61h8.61v-8.61h0Z"/>
      </g>
      <g>
        <rect class="cls-2" x="227.48" y="219.21" width="7.76" height="7.76"/>
        <path class="cls-1" d="M234.81,219.63v6.91h-6.91v-6.91h6.91M235.66,218.78h-8.61v8.61h8.61v-8.61h0Z"/>
      </g>
      <g>
        <rect class="cls-2" x="203.09" y="206.94" width="7.76" height="7.76"/>
        <path class="cls-1" d="M210.42,207.36v6.91h-6.91v-6.91h6.91M211.27,206.51h-8.61v8.61h8.61v-8.61h0Z"/>
      </g>
      <g>
        <rect class="cls-2" x="203.01" y="219.21" width="7.76" height="7.76"/>
        <path class="cls-1" d="M210.35,219.63v6.91h-6.91v-6.91h6.91M211.2,218.78h-8.61v8.61h8.61v-8.61h0Z"/>
      </g>
      <g>
        <rect class="cls-2" x="190.89" y="206.94" width="7.76" height="7.76"/>
        <path class="cls-1" d="M198.22,207.36v6.91h-6.91v-6.91h6.91M199.07,206.51h-8.61v8.61h8.61v-8.61h0Z"/>
      </g>
      <g>
        <rect class="cls-2" x="178.69" y="206.94" width="7.76" height="7.76"/>
        <path class="cls-1" d="M186.03,207.36v6.91h-6.91v-6.91h6.91M186.88,206.51h-8.61v8.61h8.61v-8.61h0Z"/>
      </g>
      <g>
        <rect class="cls-2" x="178.62" y="219.21" width="7.76" height="7.76"/>
        <path class="cls-1" d="M185.95,219.63v6.91h-6.91v-6.91h6.91M186.8,218.78h-8.61v8.61h8.61v-8.61h0Z"/>
      </g>
      <g>
        <rect class="cls-2" x="190.82" y="219.21" width="7.76" height="7.76"/>
        <path class="cls-1" d="M198.15,219.63v6.91h-6.91v-6.91h6.91M199,218.78h-8.61v8.61h8.61v-8.61h0Z"/>
      </g>
      <g>
        <rect class="cls-2" x="166.5" y="206.94" width="7.76" height="7.76"/>
        <path class="cls-1" d="M173.83,207.36v6.91h-6.91v-6.91h6.91M174.68,206.51h-8.61v8.61h8.61v-8.61h0Z"/>
      </g>
      <g>
        <rect class="cls-2" x="166.42" y="219.21" width="7.76" height="7.76"/>
        <path class="cls-1" d="M173.76,219.63v6.91h-6.91v-6.91h6.91M174.61,218.78h-8.61v8.61h8.61v-8.61h0Z"/>
      </g>
    </g>
    <g>
      <g>
        <rect class="cls-2" x="227.48" y="231.48" width="7.76" height="7.76"/>
        <path class="cls-1" d="M234.81,231.9v6.91h-6.91v-6.91h6.91M235.66,231.05h-8.61v8.61h8.61v-8.61h0Z"/>
      </g>
      <g>
        <rect class="cls-2" x="215.28" y="231.48" width="7.76" height="7.76"/>
        <path class="cls-1" d="M222.62,231.9v6.91h-6.91v-6.91h6.91M223.47,231.05h-8.61v8.61h8.61v-8.61h0Z"/>
      </g>
      <g>
        <rect class="cls-2" x="215.21" y="243.75" width="7.76" height="7.76"/>
        <path class="cls-1" d="M222.54,244.17v6.91h-6.91v-6.91h6.91M223.39,243.32h-8.61v8.61h8.61v-8.61h0Z"/>
      </g>
      <g>
        <rect class="cls-2" x="227.48" y="243.75" width="7.76" height="7.76"/>
        <path class="cls-1" d="M234.81,244.17v6.91h-6.91v-6.91h6.91M235.66,243.32h-8.61v8.61h8.61v-8.61h0Z"/>
      </g>
      <g>
        <rect class="cls-2" x="203.09" y="231.48" width="7.76" height="7.76"/>
        <path class="cls-1" d="M210.42,231.9v6.91h-6.91v-6.91h6.91M211.27,231.05h-8.61v8.61h8.61v-8.61h0Z"/>
      </g>
      <g>
        <rect class="cls-2" x="203.01" y="243.75" width="7.76" height="7.76"/>
        <path class="cls-1" d="M210.35,244.17v6.91h-6.91v-6.91h6.91M211.2,243.32h-8.61v8.61h8.61v-8.61h0Z"/>
      </g>
      <g>
        <rect class="cls-2" x="190.89" y="231.48" width="7.76" height="7.76"/>
        <path class="cls-1" d="M198.22,231.9v6.91h-6.91v-6.91h6.91M199.07,231.05h-8.61v8.61h8.61v-8.61h0Z"/>
      </g>
      <g>
        <rect class="cls-2" x="178.69" y="231.48" width="7.76" height="7.76"/>
        <path class="cls-1" d="M186.03,231.9v6.91h-6.91v-6.91h6.91M186.88,231.05h-8.61v8.61h8.61v-8.61h0Z"/>
      </g>
      <g>
        <rect class="cls-2" x="178.62" y="243.75" width="7.76" height="7.76"/>
        <path class="cls-1" d="M185.95,244.17v6.91h-6.91v-6.91h6.91M186.8,243.32h-8.61v8.61h8.61v-8.61h0Z"/>
      </g>
      <g>
        <rect class="cls-2" x="190.82" y="243.75" width="7.76" height="7.76"/>
        <path class="cls-1" d="M198.15,244.17v6.91h-6.91v-6.91h6.91M199,243.32h-8.61v8.61h8.61v-8.61h0Z"/>
      </g>
      <g>
        <rect class="cls-2" x="166.5" y="231.48" width="7.76" height="7.76"/>
        <path class="cls-1" d="M173.83,231.9v6.91h-6.91v-6.91h6.91M174.68,231.05h-8.61v8.61h8.61v-8.61h0Z"/>
      </g>
      <g>
        <rect class="cls-2" x="166.42" y="243.75" width="7.76" height="7.76"/>
        <path class="cls-1" d="M173.76,244.17v6.91h-6.91v-6.91h6.91M174.61,243.32h-8.61v8.61h8.61v-8.61h0Z"/>
      </g>
    </g>
    <g>
      <g>
        <rect class="cls-2" x="227.48" y="256.02" width="7.76" height="7.76"/>
        <path class="cls-1" d="M234.81,256.44v6.91h-6.91v-6.91h6.91M235.66,255.59h-8.61v8.61h8.61v-8.61h0Z"/>
      </g>
      <g>
        <rect class="cls-2" x="215.28" y="256.02" width="7.76" height="7.76"/>
        <path class="cls-1" d="M222.62,256.44v6.91h-6.91v-6.91h6.91M223.47,255.59h-8.61v8.61h8.61v-8.61h0Z"/>
      </g>
      <g>
        <rect class="cls-2" x="215.21" y="268.29" width="7.76" height="7.76"/>
        <path class="cls-1" d="M222.54,268.71v6.91h-6.91v-6.91h6.91M223.39,267.86h-8.61v8.61h8.61v-8.61h0Z"/>
      </g>
      <g>
        <rect class="cls-2" x="227.48" y="268.29" width="7.76" height="7.76"/>
        <path class="cls-1" d="M234.81,268.71v6.91h-6.91v-6.91h6.91M235.66,267.86h-8.61v8.61h8.61v-8.61h0Z"/>
      </g>
      <g>
        <rect class="cls-2" x="203.09" y="256.02" width="7.76" height="7.76"/>
        <path class="cls-1" d="M210.42,256.44v6.91h-6.91v-6.91h6.91M211.27,255.59h-8.61v8.61h8.61v-8.61h0Z"/>
      </g>
      <g>
        <rect class="cls-2" x="203.01" y="268.29" width="7.76" height="7.76"/>
        <path class="cls-1" d="M210.35,268.71v6.91h-6.91v-6.91h6.91M211.2,267.86h-8.61v8.61h8.61v-8.61h0Z"/>
      </g>
      <g>
        <rect class="cls-2" x="190.89" y="256.02" width="7.76" height="7.76"/>
        <path class="cls-1" d="M198.22,256.44v6.91h-6.91v-6.91h6.91M199.07,255.59h-8.61v8.61h8.61v-8.61h0Z"/>
      </g>
      <g>
        <rect class="cls-2" x="178.69" y="256.02" width="7.76" height="7.76"/>
        <path class="cls-1" d="M186.03,256.44v6.91h-6.91v-6.91h6.91M186.88,255.59h-8.61v8.61h8.61v-8.61h0Z"/>
      </g>
      <g>
        <rect class="cls-2" x="178.62" y="268.29" width="7.76" height="7.76"/>
        <path class="cls-1" d="M185.95,268.71v6.91h-6.91v-6.91h6.91M186.8,267.86h-8.61v8.61h8.61v-8.61h0Z"/>
      </g>
      <g>
        <rect class="cls-2" x="190.82" y="268.29" width="7.76" height="7.76"/>
        <path class="cls-1" d="M198.15,268.71v6.91h-6.91v-6.91h6.91M199,267.86h-8.61v8.61h8.61v-8.61h0Z"/>
      </g>
      <g>
        <rect class="cls-2" x="166.5" y="256.02" width="7.76" height="7.76"/>
        <path class="cls-1" d="M173.83,256.44v6.91h-6.91v-6.91h6.91M174.68,255.59h-8.61v8.61h8.61v-8.61h0Z"/>
      </g>
      <g>
        <rect class="cls-2" x="166.42" y="268.29" width="7.76" height="7.76"/>
        <path class="cls-1" d="M173.76,268.71v6.91h-6.91v-6.91h6.91M174.61,267.86h-8.61v8.61h8.61v-8.61h0Z"/>
      </g>
    </g>
    <g>
      <g>
        <rect class="cls-2" x="227.41" y="280.56" width="7.76" height="7.76"/>
        <path class="cls-1" d="M234.74,280.98v6.91h-6.91v-6.91h6.91M235.59,280.13h-8.61v8.61h8.61v-8.61h0Z"/>
      </g>
      <g>
        <rect class="cls-2" x="215.21" y="280.56" width="7.76" height="7.76"/>
        <path class="cls-1" d="M222.54,280.98v6.91h-6.91v-6.91h6.91M223.39,280.13h-8.61v8.61h8.61v-8.61h0Z"/>
      </g>
      <g>
        <rect class="cls-2" x="215.14" y="292.83" width="7.76" height="7.76"/>
        <path class="cls-1" d="M222.47,293.25v6.91h-6.91v-6.91h6.91M223.32,292.4h-8.61v8.61h8.61v-8.61h0Z"/>
      </g>
      <g>
        <rect class="cls-2" x="227.41" y="292.83" width="7.76" height="7.76"/>
        <path class="cls-1" d="M234.74,293.25v6.91h-6.91v-6.91h6.91M235.59,292.4h-8.61v8.61h8.61v-8.61h0Z"/>
      </g>
      <g>
        <rect class="cls-2" x="203.01" y="280.56" width="7.76" height="7.76"/>
        <path class="cls-1" d="M210.35,280.98v6.91h-6.91v-6.91h6.91M211.2,280.13h-8.61v8.61h8.61v-8.61h0Z"/>
      </g>
      <g>
        <rect class="cls-2" x="202.94" y="292.83" width="7.76" height="7.76"/>
        <path class="cls-1" d="M210.27,293.25v6.91h-6.91v-6.91h6.91M211.12,292.4h-8.61v8.61h8.61v-8.61h0Z"/>
      </g>
      <g>
        <rect class="cls-2" x="190.82" y="280.56" width="7.76" height="7.76"/>
        <path class="cls-1" d="M198.15,280.98v6.91h-6.91v-6.91h6.91M199,280.13h-8.61v8.61h8.61v-8.61h0Z"/>
      </g>
      <g>
        <rect class="cls-2" x="178.62" y="280.56" width="7.76" height="7.76"/>
        <path class="cls-1" d="M185.95,280.98v6.91h-6.91v-6.91h6.91M186.8,280.13h-8.61v8.61h8.61v-8.61h0Z"/>
      </g>
      <g>
        <rect class="cls-2" x="178.55" y="292.83" width="7.76" height="7.76"/>
        <path class="cls-1" d="M185.88,293.25v6.91h-6.91v-6.91h6.91M186.73,292.4h-8.61v8.61h8.61v-8.61h0Z"/>
      </g>
      <g>
        <rect class="cls-2" x="190.74" y="292.83" width="7.76" height="7.76"/>
        <path class="cls-1" d="M198.08,293.25v6.91h-6.91v-6.91h6.91M198.93,292.4h-8.61v8.61h8.61v-8.61h0Z"/>
      </g>
      <g>
        <rect class="cls-2" x="166.42" y="280.56" width="7.76" height="7.76"/>
        <path class="cls-1" d="M173.76,280.98v6.91h-6.91v-6.91h6.91M174.61,280.13h-8.61v8.61h8.61v-8.61h0Z"/>
      </g>
      <g>
        <rect class="cls-2" x="166.35" y="292.83" width="7.76" height="7.76"/>
        <path class="cls-1" d="M173.68,293.25v6.91h-6.91v-6.91h6.91M174.53,292.4h-8.61v8.61h8.61v-8.61h0Z"/>
      </g>
    </g>
    <g>
      <rect class="cls-2" x="154.21" y="182.4" width="7.76" height="7.76"/>
      <path class="cls-1" d="M161.55,182.82v6.91h-6.91v-6.91h6.91M162.4,181.97h-8.61v8.61h8.61v-8.61h0Z"/>
    </g>
    <g>
      <rect class="cls-2" x="142.02" y="182.4" width="7.76" height="7.76"/>
      <path class="cls-1" d="M149.35,182.82v6.91h-6.91v-6.91h6.91M150.2,181.97h-8.61v8.61h8.61v-8.61h0Z"/>
    </g>
    <g>
      <rect class="cls-2" x="141.94" y="194.67" width="7.76" height="7.76"/>
      <path class="cls-1" d="M149.28,195.09v6.91h-6.91v-6.91h6.91M150.13,194.24h-8.61v8.61h8.61v-8.61h0Z"/>
    </g>
    <g>
      <rect class="cls-2" x="154.21" y="194.67" width="7.76" height="7.76"/>
      <path class="cls-1" d="M161.55,195.09v6.91h-6.91v-6.91h6.91M162.4,194.24h-8.61v8.61h8.61v-8.61h0Z"/>
    </g>
    <g>
      <rect class="cls-2" x="129.82" y="182.4" width="7.76" height="7.76"/>
      <path class="cls-1" d="M137.15,182.82v6.91h-6.91v-6.91h6.91M138,181.97h-8.61v8.61h8.61v-8.61h0Z"/>
    </g>
    <g>
      <rect class="cls-2" x="129.75" y="194.67" width="7.76" height="7.76"/>
      <path class="cls-1" d="M137.08,195.09v6.91h-6.91v-6.91h6.91M137.93,194.24h-8.61v8.61h8.61v-8.61h0Z"/>
    </g>
    <g>
      <rect class="cls-2" x="117.62" y="182.4" width="7.76" height="7.76"/>
      <path class="cls-1" d="M124.96,182.82v6.91h-6.91v-6.91h6.91M125.81,181.97h-8.61v8.61h8.61v-8.61h0Z"/>
    </g>
    <g>
      <rect class="cls-2" x="117.55" y="194.67" width="7.76" height="7.76"/>
      <path class="cls-1" d="M124.88,195.09v6.91h-6.91v-6.91h6.91M125.73,194.24h-8.61v8.61h8.61v-8.61h0Z"/>
    </g>
    <g>
      <rect class="cls-2" x="154.21" y="206.94" width="7.76" height="7.76"/>
      <path class="cls-1" d="M161.55,207.36v6.91h-6.91v-6.91h6.91M162.4,206.51h-8.61v8.61h8.61v-8.61h0Z"/>
    </g>
    <g>
      <rect class="cls-2" x="142.02" y="206.94" width="7.76" height="7.76"/>
      <path class="cls-1" d="M149.35,207.36v6.91h-6.91v-6.91h6.91M150.2,206.51h-8.61v8.61h8.61v-8.61h0Z"/>
    </g>
    <g>
      <rect class="cls-2" x="141.94" y="219.21" width="7.76" height="7.76"/>
      <path class="cls-1" d="M149.28,219.63v6.91h-6.91v-6.91h6.91M150.13,218.78h-8.61v8.61h8.61v-8.61h0Z"/>
    </g>
    <g>
      <rect class="cls-2" x="154.21" y="219.21" width="7.76" height="7.76"/>
      <path class="cls-1" d="M161.55,219.63v6.91h-6.91v-6.91h6.91M162.4,218.78h-8.61v8.61h8.61v-8.61h0Z"/>
    </g>
    <g>
      <rect class="cls-2" x="129.82" y="206.94" width="7.76" height="7.76"/>
      <path class="cls-1" d="M137.15,207.36v6.91h-6.91v-6.91h6.91M138,206.51h-8.61v8.61h8.61v-8.61h0Z"/>
    </g>
    <g>
      <rect class="cls-2" x="129.75" y="219.21" width="7.76" height="7.76"/>
      <path class="cls-1" d="M137.08,219.63v6.91h-6.91v-6.91h6.91M137.93,218.78h-8.61v8.61h8.61v-8.61h0Z"/>
    </g>
    <g>
      <rect class="cls-2" x="117.62" y="206.94" width="7.76" height="7.76"/>
      <path class="cls-1" d="M124.96,207.36v6.91h-6.91v-6.91h6.91M125.81,206.51h-8.61v8.61h8.61v-8.61h0Z"/>
    </g>
    <g>
      <rect class="cls-2" x="117.55" y="219.21" width="7.76" height="7.76"/>
      <path class="cls-1" d="M124.88,219.63v6.91h-6.91v-6.91h6.91M125.73,218.78h-8.61v8.61h8.61v-8.61h0Z"/>
    </g>
    <g>
      <rect class="cls-2" x="154.21" y="231.48" width="7.76" height="7.76"/>
      <path class="cls-1" d="M161.55,231.9v6.91h-6.91v-6.91h6.91M162.4,231.05h-8.61v8.61h8.61v-8.61h0Z"/>
    </g>
    <g>
      <rect class="cls-2" x="142.02" y="231.48" width="7.76" height="7.76"/>
      <path class="cls-1" d="M149.35,231.9v6.91h-6.91v-6.91h6.91M150.2,231.05h-8.61v8.61h8.61v-8.61h0Z"/>
    </g>
    <g>
      <rect class="cls-2" x="141.94" y="243.75" width="7.76" height="7.76"/>
      <path class="cls-1" d="M149.28,244.17v6.91h-6.91v-6.91h6.91M150.13,243.32h-8.61v8.61h8.61v-8.61h0Z"/>
    </g>
    <g>
      <rect class="cls-2" x="154.21" y="243.75" width="7.76" height="7.76"/>
      <path class="cls-1" d="M161.55,244.17v6.91h-6.91v-6.91h6.91M162.4,243.32h-8.61v8.61h8.61v-8.61h0Z"/>
    </g>
    <g>
      <rect class="cls-2" x="129.82" y="231.48" width="7.76" height="7.76"/>
      <path class="cls-1" d="M137.15,231.9v6.91h-6.91v-6.91h6.91M138,231.05h-8.61v8.61h8.61v-8.61h0Z"/>
    </g>
    <g>
      <rect class="cls-2" x="129.75" y="243.75" width="7.76" height="7.76"/>
      <path class="cls-1" d="M137.08,244.17v6.91h-6.91v-6.91h6.91M137.93,243.32h-8.61v8.61h8.61v-8.61h0Z"/>
    </g>
    <g>
      <rect class="cls-2" x="117.62" y="231.48" width="7.76" height="7.76"/>
      <path class="cls-1" d="M124.96,231.9v6.91h-6.91v-6.91h6.91M125.81,231.05h-8.61v8.61h8.61v-8.61h0Z"/>
    </g>
    <g>
      <rect class="cls-2" x="117.55" y="243.75" width="7.76" height="7.76"/>
      <path class="cls-1" d="M124.88,244.17v6.91h-6.91v-6.91h6.91M125.73,243.32h-8.61v8.61h8.61v-8.61h0Z"/>
    </g>
    <g>
      <rect class="cls-2" x="154.21" y="256.02" width="7.76" height="7.76"/>
      <path class="cls-1" d="M161.55,256.44v6.91h-6.91v-6.91h6.91M162.4,255.59h-8.61v8.61h8.61v-8.61h0Z"/>
    </g>
    <g>
      <rect class="cls-2" x="142.02" y="256.02" width="7.76" height="7.76"/>
      <path class="cls-1" d="M149.35,256.44v6.91h-6.91v-6.91h6.91M150.2,255.59h-8.61v8.61h8.61v-8.61h0Z"/>
    </g>
    <g>
      <rect class="cls-2" x="141.94" y="268.29" width="7.76" height="7.76"/>
      <path class="cls-1" d="M149.28,268.71v6.91h-6.91v-6.91h6.91M150.13,267.86h-8.61v8.61h8.61v-8.61h0Z"/>
    </g>
    <g>
      <rect class="cls-2" x="154.21" y="268.29" width="7.76" height="7.76"/>
      <path class="cls-1" d="M161.55,268.71v6.91h-6.91v-6.91h6.91M162.4,267.86h-8.61v8.61h8.61v-8.61h0Z"/>
    </g>
    <g>
      <rect class="cls-2" x="129.82" y="256.02" width="7.76" height="7.76"/>
      <path class="cls-1" d="M137.15,256.44v6.91h-6.91v-6.91h6.91M138,255.59h-8.61v8.61h8.61v-8.61h0Z"/>
    </g>
    <g>
      <rect class="cls-2" x="129.75" y="268.29" width="7.76" height="7.76"/>
      <path class="cls-1" d="M137.08,268.71v6.91h-6.91v-6.91h6.91M137.93,267.86h-8.61v8.61h8.61v-8.61h0Z"/>
    </g>
    <g>
      <rect class="cls-2" x="117.62" y="256.02" width="7.76" height="7.76"/>
      <path class="cls-1" d="M124.96,256.44v6.91h-6.91v-6.91h6.91M125.81,255.59h-8.61v8.61h8.61v-8.61h0Z"/>
    </g>
    <g>
      <rect class="cls-2" x="117.55" y="268.29" width="7.76" height="7.76"/>
      <path class="cls-1" d="M124.88,268.71v6.91h-6.91v-6.91h6.91M125.73,267.86h-8.61v8.61h8.61v-8.61h0Z"/>
    </g>
    <g>
      <rect class="cls-2" x="154.14" y="280.56" width="7.76" height="7.76"/>
      <path class="cls-1" d="M161.47,280.98v6.91h-6.91v-6.91h6.91M162.32,280.13h-8.61v8.61h8.61v-8.61h0Z"/>
    </g>
    <g>
      <rect class="cls-2" x="141.94" y="280.56" width="7.76" height="7.76"/>
      <path class="cls-1" d="M149.28,280.98v6.91h-6.91v-6.91h6.91M150.13,280.13h-8.61v8.61h8.61v-8.61h0Z"/>
    </g>
    <g>
      <rect class="cls-2" x="141.87" y="292.83" width="7.76" height="7.76"/>
      <path class="cls-1" d="M149.2,293.25v6.91h-6.91v-6.91h6.91M150.05,292.4h-8.61v8.61h8.61v-8.61h0Z"/>
    </g>
    <g>
      <rect class="cls-2" x="154.14" y="292.83" width="7.76" height="7.76"/>
      <path class="cls-1" d="M161.47,293.25v6.91h-6.91v-6.91h6.91M162.32,292.4h-8.61v8.61h8.61v-8.61h0Z"/>
    </g>
    <g>
      <rect class="cls-2" x="129.75" y="280.56" width="7.76" height="7.76"/>
      <path class="cls-1" d="M137.08,280.98v6.91h-6.91v-6.91h6.91M137.93,280.13h-8.61v8.61h8.61v-8.61h0Z"/>
    </g>
    <g>
      <rect class="cls-2" x="129.67" y="292.83" width="7.76" height="7.76"/>
      <path class="cls-1" d="M137.01,293.25v6.91h-6.91v-6.91h6.91M137.86,292.4h-8.61v8.61h8.61v-8.61h0Z"/>
    </g>
    <g>
      <rect class="cls-2" x="117.55" y="280.56" width="7.76" height="7.76"/>
      <path class="cls-1" d="M124.88,280.98v6.91h-6.91v-6.91h6.91M125.73,280.13h-8.61v8.61h8.61v-8.61h0Z"/>
    </g>
    <g>
      <rect class="cls-2" x="117.48" y="292.83" width="7.76" height="7.76"/>
      <path class="cls-1" d="M124.81,293.25v6.91h-6.91v-6.91h6.91M125.66,292.4h-8.61v8.61h8.61v-8.61h0Z"/>
    </g>
  </g>
</svg>